<svg width="445" height="289" viewBox="0 0 445 289" fill="none" xmlns="http://www.w3.org/2000/svg">
<mask id="mask0_55534_523336" style="mask-type:alpha" maskUnits="userSpaceOnUse" x="0" y="0" width="445" height="289">
<path d="M0 16C0 7.16344 7.16344 0 16 0H429C437.837 0 445 7.16344 445 16V273C445 281.837 437.837 289 429 289H16C7.16345 289 0 281.837 0 273V16Z" fill="#C4C4C4"/>
</mask>
<g mask="url(#mask0_55534_523336)">
<mask id="mask1_55534_523336" style="mask-type:alpha" maskUnits="userSpaceOnUse" x="-54" y="-132" width="550" height="545">
<path d="M438.226 298.103C539.007 125.831 489.388 4.89308 418.563 -63.1517C229.171 -245.111 -124.443 -39.8101 -40.9058 263.424C7.50292 439.144 337.446 470.375 438.226 298.103Z" fill="#E6F8FF"/>
</mask>
<g mask="url(#mask1_55534_523336)">
<path d="M-79.1007 105.973C-66.8432 209.216 -73.4525 256.395 -45.527 348.447C-15.3752 447.838 21.7075 452.467 122.808 427.462C173.221 405.799 213.238 405.47 262.221 414.097C458.056 422.052 458.18 387.602 493.307 234.435C558.562 -50.1104 486.062 -76.7672 410.45 -142.828C289.789 -248.249 -107.391 -132.314 -79.1007 105.973Z" fill="url(#paint0_linear_55534_523336)"/>
<path opacity="0.29" d="M180.047 71.9366C180.047 71.9366 264.216 73.9109 327.522 71.9366C390.827 69.9623 383.808 85.6779 423.576 85.7569C471.985 85.8359 549.337 87.6127 537.054 78.7546C529.013 72.9633 486.172 71.7655 486.172 71.7655C486.172 71.7655 493.457 69.6201 493.457 65.1844C493.457 60.7488 477.336 52.9041 472.134 53.7728C466.932 54.6415 457.058 44.125 451.341 37.9782C445.624 31.8315 429.503 25.053 417.54 32.3975C405.576 39.742 414.942 45.0068 412.345 47.6393C409.748 50.2717 392.067 50.2717 381.663 50.2717C371.259 50.2717 349.429 45.0068 348.392 51.1404C347.355 57.274 251.16 55.5366 250.123 61.6702C249.086 67.8037 180.047 71.9366 180.047 71.9366Z" fill="white"/>
<path opacity="0.35" d="M188.756 -6.55481C188.756 -6.55481 182.772 -8.30224 170.459 -5.73528C158.147 -3.16832 157.055 -7.44207 136.175 -11.0656C115.295 -14.6892 112.931 -10.0158 112.931 -10.0158C112.931 -10.0158 92.9143 -19.051 80.5969 -17.1477C68.2794 -15.2445 63.512 -7.29984 57.2536 -0.12726C57.2536 -0.12726 39.7997 -4.86834 27.0883 1.22734C14.3769 7.32302 27.3226 10.7976 27.3226 10.7976L-11.2454 12.5314C-11.2454 12.5314 -39.7651 20.3881 -17.9577 21.4989C-17.9577 21.4989 10.7913 22.9686 40.044 25.014C69.2967 27.0595 87.9175 18.8235 104.329 22.122C120.741 25.4204 125.189 24.2622 140.942 21.3769C156.696 18.4917 178.174 26.3957 200.281 20.5777C222.387 14.7598 293.439 23.4088 284.403 18.2682C275.367 13.1275 243.821 18.5594 244.693 13.8115C244.693 13.8115 257.45 9.12463 244.065 8.39315C230.68 7.66167 250.004 4.38355 231.508 -0.960331C213.012 -6.30421 211.062 -5.54564 207.073 -6.04007C203.083 -6.53449 192.426 -14.2083 189.12 -10.6118C185.814 -7.01537 188.756 -6.55481 188.756 -6.55481Z" fill="white"/>
<path opacity="0.46" d="M-115.249 44.6664C-115.249 44.6664 -17.4962 30.5393 17.7974 44.6664C17.7974 44.6664 37.7099 54.7572 6.03084 57.7844C6.03084 57.7844 85.6812 61.8207 104.689 65.857C123.696 69.8933 104.689 74.8782 104.689 74.8782C104.689 74.8782 179.807 75.9343 177.997 81.9888C176.187 88.0433 39.5202 79.9706 56.7114 88.0433C73.9026 96.1159 110.113 87.0342 120.975 94.0977C131.836 101.161 28.6528 106.207 5.11971 104.189C-18.4134 102.17 -94.4432 115.288 -115.255 115.288C-136.067 115.288 -115.249 44.6664 -115.249 44.6664Z" fill="white"/>
<path fill-rule="evenodd" clip-rule="evenodd" d="M448.694 74.5408C448.694 73.4362 447.798 72.5408 446.694 72.5408H445.498C444.393 72.5408 443.498 71.6453 443.498 70.5408V62.3484C443.498 61.2438 442.602 60.3484 441.498 60.3484H439.003C437.898 60.3484 437.003 59.453 437.003 58.3484V47.2629C437.003 46.1583 436.108 45.2629 435.003 45.2629H428.838H427.91H421.745C420.64 45.2629 419.745 46.1583 419.745 47.2629V58.3484C419.745 59.453 418.85 60.3484 417.745 60.3484H415.436C414.331 60.3484 413.436 61.2438 413.436 62.3484V70.5408C413.436 71.6453 412.54 72.5408 411.436 72.5408H406.343C405.238 72.5408 404.343 73.4362 404.343 74.5408V86.0769C404.343 87.1668 403.47 88.0549 402.38 88.0862C392.454 88.3718 385.415 89.3423 385.415 90.3127V94.2391V94.0324V96.7189C385.415 96.7189 385.415 96.7189 385.415 96.9255V101.885C385.415 101.885 385.415 101.885 385.415 101.678V104.365C385.415 104.365 385.415 104.365 385.415 104.572V109.531V109.325V112.011V112.218V117.177C385.415 117.177 385.415 117.177 385.415 116.971V119.657C385.415 119.657 385.415 119.657 385.415 119.864V124.823C385.415 124.823 385.415 124.823 385.415 124.617V127.303V131.643V134.329V134.536V139.495V139.289V141.975V142.182V147.142V149.828V150.035V151.961C385.415 153.066 384.519 153.961 383.415 153.961H380.363C379.259 153.961 378.363 153.066 378.363 151.961V72.6809C378.363 71.5763 377.468 70.6809 376.363 70.6809H371.085C369.98 70.6809 369.085 69.7855 369.085 68.6809V31.1442C369.085 30.0396 368.189 29.1442 367.085 29.1442H362.549C361.444 29.1442 360.549 28.2487 360.549 27.1442V15.8521C360.549 14.7475 359.653 13.8521 358.549 13.8521H348.817C347.712 13.8521 346.817 14.7475 346.817 15.8521V27.1442C346.817 28.2487 345.921 29.1442 344.817 29.1442H340.28C339.176 29.1442 338.28 30.0396 338.28 31.1442V68.6809C338.28 69.7855 337.385 70.6809 336.28 70.6809H330.035C329.465 70.6809 329.002 71.1435 329.002 71.7142C329.002 72.2848 328.539 72.7474 327.969 72.7474H327.796C327.13 72.7474 326.59 73.2874 326.59 73.9536V74.021C326.59 74.6872 327.13 75.2272 327.796 75.2272C328.462 75.2272 329.002 75.7673 329.002 76.4334V77.7407C329.002 78.4069 328.462 78.9469 327.796 78.9469C327.13 78.9469 326.59 79.487 326.59 80.1531V80.2206C326.59 80.8867 327.13 81.4267 327.796 81.4267C328.462 81.4267 329.002 81.9668 329.002 82.6329V83.9403C329.002 84.6064 328.462 85.1464 327.796 85.1464C327.13 85.1464 326.59 85.6865 326.59 86.3526V86.4201C326.59 87.0862 327.13 87.6262 327.796 87.6262C328.462 87.6262 329.002 88.1663 329.002 88.8324V90.1398C329.002 90.8059 328.462 91.3459 327.796 91.3459C327.13 91.3459 326.59 91.886 326.59 92.5521V93.2395C326.59 93.9057 327.13 94.4457 327.796 94.4457C328.462 94.4457 329.002 94.9857 329.002 95.6519V96.9592C329.002 97.6254 328.462 98.1654 327.796 98.1654C327.13 98.1654 326.59 98.7054 326.59 99.3716V99.439C326.59 100.105 327.13 100.645 327.796 100.645C328.462 100.645 329.002 101.185 329.002 101.851V103.159C329.002 103.825 328.462 104.365 327.796 104.365C327.13 104.365 326.59 104.905 326.59 105.571V105.639C326.59 106.305 327.13 106.845 327.796 106.845C328.462 106.845 329.002 107.385 329.002 108.051V109.772C329.002 110.438 328.462 110.978 327.796 110.978C327.13 110.978 326.59 111.518 326.59 112.184V112.251C326.59 112.918 327.13 113.458 327.796 113.458C328.462 113.458 329.002 113.998 329.002 114.664V115.971C329.002 116.637 328.462 117.177 327.796 117.177C327.13 117.177 326.59 117.717 326.59 118.383V118.451C326.59 119.117 327.13 119.657 327.796 119.657C328.462 119.657 329.002 120.197 329.002 120.863V122.171C329.002 122.837 328.462 123.377 327.796 123.377C327.13 123.377 326.59 123.917 326.59 124.583V124.65C326.59 125.317 327.13 125.857 327.796 125.857C328.462 125.857 329.002 126.397 329.002 127.063V128.37C329.002 129.036 328.462 129.576 327.796 129.576C327.13 129.576 326.59 130.116 326.59 130.782V130.85C326.59 131.516 327.13 132.056 327.796 132.056C328.462 132.056 329.002 132.596 329.002 133.262V134.57C329.002 135.236 328.462 135.776 327.796 135.776C327.13 135.776 326.59 136.316 326.59 136.982V137.049C326.59 137.716 327.13 138.256 327.796 138.256C328.462 138.256 329.002 138.796 329.002 139.462V140.769C329.002 141.435 328.462 141.975 327.796 141.975C327.13 141.975 326.59 142.515 326.59 143.181V143.249C326.59 143.915 327.13 144.455 327.796 144.455H328.279C328.678 144.455 329.002 144.779 329.002 145.178C329.002 145.578 328.678 145.902 328.279 145.902H322.837C321.732 145.902 320.837 146.797 320.837 147.902V194.324C320.837 195.429 321.732 196.324 322.837 196.324H446.694C447.798 196.324 448.694 195.429 448.694 194.324V74.5408Z" fill="url(#paint1_linear_55534_523336)"/>
<path fill-rule="evenodd" clip-rule="evenodd" d="M360.51 164.913C359.026 164.913 357.912 163.673 357.912 162.02V159.747C357.912 159.478 357.999 159.218 358.145 158.992C358.768 158.033 359.211 156.927 359.211 155.821C359.211 152.927 357.17 145.488 354.572 145.488C351.974 145.488 349.933 152.927 349.933 155.821C349.933 156.414 349.448 157.061 348.854 157.061H346.551C345.447 157.061 344.551 156.165 344.551 155.061V85.2863C344.551 84.1817 343.656 83.2863 342.551 83.2863H342.098C340.993 83.2863 340.098 82.3909 340.098 81.2863V78.2602C340.098 77.1556 339.202 76.2602 338.098 76.2602H337.273C336.168 76.2602 335.273 75.3648 335.273 74.2602V74.1937V71.4524C335.273 70.6838 334.65 70.0607 333.881 70.0607C333.112 70.0607 332.489 69.4376 332.489 68.6689V65.2412C332.489 64.1366 331.594 63.2412 330.489 63.2412H325.582C324.477 63.2412 323.582 64.1366 323.582 65.2412V68.6689C323.582 69.4376 322.959 70.0607 322.19 70.0607C321.422 70.0607 320.798 70.6838 320.798 71.4524V74.4668C320.798 75.5714 319.903 76.4668 318.798 76.4668H317.974C316.869 76.4668 315.974 77.3623 315.974 78.4668V81.6331C315.974 82.6603 315.141 83.493 314.114 83.493H312.963C311.859 83.493 310.963 84.3884 310.963 85.493V107.738C310.963 108.842 310.068 109.738 308.963 109.738H271.581C270.477 109.738 269.581 108.842 269.581 107.738V85.2863C269.581 84.1817 268.686 83.2863 267.581 83.2863H266.386C265.281 83.2863 264.386 82.3909 264.386 81.2863V77.2808C264.386 76.7171 263.929 76.2602 263.365 76.2602C262.801 76.2602 262.344 75.8032 262.344 75.2396V74.8136V74.7471C262.344 73.6426 261.449 72.7471 260.344 72.7471H256.179C255.075 72.7471 254.179 73.6426 254.179 74.7471V74.8136C254.179 75.6125 253.532 76.2602 252.733 76.2602H251.358C250.559 76.2602 249.911 75.6125 249.911 74.8136V74.7471C249.911 73.6426 249.016 72.7471 247.911 72.7471H243.874C242.904 72.7471 242.117 73.5336 242.117 74.5037V75.2396C242.117 75.8032 241.66 76.2602 241.097 76.2602C240.533 76.2602 240.076 76.7171 240.076 77.2808V81.6331C240.076 82.5461 239.327 83.2863 238.414 83.2863C237.492 83.2863 236.736 84.034 236.736 84.9564V179.859C236.736 180.963 237.631 181.859 238.736 181.859H359.211C361.252 181.859 363.108 179.999 363.108 177.519V173.386V173.179V167.6C363.108 166.153 361.995 164.913 360.51 164.913Z" fill="url(#paint2_linear_55534_523336)"/>
<path fill-rule="evenodd" clip-rule="evenodd" d="M-106.971 151.193C-110.01 150.516 -113.657 151.024 -117.152 152.887C-118.064 150.855 -119.28 149.499 -121.103 148.822C-124.902 147.466 -129.308 150.516 -131.74 155.937C-132.955 155.259 -134.323 154.92 -135.842 154.581C-141.921 153.565 -147.391 156.106 -148.758 160.68C-149.366 160.68 -150.126 160.511 -150.734 160.511C-150.734 160.341 -150.886 160.172 -150.886 160.002C-152.101 156.445 -156.052 154.581 -160.459 154.92C-159.699 153.057 -159.547 151.024 -160.155 149.16C-161.826 144.587 -168.208 142.892 -174.438 145.603C-175.198 145.942 -175.806 146.281 -176.414 146.619C-178.845 141.198 -183.1 137.302 -188.114 136.624V195.917C-185.531 196.764 -182.644 197.272 -179.605 197.272C-174.135 197.272 -169.272 195.747 -165.321 193.375C-161.674 195.408 -157.116 196.594 -152.253 196.594C-146.783 196.594 -141.921 195.07 -137.97 192.698C-134.323 194.731 -129.764 195.917 -124.902 195.917C-122.015 195.917 -119.28 195.408 -116.696 194.731C-115.481 195.408 -113.961 195.747 -112.594 196.086V202.354C-111.53 202.015 -110.466 201.676 -109.403 201.168C-106.516 202.015 -103.476 202.523 -100.133 202.523C-94.6632 202.523 -89.4968 201.168 -85.3941 198.797C-80.9874 201.507 -75.3652 203.201 -69.2871 203.201C-63.8167 203.201 -58.6503 201.846 -54.5476 199.474C-50.141 202.185 -44.5187 203.879 -38.4406 203.879C-34.1859 203.879 -30.2351 203.032 -26.7402 201.676C-22.4855 204.048 -17.4711 205.403 -11.8488 205.403C-9.11368 205.403 -6.53049 205.065 -4.09924 204.387C-0.604324 204.048 2.73865 203.032 5.77771 201.676C8.66481 203.032 12.0078 204.048 15.6547 204.387C18.0859 205.065 20.6691 205.403 23.4043 205.403C28.8746 205.403 34.041 204.048 38.2956 201.676C41.7906 203.032 45.7413 203.879 49.996 203.879C56.0741 203.879 61.6964 202.185 66.103 199.474C70.3577 201.846 75.3722 203.201 80.8425 203.201C86.9206 203.201 92.5429 201.507 96.9495 198.797C101.204 201.168 106.219 202.523 111.689 202.523C114.88 202.523 118.071 202.015 120.958 201.168C122.022 201.676 123.085 202.015 124.149 202.354V196.086C125.669 195.747 127.036 195.239 128.252 194.731C130.835 195.578 133.57 195.917 136.457 195.917C141.32 195.917 145.878 194.731 149.525 192.698C153.476 195.239 158.339 196.594 163.809 196.594C168.671 196.594 171.862 199.474 175.661 197.441C179.612 199.982 185.842 197.272 191.312 197.272C192.072 197.272 192.68 197.272 193.44 197.272C194.199 197.272 194.807 197.272 195.567 197.272C201.037 197.272 207.267 199.813 211.218 197.441C214.865 199.474 218.208 196.594 223.07 196.594C228.541 196.594 233.403 195.07 237.354 192.698C241.001 194.731 245.56 195.917 250.422 195.917C253.309 195.917 256.044 195.408 258.627 194.731C259.843 195.408 261.363 195.917 262.73 196.086V202.354C263.794 202.015 264.857 201.676 265.921 201.168C268.808 202.015 271.847 202.523 275.19 202.523C280.661 202.523 285.827 201.168 289.93 198.797C294.336 201.507 299.959 203.201 306.037 203.201C311.507 203.201 316.673 201.846 320.776 199.474C325.183 202.185 330.805 203.879 336.883 203.879C341.138 203.879 345.089 203.032 348.584 201.676C352.838 204.048 357.853 205.403 363.475 205.403C366.21 205.403 368.793 205.065 371.225 204.387C374.719 204.048 378.062 203.032 381.102 201.676C383.989 203.032 387.332 204.048 390.978 204.387C393.41 205.065 395.993 205.403 398.728 205.403C404.198 205.403 409.365 204.048 413.619 201.676C417.114 203.032 421.065 203.879 425.32 203.879C431.398 203.879 437.02 202.185 441.427 199.474C445.681 201.846 450.696 203.201 456.166 203.201C462.244 203.201 467.867 201.507 472.273 198.797C476.528 201.168 481.542 202.523 487.013 202.523C490.052 202.523 493.091 202.015 495.826 201.338V150.855C495.218 150.855 494.458 151.024 493.851 151.193C493.091 150.346 492.179 149.669 491.115 149.33C486.861 147.805 481.846 151.363 479.111 157.461C477.744 156.784 476.224 156.276 474.553 155.937C467.715 154.751 461.485 157.8 459.965 162.713C459.205 162.544 458.446 162.544 457.686 162.544C457.686 162.374 457.534 162.205 457.534 161.866C456.166 157.8 451.76 155.767 446.745 156.276C447.505 154.073 447.657 151.871 447.049 149.838C445.226 144.417 437.932 142.554 430.942 145.603C430.182 145.942 429.423 146.281 428.663 146.789C425.928 140.351 421.065 135.947 415.139 135.439C413.467 135.269 411.796 135.439 410.125 135.947C411.948 128.662 410.125 121.547 405.566 119.684C401.463 117.99 396.601 120.87 393.562 126.46C391.738 125.274 389.763 124.597 387.635 124.427C385.356 124.258 383.229 124.597 381.102 125.444C371.225 121.208 346.456 114.263 352.078 135.777C350.407 135.269 348.736 135.1 347.064 135.269C341.138 135.777 336.123 140.351 333.54 146.619C332.78 146.111 332.021 145.772 331.261 145.434C324.271 142.384 317.129 144.248 315.154 149.669C314.394 151.702 314.546 153.904 315.458 156.106C310.443 155.598 306.037 157.8 304.669 161.697C304.669 161.866 304.517 162.035 304.517 162.374C303.757 162.374 302.998 162.544 302.238 162.544C300.718 157.461 294.488 154.581 287.65 155.767C285.979 156.106 284.459 156.614 283.092 157.292C280.357 151.193 275.342 147.636 271.088 149.16C270.024 149.499 269.112 150.177 268.352 151.024C265.313 150.346 261.667 150.855 258.172 152.718C257.26 150.685 256.044 149.33 254.221 148.652C250.422 147.297 244.648 142.723 242.217 148.144C237.05 145.603 228.997 143.401 228.997 153.734C226.565 151.193 224.438 153.734 224.438 155.259C223.222 150.685 221.551 150.685 217.752 151.024C221.855 140.182 210.306 132.22 201.645 141.368C197.694 131.881 192.224 136.794 188.273 146.281C187.665 145.942 186.906 145.603 186.298 145.264C180.068 142.554 173.686 144.248 172.014 148.991C171.406 150.855 171.558 152.718 172.318 154.751C167.911 154.412 163.961 156.276 162.745 159.833C162.745 160.002 162.593 160.172 162.593 160.341C161.985 160.341 161.226 160.341 160.618 160.511C159.25 156.106 153.78 153.396 147.702 154.412C146.182 154.751 144.815 155.09 143.599 155.767C141.168 150.346 136.761 147.128 132.962 148.652C131.291 149.33 129.923 150.685 129.012 152.718C125.517 150.855 121.87 150.346 118.831 151.024C118.071 150.177 117.159 149.499 116.096 149.16C111.841 147.636 106.826 151.193 104.091 157.292C102.724 156.614 101.204 156.106 99.5327 155.767C92.6948 154.581 86.4647 157.631 84.9452 162.544C84.1855 162.374 83.4257 162.374 82.6659 162.374C82.6659 162.205 82.514 162.035 82.514 161.697C81.1464 157.631 76.7397 155.598 71.7253 156.106C72.485 153.904 72.637 151.702 72.0292 149.669C70.2057 144.248 62.912 142.384 55.9222 145.434C55.1624 145.772 54.4027 146.111 53.6429 146.619C50.9078 140.182 46.0452 135.777 40.1191 135.269C38.4476 135.1 36.7761 135.269 35.1046 135.777C40.7269 114.093 15.9586 121.208 6.08162 125.444C3.95428 124.597 1.82693 124.258 -0.452362 124.427C-2.57971 124.597 -4.55508 125.274 -6.37852 126.46C-9.41759 120.87 -14.2801 117.99 -18.3828 119.684C-22.9414 121.547 -24.7648 128.662 -22.9414 135.947C-24.6129 135.439 -26.2844 135.269 -27.9558 135.439C-33.882 135.947 -38.7445 140.521 -41.4797 146.789C-42.2394 146.281 -42.9992 145.942 -43.759 145.603C-50.7488 142.554 -57.8906 144.417 -59.866 149.838C-60.6257 151.871 -60.4738 154.073 -59.5621 156.276C-64.5765 155.767 -68.9831 157.97 -70.3507 161.866C-70.3507 162.035 -70.5027 162.205 -70.5027 162.544C-71.2624 162.544 -72.0222 162.713 -72.782 162.713C-74.3015 157.631 -80.5316 154.751 -87.3694 155.937C-89.0409 156.276 -90.5605 156.784 -91.928 157.461C-94.6632 151.363 -99.6776 147.805 -103.932 149.33C-105.148 149.669 -106.06 150.346 -106.971 151.193Z" fill="#77C2CC"/>
<path d="M513.226 363.859L539.274 199.017C539.274 199.017 464.195 186.205 432.019 186.205C251.91 186.206 167.599 177.08 -12.3243 186.205C-65.6165 188.908 -148.692 195.174 -148.692 195.174V363.859H513.226Z" fill="#A3CEC4"/>
<path d="M475.163 229.765H-38.2935V435.615H475.163V229.765Z" fill="url(#paint3_linear_55534_523336)"/>
<path d="M610.443 236.597H-68.938V249.355H610.443V236.597Z" fill="#A6BACA"/>
<path opacity="0.6" d="M591.879 249.498H-52.1739C-52.1739 249.498 -102.273 445.035 35.8352 360.685C173.943 276.336 439.969 360.685 439.969 360.685L591.879 249.498Z" fill="url(#paint4_linear_55534_523336)"/>
<path d="M713.947 229.703H-172.441V236.455H713.947V229.703Z" fill="#B1BDCD"/>
<path d="M713.947 234.035H-172.441V236.454H713.947V234.035Z" fill="#C4CDDF"/>
</g>
</g>
<defs>
<linearGradient id="paint0_linear_55534_523336" x1="275.211" y1="-110.042" x2="173.982" y2="464.707" gradientUnits="userSpaceOnUse">
<stop stop-color="#68DFFA" stop-opacity="0"/>
<stop offset="0.854173" stop-color="#AAFFFA"/>
</linearGradient>
<linearGradient id="paint1_linear_55534_523336" x1="384.765" y1="13.8521" x2="384.765" y2="196.324" gradientUnits="userSpaceOnUse">
<stop stop-color="#9BC0C2"/>
<stop offset="1" stop-color="#D8DEEB"/>
</linearGradient>
<linearGradient id="paint2_linear_55534_523336" x1="299.922" y1="63.2412" x2="299.922" y2="181.859" gradientUnits="userSpaceOnUse">
<stop stop-color="#D8DEEB"/>
<stop offset="1" stop-color="#9BC0C2"/>
</linearGradient>
<linearGradient id="paint3_linear_55534_523336" x1="218.435" y1="229.765" x2="218.435" y2="420.851" gradientUnits="userSpaceOnUse">
<stop stop-color="#A7AFBE"/>
<stop offset="0.8125" stop-color="#C4CDDF"/>
</linearGradient>
<linearGradient id="paint4_linear_55534_523336" x1="269.853" y1="249.498" x2="269.853" y2="360.685" gradientUnits="userSpaceOnUse">
<stop stop-color="#797E94"/>
<stop offset="0.729167" stop-color="#797E94" stop-opacity="0"/>
</linearGradient>
</defs>
</svg>
