<svg width="35" height="129" viewBox="0 0 35 129" fill="none" xmlns="http://www.w3.org/2000/svg">
<ellipse cx="14.071" cy="127.389" rx="12.9006" ry="0.860031" fill="#71A471" fill-opacity="0.8"/>
<path d="M14.5229 30.8345H19.211V126.952C17.3077 127.365 16.2822 127.358 14.5229 126.952V30.8345Z" fill="#C4CDDF"/>
<path d="M15.8838 30.8345H16.8838V127.205L15.8838 126.952V30.8345Z" fill="white"/>
<circle cx="16.9672" cy="16.9672" r="16.9672" fill="#FF383C"/>
<path d="M9.89746 6.78689L17.2499 14.1393L24.6024 6.78689C20.45 2.95396 14.0498 2.95396 9.89746 6.78689Z" fill="#107EDC"/>
<path d="M17.2499 14.1393L17.1085 14.2808L17.2499 14.4222L17.3913 14.2808L17.2499 14.1393ZM9.89746 6.78689L9.7618 6.63992L9.60885 6.78112L9.75604 6.92831L9.89746 6.78689ZM24.6024 6.78689L24.7438 6.92831L24.891 6.78112L24.738 6.63992L24.6024 6.78689ZM17.3913 13.9979L10.0389 6.64546L9.75604 6.92831L17.1085 14.2808L17.3913 13.9979ZM24.461 6.64546L17.1085 13.9979L17.3913 14.2808L24.7438 6.92831L24.461 6.64546ZM10.0331 6.93385C14.1088 3.17164 20.391 3.17164 24.4667 6.93385L24.738 6.63992C20.5091 2.73628 13.9908 2.73628 9.7618 6.63992L10.0331 6.93385Z" fill="#E7EEF6"/>
<path d="M27.7131 10.1802L20.3607 17.2498L27.7131 24.6023L27.8528 24.451C31.5871 20.4055 31.5259 14.1518 27.7131 10.1802Z" fill="#107EDC"/>
<path d="M20.3607 17.2498L20.222 17.1057L20.075 17.247L20.2192 17.3913L20.3607 17.2498ZM27.7131 10.1802L27.8574 10.0417L27.7188 9.89728L27.5745 10.036L27.7131 10.1802ZM27.8528 24.451L27.7058 24.3153L27.8528 24.451ZM27.7131 24.6023L27.5717 24.7437L27.7189 24.8909L27.8601 24.738L27.7131 24.6023ZM20.4993 17.394L27.8517 10.3243L27.5745 10.036L20.222 17.1057L20.4993 17.394ZM27.7058 24.3153L27.5662 24.4667L27.8601 24.738L27.9997 24.5867L27.7058 24.3153ZM27.8545 24.4609L20.5021 17.1084L20.2192 17.3913L27.5717 24.7437L27.8545 24.4609ZM27.5688 10.3187C31.3084 14.214 31.3684 20.3476 27.7058 24.3153L27.9997 24.5867C31.8058 20.4634 31.7434 14.0896 27.8574 10.0417L27.5688 10.3187Z" fill="#E7EEF6"/>
<path d="M9.89746 27.7131L17.2499 20.3607L24.6024 27.7131C20.45 31.546 14.0498 31.546 9.89746 27.7131Z" fill="#107EDC"/>
<path d="M17.2499 20.3607L17.1085 20.2192L17.2499 20.0778L17.3913 20.2192L17.2499 20.3607ZM9.89746 27.7131L9.7618 27.8601L9.60885 27.7189L9.75604 27.5717L9.89746 27.7131ZM24.6024 27.7131L24.7438 27.5717L24.891 27.7189L24.738 27.8601L24.6024 27.7131ZM17.3913 20.5021L10.0389 27.8545L9.75604 27.5717L17.1085 20.2192L17.3913 20.5021ZM24.461 27.8545L17.1085 20.5021L17.3913 20.2192L24.7438 27.5717L24.461 27.8545ZM10.0331 27.5662C14.1088 31.3284 20.391 31.3284 24.4667 27.5662L24.738 27.8601C20.5091 31.7637 13.9908 31.7637 9.7618 27.8601L10.0331 27.5662Z" fill="#E7EEF6"/>
<path d="M6.78689 9.89746L14.1393 17.2499L6.78688 24.6024C2.95396 20.45 2.95396 14.0498 6.78689 9.89746Z" fill="#107EDC"/>
<path d="M14.1393 17.2499L14.2808 17.1085L14.4222 17.2499L14.2808 17.3913L14.1393 17.2499ZM6.78689 9.89746L6.63992 9.76181L6.78112 9.60885L6.92831 9.75604L6.78689 9.89746ZM6.78688 24.6024L6.92831 24.7438L6.78111 24.891L6.63992 24.738L6.78688 24.6024ZM13.9979 17.3913L6.64546 10.0389L6.92831 9.75604L14.2808 17.1085L13.9979 17.3913ZM6.64546 24.461L13.9979 17.1085L14.2808 17.3913L6.92831 24.7438L6.64546 24.461ZM6.93385 10.0331C3.17164 14.1088 3.17164 20.391 6.93385 24.4667L6.63992 24.738C2.73628 20.5091 2.73628 13.9908 6.63992 9.76181L6.93385 10.0331Z" fill="#E7EEF6"/>
</svg>
