<svg width="74" height="201" viewBox="0 0 74 201" fill="none" xmlns="http://www.w3.org/2000/svg">
<path d="M43.8828 180.924C43.7199 180.852 43.5458 180.813 43.3701 180.809L34.2234 180.621C33.478 180.606 32.8669 181.22 32.8465 182.006L32.6939 187.872C32.673 188.677 33.2787 189.357 34.0423 189.385L54.6346 190.144C55.8801 190.366 56.4469 187.188 55.4343 186.129C55.3558 186.047 55.2569 185.992 55.1553 185.947L43.8828 180.924Z" fill="#111C53"/>
<path d="M43.8828 180.924C43.7199 180.852 43.5458 180.813 43.3701 180.809L34.2234 180.621C33.478 180.606 32.8669 181.22 32.8465 182.006L32.6939 187.872C32.673 188.677 33.2787 189.357 34.0423 189.385L54.6346 190.144C55.8801 190.366 56.4469 187.188 55.4343 186.129C55.3558 186.047 55.2569 185.992 55.1553 185.947L43.8828 180.924Z" fill="#111C53"/>
<path d="M13.0302 180.972C13.2923 180.724 13.6391 180.586 13.9995 180.586L20.3857 180.586C20.9365 180.586 21.4369 180.907 21.6677 181.407L23.1687 184.659C23.2543 184.844 23.2987 185.046 23.2987 185.25L23.2987 187.882C23.2987 188.662 22.6665 189.294 21.8866 189.294L8.88162 189.294C7.95591 189.294 7.56515 186.121 8.39633 185.331C8.45858 185.272 8.52857 185.221 8.59101 185.163L13.0302 180.972Z" fill="#111C53"/>
<path d="M13.0302 180.972C13.2923 180.724 13.6391 180.586 13.9995 180.586L20.3857 180.586C20.9365 180.586 21.4369 180.907 21.6677 181.407L23.1687 184.659C23.2543 184.844 23.2987 185.046 23.2987 185.25L23.2987 187.882C23.2987 188.662 22.6665 189.294 21.8866 189.294L8.88162 189.294C7.95591 189.294 7.56515 186.121 8.39633 185.331C8.45858 185.272 8.52857 185.221 8.59101 185.163L13.0302 180.972Z" fill="#111C53"/>
<path d="M37.237 25.9885C37.237 25.9885 33.4874 31.6415 34.4715 34.8557C35.0474 36.7302 30.1198 44.3301 28.5908 44.9613C25.4776 46.2459 22.7519 35.2712 23.0387 34.3934C23.155 34.0384 22.135 32.9266 22.5953 31.9003C22.7189 28.3207 24.671 24.6843 24.0106 19.5829C23.4628 18.2553 32.5738 24.8859 33.5496 24.1492" fill="#FFC2A7"/>
<path d="M37.237 25.9885C37.237 25.9885 33.4874 31.6415 34.4715 34.8557C35.0474 36.7302 30.1198 44.3301 28.5908 44.9613C25.4776 46.2459 22.7519 35.2712 23.0387 34.3934C23.155 34.0384 22.135 32.9266 22.5953 31.9003C22.7189 28.3207 24.671 24.6843 24.0106 19.5829C23.4628 18.2553 32.5738 24.8859 33.5496 24.1492" fill="#FFC2A7"/>
<path opacity="0.8" d="M28.6048 22.6547C31.9323 23.9629 30.1532 17.6816 32.0902 20.5624C36.6584 27.3521 35.5491 31.8087 35.5491 31.8087C34.7663 32.891 33.4373 32.9678 31.6781 32.6223C29.4684 32.1883 24.9089 28.1535 24.4272 26.095C24.3405 25.527 25.2995 22.5177 24.992 21.3203C25.9763 15.4265 24.9798 21.4474 26.4309 19.9195C25.8828 20.0105 26.7936 19.5376 26.4309 19.9195C27.4726 19.7389 30.2838 21.7008 31.0255 22.4538" fill="#FDB096"/>
<path opacity="0.8" d="M28.6048 22.6547C31.9323 23.9629 30.1532 17.6816 32.0902 20.5624C36.6584 27.3521 35.5491 31.8087 35.5491 31.8087C34.7663 32.891 33.4373 32.9678 31.6781 32.6223C29.4684 32.1883 24.9089 28.1535 24.4272 26.095C24.3405 25.527 25.2995 22.5177 24.992 21.3203C25.9763 15.4265 24.9798 21.4474 26.4309 19.9195C25.8828 20.0105 26.7936 19.5376 26.4309 19.9195C27.4726 19.7389 30.2838 21.7008 31.0255 22.4538" fill="#FDB096"/>
<path fill-rule="evenodd" clip-rule="evenodd" d="M59.8268 64.0509C63.8649 75.1433 45.7018 83.4539 42.7326 84.8405L39.5259 79.4203C39.5259 79.4203 46.0581 73.496 49.1461 70.0927C50.3337 61.7734 45.4643 56.9835 41.5449 52.0676C41.1886 52.0676 47.251 38.6538 47.251 38.6538C47.251 38.6538 57.6889 52.3283 59.8268 64.0509Z" fill="#123C78"/>
<path fill-rule="evenodd" clip-rule="evenodd" d="M54.4086 70.4235C58.4467 81.5158 51.3117 75.7268 48.3425 77.1133L35.1865 80.6008C35.1865 80.6008 41.7187 74.6765 44.8067 71.2731C45.9944 62.9539 41.1249 58.164 37.2056 53.248C36.8493 53.248 44.1048 45.1221 44.1048 45.1221C44.1048 45.1221 52.2708 58.7009 54.4086 70.4235Z" fill="#111C53"/>
<path fill-rule="evenodd" clip-rule="evenodd" d="M44.6325 55.8489C42.7322 50.8069 43.2073 35.3028 45.2264 38.7061C48.0768 46.017 45.4639 49.6725 44.6325 55.8489Z" fill="#A9A5B0"/>
<path fill-rule="evenodd" clip-rule="evenodd" d="M46.6522 83.2023C44.8707 83.9586 43.4455 84.4628 42.8516 84.841L42.139 83.5805L37.7446 78.4124C37.7446 78.4124 39.0511 77.5301 41.0701 76.1436L46.6522 83.2023Z" fill="#0E3D60"/>
<path fill-rule="evenodd" clip-rule="evenodd" d="M44.2768 82.6982C44.2768 83.0763 44.0392 83.4545 43.5642 83.4545C43.2079 83.4545 42.8516 83.0763 42.8516 82.6982C42.8516 82.32 43.0891 81.9419 43.5642 81.9419C43.9205 81.9419 44.2768 82.194 44.2768 82.6982Z" fill="#A19898"/>
<path fill-rule="evenodd" clip-rule="evenodd" d="M20.998 35.9335C20.998 36.3117 21.3543 36.6898 21.7107 36.6898C22.067 36.6898 22.4233 36.3117 22.4233 35.9335C22.4233 35.5554 22.067 35.1772 21.7107 35.1772C21.3543 35.1772 20.998 35.5554 20.998 35.9335Z" fill="#A19898"/>
<path fill-rule="evenodd" clip-rule="evenodd" d="M46.0582 167.024L45.3456 172.823C45.3456 172.823 40.001 173.201 39.8823 172.571C39.7635 171.94 40.8324 166.268 40.8324 166.268L46.0582 167.024Z" fill="#5E5E5E"/>
<path fill-rule="evenodd" clip-rule="evenodd" d="M23.0172 167.024L22.3046 172.823C22.3046 172.823 16.96 173.201 16.8412 172.571C16.7225 171.94 17.7914 166.268 17.7914 166.268L23.0172 167.024Z" fill="#5E5E5E"/>
<path fill-rule="evenodd" clip-rule="evenodd" d="M45.0891 85.5899C45.0891 85.5899 46.9577 110.032 46.0518 142.484C45.6635 157.126 46.0518 182.552 46.0518 182.552H32.4921C32.4921 182.552 31.5862 161.709 32.4921 144.56C32.4921 135.66 30.1351 113.863 29.6175 113.468C28.5822 112.808 25.996 112.504 25.996 112.504C25.996 112.504 25.6077 128.466 23.9254 144.56C22.1136 162.896 18.8783 181.761 18.8783 182.156C18.7489 183.08 10.3869 182.288 10.3869 182.288C10.3869 182.288 10.3371 164.084 11.8901 144.164C13.5724 122.794 13.1245 90.0751 12.9951 86.3814C12.8656 79.3898 45.0891 85.5899 45.0891 85.5899Z" fill="#111C53"/>
<path fill-rule="evenodd" clip-rule="evenodd" d="M46.507 88.0332C46.8401 118.673 45.2059 151.63 46.507 182.252L38.8115 182.669C38.8115 168.637 36.4426 148.734 33.9732 114.263C33.8438 112.456 33.585 111.483 33.4556 111.344C32.9982 109.673 31.6141 108.878 31.6141 108.878C31.6141 108.878 28.885 124.294 27.2027 141.247C25.3909 160.563 22.8939 181.835 22.8939 182.252C22.7645 182.669 19.788 182.808 16.6821 182.669C16.6821 157.965 17.3253 121.457 17.3253 89.2839L29.7488 88.0332C37.5135 88.867 46.507 88.0332 46.507 88.0332Z" fill="#1D3266"/>
<path fill-rule="evenodd" clip-rule="evenodd" d="M5.07184 39.785C5.07184 39.785 10.6232 51.2804 11.4546 56.0703C12.1672 60.9862 8.00621 78.0004 12.9296 87.6406C12.9296 87.6406 22.6836 90.8305 31.2349 90.4524C39.7861 90.0742 46.1348 89.0296 46.1348 89.0296C51.8156 78.3852 46.1348 52.3435 46.1348 52.0914C46.1348 51.8393 47.5956 39.2022 47.5956 39.2022C47.5956 39.2022 45.1976 36.965 40.6152 35.3953C40.293 35.285 38.7153 34.0063 38.3716 33.9036C37.5231 33.6499 35.5893 32.382 34.6112 32.196C34.1126 32.1013 34.6112 38.0045 31.2349 37.4273C20.5158 39.6566 22.5948 30.5493 22.5948 30.5493C19.8527 32.4 19.1771 33.2245 17.9307 33.9036C17.5047 34.0295 15.4345 34.7601 15.0298 34.8927C9.86703 36.5847 4.94212 39.6473 5.07184 39.785Z" fill="#123C78"/>
<path fill-rule="evenodd" clip-rule="evenodd" d="M37.0857 33.8108L32.2569 58.2608L32.8342 59.6638L23.5737 37.1593C23.5737 37.1593 26.8763 37.3076 31.0242 37.5611C33.1696 37.6879 33.2682 32.643 37.0857 33.8108Z" fill="#77AEDC"/>
<path fill-rule="evenodd" clip-rule="evenodd" d="M30.8936 59.6638H34.1342L33.2315 40.8574C33.2315 40.8574 32.994 41.9273 31.5687 41.9273C30.1435 41.9273 29.6685 41.0714 29.6685 41.0714V55.1758L30.8936 59.6638Z" fill="#1E3F6F"/>
<path fill-rule="evenodd" clip-rule="evenodd" d="M34.062 38.4652L30.4354 36.623L28.0049 38.2258L29.6676 41.9362L30.1427 42.415C30.8553 43.1331 32.043 43.1331 32.7556 42.2953L33.2307 41.6968L34.062 38.4652Z" fill="#1E3F6F"/>
<path fill-rule="evenodd" clip-rule="evenodd" d="M45.8878 88.6728C34.2407 91.3698 23.8446 89.7374 13.3623 88.6729C13.3623 89.8794 13.3623 89.7374 13.4917 90.944C19.3678 95.2725 39.0289 94.8391 45.8878 92.8518C45.4995 91.8582 46.276 89.5955 45.8878 88.6728Z" fill="#111C53"/>
<path fill-rule="evenodd" clip-rule="evenodd" d="M24.0905 50.7163C24.3466 50.6944 24.573 50.882 24.5989 51.1377L25.5771 60.7786C25.6042 61.0451 25.4036 61.2805 25.1361 61.296L17.4734 61.7402C17.2245 61.7547 17.0076 61.5726 16.9786 61.325L15.8777 51.9065C15.8468 51.6427 16.0403 51.4056 16.305 51.3829L24.0905 50.7163Z" fill="#31578D"/>
<path d="M45.4404 45.0556C45.5682 45.041 45.684 45.1316 45.7006 45.2591L46.0037 47.5939C46.0209 47.7264 45.9245 47.8466 45.7915 47.8586L38.2365 48.5426C38.0987 48.5551 37.98 48.4466 37.98 48.3082V46.1205C37.98 46.0009 38.0697 45.9003 38.1885 45.8867L45.4404 45.0556Z" fill="#31578D" stroke="#948B6E" stroke-width="0.470673"/>
<path fill-rule="evenodd" clip-rule="evenodd" d="M24.3366 49.2928C24.3073 49.034 24.0734 48.8481 23.8146 48.8782L16.1532 49.7675C15.8955 49.7974 15.7106 50.0302 15.7397 50.2879L16.0526 53.0551C16.075 53.2532 16.2197 53.4157 16.4139 53.4607L20.2305 54.3468C20.3327 54.3706 20.44 54.3594 20.5352 54.3152L24.379 52.5305C24.5627 52.4452 24.6712 52.2519 24.6484 52.0507L24.3366 49.2928Z" fill="#3263A9"/>
<path fill-rule="evenodd" clip-rule="evenodd" d="M19.314 52.5297C19.314 52.9573 19.7169 53.385 20.1199 53.385C20.5229 53.385 20.9258 52.9573 20.9258 52.5297C20.9258 52.102 20.5229 51.6743 20.1199 51.6743C19.5826 51.6743 19.314 52.102 19.314 52.5297Z" fill="#A19898"/>
<path fill-rule="evenodd" clip-rule="evenodd" d="M44.3524 51.6152C44.6275 51.5832 44.8706 51.7946 44.8772 52.0715L45.0913 61.0467C45.0975 61.3051 44.8941 61.5202 44.6357 61.5284L37.6368 61.7501C37.3688 61.7586 37.1479 61.5418 37.1513 61.2737L37.2585 52.8518C37.2615 52.6152 37.4398 52.4176 37.6749 52.3903L44.3524 51.6152Z" fill="#31578D"/>
<path fill-rule="evenodd" clip-rule="evenodd" d="M44.9659 50.1528C44.9755 49.8863 44.7622 49.665 44.4955 49.665H37.7343C37.4744 49.665 37.2637 49.8758 37.2637 50.1357V52.4906C37.2637 52.6865 37.3851 52.862 37.5685 52.9311L40.7918 54.145C40.8913 54.1824 41.0006 54.1851 41.1018 54.1526L44.5505 53.0434C44.7391 52.9827 44.8696 52.8104 44.8768 52.6124L44.9659 50.1528Z" fill="#3263A9"/>
<path fill-rule="evenodd" clip-rule="evenodd" d="M40.2329 52.8164C40.2329 53.1945 40.5892 53.5727 40.9455 53.5727C41.3018 53.5727 41.6581 53.1945 41.6581 52.8164C41.6581 52.4382 41.3018 52.0601 40.9455 52.0601C40.5892 52.0601 40.2329 52.4382 40.2329 52.8164Z" fill="#A19898"/>
<path fill-rule="evenodd" clip-rule="evenodd" d="M15.3745 35.0591C15.2691 34.8999 15.0709 34.829 14.8854 34.8744C8.6374 36.4044 6.04489 37.9328 4.39347 39.3568C4.23567 39.4929 4.19176 39.7186 4.29223 39.9011C4.48081 40.2438 4.69973 40.5803 4.89943 40.8899C5.05577 41.1323 5.39134 41.1874 5.61992 41.0115C7.92781 39.2357 11.2249 37.772 15.6217 36.7123C15.9334 36.6372 16.0902 36.2787 15.9341 35.9987C15.7684 35.7016 15.5888 35.3827 15.3745 35.0591Z" fill="#31578D"/>
<path fill-rule="evenodd" clip-rule="evenodd" d="M40.5401 35.2513C40.6135 35.0018 40.8765 34.859 41.1249 34.9363C44.8907 36.1078 46.5082 37.3866 47.5805 38.7728C47.6705 38.8891 47.6965 39.0417 47.655 39.1828C47.5744 39.4567 47.4939 39.7305 47.4133 40.0044C47.307 40.3653 46.8367 40.4654 46.5719 40.198C45.1123 38.724 43.1312 37.5992 40.5751 36.8237C40.324 36.7475 40.1773 36.4842 40.2514 36.2325C40.3476 35.9054 40.4438 35.5784 40.5401 35.2513Z" fill="#31578D"/>
<path fill-rule="evenodd" clip-rule="evenodd" d="M31.6352 38.5629C31.6352 38.5629 26.6008 40.8153 26.4861 41.6309C26.3715 42.4465 22.9116 36.593 22.3452 33.3614C22.2007 32.5371 22.797 31.0892 22.9116 31.2704C24.5164 34.4424 31.6352 38.5629 31.6352 38.5629Z" fill="#0C2941" fill-opacity="0.2"/>
<path fill-rule="evenodd" clip-rule="evenodd" d="M32.3728 37.111C32.3728 37.111 25.7508 40.8063 25.6362 41.622C25.5216 42.4376 22.4563 35.1209 21.8899 31.8893C21.7454 31.065 23.0685 28.0962 23.1831 28.2775C24.316 31.8893 32.3728 37.111 32.3728 37.111Z" fill="#77AEDC"/>
<path fill-rule="evenodd" clip-rule="evenodd" d="M42.1109 35.831C42.1109 36.2091 41.8733 36.5873 41.3983 36.7133C41.042 36.7133 40.6857 36.4613 40.5669 35.9571C40.5669 35.5789 40.8044 35.2008 41.2795 35.0747C41.7546 35.0747 42.1109 35.4529 42.1109 35.831Z" fill="#A19898"/>
<path opacity="0.2" fill-rule="evenodd" clip-rule="evenodd" d="M30.6831 39.6083C30.6831 39.6083 34.6803 41.1826 34.9729 41.9982C35.2655 42.8139 37.1252 34.5639 37.1252 34.5639C37.1252 34.5639 34.3831 33.5341 34.3831 33.806C34.3831 35.5279 30.6831 39.6083 30.6831 39.6083Z" fill="#232056"/>
<path fill-rule="evenodd" clip-rule="evenodd" d="M31.9253 37.111C31.9253 37.111 35.3334 39.8181 35.5683 40.629C35.8032 41.44 37.2965 33.5367 37.2965 33.5367C37.2965 33.5367 34.6109 31.0323 34.6109 31.3026C34.6109 34.4299 31.9253 37.111 31.9253 37.111Z" fill="#77AEDC"/>
<path fill-rule="evenodd" clip-rule="evenodd" d="M0.593232 70.1749C1.83848 81.7715 28.0632 80.3028 31.7989 80.3028L32.4907 74.1264C32.4907 74.1264 22.6804 72.1148 17.5611 70.4762C12.0266 63.5435 14.2657 63.1312 12.882 54.6859C13.2971 54.5599 6.78511 44.46 6.78511 44.46C6.78511 44.46 -1.19725 57.6643 0.593232 70.1749Z" fill="#111C53"/>
<path fill-rule="evenodd" clip-rule="evenodd" d="M0.609224 69.8402C1.57775 72.6133 6.00738 74.7561 7.39098 76.1427C15.1392 79.546 27.6484 78.5376 31.7993 79.0418L33.8747 72.2351C33.8747 72.2351 19.9002 68.9934 13.2589 67.859C12.1973 67.6777 12.1722 63.4728 12.1722 52.6939C11.6188 47.3999 5.6682 40.8308 4.14623 39.5703C4.42295 39.8224 -1.95515 47.5009 0.609224 69.8402Z" fill="#123C78"/>
<g style="mix-blend-mode:overlay">
<path d="M17.6069 79.3355C16.963 73.9528 18.4369 69.4429 19.9366 69.0169L21.7005 69.3811C18.7073 72.412 19.252 76.9875 19.3708 79.6997L17.6069 79.3355Z" fill="white"/>
</g>
<g style="mix-blend-mode:overlay">
<path d="M20.8362 79.7727C19.9994 74.706 21.221 70.2839 22.6354 69.7466L24.3348 69.9382C21.6015 73.0861 22.3104 77.3933 22.5356 79.9643L20.8362 79.7727Z" fill="white"/>
</g>
<path fill-rule="evenodd" clip-rule="evenodd" d="M15.0434 35.8073C15.0434 36.1855 14.8058 36.5636 14.3308 36.6897C13.9745 36.6897 13.6182 36.4376 13.6182 35.9334C13.6182 35.5552 13.8557 35.1771 14.3308 35.1771C14.6871 35.051 14.9246 35.4292 15.0434 35.8073Z" fill="#A19898"/>
<path fill-rule="evenodd" clip-rule="evenodd" d="M32.2144 78.412L33.598 79.6725C33.598 79.6725 37.6104 80.3027 37.8872 80.4288C38.3022 80.5548 43.2832 75.5129 43.2832 75.5129C43.2832 75.5129 41.4845 74.2524 38.8557 73.4961C36.9186 72.9919 34.9816 73.4961 33.4596 73.4961C31.5225 73.4961 30.8307 76.6473 30.6924 76.8994C30.8307 77.1515 32.4911 78.2859 32.2144 78.412Z" fill="#FFC2A7"/>
<path fill-rule="evenodd" clip-rule="evenodd" d="M39.9622 73.748C39.2704 73.4959 38.5786 73.748 38.3018 74.3782C38.0251 75.0085 38.3018 75.6387 38.9936 75.8908L45.3582 77.9076C46.0501 78.1597 46.6035 78.2857 46.8802 77.7815C47.1569 77.1513 46.4651 76.7732 45.9117 76.5211L39.9622 73.748Z" fill="#ED9C94"/>
<path fill-rule="evenodd" clip-rule="evenodd" d="M39.1323 75.3871C38.4405 75.135 37.6103 75.3871 37.3336 76.0174C37.0569 76.6476 37.3336 77.4039 38.0254 77.656L44.6667 79.6728C45.3585 79.9249 45.912 80.177 46.327 79.5468C46.6038 78.9165 45.912 78.5384 45.2201 78.2863L39.1323 75.3871Z" fill="#ED9C94"/>
<path fill-rule="evenodd" clip-rule="evenodd" d="M38.0252 76.7734C37.3334 76.5213 36.6416 76.7734 36.3648 77.4036C36.0881 78.0339 36.3648 78.6641 37.0566 78.9162L43.4212 80.933C44.113 81.1851 44.6665 81.3112 44.9432 80.807C45.2199 80.1767 44.5281 79.7986 43.9747 79.5465L38.0252 76.7734Z" fill="#ED9C94"/>
<path fill-rule="evenodd" clip-rule="evenodd" d="M36.3652 78.0333C35.6734 77.7812 34.9816 77.9072 34.7048 78.4114C34.4281 78.9156 34.8432 79.5459 35.535 79.798L41.7613 81.8148C42.4531 82.0669 43.0065 82.319 43.2832 81.8148C43.56 81.3106 42.8682 80.9324 42.1763 80.6803L36.3652 78.0333Z" fill="#ED9C94"/>
<path fill-rule="evenodd" clip-rule="evenodd" d="M51.1337 55.7596C51.5194 55.1925 52.1829 54.88 52.8657 54.9438L73.7371 56.8941L55.2013 84.4667C54.9229 84.8808 54.4467 85.1172 53.9486 85.0887L32.0435 83.8317L51.1337 55.7596Z" fill="#107EDC"/>
<path fill-rule="evenodd" clip-rule="evenodd" d="M32.0435 83.8318L51.8328 55.4327L74.0001 56.9822L73.9934 56.9394C73.9273 56.5185 73.5868 56.1945 73.1631 56.1494L52.2425 53.9215C51.7253 53.8664 51.2198 54.1001 50.9266 54.5297L31.8383 82.5059C31.607 82.845 31.622 83.295 31.8755 83.6178L32.0435 83.8318Z" fill="#D1D2D3"/>
<path fill-rule="evenodd" clip-rule="evenodd" d="M65.4244 73.0536C65.8493 73.2178 66.6643 73.291 66.6643 72.4703C66.6643 71.6495 66.4519 70.9929 66.027 70.8288L62.5214 70.1722C62.0965 70.0081 61.7778 70.0081 61.7778 70.8288C61.7778 71.6495 62.0965 71.8137 62.5214 71.9778L65.4244 73.0536Z" fill="#FFC2A7"/>
<path fill-rule="evenodd" clip-rule="evenodd" d="M66.652 71.6483C67.1937 71.8124 67.4644 71.2835 68.0277 70.606C68.0277 69.7853 68.0061 68.781 67.4644 68.6169L62.1834 67.9603C61.6417 67.7961 61.1001 67.7961 61.1001 68.6169C61.1001 69.4376 61.6417 69.9301 62.1834 69.9301L66.652 71.6483Z" fill="#FFC2A7"/>
<path fill-rule="evenodd" clip-rule="evenodd" d="M67.8713 69.6C68.413 69.7642 68.9546 69.1076 69.0901 68.2869C69.0901 67.4661 68.6838 66.4812 68.1422 66.3171L62.8611 65.6605C62.3195 65.4963 61.7778 65.4963 61.7778 66.3171C61.7778 67.1378 62.3195 67.4661 62.8611 67.6303L67.8713 69.6Z" fill="#FFC2A7"/>
<path fill-rule="evenodd" clip-rule="evenodd" d="M68.6835 67.1384C69.2252 67.3025 69.7668 66.8101 69.7668 66.1535C69.7668 65.4969 69.3606 64.6762 68.8189 64.512L63.5379 63.6913C62.9962 63.5271 62.4546 63.5271 62.4546 64.1837C62.4546 64.8403 62.9962 65.1686 63.5379 65.3328L68.6835 67.1384Z" fill="#FFC2A7"/>
<path fill-rule="evenodd" clip-rule="evenodd" d="M26.9565 80.5555C29.1703 80.4294 30.969 80.3034 31.7992 80.3034L31.9375 78.7908L34.013 72.2362C34.013 72.2362 32.0759 71.9841 29.447 71.606L26.9565 80.5555Z" fill="#31578D"/>
<path fill-rule="evenodd" clip-rule="evenodd" d="M29.0319 79.168C29.1702 79.5461 29.7237 79.6722 30.1388 79.5461C30.5538 79.4201 30.6922 78.9159 30.5538 78.5377C30.4155 78.1596 29.862 78.0335 29.4469 78.1596C29.0319 78.2856 28.8935 78.7898 29.0319 79.168Z" fill="#A19898"/>
<path fill-rule="evenodd" clip-rule="evenodd" d="M59.8268 64.0509C63.8649 75.1433 45.7018 83.4539 42.7326 84.8405L39.5259 79.4203C39.5259 79.4203 46.0581 73.496 49.1461 70.0927C50.3337 61.7734 45.4643 56.9835 41.5449 52.0676C41.1886 52.0676 47.251 38.6538 47.251 38.6538C47.251 38.6538 57.6889 52.3283 59.8268 64.0509Z" fill="#123C78"/>
<path fill-rule="evenodd" clip-rule="evenodd" d="M54.4086 70.4235C58.4467 81.5158 51.3117 75.7268 48.3425 77.1133L35.1865 80.6008C35.1865 80.6008 41.7187 74.6765 44.8067 71.2731C45.9944 62.9539 41.1249 58.164 37.2056 53.248C36.8493 53.248 44.1048 45.1221 44.1048 45.1221C44.1048 45.1221 52.2708 58.7009 54.4086 70.4235Z" fill="#111C53"/>
<path fill-rule="evenodd" clip-rule="evenodd" d="M44.6325 55.8489C42.7322 50.8069 43.2073 35.3028 45.2264 38.7061C48.0768 46.017 45.4639 49.6725 44.6325 55.8489Z" fill="#A9A5B0"/>
<path fill-rule="evenodd" clip-rule="evenodd" d="M46.6522 83.2023C44.8707 83.9586 43.4455 84.4628 42.8516 84.841L42.139 83.5805L37.7446 78.4124C37.7446 78.4124 39.0511 77.5301 41.0701 76.1436L46.6522 83.2023Z" fill="#0E3D60"/>
<path fill-rule="evenodd" clip-rule="evenodd" d="M44.2768 82.6982C44.2768 83.0763 44.0392 83.4545 43.5642 83.4545C43.2079 83.4545 42.8516 83.0763 42.8516 82.6982C42.8516 82.32 43.0891 81.9419 43.5642 81.9419C43.9205 81.9419 44.2768 82.194 44.2768 82.6982Z" fill="#A19898"/>
<path fill-rule="evenodd" clip-rule="evenodd" d="M20.998 35.9335C20.998 36.3117 21.3543 36.6898 21.7107 36.6898C22.067 36.6898 22.4233 36.3117 22.4233 35.9335C22.4233 35.5554 22.067 35.1772 21.7107 35.1772C21.3543 35.1772 20.998 35.5554 20.998 35.9335Z" fill="#A19898"/>
<path fill-rule="evenodd" clip-rule="evenodd" d="M46.0582 167.024L45.3456 172.823C45.3456 172.823 40.001 173.201 39.8823 172.571C39.7635 171.94 40.8324 166.268 40.8324 166.268L46.0582 167.024Z" fill="#5E5E5E"/>
<path fill-rule="evenodd" clip-rule="evenodd" d="M23.0172 167.024L22.3046 172.823C22.3046 172.823 16.96 173.201 16.8412 172.571C16.7225 171.94 17.7914 166.268 17.7914 166.268L23.0172 167.024Z" fill="#5E5E5E"/>
<path fill-rule="evenodd" clip-rule="evenodd" d="M45.0891 85.5899C45.0891 85.5899 46.9577 110.032 46.0518 142.484C45.6635 157.126 46.0518 182.552 46.0518 182.552H32.4921C32.4921 182.552 31.5862 161.709 32.4921 144.56C32.4921 135.66 30.1351 113.863 29.6175 113.468C28.5822 112.808 25.996 112.504 25.996 112.504C25.996 112.504 25.6077 128.466 23.9254 144.56C22.1136 162.896 18.8783 181.761 18.8783 182.156C18.7489 183.08 10.3869 182.288 10.3869 182.288C10.3869 182.288 10.3371 164.084 11.8901 144.164C13.5724 122.794 13.1245 90.0751 12.9951 86.3814C12.8656 79.3898 45.0891 85.5899 45.0891 85.5899Z" fill="#111C53"/>
<path fill-rule="evenodd" clip-rule="evenodd" d="M46.507 88.0332C46.8401 118.673 45.2059 151.63 46.507 182.252L38.8115 182.669C38.8115 168.637 36.4426 148.734 33.9732 114.263C33.8438 112.456 33.585 111.483 33.4556 111.344C32.9982 109.673 31.6141 108.878 31.6141 108.878C31.6141 108.878 28.885 124.294 27.2027 141.247C25.3909 160.563 22.8939 181.835 22.8939 182.252C22.7645 182.669 19.788 182.808 16.6821 182.669C16.6821 157.965 17.3253 121.457 17.3253 89.2839L29.7488 88.0332C37.5135 88.867 46.507 88.0332 46.507 88.0332Z" fill="#1D3266"/>
<path fill-rule="evenodd" clip-rule="evenodd" d="M5.07184 39.785C5.07184 39.785 10.6232 51.2804 11.4546 56.0703C12.1672 60.9862 8.00621 78.0004 12.9296 87.6406C12.9296 87.6406 22.6836 90.8305 31.2349 90.4524C39.7861 90.0742 46.1348 89.0296 46.1348 89.0296C51.8156 78.3852 46.1348 52.3435 46.1348 52.0914C46.1348 51.8393 47.5956 39.2022 47.5956 39.2022C47.5956 39.2022 45.1976 36.965 40.6152 35.3953C40.293 35.285 38.7153 34.0063 38.3716 33.9036C37.5231 33.6499 35.5893 32.382 34.6112 32.196C34.1126 32.1013 34.6112 38.0045 31.2349 37.4273C20.5158 39.6566 22.5948 30.5493 22.5948 30.5493C19.8527 32.4 19.1771 33.2245 17.9307 33.9036C17.5047 34.0295 15.4345 34.7601 15.0298 34.8927C9.86703 36.5847 4.94212 39.6473 5.07184 39.785Z" fill="#123C78"/>
<path fill-rule="evenodd" clip-rule="evenodd" d="M37.0857 33.8108L32.2569 58.2608L32.8342 59.6638L23.5737 37.1593C23.5737 37.1593 26.8763 37.3076 31.0242 37.5611C33.1696 37.6879 33.2682 32.643 37.0857 33.8108Z" fill="#77AEDC"/>
<path fill-rule="evenodd" clip-rule="evenodd" d="M30.8936 59.6638H34.1342L33.2315 40.8574C33.2315 40.8574 32.994 41.9273 31.5687 41.9273C30.1435 41.9273 29.6685 41.0714 29.6685 41.0714V55.1758L30.8936 59.6638Z" fill="#1E3F6F"/>
<path fill-rule="evenodd" clip-rule="evenodd" d="M34.062 38.4652L30.4354 36.623L28.0049 38.2258L29.6676 41.9362L30.1427 42.415C30.8553 43.1331 32.043 43.1331 32.7556 42.2953L33.2307 41.6968L34.062 38.4652Z" fill="#1E3F6F"/>
<path fill-rule="evenodd" clip-rule="evenodd" d="M45.8878 88.6728C34.2407 91.3698 23.8446 89.7374 13.3623 88.6729C13.3623 89.8794 13.3623 89.7374 13.4917 90.944C19.3678 95.2725 39.0289 94.8391 45.8878 92.8518C45.4995 91.8582 46.276 89.5955 45.8878 88.6728Z" fill="#111C53"/>
<path fill-rule="evenodd" clip-rule="evenodd" d="M24.0905 50.7163C24.3466 50.6944 24.573 50.882 24.5989 51.1377L25.5771 60.7786C25.6042 61.0451 25.4036 61.2805 25.1361 61.296L17.4734 61.7402C17.2245 61.7547 17.0076 61.5726 16.9786 61.325L15.8777 51.9065C15.8468 51.6427 16.0403 51.4056 16.305 51.3829L24.0905 50.7163Z" fill="#31578D"/>
<path d="M45.4404 45.0556C45.5682 45.041 45.684 45.1316 45.7006 45.2591L46.0037 47.5939C46.0209 47.7264 45.9245 47.8466 45.7915 47.8586L38.2365 48.5426C38.0987 48.5551 37.98 48.4466 37.98 48.3082V46.1205C37.98 46.0009 38.0697 45.9003 38.1885 45.8867L45.4404 45.0556Z" fill="#31578D" stroke="#948B6E" stroke-width="0.470673"/>
<path fill-rule="evenodd" clip-rule="evenodd" d="M24.3366 49.2928C24.3073 49.034 24.0734 48.8481 23.8146 48.8782L16.1532 49.7675C15.8955 49.7974 15.7106 50.0302 15.7397 50.2879L16.0526 53.0551C16.075 53.2532 16.2197 53.4157 16.4139 53.4607L20.2305 54.3468C20.3327 54.3706 20.44 54.3594 20.5352 54.3152L24.379 52.5305C24.5627 52.4452 24.6712 52.2519 24.6484 52.0507L24.3366 49.2928Z" fill="#3263A9"/>
<path fill-rule="evenodd" clip-rule="evenodd" d="M19.314 52.5297C19.314 52.9573 19.7169 53.385 20.1199 53.385C20.5229 53.385 20.9258 52.9573 20.9258 52.5297C20.9258 52.102 20.5229 51.6743 20.1199 51.6743C19.5826 51.6743 19.314 52.102 19.314 52.5297Z" fill="#A19898"/>
<path fill-rule="evenodd" clip-rule="evenodd" d="M44.3524 51.6152C44.6275 51.5832 44.8706 51.7946 44.8772 52.0715L45.0913 61.0467C45.0975 61.3051 44.8941 61.5202 44.6357 61.5284L37.6368 61.7501C37.3688 61.7586 37.1479 61.5418 37.1513 61.2737L37.2585 52.8518C37.2615 52.6152 37.4398 52.4176 37.6749 52.3903L44.3524 51.6152Z" fill="#31578D"/>
<path fill-rule="evenodd" clip-rule="evenodd" d="M44.9659 50.1528C44.9755 49.8863 44.7622 49.665 44.4955 49.665H37.7343C37.4744 49.665 37.2637 49.8758 37.2637 50.1357V52.4906C37.2637 52.6865 37.3851 52.862 37.5685 52.9311L40.7918 54.145C40.8913 54.1824 41.0006 54.1851 41.1018 54.1526L44.5505 53.0434C44.7391 52.9827 44.8696 52.8104 44.8768 52.6124L44.9659 50.1528Z" fill="#3263A9"/>
<path fill-rule="evenodd" clip-rule="evenodd" d="M40.2329 52.8164C40.2329 53.1945 40.5892 53.5727 40.9455 53.5727C41.3018 53.5727 41.6581 53.1945 41.6581 52.8164C41.6581 52.4382 41.3018 52.0601 40.9455 52.0601C40.5892 52.0601 40.2329 52.4382 40.2329 52.8164Z" fill="#A19898"/>
<path fill-rule="evenodd" clip-rule="evenodd" d="M15.3745 35.0591C15.2691 34.8999 15.0709 34.829 14.8854 34.8744C8.6374 36.4044 6.04489 37.9328 4.39347 39.3568C4.23567 39.4929 4.19176 39.7186 4.29223 39.9011C4.48081 40.2438 4.69973 40.5803 4.89943 40.8899C5.05577 41.1323 5.39134 41.1874 5.61992 41.0115C7.92781 39.2357 11.2249 37.772 15.6217 36.7123C15.9334 36.6372 16.0902 36.2787 15.9341 35.9987C15.7684 35.7016 15.5888 35.3827 15.3745 35.0591Z" fill="#31578D"/>
<path fill-rule="evenodd" clip-rule="evenodd" d="M40.5401 35.2513C40.6135 35.0018 40.8765 34.859 41.1249 34.9363C44.8907 36.1078 46.5082 37.3866 47.5805 38.7728C47.6705 38.8891 47.6965 39.0417 47.655 39.1828C47.5744 39.4567 47.4939 39.7305 47.4133 40.0044C47.307 40.3653 46.8367 40.4654 46.5719 40.198C45.1123 38.724 43.1312 37.5992 40.5751 36.8237C40.324 36.7475 40.1773 36.4842 40.2514 36.2325C40.3476 35.9054 40.4438 35.5784 40.5401 35.2513Z" fill="#31578D"/>
<path fill-rule="evenodd" clip-rule="evenodd" d="M31.6352 38.5629C31.6352 38.5629 26.6008 40.8153 26.4861 41.6309C26.3715 42.4465 22.9116 36.593 22.3452 33.3614C22.2007 32.5371 22.797 31.0892 22.9116 31.2704C24.5164 34.4424 31.6352 38.5629 31.6352 38.5629Z" fill="#0C2941" fill-opacity="0.2"/>
<path fill-rule="evenodd" clip-rule="evenodd" d="M32.3728 37.111C32.3728 37.111 25.7508 40.8063 25.6362 41.622C25.5216 42.4376 22.4563 35.1209 21.8899 31.8893C21.7454 31.065 23.0685 28.0962 23.1831 28.2775C24.316 31.8893 32.3728 37.111 32.3728 37.111Z" fill="#77AEDC"/>
<path fill-rule="evenodd" clip-rule="evenodd" d="M42.1109 35.831C42.1109 36.2091 41.8733 36.5873 41.3983 36.7133C41.042 36.7133 40.6857 36.4613 40.5669 35.9571C40.5669 35.5789 40.8044 35.2008 41.2795 35.0747C41.7546 35.0747 42.1109 35.4529 42.1109 35.831Z" fill="#A19898"/>
<path opacity="0.2" fill-rule="evenodd" clip-rule="evenodd" d="M30.6831 39.6083C30.6831 39.6083 34.6803 41.1826 34.9729 41.9982C35.2655 42.8139 37.1252 34.5639 37.1252 34.5639C37.1252 34.5639 34.3831 33.5341 34.3831 33.806C34.3831 35.5279 30.6831 39.6083 30.6831 39.6083Z" fill="#232056"/>
<path fill-rule="evenodd" clip-rule="evenodd" d="M31.9253 37.111C31.9253 37.111 35.3334 39.8181 35.5683 40.629C35.8032 41.44 37.2965 33.5367 37.2965 33.5367C37.2965 33.5367 34.6109 31.0323 34.6109 31.3026C34.6109 34.4299 31.9253 37.111 31.9253 37.111Z" fill="#77AEDC"/>
<path fill-rule="evenodd" clip-rule="evenodd" d="M0.593232 70.1749C1.83848 81.7715 28.0632 80.3028 31.7989 80.3028L32.4907 74.1264C32.4907 74.1264 22.6804 72.1148 17.5611 70.4762C12.0266 63.5435 14.2657 63.1312 12.882 54.6859C13.2971 54.5599 6.78511 44.46 6.78511 44.46C6.78511 44.46 -1.19725 57.6643 0.593232 70.1749Z" fill="#111C53"/>
<path fill-rule="evenodd" clip-rule="evenodd" d="M0.609224 69.8402C1.57775 72.6133 6.00738 74.7561 7.39098 76.1427C15.1392 79.546 27.6484 78.5376 31.7993 79.0418L33.8747 72.2351C33.8747 72.2351 19.9002 68.9934 13.2589 67.859C12.1973 67.6777 12.1722 63.4728 12.1722 52.6939C11.6188 47.3999 5.6682 40.8308 4.14623 39.5703C4.42295 39.8224 -1.95515 47.5009 0.609224 69.8402Z" fill="#123C78"/>
<g style="mix-blend-mode:overlay">
<path d="M17.6069 79.3355C16.963 73.9528 18.4369 69.4429 19.9366 69.0169L21.7005 69.3811C18.7073 72.412 19.252 76.9875 19.3708 79.6997L17.6069 79.3355Z" fill="white"/>
</g>
<g style="mix-blend-mode:overlay">
<path d="M20.8362 79.7727C19.9994 74.706 21.221 70.2839 22.6354 69.7466L24.3348 69.9382C21.6015 73.0861 22.3104 77.3933 22.5356 79.9643L20.8362 79.7727Z" fill="white"/>
</g>
<path fill-rule="evenodd" clip-rule="evenodd" d="M15.0434 35.8073C15.0434 36.1855 14.8058 36.5636 14.3308 36.6897C13.9745 36.6897 13.6182 36.4376 13.6182 35.9334C13.6182 35.5552 13.8557 35.1771 14.3308 35.1771C14.6871 35.051 14.9246 35.4292 15.0434 35.8073Z" fill="#A19898"/>
<path fill-rule="evenodd" clip-rule="evenodd" d="M32.2144 78.412L33.598 79.6725C33.598 79.6725 37.6104 80.3027 37.8872 80.4288C38.3022 80.5548 43.2832 75.5129 43.2832 75.5129C43.2832 75.5129 41.4845 74.2524 38.8557 73.4961C36.9186 72.9919 34.9816 73.4961 33.4596 73.4961C31.5225 73.4961 30.8307 76.6473 30.6924 76.8994C30.8307 77.1515 32.4911 78.2859 32.2144 78.412Z" fill="#FFC2A7"/>
<path fill-rule="evenodd" clip-rule="evenodd" d="M39.9622 73.748C39.2704 73.4959 38.5786 73.748 38.3018 74.3782C38.0251 75.0085 38.3018 75.6387 38.9936 75.8908L45.3582 77.9076C46.0501 78.1597 46.6035 78.2857 46.8802 77.7815C47.1569 77.1513 46.4651 76.7732 45.9117 76.5211L39.9622 73.748Z" fill="#ED9C94"/>
<path fill-rule="evenodd" clip-rule="evenodd" d="M39.1323 75.3871C38.4405 75.135 37.6103 75.3871 37.3336 76.0174C37.0569 76.6476 37.3336 77.4039 38.0254 77.656L44.6667 79.6728C45.3585 79.9249 45.912 80.177 46.327 79.5468C46.6038 78.9165 45.912 78.5384 45.2201 78.2863L39.1323 75.3871Z" fill="#ED9C94"/>
<path fill-rule="evenodd" clip-rule="evenodd" d="M38.0252 76.7734C37.3334 76.5213 36.6416 76.7734 36.3648 77.4036C36.0881 78.0339 36.3648 78.6641 37.0566 78.9162L43.4212 80.933C44.113 81.1851 44.6665 81.3112 44.9432 80.807C45.2199 80.1767 44.5281 79.7986 43.9747 79.5465L38.0252 76.7734Z" fill="#ED9C94"/>
<path fill-rule="evenodd" clip-rule="evenodd" d="M36.3652 78.0333C35.6734 77.7812 34.9816 77.9072 34.7048 78.4114C34.4281 78.9156 34.8432 79.5459 35.535 79.798L41.7613 81.8148C42.4531 82.0669 43.0065 82.319 43.2832 81.8148C43.56 81.3106 42.8682 80.9324 42.1763 80.6803L36.3652 78.0333Z" fill="#ED9C94"/>
<path fill-rule="evenodd" clip-rule="evenodd" d="M51.1337 55.7596C51.5194 55.1925 52.1829 54.88 52.8657 54.9438L73.7371 56.8941L55.2013 84.4667C54.9229 84.8808 54.4467 85.1172 53.9486 85.0887L32.0435 83.8317L51.1337 55.7596Z" fill="#107EDC"/>
<path fill-rule="evenodd" clip-rule="evenodd" d="M32.0435 83.8318L51.8328 55.4327L74.0001 56.9822L73.9934 56.9394C73.9273 56.5185 73.5868 56.1945 73.1631 56.1494L52.2425 53.9215C51.7253 53.8664 51.2198 54.1001 50.9266 54.5297L31.8383 82.5059C31.607 82.845 31.622 83.295 31.8755 83.6178L32.0435 83.8318Z" fill="#D1D2D3"/>
<path fill-rule="evenodd" clip-rule="evenodd" d="M65.4244 73.0536C65.8493 73.2178 66.6643 73.291 66.6643 72.4703C66.6643 71.6495 66.4519 70.9929 66.027 70.8288L62.5214 70.1722C62.0965 70.0081 61.7778 70.0081 61.7778 70.8288C61.7778 71.6495 62.0965 71.8137 62.5214 71.9778L65.4244 73.0536Z" fill="#FFC2A7"/>
<path fill-rule="evenodd" clip-rule="evenodd" d="M66.652 71.6483C67.1937 71.8124 67.4644 71.2835 68.0277 70.606C68.0277 69.7853 68.0061 68.781 67.4644 68.6169L62.1834 67.9603C61.6417 67.7961 61.1001 67.7961 61.1001 68.6169C61.1001 69.4376 61.6417 69.9301 62.1834 69.9301L66.652 71.6483Z" fill="#FFC2A7"/>
<path fill-rule="evenodd" clip-rule="evenodd" d="M67.8713 69.6C68.413 69.7642 68.9546 69.1076 69.0901 68.2869C69.0901 67.4661 68.6838 66.4812 68.1422 66.3171L62.8611 65.6605C62.3195 65.4963 61.7778 65.4963 61.7778 66.3171C61.7778 67.1378 62.3195 67.4661 62.8611 67.6303L67.8713 69.6Z" fill="#FFC2A7"/>
<path fill-rule="evenodd" clip-rule="evenodd" d="M68.6835 67.1384C69.2252 67.3025 69.7668 66.8101 69.7668 66.1535C69.7668 65.4969 69.3606 64.6762 68.8189 64.512L63.5379 63.6913C62.9962 63.5271 62.4546 63.5271 62.4546 64.1837C62.4546 64.8403 62.9962 65.1686 63.5379 65.3328L68.6835 67.1384Z" fill="#FFC2A7"/>
<path fill-rule="evenodd" clip-rule="evenodd" d="M26.9565 80.5555C29.1703 80.4294 30.969 80.3034 31.7992 80.3034L31.9375 78.7908L34.013 72.2362C34.013 72.2362 32.0759 71.9841 29.447 71.606L26.9565 80.5555Z" fill="#31578D"/>
<path fill-rule="evenodd" clip-rule="evenodd" d="M29.0319 79.168C29.1702 79.5461 29.7237 79.6722 30.1388 79.5461C30.5538 79.4201 30.6922 78.9159 30.5538 78.5377C30.4155 78.1596 29.862 78.0335 29.4469 78.1596C29.0319 78.2856 28.8935 78.7898 29.0319 79.168Z" fill="#A19898"/>
<path d="M41.1867 22.7886C41.3375 21.8912 42.3938 18.3603 42.3938 18.3603L42.2057 10.0157C42.2395 9.85501 39.4691 9.85195 39.4691 9.85195L26.1965 7.74563C26.1965 7.74563 21.5489 15.0801 25.0652 22.4065C25.5025 28.0765 25.8565 27.6947 28.6271 30.3496C30.3206 31.9723 33.0376 32.8774 35.3013 32.6093C38.3336 32.2502 40.7524 25.3733 41.1867 22.7886Z" fill="#FFC2A7"/>
<path opacity="0.5" d="M34.0188 29.9181C33.413 29.6482 33.7074 29.2431 34.3237 29.4862C34.3742 29.5061 34.4242 29.5251 34.4736 29.5427C35.0411 29.7443 35.4739 29.6363 36.0151 29.7728C35.9187 30.0613 35.3595 30.3897 34.9813 30.2666C34.7113 30.1782 34.3542 30.0675 34.0188 29.9181Z" fill="#E17C5C"/>
<g style="mix-blend-mode:multiply" opacity="0.3">
<path d="M25.5545 12.0375C27.2826 12.4461 30.7937 11.663 32.3849 11.0932C34.2883 10.4113 36.8848 10.6982 38.7279 11.5652C40.1795 12.2467 42.5223 13.4117 43.1912 14.906C42.7498 14.1922 40.6067 12.8577 39.1044 13.3382C36.8512 11.6414 33.5152 12.456 32.7727 12.3489C32.2165 12.2707 31.5148 12.7416 30.9972 12.9574C30.3332 13.2361 29.2648 15.6746 28.8575 16.2654C28.3455 17.0021 28.6298 18.5054 27.5885 20.7814C26.3372 25.6936 27.6939 27.7095 29.9873 31.6937C29.9873 31.6937 23.8697 28.6058 24.5115 22.2945C24.6778 20.6592 23.3578 16.0186 24.3122 14.7207C25.3255 13.3408 23.9061 11.6507 25.5545 12.0375Z" fill="#FA8C6B"/>
</g>
<path d="M25.2848 7.18405C25.9683 5.86358 31.9645 6.93003 33.1224 6.93077C34.1118 6.93667 35.3029 6.96518 36.1958 7.47563C37.2651 8.08466 37.3821 9.43604 36.3474 10.2827C35.8399 10.6976 35.1956 10.8693 34.5726 11.0291L32.7292 11.5061C32.2992 11.6172 32.5787 11.7515 32.224 12.0285C31.967 12.2295 31.0419 12.4875 30.8619 12.7583C30.1518 13.8025 29.2635 14.3305 28.5285 15.3138C28.2686 15.6601 27.6794 18.1985 27.2435 19.6053C26.495 19.0042 25.498 17.5597 25.0511 16.6225C24.6901 17.2338 24.4473 17.9136 24.3368 18.6228C24.2263 19.332 24.2501 20.0565 24.407 20.7546C24.6621 21.8622 25.1836 22.7315 24.987 23.8532C24.8668 24.5385 24.0345 22.6468 23.4523 23.1202C23.3869 18.5123 22.7083 12.7774 25.2848 7.18405Z" fill="#6D2132"/>
<path d="M26.058 17.2011C25.8728 16.1451 24.765 15.2083 23.7745 15.649C22.3277 16.3192 22.2417 18.6607 22.8423 20.0681C23.2337 20.9198 24.1353 22.0608 24.9364 21.7441C26.0215 21.2415 26.4453 19.2328 26.058 17.2011Z" fill="#FDB096"/>
<path d="M25.0469 16.9626C24.8208 16.4874 24.3885 16.2165 23.8545 16.4277C22.8642 16.8683 22.7583 18.5303 23.1935 19.561C23.1935 19.561 23.1766 19.6413 23.2543 19.6597C23.0592 18.264 23.6313 16.7123 25.0469 16.9626Z" fill="#FB8761"/>
<path d="M24.1218 16.3226C24.1218 16.3226 25.5614 16.0727 25.097 18.6617C24.7523 18.7489 24.6337 19.3112 24.9206 19.8851C24.8529 20.2064 24.6636 20.3303 24.6636 20.3303C24.6636 20.3303 23.9543 19.8252 24.2353 18.8796C24.3369 18.3976 24.8101 18.0878 24.8101 18.0878C24.8101 18.0878 24.8381 16.4077 24.1218 16.3226Z" fill="#E86850"/>
<path d="M37.2955 20.5892C37.7069 20.7755 37.4058 23.8085 37.3336 25.665C37.3324 25.6977 37.3277 25.7303 37.3191 25.762C37.0075 26.9154 36.2376 26.7915 35.5882 26.6705C34.7866 26.5226 34.3468 26.0199 33.8789 25.3619C33.8306 25.3098 33.8031 25.2379 33.8019 25.1607C33.8338 24.785 37.121 28.6734 36.8694 24.6176C36.8837 23.6197 37.008 20.459 37.2955 20.5892Z" fill="#E86850"/>
<path d="M31.4182 18.5314C31.0071 18.8292 29.6443 20.3377 32.5793 21.0511C35.5143 21.7645 35.5349 20.1769 35.4268 19.1396C35.2613 18.6835 32.0555 18.0962 31.4182 18.5314Z" fill="#FFC2A7"/>
<path d="M34.8545 20.7811C34.8735 20.6397 34.7377 20.6265 34.6557 20.7426C34.5297 20.9213 34.2787 21.0582 33.6529 21.0639C32.9752 21.0688 32.4319 20.8532 32.0902 20.6294C31.9711 20.5514 31.7947 20.6467 31.8713 20.7676C32.0935 21.1182 32.5995 21.4653 33.6108 21.5236C34.534 21.5777 34.7999 21.1873 34.8545 20.7811Z" fill="#6D2132"/>
<path d="M41.9823 19.61C42.209 20.083 42.0535 22.1388 39.8302 21.8253C37.1059 21.4472 38.0778 19.7819 38.5266 18.7088C38.8204 18.2899 41.6364 18.8913 41.9823 19.61Z" fill="#FFC2A7"/>
<path d="M37.9886 21.5715C37.9278 21.4467 38.0602 21.4139 38.1536 21.5159C38.3959 21.7803 38.8286 22.0573 39.5296 22.1796C40.1185 22.2711 40.4289 22.1349 40.6244 21.9659C40.729 21.8756 40.8811 21.9405 40.8413 22.0735C40.7428 22.4023 40.4988 22.7207 39.7548 22.6443C38.8239 22.5481 38.2058 22.0175 37.9886 21.5715Z" fill="#6D2132"/>
<path d="M32.9575 27.2817C32.9011 27.18 33.0166 27.1503 33.1038 27.2265C33.3937 27.4801 34.0125 27.783 35.1251 27.9128C36.0545 28.0101 36.4703 27.8448 36.7243 27.6765C36.8306 27.606 36.9668 27.6912 36.9171 27.8093C36.7968 28.0951 36.4831 28.3822 35.4365 28.3066C34.0566 28.2064 33.1756 27.6751 32.9575 27.2817Z" fill="#E86850"/>
<path d="M30.2616 18.4736C30.1543 18.6996 30.3634 18.9088 30.6136 18.9221C31.5586 18.9726 33.7949 19.1707 35.2047 19.9376C35.4564 20.0746 35.8023 20.0022 35.8342 19.7175C35.8723 19.3776 35.7458 19.1226 35.621 19.0489C34.3339 18.2777 31.9395 17.6419 30.6152 18.1393C30.4335 18.2075 30.3256 18.3388 30.2616 18.4736Z" fill="#6D2132"/>
<path d="M42.0593 20.5536C41.9932 20.7457 41.777 20.82 41.579 20.7762C40.9955 20.6472 39.6717 20.4192 37.9024 20.5095C37.6925 20.5202 37.5077 20.3828 37.5811 20.186C37.7181 19.819 38.0944 19.3855 38.2358 19.3568C39.2854 19.1653 41.574 19.5099 41.954 19.8823C42.1585 20.0826 42.1296 20.3496 42.0593 20.5536Z" fill="#6D2132"/>
<ellipse rx="0.699437" ry="0.290507" transform="matrix(-0.974546 -0.223372 -0.23224 0.971964 39.3036 22.4752)" fill="#6D2132"/>
<ellipse rx="0.811389" ry="0.334438" transform="matrix(-0.991385 -0.104083 -0.109401 0.996459 33.4867 21.4441)" fill="#6D2132"/>
<path d="M41.1867 22.7886C41.3375 21.8912 42.3938 18.3603 42.3938 18.3603L42.2057 10.0157C42.2395 9.85501 39.4691 9.85195 39.4691 9.85195L26.1965 7.74563C26.1965 7.74563 21.5489 15.0801 25.0652 22.4065C25.5025 28.0765 25.8565 27.6947 28.6271 30.3496C30.3206 31.9723 33.0376 32.8774 35.3013 32.6093C38.3336 32.2502 40.7524 25.3733 41.1867 22.7886Z" fill="#FFC2A7"/>
<path opacity="0.5" d="M34.0188 29.9181C33.413 29.6482 33.7074 29.2431 34.3237 29.4862C34.3742 29.5061 34.4242 29.5251 34.4736 29.5427C35.0411 29.7443 35.4739 29.6363 36.0151 29.7728C35.9187 30.0613 35.3595 30.3897 34.9813 30.2666C34.7113 30.1782 34.3542 30.0675 34.0188 29.9181Z" fill="#E17C5C"/>
<g style="mix-blend-mode:multiply" opacity="0.3">
<path d="M25.5545 12.0375C27.2826 12.4461 30.7937 11.663 32.3849 11.0932C34.2883 10.4113 36.8848 10.6982 38.7279 11.5652C40.1795 12.2467 42.5223 13.4117 43.1912 14.906C42.7498 14.1922 40.6067 12.8577 39.1044 13.3382C36.8512 11.6414 33.5152 12.456 32.7727 12.3489C32.2165 12.2707 31.5148 12.7416 30.9972 12.9574C30.3332 13.2361 29.2648 15.6746 28.8575 16.2654C28.3455 17.0021 28.6298 18.5054 27.5885 20.7814C26.3372 25.6936 27.6939 27.7095 29.9873 31.6937C29.9873 31.6937 23.8697 28.6058 24.5115 22.2945C24.6778 20.6592 23.3578 16.0186 24.3122 14.7207C25.3255 13.3408 23.9061 11.6507 25.5545 12.0375Z" fill="#FA8C6B"/>
</g>
<path d="M25.2848 7.18405C25.9683 5.86358 31.9645 6.93003 33.1224 6.93077C34.1118 6.93667 35.3029 6.96518 36.1958 7.47563C37.2651 8.08466 37.3821 9.43604 36.3474 10.2827C35.8399 10.6976 35.1956 10.8693 34.5726 11.0291L32.7292 11.5061C32.2992 11.6172 32.5787 11.7515 32.224 12.0285C31.967 12.2295 31.0419 12.4875 30.8619 12.7583C30.1518 13.8025 29.2635 14.3305 28.5285 15.3138C28.2686 15.6601 27.6794 18.1985 27.2435 19.6053C26.495 19.0042 25.498 17.5597 25.0511 16.6225C24.6901 17.2338 24.4473 17.9136 24.3368 18.6228C24.2263 19.332 24.2501 20.0565 24.407 20.7546C24.6621 21.8622 25.1836 22.7315 24.987 23.8532C24.8668 24.5385 24.0345 22.6468 23.4523 23.1202C23.3869 18.5123 22.7083 12.7774 25.2848 7.18405Z" fill="#6D2132"/>
<path d="M26.058 17.2011C25.8728 16.1451 24.765 15.2083 23.7745 15.649C22.3277 16.3192 22.2417 18.6607 22.8423 20.0681C23.2337 20.9198 24.1353 22.0608 24.9364 21.7441C26.0215 21.2415 26.4453 19.2328 26.058 17.2011Z" fill="#FDB096"/>
<path d="M25.0469 16.9626C24.8208 16.4874 24.3885 16.2165 23.8545 16.4277C22.8642 16.8683 22.7583 18.5303 23.1935 19.561C23.1935 19.561 23.1766 19.6413 23.2543 19.6597C23.0592 18.264 23.6313 16.7123 25.0469 16.9626Z" fill="#FB8761"/>
<path d="M24.1218 16.3226C24.1218 16.3226 25.5614 16.0727 25.097 18.6617C24.7523 18.7489 24.6337 19.3112 24.9206 19.8851C24.8529 20.2064 24.6636 20.3303 24.6636 20.3303C24.6636 20.3303 23.9543 19.8252 24.2353 18.8796C24.3369 18.3976 24.8101 18.0878 24.8101 18.0878C24.8101 18.0878 24.8381 16.4077 24.1218 16.3226Z" fill="#E86850"/>
<path d="M37.2955 20.5892C37.7069 20.7755 37.4058 23.8085 37.3336 25.665C37.3324 25.6977 37.3277 25.7303 37.3191 25.762C37.0075 26.9154 36.2376 26.7915 35.5882 26.6705C34.7866 26.5226 34.3468 26.0199 33.8789 25.3619C33.8306 25.3098 33.8031 25.2379 33.8019 25.1607C33.8338 24.785 37.121 28.6734 36.8694 24.6176C36.8837 23.6197 37.008 20.459 37.2955 20.5892Z" fill="#E86850"/>
<path d="M31.4182 18.5314C31.0071 18.8292 29.6443 20.3377 32.5793 21.0511C35.5143 21.7645 35.5349 20.1769 35.4268 19.1396C35.2613 18.6835 32.0555 18.0962 31.4182 18.5314Z" fill="#FFC2A7"/>
<path d="M34.8545 20.7811C34.8735 20.6397 34.7377 20.6265 34.6557 20.7426C34.5297 20.9213 34.2787 21.0582 33.6529 21.0639C32.9752 21.0688 32.4319 20.8532 32.0902 20.6294C31.9711 20.5514 31.7947 20.6467 31.8713 20.7676C32.0935 21.1182 32.5995 21.4653 33.6108 21.5236C34.534 21.5777 34.7999 21.1873 34.8545 20.7811Z" fill="#6D2132"/>
<path d="M41.9823 19.61C42.209 20.083 42.0535 22.1388 39.8302 21.8253C37.1059 21.4472 38.0778 19.7819 38.5266 18.7088C38.8204 18.2899 41.6364 18.8913 41.9823 19.61Z" fill="#FFC2A7"/>
<path d="M37.9886 21.5715C37.9278 21.4467 38.0602 21.4139 38.1536 21.5159C38.3959 21.7803 38.8286 22.0573 39.5296 22.1796C40.1185 22.2711 40.4289 22.1349 40.6244 21.9659C40.729 21.8756 40.8811 21.9405 40.8413 22.0735C40.7428 22.4023 40.4988 22.7207 39.7548 22.6443C38.8239 22.5481 38.2058 22.0175 37.9886 21.5715Z" fill="#6D2132"/>
<path d="M32.9575 27.2817C32.9011 27.18 33.0166 27.1503 33.1038 27.2265C33.3937 27.4801 34.0125 27.783 35.1251 27.9128C36.0545 28.0101 36.4703 27.8448 36.7243 27.6765C36.8306 27.606 36.9668 27.6912 36.9171 27.8093C36.7968 28.0951 36.4831 28.3822 35.4365 28.3066C34.0566 28.2064 33.1756 27.6751 32.9575 27.2817Z" fill="#E86850"/>
<path d="M30.2616 18.4736C30.1543 18.6996 30.3634 18.9088 30.6136 18.9221C31.5586 18.9726 33.7949 19.1707 35.2047 19.9376C35.4564 20.0746 35.8023 20.0022 35.8342 19.7175C35.8723 19.3776 35.7458 19.1226 35.621 19.0489C34.3339 18.2777 31.9395 17.6419 30.6152 18.1393C30.4335 18.2075 30.3256 18.3388 30.2616 18.4736Z" fill="#6D2132"/>
<path d="M42.0593 20.5536C41.9932 20.7457 41.777 20.82 41.579 20.7762C40.9955 20.6472 39.6717 20.4192 37.9024 20.5095C37.6925 20.5202 37.5077 20.3828 37.5811 20.186C37.7181 19.819 38.0944 19.3855 38.2358 19.3568C39.2854 19.1653 41.574 19.5099 41.954 19.8823C42.1585 20.0826 42.1296 20.3496 42.0593 20.5536Z" fill="#6D2132"/>
<ellipse rx="0.699437" ry="0.290507" transform="matrix(-0.974546 -0.223372 -0.23224 0.971964 39.3036 22.4752)" fill="#6D2132"/>
<ellipse rx="0.811389" ry="0.334438" transform="matrix(-0.991385 -0.104083 -0.109401 0.996459 33.4867 21.4441)" fill="#6D2132"/>
<path fill-rule="evenodd" clip-rule="evenodd" d="M41.9024 4.10727C34.7773 2.56797 22.3288 4.11385 22.044 6.68111C21.7724 9.17818 27.3095 11.9079 34.3783 12.7048C38.1314 13.1505 41.552 12.9402 44.0119 12.3033C52.0198 10.1632 48.0275 5.43053 41.9024 4.10727Z" fill="#102B6F"/>
<path fill-rule="evenodd" clip-rule="evenodd" d="M24.5718 9.85566C26.8025 11.1408 30.362 12.2749 34.3782 12.7045C38.1314 13.1502 41.552 12.9399 44.0119 12.303C48.7311 11.0588 49.2628 8.91002 47.7126 7.11469C46.6038 6.43702 45.2682 5.92939 43.7681 5.60533C36.643 4.06603 24.1945 5.61192 23.9097 8.17918C23.8804 8.684 24.1011 9.24283 24.5718 9.85566Z" fill="#111C53"/>
<path fill-rule="evenodd" clip-rule="evenodd" d="M28.6355 12.3197C29.9602 13.7757 32.4975 17.1212 39.6423 18.056C45.8344 18.8661 45.4725 16.3473 43.237 14.3028C38.0113 13.2825 32.9847 12.5648 28.6355 12.3197Z" fill="#102B6F"/>
<path fill-rule="evenodd" clip-rule="evenodd" d="M44.002 11.4766C39.7389 10.0275 29.8528 9.09408 24.0377 9.56757C23.8955 10.7048 23.9079 10.9997 23.7657 12.1369C30.8607 12.3102 38.659 13.3686 43.6397 14.5373C43.8459 13.4142 43.9237 12.6279 44.002 11.4766Z" fill="#DAD7DC"/>
<path fill-rule="evenodd" clip-rule="evenodd" d="M34.6285 9.85298C30.8544 9.46089 26.9616 9.33479 24.0511 9.57086C23.912 10.7087 23.9277 11.0043 23.7886 12.1422C26.7819 12.2164 29.9511 12.4754 32.8928 12.8305L34.6285 9.85298Z" fill="#F4F4F3"/>
<path fill-rule="evenodd" clip-rule="evenodd" d="M41.9515 5.69621C40.2602 5.54323 38.8426 6.32677 38.6976 7.46326C38.5525 8.59975 39.8185 9.68152 41.4969 9.90469C43.1881 10.0577 44.6057 9.27413 44.7508 8.13764C44.8958 7.00116 43.6428 5.8492 41.9515 5.69621Z" fill="#ED9839"/>
<path fill-rule="evenodd" clip-rule="evenodd" d="M41.8711 6.482C40.8048 6.39348 39.8931 6.85014 39.8125 7.63568C39.7447 8.35103 40.5114 9.03086 41.5648 9.18957C42.6312 9.2781 43.5429 8.82144 43.6235 8.0359C43.7041 7.25036 42.9374 6.57053 41.8711 6.482Z" fill="#D68133"/>
<path fill-rule="evenodd" clip-rule="evenodd" d="M41.9024 4.10727C34.7773 2.56797 22.3288 4.11385 22.044 6.68111C21.7724 9.17818 27.3095 11.9079 34.3783 12.7048C38.1314 13.1505 41.552 12.9402 44.0119 12.3033C52.0198 10.1632 48.0275 5.43053 41.9024 4.10727Z" fill="#102B6F"/>
<path fill-rule="evenodd" clip-rule="evenodd" d="M24.5718 9.85566C26.8025 11.1408 30.362 12.2749 34.3782 12.7045C38.1314 13.1502 41.552 12.9399 44.0119 12.303C48.7311 11.0588 49.2628 8.91002 47.7126 7.11469C46.6038 6.43702 45.2682 5.92939 43.7681 5.60533C36.643 4.06603 24.1945 5.61192 23.9097 8.17918C23.8804 8.684 24.1011 9.24283 24.5718 9.85566Z" fill="#111C53"/>
<path fill-rule="evenodd" clip-rule="evenodd" d="M28.6355 12.3197C29.9602 13.7757 32.4975 17.1212 39.6423 18.056C45.8344 18.8661 45.4725 16.3473 43.237 14.3028C38.0113 13.2825 32.9847 12.5648 28.6355 12.3197Z" fill="#102B6F"/>
<path fill-rule="evenodd" clip-rule="evenodd" d="M44.002 11.4766C39.7389 10.0275 29.8528 9.09408 24.0377 9.56757C23.8955 10.7048 23.9079 10.9997 23.7657 12.1369C30.8607 12.3102 38.659 13.3686 43.6397 14.5373C43.8459 13.4142 43.9237 12.6279 44.002 11.4766Z" fill="#DAD7DC"/>
<path fill-rule="evenodd" clip-rule="evenodd" d="M34.6285 9.85298C30.8544 9.46089 26.9616 9.33479 24.0511 9.57086C23.912 10.7087 23.9277 11.0043 23.7886 12.1422C26.7819 12.2164 29.9511 12.4754 32.8928 12.8305L34.6285 9.85298Z" fill="#F4F4F3"/>
<path fill-rule="evenodd" clip-rule="evenodd" d="M41.9515 5.69621C40.2602 5.54323 38.8426 6.32677 38.6976 7.46326C38.5525 8.59975 39.8185 9.68152 41.4969 9.90469C43.1881 10.0577 44.6057 9.27413 44.7508 8.13764C44.8958 7.00116 43.6428 5.8492 41.9515 5.69621Z" fill="#ED9839"/>
<path fill-rule="evenodd" clip-rule="evenodd" d="M41.8711 6.482C40.8048 6.39348 39.8931 6.85014 39.8125 7.63568C39.7447 8.35103 40.5114 9.03086 41.5648 9.18957C42.6312 9.2781 43.5429 8.82144 43.6235 8.0359C43.7041 7.25036 42.9374 6.57053 41.8711 6.482Z" fill="#D68133"/>
<path d="M18.9712 44.402C17.94 44.1614 24.9632 43.6999 23.914 43.7977C27.6532 49.6142 29.3982 53.0513 32.8881 59.661C32.3041 59.3079 31.6222 57.8861 31.3924 57.2815C28.4011 52.2581 26.0168 47.8133 23.6648 44.402L18.9712 45.384C19.9338 45.5767 18.6792 45.3169 18.1806 44.402L18.1857 35.4898C17.9498 35.2319 17.6658 34.945 17.6854 34.6154C17.758 33.3745 17.9445 34.4349 18.0998 34.6583C18.4513 35.161 18.4285 44.2749 18.9712 44.402Z" fill="#111C53"/>
<path d="M18.9712 44.402C17.94 44.1614 24.9632 43.6999 23.914 43.7977C27.6532 49.6142 29.3982 53.0513 32.8881 59.661C32.3041 59.3079 31.6222 57.8861 31.3924 57.2815C28.4011 52.2581 26.0168 47.8133 23.6648 44.402L18.9712 45.384C19.9338 45.5767 18.6792 45.3169 18.1806 44.402L18.1857 35.4898C17.9498 35.2319 17.6658 34.945 17.6854 34.6154C17.758 33.3745 17.9445 34.4349 18.0998 34.6583C18.4513 35.161 18.4285 44.2749 18.9712 44.402Z" fill="#111C53"/>
<path d="M41.8982 42.8105L38.1553 41.4512C38.0905 41.504 38.036 41.5706 37.9951 41.6471C37.9543 41.7235 37.9279 41.808 37.9176 41.8955L41.998 42.9365" fill="#111C53"/>
<path d="M41.8982 42.8105L38.1553 41.4512C38.0905 41.504 38.036 41.5706 37.9951 41.6471C37.9543 41.7235 37.9279 41.808 37.9176 41.8955L41.998 42.9365" fill="#111C53"/>
<path d="M34.0056 58.7723C33.8068 58.7679 33.7935 59.5448 33.6355 59.3964C33.8184 58.2721 36.9521 45.3845 37.1614 44.8995C37.5728 43.9578 37.8445 41.9831 38.4146 41.3572C38.8384 42.3029 37.7217 44.7676 37.449 45.8411C36.9481 47.8194 34.4068 56.7695 34.0056 58.7723Z" fill="#111C53"/>
<path d="M34.0056 58.7723C33.8068 58.7679 33.7935 59.5448 33.6355 59.3964C33.8184 58.2721 36.9521 45.3845 37.1614 44.8995C37.5728 43.9578 37.8445 41.9831 38.4146 41.3572C38.8384 42.3029 37.7217 44.7676 37.449 45.8411C36.9481 47.8194 34.4068 56.7695 34.0056 58.7723Z" fill="#111C53"/>
</svg>
