<svg width="232" height="80" viewBox="0 0 232 80" fill="none" xmlns="http://www.w3.org/2000/svg">
<path fill-rule="evenodd" clip-rule="evenodd" d="M140.823 38.4215C152.249 38.0805 157.282 45.7883 157.35 58.8165C157.35 71.7765 148.032 80.03 138.375 79.2115C128.717 78.393 121.168 70.0713 121.848 58.8165C122.528 47.5617 129.397 38.7626 140.823 38.4215Z" fill="#231F20"/>
<path fill-rule="evenodd" clip-rule="evenodd" d="M145.788 40.877C151.705 40.877 156.398 47.2888 157.282 55.8833C157.35 56.8383 157.35 57.7932 157.35 58.8164C157.35 70.003 150.413 78.6657 142.387 79.0068C136.334 77.779 132.049 69.7301 132.458 60.0442C132.934 49.4715 138.919 40.877 145.788 40.877Z" fill="#383431"/>
<path fill-rule="evenodd" clip-rule="evenodd" d="M145.856 43.2646C151.433 43.2646 156.738 50.2222 155.514 60.4538C154.29 70.6854 149.121 74.9827 144.224 75.5284C139.327 76.1423 134.362 68.5709 134.77 59.9763C135.11 51.4499 140.279 43.2646 145.856 43.2646Z" fill="#A7A9AC"/>
<path fill-rule="evenodd" clip-rule="evenodd" d="M145.788 45.5835C150.617 45.5835 155.106 51.586 154.085 60.3852C153.065 69.1844 148.576 72.8678 144.36 73.3453C140.143 73.8227 135.926 67.3427 136.266 59.976C136.538 52.6092 140.959 45.5835 145.788 45.5835Z" fill="#6D6E71"/>
<path fill-rule="evenodd" clip-rule="evenodd" d="M38.8734 38.4215C50.2994 38.0805 55.3322 45.7883 55.4003 58.8165C55.4003 71.7766 46.0826 80.0301 36.4249 79.2116C26.7673 78.393 19.2179 70.0713 19.8981 58.8165C20.5782 47.5618 27.4474 38.7626 38.8734 38.4215Z" fill="#231F20"/>
<path fill-rule="evenodd" clip-rule="evenodd" d="M43.8381 40.877C49.7551 40.877 54.448 47.2888 55.3321 55.8833C55.4001 56.8383 55.4001 57.7932 55.4001 58.8164C55.4001 70.003 48.4629 78.6658 40.4375 79.0068C34.3845 77.779 30.0997 69.7301 30.5078 60.0442C30.9839 49.4715 36.9689 40.877 43.8381 40.877Z" fill="#383431"/>
<path fill-rule="evenodd" clip-rule="evenodd" d="M43.9063 43.2646C49.4833 43.2646 54.7882 50.2222 53.564 60.4538C52.3398 70.6854 47.1709 74.9827 42.2741 75.5284C37.3772 76.1423 32.4124 68.5709 32.8204 59.9763C33.1605 51.45 38.2614 43.2646 43.9063 43.2646Z" fill="#A7A9AC"/>
<path fill-rule="evenodd" clip-rule="evenodd" d="M43.8383 45.5835C48.6671 45.5835 53.1559 51.586 52.1357 60.3852C51.1155 69.1844 46.6268 72.8678 42.41 73.3453C38.1933 73.8228 33.9766 67.3428 34.3166 59.976C34.5887 52.6092 39.0095 45.5835 43.8383 45.5835Z" fill="#6D6E71"/>
<path fill-rule="evenodd" clip-rule="evenodd" d="M55.9442 69.7985H192.58C198.497 68.98 215.636 68.1615 221.553 67.3429C228.694 41.2864 209.651 34.1925 196.185 27.5078H49.6191L13.3008 67.3429C23.7746 69.3893 41.7297 69.7985 55.9442 69.7985Z" fill="#58595B"/>
<path fill-rule="evenodd" clip-rule="evenodd" d="M92.3304 38.4215C103.756 38.0805 108.789 45.7883 108.857 58.8165C108.857 71.7766 99.5396 80.0301 89.8819 79.2116C80.2243 78.393 72.675 70.0713 73.3551 58.8165C74.1032 47.5618 80.9044 38.7626 92.3304 38.4215Z" fill="#231F20"/>
<path fill-rule="evenodd" clip-rule="evenodd" d="M97.2951 40.877C103.212 40.877 107.905 47.2888 108.789 55.8833C108.857 56.8383 108.857 57.7932 108.857 58.8164C108.857 70.003 101.92 78.6658 93.8946 79.0068C87.8415 77.779 83.5568 69.7301 83.9648 60.0442C84.4409 49.4715 90.426 40.877 97.2951 40.877Z" fill="#414042"/>
<path fill-rule="evenodd" clip-rule="evenodd" d="M97.3634 43.2646C102.94 43.2646 108.245 50.2222 107.021 60.4538C105.797 70.6854 100.628 74.9827 95.7311 75.5284C90.8342 76.1423 85.8694 68.5709 86.2775 59.9763C86.6855 51.45 91.7864 43.2646 97.3634 43.2646Z" fill="#E2E3E4"/>
<path fill-rule="evenodd" clip-rule="evenodd" d="M97.363 43.2646C100.56 43.2646 103.688 45.5156 105.524 49.3354C106.068 51.5864 106.205 54.1102 105.864 56.9068C104.64 66.9338 99.4713 71.0947 94.5745 71.7086C91.65 72.0496 88.6575 69.5258 86.8212 65.6378C86.3451 63.7961 86.141 61.818 86.209 59.7717C86.6851 51.3135 91.786 43.2646 97.363 43.2646Z" fill="#BCBEC0"/>
<path fill-rule="evenodd" clip-rule="evenodd" d="M94.9824 66.5925C94.7784 68.5024 94.7784 70.8898 94.5063 72.7314C95.8666 72.7314 97.1588 72.1857 98.315 71.2308C98.2469 69.5938 97.0227 67.7521 95.5945 66.3879C95.4585 66.2515 95.3225 66.2515 95.1865 66.3197C95.1184 66.3197 94.9824 66.4561 94.9824 66.5925Z" fill="#A7A9AC"/>
<path fill-rule="evenodd" clip-rule="evenodd" d="M98.043 62.7047C98.111 63.3186 99.8113 66.1153 100.695 66.9338C100.763 67.002 100.899 67.0702 101.035 67.002C101.172 67.002 101.24 66.8656 101.308 66.7974C101.784 65.6378 102.192 64.3418 102.464 62.9093C102.532 62.7047 102.396 62.5683 102.26 62.5001C100.695 61.8862 99.3352 61.8862 98.315 62.3637C98.111 62.4319 98.043 62.5683 98.043 62.7047Z" fill="#A7A9AC"/>
<path fill-rule="evenodd" clip-rule="evenodd" d="M98.7231 58.2029C100.151 58.4075 101.648 58.544 103.008 58.885C103.076 57.0434 102.94 55.4064 102.6 53.9058C100.491 55.5428 98.8592 57.1116 98.7231 58.2029Z" fill="#A7A9AC"/>
<path fill-rule="evenodd" clip-rule="evenodd" d="M97.2949 47.0843L96.6147 52.3365C96.6147 52.4729 96.6828 52.6093 96.7508 52.6775C96.8868 52.7457 97.0228 52.8139 97.0908 52.7457C98.3831 52.2683 99.5393 51.2451 100.559 49.9491C100.695 49.8127 100.695 49.608 100.559 49.4716C99.7433 48.2438 98.7911 47.3571 97.7029 46.8114C97.5669 46.7432 97.4309 46.7432 97.3629 46.8114C97.4309 46.8796 97.3629 46.9478 97.2949 47.0843Z" fill="#A7A9AC"/>
<path fill-rule="evenodd" clip-rule="evenodd" d="M89.7454 50.563L92.806 53.2914C94.0302 53.0868 95.1864 46.9478 93.8262 46.675C91.5817 46.2657 90.4935 48.3803 89.6094 50.0855C89.6094 50.2901 89.6094 50.4948 89.7454 50.563Z" fill="#A7A9AC"/>
<path fill-rule="evenodd" clip-rule="evenodd" d="M88.5215 54.3145C89.4736 55.4741 90.2898 56.7701 90.2218 58.2025C90.1537 59.7714 88.5895 60.4535 87.4333 61.2038C87.2972 61.272 87.1612 61.272 87.0932 61.2038C86.9572 61.1356 86.8892 61.0674 86.8892 60.931C86.6171 59.0893 87.4333 56.0198 87.9093 54.451C87.9774 54.3145 88.0454 54.2463 88.1814 54.1781C88.3174 54.1099 88.4534 54.1781 88.5215 54.3145Z" fill="#A7A9AC"/>
<path fill-rule="evenodd" clip-rule="evenodd" d="M90.0178 70.3442C91.6501 68.0933 92.0581 66.5926 91.378 63.7278C90.8339 63.0457 89.0656 64.7509 87.7734 65.5695C87.6374 65.6377 87.5693 65.8423 87.5693 65.9787C87.9774 67.6158 88.5895 69.0482 89.4057 70.3442C89.4737 70.4807 89.6097 70.5489 89.7457 70.5489C89.8137 70.5489 89.8818 70.4807 90.0178 70.3442Z" fill="#A7A9AC"/>
<path fill-rule="evenodd" clip-rule="evenodd" d="M94.9149 67.2749C94.7789 69.0484 94.7109 71.0947 94.5068 72.6635C94.7789 72.6635 94.9829 72.6635 95.187 72.5953C95.7991 72.3225 96.4112 71.9814 97.0233 71.504C97.0233 70.1397 96.0711 68.5709 94.9149 67.2749Z" fill="#58595B"/>
<path fill-rule="evenodd" clip-rule="evenodd" d="M98.0435 62.7053C98.1115 63.251 99.3357 65.3655 100.288 66.4569C100.628 65.502 100.968 64.4106 101.172 63.1828C101.24 62.9782 101.104 62.8417 100.968 62.7735C100.016 62.3643 99.0636 62.2278 98.2475 62.296C98.1115 62.4325 98.0435 62.5689 98.0435 62.7053Z" fill="#58595B"/>
<path fill-rule="evenodd" clip-rule="evenodd" d="M98.7236 58.2032C99.7438 58.3396 100.764 58.476 101.716 58.6125C101.716 57.2482 101.648 56.0204 101.444 54.8608C99.9478 56.1569 98.8597 57.3164 98.7236 58.2032Z" fill="#58595B"/>
<path fill-rule="evenodd" clip-rule="evenodd" d="M97.2952 47.562L96.6831 52.3368C96.6831 52.4732 96.6831 52.6096 96.8191 52.6778C97.7713 52.1322 98.5874 51.3136 99.4716 50.2905C99.6076 50.154 99.6076 49.9494 99.4716 49.813C98.7915 48.858 98.0433 48.1077 97.2952 47.562Z" fill="#58595B"/>
<path fill-rule="evenodd" clip-rule="evenodd" d="M89.746 50.5634L92.3304 52.8143C93.2146 51.1091 93.6907 47.2211 92.6025 47.0165C92.3985 46.9482 92.1944 46.9482 92.0584 46.9482C90.9702 47.5621 90.2901 48.9263 89.678 50.0859C89.61 50.2905 89.61 50.4952 89.746 50.5634Z" fill="#58595B"/>
<path fill-rule="evenodd" clip-rule="evenodd" d="M86.8894 61.0682C86.8894 61 86.8214 61 86.8214 60.9318C86.6174 59.2948 87.1615 56.8392 87.6376 55.2021C88.3857 56.2253 88.9978 57.3849 88.9298 58.5444C88.8618 59.7722 87.8416 60.4543 86.8894 61.0682Z" fill="#58595B"/>
<path fill-rule="evenodd" clip-rule="evenodd" d="M90.0178 64.001C89.3377 64.4785 88.4535 65.1606 87.7734 65.5698C87.6374 65.638 87.5693 65.8427 87.5693 65.9791C87.9774 67.4798 88.5215 68.844 89.2016 70.0718C90.4259 68.1619 90.6979 66.7294 90.0858 64.1374C90.0178 64.0692 90.0178 64.001 90.0178 64.001Z" fill="#58595B"/>
<path fill-rule="evenodd" clip-rule="evenodd" d="M93.9626 56.7705C93.4185 57.1116 93.0785 58.0665 93.0785 59.1578C93.0785 60.522 93.6906 61.6134 94.5068 61.6816C94.3707 61.7498 94.1667 61.818 94.0307 61.818C93.2145 61.818 92.6024 60.7266 92.6024 59.2942C92.5343 57.8619 93.2145 56.7705 93.9626 56.7705Z" fill="#A7A9AC"/>
<path fill-rule="evenodd" clip-rule="evenodd" d="M94.7106 60.8631C95.2547 60.8631 95.6628 60.1128 95.6628 59.1579C95.6628 58.2029 95.2547 57.4526 94.7106 57.4526C94.1665 57.4526 93.7585 58.2029 93.7585 59.1579C93.6904 60.1128 94.1665 60.8631 94.7106 60.8631Z" fill="#A7A9AC"/>
<path fill-rule="evenodd" clip-rule="evenodd" d="M3.09924 42.3096C4.66351 36.7163 7.92808 33.5786 10.7846 31.6687C26.9034 26.0754 50.5715 22.2556 66.8943 19.1861C88.182 18.0265 110.83 18.3676 125.929 21.3689C115.455 32.5554 97.4996 19.6636 81.1088 34.9428C90.5624 42.0367 56.5565 61.3404 52.5438 67.3429H4.79953C4.52748 66.2516 4.18743 65.0238 3.91538 63.7278H4.52749C4.25544 62.4318 4.11942 61.1358 3.84737 59.9762H3.09924C2.01105 53.9736 1.53497 47.0161 3.09924 42.3096Z" fill="#E2304D"/>
<path fill-rule="evenodd" clip-rule="evenodd" d="M202.714 38.4215C214.14 38.0805 219.173 45.7883 219.241 58.8165C219.241 71.7766 209.923 80.0301 200.265 79.2116C190.608 78.393 183.058 70.0713 183.738 58.8165C184.419 47.5618 191.288 38.7626 202.714 38.4215Z" fill="#231F20"/>
<path fill-rule="evenodd" clip-rule="evenodd" d="M207.678 40.877C213.596 40.877 218.288 47.2888 219.172 55.8833C219.241 56.8383 219.241 57.7932 219.241 58.8164C219.241 70.003 212.303 78.6658 204.278 79.0068C198.225 77.779 193.94 69.7301 194.348 60.0442C194.824 49.4715 200.809 40.877 207.678 40.877Z" fill="#414042"/>
<path fill-rule="evenodd" clip-rule="evenodd" d="M207.747 43.2646C213.324 43.2646 218.629 50.2222 217.404 60.4538C216.18 70.6854 211.011 74.9827 206.114 75.5284C201.218 76.1423 196.253 68.5709 196.661 59.9763C197.069 51.45 202.17 43.2646 207.747 43.2646Z" fill="#E2E3E4"/>
<path fill-rule="evenodd" clip-rule="evenodd" d="M207.747 43.2646C210.943 43.2646 214.072 45.5156 215.908 49.3354C216.452 51.5864 216.588 54.1102 216.248 56.9068C215.024 66.9338 209.855 71.0946 204.958 71.7085C202.034 72.0496 199.041 69.5258 197.205 65.6378C196.729 63.7961 196.525 61.818 196.593 59.7717C197.069 51.3135 202.17 43.2646 207.747 43.2646Z" fill="#BCBEC0"/>
<path fill-rule="evenodd" clip-rule="evenodd" d="M205.366 66.5925C205.162 68.5024 205.162 70.8897 204.89 72.7314C206.25 72.7314 207.543 72.1857 208.699 71.2308C208.631 69.5938 207.407 67.7521 205.978 66.3879C205.842 66.2515 205.706 66.2515 205.57 66.3197C205.502 66.3197 205.366 66.4561 205.366 66.5925Z" fill="#A7A9AC"/>
<path fill-rule="evenodd" clip-rule="evenodd" d="M208.427 62.7047C208.495 63.3186 210.195 66.1153 211.079 66.9338C211.147 67.002 211.283 67.0702 211.419 67.002C211.555 67.002 211.623 66.8656 211.691 66.7974C212.167 65.6378 212.575 64.3418 212.848 62.9093C212.916 62.7047 212.78 62.5683 212.643 62.5001C211.079 61.8862 209.719 61.8862 208.699 62.3637C208.495 62.4319 208.427 62.5683 208.427 62.7047Z" fill="#A7A9AC"/>
<path fill-rule="evenodd" clip-rule="evenodd" d="M209.107 58.2029C210.535 58.4075 212.031 58.544 213.392 58.885C213.46 57.0434 213.324 55.4064 212.984 53.9058C210.875 55.5428 209.243 57.1116 209.107 58.2029Z" fill="#A7A9AC"/>
<path fill-rule="evenodd" clip-rule="evenodd" d="M207.679 47.0843L206.999 52.3365C206.999 52.4729 207.067 52.6093 207.135 52.6775C207.271 52.7457 207.407 52.8139 207.475 52.7457C208.767 52.2683 209.923 51.2451 210.943 49.9491C211.079 49.8127 211.079 49.608 210.943 49.4716C210.127 48.2438 209.175 47.3571 208.087 46.8114C207.951 46.7432 207.815 46.7432 207.747 46.8114C207.815 46.8796 207.747 46.9478 207.679 47.0843Z" fill="#A7A9AC"/>
<path fill-rule="evenodd" clip-rule="evenodd" d="M200.129 50.563L203.19 53.2914C204.414 53.0868 205.571 46.9478 204.21 46.675C201.966 46.2657 200.878 48.3803 199.993 50.0855C199.925 50.2901 199.993 50.4948 200.129 50.563Z" fill="#A7A9AC"/>
<path fill-rule="evenodd" clip-rule="evenodd" d="M198.905 54.3145C199.857 55.4741 200.674 56.7701 200.606 58.2025C200.538 59.7714 198.973 60.4535 197.817 61.2038C197.681 61.272 197.545 61.272 197.477 61.2038C197.341 61.1356 197.273 61.0674 197.273 60.931C197.001 59.0893 197.817 56.0198 198.293 54.451C198.361 54.3145 198.429 54.2463 198.565 54.1781C198.701 54.1099 198.837 54.1781 198.905 54.3145Z" fill="#A7A9AC"/>
<path fill-rule="evenodd" clip-rule="evenodd" d="M200.402 70.3442C202.034 68.0933 202.442 66.5926 201.762 63.7278C201.218 63.0457 199.449 64.7509 198.157 65.5695C198.021 65.6377 197.953 65.8423 197.953 65.9787C198.361 67.6158 199.041 69.0482 199.789 70.3442C199.857 70.4807 199.993 70.5489 200.129 70.5489C200.198 70.5489 200.266 70.4807 200.402 70.3442Z" fill="#A7A9AC"/>
<path fill-rule="evenodd" clip-rule="evenodd" d="M205.298 67.2749C205.162 69.0484 205.094 71.0947 204.89 72.6635C205.162 72.6635 205.366 72.6635 205.57 72.5953C206.182 72.3225 206.795 71.9814 207.407 71.504C207.407 70.1397 206.454 68.5709 205.298 67.2749Z" fill="#58595B"/>
<path fill-rule="evenodd" clip-rule="evenodd" d="M208.427 62.7053C208.495 63.251 209.719 65.3655 210.671 66.4569C211.011 65.502 211.351 64.4106 211.555 63.1828C211.623 62.9782 211.487 62.8417 211.351 62.7735C210.399 62.3643 209.447 62.2278 208.631 62.296C208.495 62.4325 208.427 62.5689 208.427 62.7053Z" fill="#58595B"/>
<path fill-rule="evenodd" clip-rule="evenodd" d="M209.107 58.2032C210.127 58.3396 211.147 58.476 212.099 58.6125C212.099 57.2482 212.031 56.0204 211.827 54.8608C210.331 56.1569 209.243 57.3164 209.107 58.2032Z" fill="#58595B"/>
<path fill-rule="evenodd" clip-rule="evenodd" d="M207.679 47.562L207.066 52.3368C207.066 52.4732 207.066 52.6096 207.202 52.6778C208.155 52.1322 208.971 51.3136 209.855 50.2905C209.991 50.154 209.991 49.9494 209.855 49.813C209.175 48.858 208.427 48.1077 207.679 47.562Z" fill="#58595B"/>
<path fill-rule="evenodd" clip-rule="evenodd" d="M200.129 50.5634L202.713 52.8143C203.598 51.1091 204.074 47.2211 202.985 47.0165C202.781 46.9482 202.577 46.9482 202.441 46.9482C201.353 47.5621 200.673 48.9263 200.061 50.0859C199.925 50.2905 199.993 50.4952 200.129 50.5634Z" fill="#58595B"/>
<path fill-rule="evenodd" clip-rule="evenodd" d="M197.273 61.0682C197.273 61 197.205 61 197.205 60.9318C197.001 59.2948 197.545 56.8392 198.021 55.2021C198.769 56.2253 199.381 57.3849 199.313 58.5444C199.245 59.7722 198.225 60.4543 197.273 61.0682Z" fill="#58595B"/>
<path fill-rule="evenodd" clip-rule="evenodd" d="M200.333 64.001C199.653 64.4785 198.769 65.1606 198.089 65.5698C197.953 65.638 197.885 65.8427 197.885 65.9791C198.293 67.4798 198.837 68.844 199.517 70.0718C200.741 68.1619 201.013 66.7294 200.401 64.1374C200.401 64.0692 200.401 64.001 200.333 64.001Z" fill="#58595B"/>
<path fill-rule="evenodd" clip-rule="evenodd" d="M204.346 56.7705C203.802 57.1116 203.462 58.0665 203.462 59.1578C203.462 60.522 204.074 61.6134 204.89 61.6816C204.754 61.7498 204.55 61.818 204.414 61.818C203.598 61.818 202.986 60.7266 202.986 59.2942C202.918 57.8619 203.598 56.7705 204.346 56.7705Z" fill="#A7A9AC"/>
<path fill-rule="evenodd" clip-rule="evenodd" d="M205.094 60.8631C205.638 60.8631 206.046 60.1128 206.046 59.1579C206.046 58.2029 205.638 57.4526 205.094 57.4526C204.55 57.4526 204.142 58.2029 204.142 59.1579C204.074 60.1128 204.55 60.8631 205.094 60.8631Z" fill="#A7A9AC"/>
<path fill-rule="evenodd" clip-rule="evenodd" d="M42.2057 44.0147C56.2161 22.6647 111.102 23.074 118.447 23.8925C114.706 18.5721 87.0935 18.5721 65.3977 19.4588C73.2191 14.1384 84.4411 7.11266 98.8596 2.95181C108.109 0.291586 125.384 0.496219 136.946 0.905483C154.765 1.58759 176.121 2.8836 187.139 6.22592C193.396 8.13583 200.061 17.0032 202.782 21.0959C205.23 24.7793 218.764 23.074 223.389 26.0753C229.986 30.3725 229.578 39.0353 228.694 49.5398C233.455 50.0854 232.503 56.4972 228.15 65.5011C226.518 65.5011 221.893 67.2746 220.261 67.2746C224.953 20.9594 185.031 31.9414 187.275 67.2746C168.3 67.2746 129.669 67.2746 110.626 67.2746C118.447 23.4832 78.32 19.527 75.8716 67.2746H59.1407C54.3118 58.4754 70.0906 46.4703 56.5562 46.6067C41.8657 46.8113 41.4576 45.1743 42.2057 44.0147Z" fill="#EC5F6B"/>
<path fill-rule="evenodd" clip-rule="evenodd" d="M124.772 24.5067C124.908 21.6418 131.097 13.1155 139.326 7.04477C140.687 6.02161 143.543 5.06666 147.76 4.86203C159.39 4.24814 168.776 4.79382 180.406 8.40898C184.146 9.56856 194.28 24.6431 189.383 24.7795C172.448 24.9842 141.707 24.5067 124.772 24.5067Z" fill="#DB1216"/>
<path fill-rule="evenodd" clip-rule="evenodd" d="M66.35 56.02C60.0929 60.7948 54.1078 65.092 52.6116 67.343H4.79922C4.52717 66.2516 4.18711 65.0238 3.91507 63.7278H4.52717C4.25513 62.4318 4.1191 61.1358 3.84706 59.9762H3.09892C2.89489 58.6802 2.69085 57.3842 2.48682 56.0882H66.35V56.02Z" fill="#EC5F6B"/>
<path fill-rule="evenodd" clip-rule="evenodd" d="M10.1044 46.5384C19.5585 46.5384 26.9926 46.6066 39.8936 46.6066C41.0498 43.4007 44.2463 38.967 48.8031 35.6929C35.2092 35.6929 22.4145 35.6929 9.22021 35.6929C10.4444 38.0803 11.2606 42.3776 10.1044 46.5384Z" fill="#58595B"/>
<path fill-rule="evenodd" clip-rule="evenodd" d="M8.26801 33.5784C22.9586 33.5102 45.0648 33.4393 54.5724 33.5785C65.7542 33.5785 69.6605 33.9446 71.4672 35.7541L51.3875 34.3287C42.2188 34.3287 22.2104 34.3287 7.58789 34.3287C7.79193 34.0559 8.06397 33.8512 8.26801 33.5784Z" fill="#EC5F6B"/>
<path fill-rule="evenodd" clip-rule="evenodd" d="M59.6167 59.021C58.3925 60.9309 58.5965 63.2501 58.1884 65.2282H4.1871C4.05108 64.7507 3.91505 64.2733 3.77903 63.7958H4.45915C4.1871 62.4998 4.05108 61.2038 3.77903 60.0442H3.09891C3.0309 59.7713 2.96289 59.5667 2.96289 59.2938L59.6167 59.021Z" fill="#58595B"/>
<path fill-rule="evenodd" clip-rule="evenodd" d="M4.73121 65.0918H63.8335C65.0577 65.0918 66.0779 65.6375 66.0779 66.2514C66.0779 66.8653 65.0577 67.411 63.8335 67.411H4.73121C3.50699 67.411 2.48682 66.8653 2.48682 66.2514C2.48682 65.5693 3.50699 65.0918 4.73121 65.0918Z" fill="#EC5F6B"/>
<path fill-rule="evenodd" clip-rule="evenodd" d="M2.55493 47.4253H42.4778C43.43 47.4253 44.2461 48.2438 44.2461 49.1988V55.2013C44.2461 56.1563 43.43 56.9748 42.4778 56.9748H2.55493C1.60276 56.9748 0.786621 56.1563 0.786621 55.2013V49.1988C0.786621 48.2438 1.60276 47.4253 2.55493 47.4253Z" fill="#E2304D"/>
<path fill-rule="evenodd" clip-rule="evenodd" d="M44.1102 56.02C43.8381 56.5656 43.226 56.9749 42.5459 56.9749H2.555C1.87488 56.9749 1.26277 56.5656 0.990723 56.02H44.1102Z" fill="#DB1216"/>
<path fill-rule="evenodd" clip-rule="evenodd" d="M70.4307 18.7766C74.9194 14.2747 88.7939 7.31724 102.056 4.86165C116.135 3.01996 125.656 4.04312 136.606 5.33913C130.009 10.0457 125.18 15.8436 118.515 20.5501C102.668 17.2078 83.2849 17.4806 70.4307 18.7766Z" fill="#EDFEFF"/>
<path fill-rule="evenodd" clip-rule="evenodd" d="M126.336 24.0291C126.472 21.3689 132.389 13.4565 140.211 7.79496C141.503 6.84001 144.224 5.95327 148.236 5.74864C159.322 5.20296 168.3 5.68043 179.386 9.02275C182.922 10.1141 192.648 24.0973 187.887 24.2337C171.768 24.5066 142.455 24.0291 126.336 24.0291Z" fill="#82ADB1"/>
<path fill-rule="evenodd" clip-rule="evenodd" d="M126.336 24.0291C126.404 21.8464 130.349 16.2531 136.062 11.1372C141.367 15.1617 148.032 23.2788 144.36 24.0974C137.558 24.0974 131.301 24.0291 126.336 24.0291Z" fill="#C0D8DA"/>
<path fill-rule="evenodd" clip-rule="evenodd" d="M149.393 5.68034C159.934 5.20286 168.708 5.74855 179.386 9.02266C181.834 9.77298 187.207 16.6623 188.771 20.8913H162.315C159.73 20.8913 156.398 18.7768 155.038 16.1166L149.393 5.68034Z" fill="#C0D8DA"/>
<g style="mix-blend-mode:overlay">
<path fill-rule="evenodd" clip-rule="evenodd" d="M150.141 5.68054C155.31 5.47591 160.002 5.54412 164.831 6.0216L155.922 24.2339C150.889 24.1656 145.856 24.1656 141.163 24.0974L150.141 5.68054Z" fill="#ABE1E1"/>
</g>
<g style="mix-blend-mode:overlay">
<path fill-rule="evenodd" clip-rule="evenodd" d="M168.3 6.49902C171.564 6.9765 174.829 7.72682 178.297 8.74998L170.68 24.302C167.076 24.302 163.335 24.302 159.594 24.2338L168.3 6.49902Z" fill="#ABE1E1"/>
</g>
<path fill-rule="evenodd" clip-rule="evenodd" d="M0.786621 48.8579C11.9406 48.8579 21.0541 48.8579 32.2081 48.8579C46.9548 48.8579 61.8604 48.8579 76.6878 48.8579C76.6878 49.0626 76.6878 49.3355 76.6878 49.5401H32.2091H0.786621V48.8579Z" fill="#EC5F6B"/>
<path fill-rule="evenodd" clip-rule="evenodd" d="M35.6768 56.0879H74.4435L73.4234 58.8163C58.1887 56.6336 48.735 57.3157 35.6768 56.77V56.0879Z" fill="#DB1216"/>
<path fill-rule="evenodd" clip-rule="evenodd" d="M130.417 17.0718L132.526 24.0293C130.417 24.0293 128.377 24.0293 126.269 24.0293C126.405 22.5286 127.493 19.9366 130.417 17.0718Z" fill="#576578"/>
<path fill-rule="evenodd" clip-rule="evenodd" d="M131.777 15.98C134.906 15.98 137.966 15.98 141.095 15.98C143.067 15.98 144.019 21.164 142.931 22.46C142.659 22.7328 142.319 22.801 141.911 22.8692C139.191 23.3467 133.954 24.097 131.505 23.4831C128.037 22.5964 128.921 19.3223 130.689 16.5257C130.961 16.1846 131.369 15.98 131.777 15.98Z" fill="#EC5F6B"/>
<path fill-rule="evenodd" clip-rule="evenodd" d="M131.777 15.98C134.906 15.98 137.966 15.98 141.095 15.98C142.727 15.98 143.611 19.3223 143.339 21.3004C139.666 21.7096 135.11 21.9825 132.661 21.505C130.417 21.0957 129.533 20.0726 129.533 18.913C129.805 18.0945 130.213 17.3442 130.757 16.5257C130.961 16.1846 131.369 15.98 131.777 15.98Z" fill="#E2304D"/>
<path fill-rule="evenodd" clip-rule="evenodd" d="M37.0368 50.495L75.1235 49.54V50.2221L36.2207 52.6777L37.0368 50.495Z" fill="#E2304D"/>
<path fill-rule="evenodd" clip-rule="evenodd" d="M51.5913 33.7149C60.0248 33.7149 69.3185 32.8197 71.7908 35.8294C84.7131 30.7136 102.872 29.4858 119.331 28.5309H224.817C222.233 27.5077 221.825 25.5296 217.064 25.3932C185.779 25.1886 142.795 24.9839 111.51 24.7793C85.5972 25.5978 64.3095 29.0084 51.5913 33.7149Z" fill="#E2304D"/>
<path fill-rule="evenodd" clip-rule="evenodd" d="M10.4443 39.7856C22.5155 39.7857 36.621 39.7856 44.6542 39.7856C44.6542 40.1267 44.6542 40.536 44.6542 40.877C34.5029 40.877 22.2451 40.877 10.4443 40.877C10.4443 40.536 10.4443 40.1949 10.4443 39.7856Z" fill="#E2304D"/>
<path fill-rule="evenodd" clip-rule="evenodd" d="M43.9739 59.9761H53.0195C53.6316 59.9761 54.1076 60.4535 54.1076 61.0674V62.7045C54.1076 63.3184 53.6316 63.7959 53.0195 63.7959H43.9739C43.3618 63.7959 42.8857 63.3184 42.8857 62.7045V61.0674C42.9538 60.4535 43.4298 59.9761 43.9739 59.9761Z" fill="#414042"/>
<path fill-rule="evenodd" clip-rule="evenodd" d="M45.4705 59.9761H53.0198C53.5639 59.9761 54.04 60.3853 54.04 60.8628V62.2952C54.04 62.7727 53.5639 63.182 52.9518 63.182H45.4705C44.8584 63.182 44.3823 62.7727 44.3823 62.2952V60.8628C44.4503 60.3853 44.8584 59.9761 45.4705 59.9761Z" fill="#EEE6D4"/>
<path fill-rule="evenodd" clip-rule="evenodd" d="M45.4705 59.9761H53.0198C53.5639 59.9761 54.04 60.3853 54.04 60.8628V61.1356H44.3823V60.8628C44.4503 60.3853 44.8584 59.9761 45.4705 59.9761Z" fill="#D2C8AD"/>
<path fill-rule="evenodd" clip-rule="evenodd" d="M3.16699 59.9761H9.83216C10.4443 59.9761 10.9203 60.4535 10.9203 61.0674V62.7045C10.9203 63.3184 10.4443 63.7959 9.83216 63.7959H3.84711L4.39121 63.1138C4.9353 62.4999 3.98314 60.7264 3.84711 60.0443L3.16699 59.9761Z" fill="#414042"/>
<path fill-rule="evenodd" clip-rule="evenodd" d="M3.84717 59.9761H9.90019C10.4443 59.9761 10.8524 60.3853 10.8524 60.8628V62.2952C10.8524 62.7727 10.4443 63.182 9.90019 63.182H4.32325C4.18722 62.1588 4.0512 61.0674 3.84717 59.9761Z" fill="#EEE6D4"/>
<path fill-rule="evenodd" clip-rule="evenodd" d="M3.84717 59.9761H9.90019C10.4443 59.9761 10.8524 60.3853 10.8524 60.8628V61.1356H4.0512C3.98319 60.7264 3.91518 60.3853 3.84717 59.9761Z" fill="#D2C8AD"/>
<path fill-rule="evenodd" clip-rule="evenodd" d="M10.3081 41.7637C22.4702 41.4911 35.1787 41.7638 43.0217 41.7637C43.0217 42.1048 43.0217 42.5141 43.0217 42.8551C32.5649 42.8551 21.9294 42.8551 10.3081 42.8551C10.3081 42.5141 10.3081 42.1048 10.3081 41.7637Z" fill="#E2304D"/>
<path fill-rule="evenodd" clip-rule="evenodd" d="M158.982 5.06664L161.431 24.302L164.695 24.2338L161.295 4.72559L158.982 5.06664Z" fill="#DB1216"/>
<path fill-rule="evenodd" clip-rule="evenodd" d="M159.798 4.5891L162.383 25.1205L165.579 25.0523L162.111 4.24805L159.798 4.5891Z" fill="#EC5F6B"/>
<path fill-rule="evenodd" clip-rule="evenodd" d="M71.7227 37.2618C72.0628 42.9233 64.5815 45.1743 60.2287 45.5153C55.3999 45.8564 51.0471 45.9246 45.9462 45.5153C45.0621 45.4471 43.6338 44.424 44.0419 43.5372C49.6189 32.9646 71.4507 32.4871 71.7227 37.2618Z" fill="#DB1216"/>
<path fill-rule="evenodd" clip-rule="evenodd" d="M7.6555 34.3286C9.21978 36.9888 10.444 39.7855 10.376 43.4688C10.376 44.0145 10.1039 44.492 9.62785 44.8331C9.15176 45.1741 8.53965 45.3787 7.85954 45.3105C5.95521 45.1741 4.1869 45.3105 2.35059 45.7198C2.48661 44.492 2.75866 43.3324 3.09872 42.3093C4.05088 39.0351 5.54714 36.4431 7.6555 34.3286Z" fill="#DB1216"/>
<path fill-rule="evenodd" clip-rule="evenodd" d="M3.09921 42.3092C3.98336 39.1033 5.20758 36.9205 7.24793 34.7378C8.67618 37.398 9.49232 39.7854 9.83238 43.4688C10.0364 45.3787 8.60817 46.129 8.2001 46.0608C6.22775 45.9244 4.25541 45.3787 2.35107 45.9926C2.4871 44.6966 2.69114 43.4006 3.09921 42.3092Z" fill="#EC5F6B"/>
<path fill-rule="evenodd" clip-rule="evenodd" d="M2.35107 45.6517C4.2554 44.8332 5.88768 44.4922 7.79201 44.6968C8.26809 44.765 8.67617 44.6286 9.01622 44.2875C9.35628 43.9465 9.4923 43.6054 9.56031 43.128C9.56031 39.8538 8.67616 37.4665 7.45195 35.0791C5.07154 37.8075 3.30324 42.0366 2.35107 45.6517Z" fill="#FFFCD5"/>
<path fill-rule="evenodd" clip-rule="evenodd" d="M2.55469 44.424C4.45902 43.6736 6.29535 43.8101 8.33571 44.0829C8.8118 44.1511 9.01583 44.0829 9.35589 43.7419C9.69595 43.4008 9.49191 42.8551 9.49191 42.3776C9.55993 39.0353 8.53975 37.1254 7.38354 35.0791C5.13914 37.4665 3.57487 39.7856 2.55469 44.424Z" fill="#EEE6D4"/>
<path fill-rule="evenodd" clip-rule="evenodd" d="M9.49228 41.2861C9.08421 38.8988 8.20006 36.5796 7.2479 34.8062C5.81965 36.2386 4.73146 37.8756 3.7793 40.3312C5.61561 40.7404 7.31591 41.0815 9.49228 41.2861Z" fill="#D2C8AD"/>
<path fill-rule="evenodd" clip-rule="evenodd" d="M9.22008 39.1718C9.49213 40.536 9.56014 42.0366 9.42412 43.5372C9.15207 43.8101 8.81201 44.0147 8.47195 44.0829C8.13189 44.0147 7.85984 44.0147 7.51978 43.9465C6.4996 43.469 5.75146 42.0366 5.75146 40.2631C5.75146 38.2168 6.70364 36.5798 7.99587 36.4434C8.47195 37.3301 8.88002 38.2168 9.22008 39.1718Z" fill="white"/>
<path fill-rule="evenodd" clip-rule="evenodd" d="M8.19981 37.603C8.33583 37.603 8.47186 37.603 8.60789 37.6712C8.81192 38.1487 9.01595 38.6944 9.21999 39.1719C9.35601 40.0586 9.49204 41.0135 9.49204 42.0367C9.15198 42.6505 8.67589 42.9916 8.19981 42.9916C7.24764 42.9916 6.49951 41.7638 6.49951 40.2632C6.49951 38.8308 7.24764 37.603 8.19981 37.603Z" fill="#DAD9D4"/>
<path fill-rule="evenodd" clip-rule="evenodd" d="M11.0052 48.8549L33.8511 48.8482C34.7115 48.8431 35.447 49.5286 35.474 50.4555L35.4378 55.2206C35.4429 56.0829 34.6945 56.842 33.834 56.8471L10.9882 56.8538C10.1277 56.8589 9.39222 56.1733 9.3652 55.2464L9.40145 50.4814C9.43884 49.5325 10.1228 48.7954 11.0052 48.8549Z" fill="#EAEEF0"/>
<path fill-rule="evenodd" clip-rule="evenodd" d="M11.5682 49.4542L33.1217 49.4552C33.767 49.4514 34.3286 49.8361 34.5037 50.3524C34.223 50.16 33.8997 50.0542 33.5339 50.0348L11.9804 50.0338C11.1844 50.0169 10.4566 50.6249 10.4824 51.3361L10.4848 55.3671C10.4642 55.5182 10.5298 55.7118 10.5736 55.8409C10.271 55.584 10.0752 55.2187 10.0945 54.8521L10.0921 50.821C10.1089 50.0234 10.7722 49.4374 11.5682 49.4542Z" fill="#B2C7CF"/>
<path fill-rule="evenodd" clip-rule="evenodd" d="M135.654 6.02153C129.533 10.5916 124.908 16.0485 118.583 20.4822C102.668 17.2081 83.2849 17.4809 70.4307 18.7087C85.3933 9.90954 117.563 3.77057 135.654 6.02153Z" fill="#ADE3E3"/>
<path fill-rule="evenodd" clip-rule="evenodd" d="M118.583 20.4819C118.311 20.4137 118.107 20.4137 117.835 20.3455L117.087 20.2091C116.61 20.1409 116.066 20.0044 115.59 19.9362H115.522L114.774 19.7998H114.706L113.958 19.6634C113.482 19.5952 113.074 19.527 112.598 19.4587H112.462H112.394H112.258C111.782 19.3905 111.306 19.3223 110.829 19.2541L110.149 19.1859L109.469 19.1177H109.401L108.857 19.0495L108.517 18.9813L107.837 18.9131H107.769C107.293 18.8449 106.749 18.7766 106.273 18.7766H106.205L105.729 18.7084H105.389L104.912 18.6402H104.64L104.096 18.572H103.892L103.144 18.5038C102.396 18.4356 101.648 18.3674 100.9 18.3674H100.696H100.152H99.9476H99.7435H99.6075H98.9954H98.6553H98.1793H97.9072H97.4311H96.751H96.683H96.1389H95.7989H95.2548H95.0507H94.5746H94.2346H93.5545H93.2144H93.0784H92.4663H92.3302H91.7181H91.5141H90.97H90.63H90.0859H89.9498H89.3377H88.9977H88.5896H88.2495H87.9095C87.4334 18.3674 86.9573 18.3674 86.4812 18.3674H85.7331C84.985 18.3674 84.3049 18.3674 83.6247 18.4356H83.4887C83.0126 18.4356 82.6046 18.4356 82.1285 18.5038H82.0605C81.5844 18.5038 81.1083 18.5038 80.7002 18.572C77.0956 18.7084 73.763 18.9813 70.7705 19.2541C78.4558 15.7072 90.834 12.1602 102.736 10.2504C113.754 9.02257 123.276 8.81793 132.117 9.2272C127.696 12.6377 123.684 16.8668 118.583 20.4819Z" fill="#9AC7C7"/>
<path fill-rule="evenodd" clip-rule="evenodd" d="M184.487 65.7739L112.394 65.5693L112.19 63.3866L184.691 63.1138L184.487 65.7739Z" fill="#E2304D"/>
<path fill-rule="evenodd" clip-rule="evenodd" d="M126.336 24.0288C129.057 36.8524 129.329 55.1329 126.064 67.3426C137.899 67.3426 147.624 67.3426 159.458 67.3426C164.355 59.2256 168.436 50.0171 169.184 37.2617C169.66 31.6002 165.851 26.9619 162.111 24.1652L126.336 24.0288Z" fill="#DB1216"/>
<path fill-rule="evenodd" clip-rule="evenodd" d="M126.948 24.1655C129.805 36.0342 130.417 54.3147 126.744 67.343C138.238 67.343 147.012 67.343 158.506 67.343C162.178 54.1783 169.184 29.0085 161.498 24.3019L126.948 24.1655Z" fill="#EC5F6B"/>
<path fill-rule="evenodd" clip-rule="evenodd" d="M127.833 28.5311H165.511C164.559 27.2351 163.539 26.1437 162.383 25.1887L127.084 24.8477C127.289 25.8708 127.561 27.1668 127.833 28.5311Z" fill="#6EB8C0"/>
<path fill-rule="evenodd" clip-rule="evenodd" d="M162.179 24.0972C169.116 32.2825 162.791 53.0867 158.506 67.3428H184.963C183.467 52.8821 189.384 42.173 196.593 37.1254C197.069 31.6004 193.396 27.0302 189.792 24.2336L162.179 24.0972Z" fill="#DB1216"/>
<path fill-rule="evenodd" clip-rule="evenodd" d="M162.451 24.3021C169.66 30.2365 163.947 53.0189 159.458 67.3432H184.147C182.651 52.8825 188.432 42.1734 195.709 37.1258C196.185 31.6007 192.512 27.0305 188.908 24.2339H162.451V24.3021Z" fill="#EC5F6B"/>
<path fill-rule="evenodd" clip-rule="evenodd" d="M110.981 36.7002C123.404 36.7002 133.555 36.7002 145.978 36.7002C162.402 36.7002 179.004 36.7002 195.519 36.7002C195.519 36.9049 193.675 38.6582 193.675 38.8628L145.979 37.3823H110.981V36.7002Z" fill="#E2304D"/>
<path fill-rule="evenodd" clip-rule="evenodd" d="M162.179 32.4189L162.315 32.9646C162.587 33.9878 161.907 34.8064 160.955 34.8064H157.69C156.67 34.8064 155.65 33.9878 155.446 32.9646L155.31 32.4189H162.179Z" fill="#DB1216"/>
<path fill-rule="evenodd" clip-rule="evenodd" d="M153.949 30.918H162.11C162.314 30.918 162.586 31.1226 162.586 31.3273L162.79 32.0776C162.859 32.2822 162.722 32.4869 162.518 32.4869H154.357C154.153 32.4869 153.881 32.2822 153.881 32.0776L153.677 31.3273C153.609 31.0544 153.745 30.918 153.949 30.918Z" fill="#E2304D"/>
<path fill-rule="evenodd" clip-rule="evenodd" d="M191.628 32.4189L191.764 32.9646C192.036 33.9878 191.356 34.8063 190.404 34.8063H187.139C186.119 34.8063 185.099 33.9878 184.895 32.9646L184.759 32.4189H191.628Z" fill="#DB1216"/>
<path fill-rule="evenodd" clip-rule="evenodd" d="M183.399 30.9185H191.56C191.764 30.9185 192.036 31.1231 192.036 31.3277L192.24 32.0781C192.308 32.2827 192.172 32.4874 191.968 32.4874H183.807C183.603 32.4874 183.331 32.2827 183.331 32.0781L183.127 31.3277C183.059 31.0549 183.195 30.9185 183.399 30.9185Z" fill="#E2304D"/>
<path fill-rule="evenodd" clip-rule="evenodd" d="M165.035 28.531H193.056C192.172 27.3032 191.084 26.1436 189.996 25.1887C181.29 25.1205 172.245 25.1205 163.267 25.0522C164.015 25.939 164.627 27.0986 165.035 28.531Z" fill="#E2304D"/>
<path fill-rule="evenodd" clip-rule="evenodd" d="M127.833 28.5311H164.423C164.151 26.894 163.403 25.939 162.383 25.0523C150.276 24.9841 138.238 24.9159 127.084 24.8477C127.357 26.0072 127.629 27.2351 127.833 28.5311Z" fill="#E2304D"/>
<path fill-rule="evenodd" clip-rule="evenodd" d="M184.011 65.7739L159.935 65.7057C160.207 64.8872 160.411 64.0687 160.683 63.182L183.875 63.1138C183.943 64.0005 183.943 64.8872 184.011 65.7739Z" fill="#E2304D"/>
<path fill-rule="evenodd" clip-rule="evenodd" d="M158.914 65.7058L127.152 65.6376C127.356 64.8873 127.492 64.137 127.696 63.3185L159.662 63.1821C159.39 64.0688 159.118 64.8873 158.914 65.7058Z" fill="#E2304D"/>
<path fill-rule="evenodd" clip-rule="evenodd" d="M220.465 50.29H226.926C229.783 50.8357 230.803 51.7907 231.075 52.6092L221.281 53.496L220.465 50.29Z" fill="#E2304D"/>
<path fill-rule="evenodd" clip-rule="evenodd" d="M71.7229 37.1255C71.9949 42.5141 64.8537 44.6969 60.705 44.9697C56.0802 45.3108 51.9315 45.379 47.0346 44.9697C46.1505 44.9015 44.7902 43.8783 45.2663 43.0598C50.5712 32.9646 71.4508 32.5553 71.7229 37.1255Z" fill="#58595B"/>
<path fill-rule="evenodd" clip-rule="evenodd" d="M72.0066 37.0124C72.3305 42.3732 65.132 44.5358 60.9701 44.8969C56.3518 45.2674 52.1544 45.3852 47.2162 45C46.3327 44.9574 44.9126 43.9805 45.3823 43.1473C50.6208 33.0352 71.6985 32.4137 72.0066 37.0124Z" fill="#FFFCD5"/>
<path fill-rule="evenodd" clip-rule="evenodd" d="M72.0039 37.0113C72.0519 37.8642 71.9156 38.6295 71.6272 39.3979C69.5868 42.2765 64.7448 43.5971 61.5539 43.816C56.9357 44.1865 52.7383 44.3043 47.8002 43.9191C47.0074 43.8441 45.6811 42.9873 45.908 42.1897C51.9259 32.9764 71.6989 32.5651 72.0039 37.0113Z" fill="#EEE6D4"/>
<path fill-rule="evenodd" clip-rule="evenodd" d="M72.0065 37.0125C72.0128 37.3173 72.0191 37.6221 71.9962 37.9886C68.1379 39.7766 62.5617 40.8989 56.2935 40.9378C53.1902 40.9719 50.2326 40.698 47.5761 40.2653C54.942 32.9762 71.7401 32.9622 72.0065 37.0125Z" fill="#D2C8AD"/>
<path fill-rule="evenodd" clip-rule="evenodd" d="M72.0061 37.0085C72.2465 41.274 67.7264 43.5033 63.7573 44.4095C64.2603 42.2333 65.1873 39.9567 66.3895 37.7354C67.0052 36.594 67.7438 35.511 68.4856 34.5804C70.5344 35.0258 71.9517 35.8504 72.0061 37.0085Z" fill="#FBD55B"/>
<path fill-rule="evenodd" clip-rule="evenodd" d="M72.0061 37.0081C72.0541 37.8612 71.9178 38.6266 71.6292 39.3952C70.0614 41.5936 66.8917 42.8797 64.0429 43.488C64.5521 41.6167 65.3656 39.7391 66.4219 37.8259C67.0376 36.6844 67.7762 35.6014 68.518 34.6709C70.5344 35.0255 71.9517 35.8501 72.0061 37.0081Z" fill="#F58220"/>
<path fill-rule="evenodd" clip-rule="evenodd" d="M72.0063 37.0082C72.0126 37.3131 72.0189 37.6179 71.9961 37.9844C70.0957 38.817 67.8589 39.565 65.3114 40.0145C65.6614 39.2752 66.0114 38.5359 66.452 37.7642C67.0675 36.6229 67.8061 35.54 68.5478 34.6096C70.5348 35.0258 71.9519 35.8503 72.0063 37.0082Z" fill="#D7662C"/>
<path fill-rule="evenodd" clip-rule="evenodd" d="M58.8389 36.0363C60.2695 36.0371 61.4336 37.8734 61.4809 40.16C61.4667 42.4174 60.349 44.3012 58.9185 44.3004C57.4879 44.2997 56.3238 42.4634 56.2765 40.1768C56.2907 37.9194 57.4083 36.0356 58.8389 36.0363Z" fill="white"/>
<path fill-rule="evenodd" clip-rule="evenodd" d="M58.8637 37.2559C59.8379 37.2662 60.7467 38.5284 60.7199 40.176C60.7223 41.7621 59.9287 43.1207 58.893 43.0812C57.9188 43.0709 57.0101 41.8087 57.0368 40.1611C57.0636 38.5134 57.8896 37.2457 58.8637 37.2559Z" fill="#DAD9D4"/>
<path d="M68.5753 33.2697C68.5753 33.2697 65.3974 33.1379 65.2058 32.9856C65.0141 32.8332 64.1675 29.7659 64.1675 29.7659C64.1675 29.7659 64.0379 32.9992 63.8882 33.1942C63.7385 33.3892 60.7237 34.2506 60.7237 34.2506C60.7237 34.2506 63.8537 34.3444 64.0401 34.4533C64.2318 34.6056 65.1316 37.7544 65.1316 37.7544C65.1316 37.7544 65.2611 34.5211 65.4109 34.3261C65.5179 34.1365 68.5753 33.2697 68.5753 33.2697Z" fill="#F6F6F5"/>
<path d="M66.1383 43.5786C66.1383 43.5786 67.2176 42.402 67.3379 42.3778C67.4582 42.3536 68.9053 43.0219 68.9053 43.0219C68.9053 43.0219 67.7108 41.9253 67.6847 41.8048C67.6586 41.6842 68.3052 40.2487 68.3052 40.2487C68.3052 40.2487 67.256 41.4192 67.154 41.4554C67.0337 41.4796 65.5382 40.8054 65.5382 40.8054C65.5382 40.8054 66.7328 41.9019 66.7588 42.0225C66.7967 42.125 66.1383 43.5786 66.1383 43.5786Z" fill="#F6F6F5"/>
<g style="mix-blend-mode:soft-light" opacity="0.65">
<path fill-rule="evenodd" clip-rule="evenodd" d="M183.527 60.9217L114.436 60.7602V60.1143L183.527 55.7314V60.9217Z" fill="white"/>
</g>
</svg>
