<svg width="85" height="100" viewBox="0 0 85 100" fill="none" xmlns="http://www.w3.org/2000/svg">
<ellipse rx="39.793" ry="39.8287" transform="matrix(-1 0 0 1 44.9999 60.0533)" fill="#0073CD"/>
<mask id="mask0_55765_545976" style="mask-type:alpha" maskUnits="userSpaceOnUse" x="0" y="1" width="85" height="99">
<path d="M5.20688 60.053C5.20688 82.0498 23.0228 99.8817 44.9999 99.8817C66.977 99.8817 84.793 82.0498 84.793 60.053C84.793 38.0563 83.06 1.77734 61.0829 1.77734C39.1058 1.77734 -15.3522 3.58452 5.20688 60.053Z" fill="#0073CD"/>
</mask>
<g mask="url(#mask0_55765_545976)">
<path d="M75.9361 106.455L83.3758 25.2692L26.6848 21.1654L11.9386 100.379L75.9361 106.455Z" fill="#BBDEED"/>
<path d="M74.7645 105.275L82.2041 24.0895L25.5132 19.9857L10.767 99.1997L74.7645 105.275Z" fill="#DFEBFA"/>
<path d="M80.9624 20.48L23.7975 15.0986L17.1385 21.8973L10.3128 96.4159L73.4744 102.375L80.9624 20.48Z" fill="#FAFCFD"/>
<path d="M52.539 24.662L21.4583 21.7505L18.7448 50.7707L49.8255 53.6822L52.539 24.662Z" fill="#FAFCFD"/>
<mask id="mask1_55765_545976" style="mask-type:alpha" maskUnits="userSpaceOnUse" x="22" y="22" width="28" height="31">
<path d="M49.1733 24.5839L25.3896 22.356L22.8059 49.989L46.5896 52.217L49.1733 24.5839Z" fill="white"/>
</mask>
<g mask="url(#mask1_55765_545976)">
<path d="M47.0802 36.5574L45.4253 36.443C45.318 36.4356 45.2168 36.4517 45.1217 36.4914C45.1166 36.6759 45.1116 36.8604 45.0988 37.0444L45.0039 38.4167C45.2129 38.6237 45.3896 38.8516 45.5417 39.1009L46.8902 39.1941C47.2733 39.2205 47.6092 38.9279 47.6357 38.5446L47.721 37.3103C47.7634 36.9204 47.471 36.5844 47.0802 36.5574Z" fill="#DFEBFA"/>
<path d="M46.1421 38.4332L46.2275 37.1989C46.254 36.8156 46.5898 36.523 46.973 36.5494L45.4329 36.443C45.3256 36.4356 45.2244 36.4517 45.1293 36.4914C45.1242 36.6759 45.1191 36.8604 45.1064 37.0444L45.0115 38.4167C45.2205 38.6238 45.3972 38.8517 45.5493 39.101L46.7906 39.1868C46.4075 39.1603 46.1151 38.8242 46.1421 38.4332Z" fill="#B1DBFC"/>
<path d="M26.1587 37.1123L26.2536 35.74C26.2679 35.533 26.2899 35.3266 26.3196 35.1206L24.7412 35.0116C24.3581 34.9851 24.0222 35.2777 23.9957 35.661L23.9103 36.8953C23.8838 37.2787 24.1762 37.6147 24.5593 37.6412L25.5324 37.7084C25.7169 37.4901 25.9315 37.2815 26.1587 37.1123Z" fill="#DFEBFA"/>
<path d="M25.0522 36.9741L25.1374 35.7396C25.1639 35.3562 25.4997 35.0636 25.8827 35.0901L24.7413 35.0111C24.3583 34.9846 24.0225 35.2773 23.996 35.6606L23.9107 36.8951C23.8843 37.2785 24.1766 37.6146 24.5597 37.6411L25.5326 37.7084C25.5408 37.7013 25.5413 37.6936 25.549 37.6941C25.2396 37.6034 25.0289 37.3115 25.0522 36.9741Z" fill="#B1DBFC"/>
<path d="M28.3494 36.4858L42.9365 37.494C43.7869 37.5527 44.539 37.9205 45.1082 38.4836L45.2036 37.1038C45.3048 35.6397 45.0489 34.2202 44.4861 33.1185C43.8613 31.9123 42.9553 31.2104 41.9134 31.1384L30.2299 30.3308C29.1956 30.2593 28.194 30.8294 27.4168 31.9387C26.7077 32.9526 26.2589 34.3233 26.1576 35.7874L26.0622 37.1672C26.6959 36.6872 27.499 36.427 28.3494 36.4858Z" fill="#E85F6A"/>
<path d="M27.697 35.8937C27.7983 34.4294 28.2472 33.0584 28.9563 32.0444C29.7337 30.9349 30.7354 30.3647 31.7698 30.4362L30.2374 30.3303C29.203 30.2588 28.2012 30.829 27.4239 31.9385C26.7148 32.9525 26.2659 34.3235 26.1646 35.7878L26.0692 37.1678C26.5242 36.8217 27.0715 36.59 27.6546 36.507L27.697 35.8937Z" fill="#EB676F"/>
<path d="M28.3487 36.486L42.9356 37.4942C43.288 37.5186 43.6291 37.5961 43.9434 37.7256L43.9922 37.0204C44.0786 35.771 43.868 34.5858 43.3998 33.6754C42.986 32.8689 42.4258 32.3989 41.8205 32.357L30.1448 31.55C29.5473 31.5087 28.9277 31.8972 28.3991 32.6385C27.8101 33.4758 27.4384 34.6208 27.352 35.8703L27.3033 36.5755C27.6478 36.4914 27.9886 36.4611 28.3487 36.486Z" fill="#77B5EA"/>
<path d="M28.9002 35.9769C28.9866 34.7273 29.3584 33.5821 29.9475 32.7446C30.4684 32.0026 31.0881 31.614 31.6934 31.6559L30.161 31.55C29.5633 31.5087 28.9437 31.8972 28.4151 32.6387C27.8259 33.4762 27.4542 34.6214 27.3678 35.871L27.319 36.5763C27.6477 36.4989 27.9967 36.4614 28.3492 36.4858L28.8626 36.5212L28.9002 35.9769Z" fill="#429FEE"/>
<path d="M40.1583 34.244C38.6951 34.1427 37.4169 35.2639 37.3147 36.7437C37.3062 36.8664 37.3059 36.9819 37.3127 37.1057L38.5231 37.1894C38.5004 37.0723 38.4936 36.9486 38.5021 36.8259C38.5587 36.0054 39.2631 35.3916 40.0674 35.4473C40.8795 35.5035 41.4851 36.2079 41.4284 37.0284C41.42 37.1511 41.3962 37.2727 41.3576 37.3856L42.568 37.4693C42.5912 37.3554 42.6074 37.2332 42.6158 37.1105C42.7334 35.6317 41.6291 34.3458 40.1583 34.244Z" fill="#2E9DE6"/>
<path d="M40.1583 34.244C38.6951 34.1427 37.4169 35.2639 37.3147 36.7437C37.3062 36.8664 37.3059 36.9819 37.3127 37.1057L38.5231 37.1894C38.5004 37.0723 38.4936 36.9486 38.5021 36.8259C38.5587 36.0054 39.2631 35.3916 40.0674 35.4473C40.8795 35.5035 41.4851 36.2079 41.4284 37.0284C41.42 37.1511 41.3962 37.2727 41.3576 37.3856L42.568 37.4693C42.5912 37.3554 42.6074 37.2332 42.6158 37.1105C42.7334 35.6317 41.6291 34.3458 40.1583 34.244Z" fill="#429FEE"/>
<path d="M38.6995 36.1929C39.0039 35.2434 39.8072 34.5363 40.7814 34.3648C40.5853 34.3051 40.3729 34.2596 40.1584 34.2448C38.695 34.1436 37.4165 35.2646 37.3142 36.7442C37.3057 36.8669 37.3054 36.9824 37.3123 37.1062L38.5228 37.1898C38.5001 37.0727 38.4933 36.949 38.5018 36.8263C38.5253 36.5969 38.5938 36.3859 38.6995 36.1929Z" fill="#50AEF0"/>
<path d="M42.9392 37.4415L28.3533 36.4323C26.4687 36.3019 24.8225 37.7365 24.6922 39.6227L24.4502 43.1268C24.5049 43.1152 24.5591 43.1113 24.6127 43.115L32.5874 43.6668C32.7042 43.5362 32.8796 43.4482 33.0635 43.4609L37.3075 43.7545C37.499 43.7678 37.6612 43.8715 37.7507 44.024L45.7255 44.5758C45.7791 44.5796 45.8322 44.5909 45.8848 44.61L46.1268 41.1059C46.2571 39.2196 44.8237 37.5719 42.9392 37.4415Z" fill="#F0868D"/>
<path d="M26.9369 39.7701C27.0674 37.8841 28.714 36.4496 30.5989 36.5798L28.3539 36.4247C26.469 36.2944 24.8224 37.729 24.692 39.6149L24.4497 43.1185C24.5044 43.1069 24.5585 43.1029 24.6122 43.1066L26.7039 43.2512L26.9446 39.7706L26.9369 39.7701Z" fill="#E85F6A"/>
<path d="M37.9127 40.4524C38.5485 40.4964 39.1611 40.2075 39.5281 39.6859L41.216 37.3142L30.0774 36.5435L31.4232 39.1251C31.715 39.6922 32.2821 40.0628 32.9179 40.1068L37.9127 40.4524Z" fill="#E85F6A"/>
<path d="M33.4915 39.2687L32.1458 36.6871L30.0774 36.5439L31.4232 39.1255C31.715 39.6927 32.2821 40.0632 32.9179 40.1072L34.9863 40.2504C34.3504 40.2064 33.7833 39.8358 33.4915 39.2687Z" fill="#EB676F"/>
<path d="M38.1324 42.1779L32.4634 41.7859C32.2642 41.7721 32.1144 41.6 32.1282 41.4007C32.142 41.2015 32.314 41.0517 32.5131 41.0654L38.1822 41.4574C38.3814 41.4712 38.5312 41.6433 38.5174 41.8426C38.5036 42.0418 38.324 42.1911 38.1324 42.1779Z" fill="#E85F6A"/>
<path d="M42.9424 42.2952C43.7125 42.3485 44.3798 41.7669 44.4331 40.9962C44.4863 40.2254 43.9052 39.5575 43.1352 39.5042C42.3652 39.4509 41.6978 40.0325 41.6446 40.8032C41.5914 41.5739 42.1724 42.2419 42.9424 42.2952Z" fill="#F9CC5D"/>
<path d="M27.6746 41.2386C28.4446 41.2918 29.112 40.7102 29.1652 39.9395C29.2185 39.1688 28.6374 38.5008 27.8674 38.4475C27.0974 38.3943 26.43 38.9759 26.3768 39.7466C26.3235 40.5173 26.9046 41.1853 27.6746 41.2386Z" fill="#F9CC5D"/>
<path d="M43.0311 40.8996C43.0671 40.3782 43.3818 39.9454 43.8195 39.7369C43.6206 39.6076 43.3956 39.5227 43.1428 39.5052C42.369 39.4516 41.7051 40.0374 41.6522 40.8042C41.5987 41.5786 42.1839 42.2432 42.95 42.2962C43.2028 42.3137 43.4451 42.2611 43.6522 42.1598C43.2473 41.893 42.9951 41.421 43.0311 40.8996Z" fill="#F7BD3C"/>
<path d="M27.7637 39.843C27.7997 39.3216 28.1144 38.8888 28.5522 38.6803C28.3533 38.5509 28.1282 38.466 27.8754 38.4485C27.1017 38.395 26.4378 38.9808 26.3848 39.7476C26.3313 40.522 26.9166 41.1865 27.6827 41.2395C27.9355 41.257 28.1777 41.2044 28.3848 41.1032C27.9799 40.8364 27.7277 40.3644 27.7637 39.843Z" fill="#F7BD3C"/>
<path d="M40.7854 45.6675L40.6794 47.2006C40.6524 47.5916 40.9519 47.9358 41.3426 47.9628L44.4838 48.1799C44.8745 48.2069 45.2186 47.9072 45.2456 47.5162L45.3516 45.9831L40.7854 45.6675Z" fill="#665E68"/>
<path d="M42.763 47.3447L42.8689 45.8112L40.7776 45.6665L40.6717 47.2C40.6447 47.5911 40.9442 47.9354 41.3349 47.9624L43.4262 48.1071C43.0361 48.0724 42.736 47.7358 42.763 47.3447Z" fill="#544E55"/>
<path d="M24.7976 44.561L24.6916 46.0942C24.6646 46.4851 24.9641 46.8293 25.3548 46.8563L28.496 47.0734C28.8867 47.1004 29.2308 46.8007 29.2578 46.4098L29.3638 44.8766L24.7976 44.561Z" fill="#665E68"/>
<path d="M26.7831 46.2388L26.889 44.7053L24.7976 44.5605L24.6917 46.0941C24.6647 46.4851 24.9642 46.8294 25.3549 46.8564L27.4462 47.0012C27.0484 46.9659 26.756 46.6298 26.7831 46.2388Z" fill="#544E55"/>
<path d="M32.4271 44.8804L32.5044 43.7609C32.5134 43.6306 32.5673 43.5187 32.6431 43.4238L24.6301 42.8694C24.3083 42.8471 24.0298 43.0898 24.0076 43.4118L23.9626 44.0636C23.9403 44.3856 24.1828 44.6644 24.5046 44.6866L32.5253 45.2416C32.4556 45.1366 32.4181 45.0108 32.4271 44.8804Z" fill="#DFEBFA"/>
<path d="M26.054 44.2083L26.099 43.5565C26.1212 43.2345 26.3997 42.9918 26.7214 43.0141L24.6301 42.8694C24.3083 42.8471 24.0298 43.0898 24.0076 43.4118L23.9626 44.0636C23.9404 44.3856 24.1828 44.6643 24.5046 44.6866L26.5959 44.8313C26.2747 44.8014 26.0322 44.5227 26.054 44.2083Z" fill="#B1DBFC"/>
<path d="M45.7424 44.3304L37.7217 43.7754C37.7837 43.8798 37.8218 43.998 37.8128 44.1284L37.7354 45.2479C37.7264 45.3782 37.6725 45.49 37.5967 45.585L45.6174 46.1399C45.9392 46.1622 46.2176 45.9195 46.2399 45.5975L46.2849 44.9457C46.3066 44.6314 46.0641 44.3526 45.7424 44.3304Z" fill="#DFEBFA"/>
<path d="M37.3123 45.8041L32.7772 45.4903C32.4554 45.468 32.213 45.1893 32.2352 44.8672L32.3125 43.7478C32.3348 43.4257 32.6132 43.1831 32.935 43.2053L37.4701 43.5191C37.7919 43.5414 38.0343 43.8201 38.0121 44.1422L37.9348 45.2616C37.9049 45.5831 37.6264 45.8258 37.3123 45.8041Z" fill="#B1DBFC"/>
<path d="M34.3266 45.012L34.4039 43.8925C34.4261 43.5704 34.7046 43.3278 35.0264 43.35L32.935 43.2053C32.6132 43.1831 32.3348 43.4257 32.3125 43.7478L32.2352 44.8672C32.213 45.1893 32.4554 45.468 32.7772 45.4903L34.8685 45.635C34.5468 45.6127 34.3043 45.334 34.3266 45.012Z" fill="#85B5DE"/>
</g>
<g style="mix-blend-mode:multiply">
<path d="M23.7018 15.118L17.0428 21.9167L15.4432 39.3667C27.6321 26.4218 45.5571 20.8765 61.5667 18.6932L23.7018 15.118Z" fill="#E6F8FF"/>
</g>
<path d="M17.0431 21.9173L24.9465 21.2031L23.7021 15.1186L17.0431 21.9173Z" fill="#F3FCFF"/>
<path d="M74.5158 35.1385C74.5881 34.1262 73.8304 33.2449 72.819 33.1647L56.2254 31.85C55.2036 31.7691 54.3117 32.5361 54.2387 33.5588C54.1664 34.5711 54.924 35.4524 55.9354 35.5326L72.5291 36.8473C73.5509 36.9282 74.4427 36.1612 74.5158 35.1385Z" fill="#C4CDDF"/>
<path d="M74.1957 40.6526C74.2213 40.338 73.9868 40.0622 73.6722 40.037L54.5668 38.506C54.2531 38.4809 53.9783 38.7146 53.9527 39.0285C53.9271 39.3431 54.1616 39.6189 54.4762 39.6441L73.5816 41.1751C73.8954 41.2002 74.1701 40.9665 74.1957 40.6526Z" fill="#D8DEEB"/>
<path d="M73.8927 44.3768C73.9183 44.0621 73.6838 43.7863 73.3692 43.7611L54.2639 42.2302C53.9501 42.205 53.6753 42.4388 53.6497 42.7526C53.6241 43.0672 53.8586 43.3431 54.1732 43.3683L73.2786 44.8992C73.5924 44.9244 73.8672 44.6906 73.8927 44.3768Z" fill="#D8DEEB"/>
<path d="M73.5888 48.1011C73.6144 47.7865 73.3799 47.5107 73.0654 47.4854L53.9515 45.9479C53.6312 45.9221 53.3523 46.1645 53.3331 46.4853C53.3143 46.7973 53.5487 47.067 53.8602 47.092L72.9745 48.6237C73.2884 48.6488 73.5632 48.415 73.5888 48.1011Z" fill="#D8DEEB"/>
<path d="M73.2858 51.8253C73.3114 51.5106 73.077 51.2348 72.7624 51.2095L53.6485 49.672C53.3282 49.6463 53.0493 49.8886 53.0301 50.2094C53.0114 50.5214 53.2457 50.7912 53.5572 50.8161L72.6716 52.3478C72.9854 52.3729 73.2602 52.1391 73.2858 51.8253Z" fill="#D8DEEB"/>
<path d="M72.9828 55.5494C73.0084 55.2348 72.774 54.9589 72.4594 54.9336L53.3455 53.3961C53.0252 53.3704 52.7464 53.6127 52.7271 53.9335C52.7084 54.2455 52.9427 54.5153 53.2542 54.5402L72.3686 56.0719C72.6824 56.097 72.9572 55.8633 72.9828 55.5494Z" fill="#D8DEEB"/>
<path d="M33.1632 72.3026C32.6605 72.1316 32.3271 71.6122 32.3599 71.065C32.4236 70.4268 33.0055 69.9141 33.6459 69.9796L55.1039 71.6776C55.7443 71.7431 56.2606 72.3247 56.1968 72.9629C56.1331 73.6011 55.5512 74.1138 54.9108 74.0483L33.4528 72.3503C33.346 72.3648 33.2546 72.3337 33.1632 72.3026Z" fill="#D8DEEB"/>
<path d="M32.8428 75.9494C32.3401 75.7784 32.0067 75.259 32.0395 74.7118C32.1032 74.0736 32.6851 73.5609 33.3255 73.6264L50.4741 74.8677C51.1145 74.9332 51.6307 75.5148 51.567 76.153C51.5033 76.7912 50.9214 77.3039 50.281 77.2384L33.1325 75.9971C33.0411 75.9661 32.9342 75.9805 32.8428 75.9494Z" fill="#D8DEEB"/>
<path d="M34.5975 60.1776C34.0948 60.0067 33.7614 59.4872 33.7942 58.94C33.8579 58.3018 34.4398 57.7891 35.0802 57.8546L56.5382 59.5525C57.1787 59.618 57.6949 60.1997 57.6312 60.8379C57.5674 61.4761 56.9856 61.9888 56.3451 61.9232L34.8871 60.2254C34.7803 60.2398 34.6889 60.2087 34.5975 60.1776Z" fill="#D8DEEB"/>
<path d="M34.2774 63.8249C33.7747 63.6539 33.4412 63.1345 33.4741 62.5873C33.5378 61.9491 34.1196 61.4364 34.7601 61.5019L51.9086 62.7431C52.5491 62.8086 53.0653 63.3903 53.0016 64.0285C52.9379 64.6667 52.356 65.1794 51.7156 65.1138L34.567 63.8727C34.4756 63.8416 34.3688 63.856 34.2774 63.8249Z" fill="#D8DEEB"/>
<path d="M31.5425 84.4808C31.0398 84.3099 30.7064 83.7904 30.7392 83.2432C30.8029 82.605 31.3848 82.0923 32.0252 82.1578L59.9482 84.4466C60.5887 84.5122 61.1049 85.0938 61.0412 85.732C60.9774 86.3702 60.3956 86.8829 59.7551 86.8174L31.8321 84.5286C31.7407 84.4975 31.6339 84.5119 31.5425 84.4808Z" fill="#D8DEEB"/>
<path d="M31.2828 88.0977C30.7801 87.9267 30.4466 87.4073 30.4795 86.8601C30.5432 86.2219 31.1251 85.7092 31.7655 85.7747L56.1656 87.7792C56.8061 87.8447 57.3223 88.4264 57.2586 89.0645C57.1948 89.7027 56.613 90.2155 55.9725 90.1499L31.5724 88.1454C31.4656 88.1599 31.3742 88.1288 31.2828 88.0977Z" fill="#D8DEEB"/>
<path d="M77.4395 19.3148C77.249 18.6062 76.7787 17.9813 76.1139 17.6122C75.449 17.243 74.697 17.1303 73.9759 17.35C73.2657 17.5376 72.6402 18.0045 72.272 18.6661L71.7196 19.6584L72.4502 19.7281L72.8724 19.0133C73.1432 18.5332 73.6285 18.1617 74.1451 18.0155C74.6938 17.8803 75.2848 17.9382 75.7673 18.2096C76.2499 18.481 76.6241 18.9659 76.7724 19.4813C76.9098 20.0288 76.8535 20.6176 76.5828 21.0978L73.1391 27.1154L71.1571 30.6259C70.7998 31.2554 69.9711 31.4743 69.3385 31.1161C69.0382 30.9425 68.8137 30.6515 68.7185 30.2972C68.6233 29.943 68.6677 29.6004 68.841 29.3017L72.4579 22.9853L71.8574 22.6381L68.2405 28.9544C67.9697 29.4346 67.9031 29.9484 68.0514 30.4638C68.1997 30.9792 68.5203 31.4101 69.0029 31.6815C69.1208 31.7574 69.2496 31.8012 69.3462 31.834C70.2478 32.1407 71.2705 31.7732 71.7363 30.9302L73.9346 27.0998L77.1941 21.413C77.5406 20.8156 77.6191 20.0554 77.4395 19.3148Z" fill="#606483"/>
<ellipse rx="3.52983" ry="3.53215" transform="matrix(0.992139 0.124291 -0.124095 0.992377 23.5293 72.1529)" fill="#41A996"/>
<path fill-rule="evenodd" clip-rule="evenodd" d="M22.7032 73.23L22.7039 73.2306C22.8056 73.3305 22.9283 73.3868 23.0608 73.4034C23.2348 73.4252 23.4114 73.3724 23.548 73.2486L23.5483 73.2483L25.1986 71.766L25.1996 71.7651C25.3577 71.6205 25.3755 71.3672 25.2265 71.2049C25.0817 71.0473 24.8285 71.0292 24.666 71.1773L23.141 72.5491L22.5183 71.9334L22.5177 71.9328C22.3621 71.7806 22.112 71.7822 21.959 71.9379C21.8066 72.093 21.8083 72.3424 21.9639 72.4952L22.7032 73.23Z" fill="#F3F6F8"/>
<ellipse rx="3.52983" ry="3.53216" transform="matrix(0.992139 0.124291 -0.124095 0.992377 22.312 84.6046)" fill="#FFA438"/>
<path fill-rule="evenodd" clip-rule="evenodd" d="M21.8528 84.7835C21.8225 85.0254 21.994 85.246 22.2358 85.2762C22.4775 85.3065 22.698 85.1351 22.7283 84.8932L22.9597 83.0427C22.9899 82.8008 22.8184 82.5802 22.5767 82.55C22.3349 82.5197 22.1144 82.6912 22.0842 82.933L21.8528 84.7835ZM22.0531 86.7368C22.2949 86.7671 22.5154 86.5955 22.5457 86.3535C22.5759 86.1115 22.4045 85.8908 22.1627 85.8605C21.9209 85.8302 21.7004 86.0018 21.6701 86.2438C21.6399 86.4858 21.8114 86.7065 22.0531 86.7368Z" fill="#F3F6F8"/>
<ellipse rx="3.52983" ry="3.53216" transform="matrix(0.992139 0.124291 -0.124095 0.992377 24.9825 59.8766)" fill="#5FB6E7"/>
<path fill-rule="evenodd" clip-rule="evenodd" d="M24.5721 59.6657C24.6023 59.4238 24.8228 59.2524 25.0646 59.2827C25.3063 59.3129 25.4778 59.5335 25.4476 59.7754L25.2162 61.6259C25.1859 61.8677 24.9654 62.0392 24.7236 62.0089C24.4819 61.9787 24.3104 61.7581 24.3406 61.5162L24.5721 59.6657ZM25.2472 57.8222C25.489 57.8525 25.6604 58.0732 25.6302 58.3152C25.5999 58.5572 25.3794 58.7288 25.1376 58.6985C24.8958 58.6682 24.7244 58.4475 24.7546 58.2055C24.7849 57.9635 25.0054 57.7919 25.2472 57.8222Z" fill="#F3F6F8"/>
</g>
</svg>
