<svg width="80" height="98" viewBox="0 0 80 98" fill="none" xmlns="http://www.w3.org/2000/svg">
<ellipse rx="39.793" ry="39.0321" transform="matrix(-1 0 0 1 40.0002 58.8524)" fill="#0073CD"/>
<mask id="mask0_55765_545969" style="mask-type:alpha" maskUnits="userSpaceOnUse" x="0" y="19" width="80" height="79">
<ellipse rx="39.793" ry="39.0321" transform="matrix(-1 0 0 1 40.0002 58.8524)" fill="#0073CD"/>
</mask>
<g mask="url(#mask0_55765_545969)">
<path d="M2.56567 72.46H76.901V137.659H8.2838C5.12575 137.659 2.56567 134.944 2.56567 131.594V72.46Z" fill="#E6F8FF"/>
</g>
<path d="M21.877 49.2934C21.877 49.2934 19.5384 43.9334 16.7308 43.9334C14.8646 43.9334 22.3245 38.2519 28.5894 45.7558C28.5894 45.7558 24.0026 47.3638 21.877 49.2934Z" fill="#FF989F"/>
<path d="M29.9474 83.0277C29.4325 84.6645 27.915 85.7778 26.1991 85.7778V85.7778C24.2155 85.7778 22.5429 84.2995 22.2994 82.3309L21.7572 77.949C21.3965 75.0331 23.6709 72.46 26.6091 72.46V72.46C29.9112 72.46 32.2635 75.6661 31.2725 78.816L29.9474 83.0277Z" fill="#FF989F"/>
<path d="M49.4195 82.0765C49.9345 83.7133 51.4519 84.8267 53.1678 84.8267V84.8267C55.1514 84.8267 56.824 83.3483 57.0676 81.3797L57.6097 76.9979C57.9705 74.082 55.696 71.5088 52.7579 71.5088V71.5088C49.4557 71.5088 47.1034 74.7149 48.0944 77.8648L49.4195 82.0765Z" fill="#FF989F"/>
<path d="M13.2214 56.724H16.3538C19.3744 48.4697 28.7717 42.3594 40.0709 42.3594C53.7193 42.3594 64.6829 51.2569 64.6829 62.2984C64.6829 73.3398 53.6075 82.2373 40.0709 82.2373C28.8836 82.2373 20.8797 79.1049 17.8591 70.8505L13.2214 67.8727C11.4314 67.8727 9.86521 66.5863 9.86521 64.9783V59.8328C9.97709 58.1176 11.4314 56.724 13.2214 56.724Z" fill="#FF989F"/>
<path d="M40.4065 42.3594C53.8312 42.5738 64.6829 51.3641 64.6829 62.2984C64.6829 73.2326 53.8312 82.0229 40.4065 82.2373V42.3594Z" fill="#FF989F"/>
<path d="M32.3954 49.2932C32.5559 49.2932 32.7164 49.2932 33.0375 49.1394C41.3845 45.6017 48.4473 48.9855 48.4473 49.1394C49.0894 49.447 50.0525 49.2932 50.3735 48.5241C50.6946 47.9088 50.5341 46.986 49.7315 46.6783C49.5709 46.6783 47.6447 45.6017 44.4343 45.1402C41.545 44.6788 36.8899 44.525 31.9138 46.6783C31.2718 46.986 30.7902 47.755 31.1112 48.5241C31.2718 48.9855 31.7533 49.2932 32.3954 49.2932Z" fill="#0073CD"/>
<path d="M28.2 54.9302C27.4989 56.6205 25.5924 57.4349 23.8532 56.7869" stroke="#0073CD" stroke-width="2" stroke-miterlimit="10" stroke-linecap="round" stroke-linejoin="round"/>
<path d="M11.9563 59.9468V61.9836" stroke="#0073CD" stroke-width="2" stroke-miterlimit="10" stroke-linecap="round" stroke-linejoin="round"/>
<path d="M62.4014 59.3935C62.4014 59.3935 69.5759 56.045 67.9135 52.2675C66.6552 50.6673 65.0237 51.908 65.5384 53.3058C66.3858 55.6074 66.9751 55.2791 67.9135 55.6074C69.764 56.2549 71.9512 53.0934 71.9512 53.0934" stroke="#FF989F" stroke-width="2.72916" stroke-miterlimit="10" stroke-linecap="round"/>
<path d="M34.0199 32.3187L41.0539 33.6495L41.5588 33.7503C43.322 33.7832 45.412 30.9836 46.9597 26.8215C47.5851 25.1133 48.0825 23.3625 48.4479 21.5832C49.0549 18.8296 49.291 16.0099 49.1502 13.196C48.9238 10.0825 48.0509 7.95134 46.6348 7.67475L39.3182 6.21785L38.2834 11.7308C37.5535 15.3544 36.5651 20.1619 35.7269 24.2115C34.8284 28.7197 34.0718 32.2924 34.0199 32.3187Z" fill="#FFAA01"/>
<path fill-rule="evenodd" clip-rule="evenodd" d="M36.6731 19.6255C36.6263 19.8529 36.5796 20.0802 36.5329 20.307L48.1665 22.8402C48.2212 22.6145 48.2738 22.3882 48.3242 22.1614L36.6731 19.6255Z" fill="#8B5703"/>
<path fill-rule="evenodd" clip-rule="evenodd" d="M49.1071 17.0592L37.7068 14.5768C37.6609 14.8023 37.6145 15.03 37.5677 15.2596L49.0486 17.7584C49.0707 17.5255 49.0902 17.2925 49.1071 17.0592Z" fill="#8B5703"/>
<path opacity="0.5" d="M34.0198 32.3186L41.0538 33.6494L41.5587 33.7502C43.3219 33.7831 45.4119 30.9836 46.9596 26.8214L35.6588 24.1776C34.8283 28.7197 34.0717 32.2924 34.0198 32.3186Z" fill="#8B5703"/>
<path opacity="0.5" fill-rule="evenodd" clip-rule="evenodd" d="M46.8365 27.1466L35.566 24.6828C35.5237 24.912 35.4817 25.1384 35.44 25.3616L46.5761 27.7983C46.6643 27.5853 46.7512 27.368 46.8365 27.1466Z" fill="#8B5703"/>
<path opacity="0.5" fill-rule="evenodd" clip-rule="evenodd" d="M43.7973 32.5014C43.9619 32.3255 44.1264 32.1324 44.2901 31.9232L34.5763 29.8002C34.5275 30.0397 34.4811 30.265 34.4375 30.4749L43.7973 32.5014Z" fill="#8B5703"/>
<path opacity="0.5" d="M38.2833 11.7306C42.1102 12.2582 46.3062 12.819 49.218 13.2297C48.9916 10.1162 48.1188 7.98498 46.7026 7.70839L39.386 6.25148L38.2833 11.7306Z" fill="white"/>
<path opacity="0.5" fill-rule="evenodd" clip-rule="evenodd" d="M49.0383 11.6787L38.7444 9.43828L38.6118 10.097L49.14 12.4044C49.1108 12.1546 49.0768 11.9125 49.0383 11.6787Z" fill="white"/>
<path d="M32.2082 18.3907C30.7216 25.587 31.5821 31.8692 34.02 32.3187C36.4579 32.7682 39.7408 27.3878 41.2274 20.1915C42.714 12.9952 41.8535 6.71295 39.405 6.27262C36.9565 5.83228 33.7042 11.2048 32.2082 18.3907Z" fill="#FFBE3D"/>
<path d="M48.2531 9.36752C48.2531 9.36752 43.9241 9.19164 43.663 8.98842C43.402 8.7852 42.2487 4.69342 42.2487 4.69342C42.2487 4.69342 42.0722 9.00668 41.8682 9.26679C41.6642 9.5269 37.5575 10.676 37.5575 10.676C37.5575 10.676 41.8213 10.8011 42.0752 10.9464C42.3362 11.1496 43.5619 15.3501 43.5619 15.3501C43.5619 15.3501 43.7385 11.0368 43.9424 10.7767C44.0883 10.5237 48.2531 9.36752 48.2531 9.36752Z" fill="#F6F6F5"/>
</svg>
