<svg width="89" height="100" viewBox="0 0 89 100" fill="none" xmlns="http://www.w3.org/2000/svg">
<path d="M1.20689 60.0528C1.20689 82.0496 19.0228 99.8815 40.9999 99.8815C62.977 99.8815 80.793 82.0496 80.793 60.0528C80.793 38.056 62.977 20.2241 40.9999 20.2241C19.0228 20.2241 1.20689 38.056 1.20689 60.0528Z" fill="#0073CD"/>
<mask id="mask0_55765_545982" style="mask-type:alpha" maskUnits="userSpaceOnUse" x="-3" y="-5" width="103" height="105">
<path d="M1.20692 60.053C1.20692 82.0498 19.0229 99.8817 40.9999 99.8817C57.8615 99.8817 72.2737 89.3849 78.0694 74.5639C79.8277 70.0675 90.7017 79.684 90.7017 74.5639C104.81 65.0019 102.77 -4.06055 80.793 -4.06055C58.8159 -4.06055 -19.3522 3.58447 1.20692 60.053Z" fill="#0073CD"/>
</mask>
<g mask="url(#mask0_55765_545982)">
<path d="M0.782227 35.1182H75.1176V89.6482C75.1176 96.2756 69.745 101.648 63.1176 101.648H6.50036C3.34231 101.648 0.782227 98.8772 0.782227 95.4592V35.1182Z" fill="#ECF7FC"/>
<path d="M75.1176 33.5707V39.7594H0.782227V33.5707C0.782227 30.1527 3.34231 27.3818 6.50036 27.3818H69.3996C72.5575 27.3818 75.1176 30.1527 75.1176 33.5707Z" fill="#D1DDDF"/>
<path d="M9.35955 35.1179H7.93002C7.14047 35.1179 6.50049 34.4252 6.50049 33.5707C6.50049 32.7161 7.14047 32.0234 7.93002 32.0234H9.35955C10.1491 32.0234 10.7891 32.7161 10.7891 33.5707C10.7891 34.4252 10.1491 35.1179 9.35955 35.1179Z" fill="#F8BA5D"/>
<path d="M16.507 35.1179H15.0775C14.2879 35.1179 13.6479 34.4252 13.6479 33.5707C13.6479 32.7161 14.2879 32.0234 15.0775 32.0234H16.507C17.2966 32.0234 17.9365 32.7161 17.9365 33.5707C17.9365 34.4252 17.2964 35.1179 16.507 35.1179Z" fill="#7CC076"/>
<path d="M23.6545 35.1179H22.2249C21.4354 35.1179 20.7954 34.4252 20.7954 33.5707C20.7954 32.7161 21.4354 32.0234 22.2249 32.0234H23.6545C24.444 32.0234 25.084 32.7161 25.084 33.5707C25.084 34.4252 24.444 35.1179 23.6545 35.1179Z" fill="#E85F6A"/>
<path d="M67.9701 35.1179H29.3729C28.5833 35.1179 27.9434 34.4252 27.9434 33.5707C27.9434 32.7161 28.5833 32.0234 29.3729 32.0234H67.9701C68.7597 32.0234 69.3996 32.7161 69.3996 33.5707C69.3996 34.4252 68.7597 35.1179 67.9701 35.1179Z" fill="white"/>
<path d="M57.2473 69.5349C57.2473 80.2735 48.5497 88.9789 37.8207 88.9789C27.0916 88.9789 18.394 80.2735 18.394 69.5349C18.394 58.7962 27.0916 50.0908 37.8207 50.0908C48.5497 50.0908 57.2473 58.7962 57.2473 69.5349Z" fill="#C4C4C4"/>
<mask id="mask1_55765_545982" style="mask-type:alpha" maskUnits="userSpaceOnUse" x="18" y="50" width="40" height="39">
<path d="M57.2473 69.5349C57.2473 80.2735 48.5497 88.9789 37.8207 88.9789C27.0916 88.9789 18.394 80.2735 18.394 69.5349C18.394 58.7962 27.0916 50.0908 37.8207 50.0908C48.5497 50.0908 57.2473 58.7962 57.2473 69.5349Z" fill="#C4C4C4"/>
</mask>
<g mask="url(#mask1_55765_545982)">
<path d="M17.5137 49.1733H56.3958V62.1815H17.5137V49.1733Z" fill="white"/>
<path d="M17.5137 62.1816H56.3958V75.1898H17.5137V62.1816Z" fill="#107EDC"/>
<path d="M17.5137 75.082H56.3958V88.0902H17.5137V75.082Z" fill="#E85F6A"/>
</g>
<path fill-rule="evenodd" clip-rule="evenodd" d="M32.8034 49.3827C33.3314 50.7472 32.6542 52.2817 31.291 52.8102C30.4922 53.1199 29.7222 53.4883 28.9864 53.9104C27.718 54.6379 26.1005 54.1985 25.3736 52.929C24.6467 51.6594 25.0857 50.0405 26.3541 49.3129C27.3191 48.7594 28.3297 48.2758 29.3789 47.869C30.7422 47.3405 32.2754 48.0182 32.8034 49.3827ZM42.0724 49.3827C42.6004 48.0182 44.1335 47.3405 45.4968 47.869C46.5461 48.2758 47.5567 48.7594 48.5217 49.3129C49.7901 50.0405 50.2291 51.6594 49.5022 52.929C48.7753 54.1985 47.1577 54.6379 45.8893 53.9104C45.1535 53.4883 44.3836 53.1199 43.5847 52.8102C42.2215 52.2817 41.5444 50.7472 42.0724 49.3827ZM24.8623 53.3359C25.9309 54.3345 25.9883 56.011 24.9905 57.0805C23.8302 58.3243 22.8544 59.7411 22.106 61.2867C21.4685 62.6034 19.8851 63.1535 18.5696 62.5154C17.254 61.8772 16.7044 60.2925 17.3419 58.9757C18.3241 56.9473 19.6028 55.0915 21.121 53.4641C22.1188 52.3947 23.7938 52.3372 24.8623 53.3359ZM50.0134 53.3359C51.0819 52.3372 52.757 52.3947 53.7547 53.4641C55.2729 55.0915 56.5517 56.9473 57.5338 58.9757C58.1714 60.2925 57.6218 61.8772 56.3062 62.5154C54.9906 63.1535 53.4073 62.6034 52.7697 61.2867C52.0213 59.7411 51.0456 58.3243 49.8852 57.0805C48.8875 56.011 48.9449 54.3345 50.0134 53.3359ZM56.4992 63.1405C57.945 62.9234 59.2929 63.9203 59.5099 65.3674C59.6735 66.4585 59.7581 67.5742 59.7581 68.7079C59.7581 70.1965 59.6122 71.6536 59.3333 73.0649C59.0496 74.5003 57.657 75.4338 56.2228 75.1498C54.7887 74.8658 53.8561 73.472 54.1398 72.0366C54.3522 70.9621 54.4639 69.8494 54.4639 68.7079C54.4639 67.8383 54.3991 66.9856 54.2744 66.1539C54.0574 64.7068 55.0535 63.3577 56.4992 63.1405ZM18.3765 63.1405C19.8223 63.3577 20.8183 64.7068 20.6014 66.1539C20.4766 66.9856 20.4118 67.8383 20.4118 68.7079C20.4118 69.8494 20.5236 70.9621 20.7359 72.0366C21.0196 73.472 20.087 74.8658 18.6529 75.1498C17.2188 75.4338 15.8262 74.5003 15.5425 73.0649C15.2635 71.6536 15.1177 70.1965 15.1177 68.7079C15.1177 67.5742 15.2023 66.4585 15.3659 65.3674C15.5829 63.9203 16.9308 62.9234 18.3765 63.1405ZM19.6058 77.4468C20.8206 76.6327 22.4647 76.9585 23.278 78.1744C24.5218 80.0339 26.1219 81.6355 27.9798 82.8804C29.1946 83.6944 29.5201 85.34 28.7068 86.5559C27.8935 87.7718 26.2494 88.0976 25.0346 87.2836C22.6017 85.6534 20.5075 83.5574 18.8787 81.1223C18.0654 79.9064 18.3909 78.2608 19.6058 77.4468ZM55.27 77.4468C56.4848 78.2608 56.8103 79.9064 55.997 81.1223C54.3682 83.5574 52.2741 85.6534 49.8412 87.2836C48.6264 88.0976 46.9823 87.7718 46.1689 86.5559C45.3556 85.34 45.6811 83.6944 46.896 82.8804C48.7538 81.6355 50.3539 80.0339 51.5977 78.1744C52.411 76.9585 54.0552 76.6327 55.27 77.4468ZM31.0017 87.5096C31.2854 86.0742 32.678 85.1408 34.1121 85.4248C35.1856 85.6373 36.2974 85.7492 37.4379 85.7492C38.5784 85.7492 39.6901 85.6373 40.7636 85.4248C42.1977 85.1408 43.5903 86.0742 43.8741 87.5096C44.1578 88.9451 43.2252 90.3389 41.791 90.6229C40.381 90.9021 38.9251 91.048 37.4379 91.048C35.9506 91.048 34.4948 90.9021 33.0847 90.6229C31.6506 90.3389 30.718 88.9451 31.0017 87.5096Z" fill="#F8BA5D"/>
<path d="M48.1238 75.9233H26.1202C24.5591 75.9233 23.2954 75.6404 23.2954 75.2908V74.0758C23.2954 73.7263 24.5591 73.4434 26.1202 73.4434H48.1238C49.6849 73.4434 50.9486 73.7263 50.9486 74.0758V75.2908C50.9115 75.6404 49.6477 75.9233 48.1238 75.9233Z" fill="#232056"/>
<path d="M29.6302 64.0992H44.8333C45.7196 64.0992 46.526 64.419 47.1568 64.9493C47.1568 63.2143 44.4068 58.2021 43.3161 58.2021H31.1393C29.8507 58.2021 27.3066 62.7564 27.3066 64.9493C27.9295 64.419 28.7439 64.0992 29.6302 64.0992Z" fill="#F1F1F1"/>
<path d="M29.6297 64.0991H44.8327C45.2 64.0991 45.5594 64.1537 45.8947 64.2628C45.8947 62.7894 43.7299 58.9746 43.3077 58.9746H31.1388C30.1493 60.1992 28.5518 62.79 28.5518 64.2628C28.9031 64.1537 29.2544 64.0991 29.6297 64.0991Z" fill="#67B0EB"/>
<path d="M46.984 63.7603H27.4779C26.5953 63.7603 22.8984 67.6031 22.8984 68.3438V73.0299C22.9702 73.0093 23.0419 72.9991 23.1136 72.9991H33.7784C33.9219 72.8145 34.1472 72.6812 34.3931 72.6812H40.0687C40.3249 72.6812 40.5502 72.8043 40.6834 72.9991H51.3483C51.42 72.9991 51.4917 73.0093 51.5634 73.0299V68.3438C51.5634 67.3914 47.4104 63.7603 46.984 63.7603Z" fill="#F8F8F8"/>
<path d="M40.5705 68.2308C41.4208 68.2308 42.2097 67.9846 42.6502 67.5781L44.6787 65.729H29.7827L31.8112 67.5781C32.2517 67.9846 33.0406 68.2308 33.8909 68.2308H40.5705Z" fill="#ABABAB"/>
<path d="M41.951 69.1316L41.9228 71.535C41.9219 71.6195 41.7454 71.6846 41.5279 71.6808C41.3104 71.6769 41.1356 71.6056 41.1366 71.5212L41.1647 69.1177C41.1657 69.0333 41.3422 68.9681 41.5597 68.972C41.7771 68.9758 41.952 69.0504 41.951 69.1316Z" fill="#ABABAB"/>
<path d="M39.4315 69.1316L39.4033 71.535C39.4023 71.6195 39.2259 71.6846 39.0084 71.6808C38.7909 71.6769 38.616 71.6056 38.617 71.5212L38.6452 69.1177C38.6462 69.0333 38.8226 68.9681 39.0401 68.972C39.2576 68.9758 39.4324 69.0504 39.4315 69.1316Z" fill="#ABABAB"/>
<path d="M36.8836 69.1316L36.8555 71.535C36.8545 71.6195 36.678 71.6846 36.4605 71.6808C36.243 71.6769 36.0682 71.6056 36.0692 71.5212L36.0973 69.1177C36.0983 69.0333 36.2748 68.9681 36.4923 68.972C36.7098 68.9758 36.8846 69.0504 36.8836 69.1316Z" fill="#ABABAB"/>
<path d="M34.4676 69.1316L34.4394 71.535C34.4385 71.6195 34.262 71.6846 34.0445 71.6808C33.827 71.6769 33.6522 71.6056 33.6532 71.5212L33.6813 69.1177C33.6823 69.0333 33.8588 68.9681 34.0763 68.972C34.2937 68.9758 34.4686 69.0504 34.4676 69.1316Z" fill="#ABABAB"/>
<path d="M40.6913 69.1316L40.6631 71.535C40.6621 71.6195 40.4856 71.6846 40.2681 71.6808C40.0507 71.6769 39.8758 71.6056 39.8768 71.5212L39.905 69.1177C39.9059 69.0333 40.0824 68.9681 40.2999 68.972C40.5174 68.9758 40.6922 69.0504 40.6913 69.1316Z" fill="#ABABAB"/>
<path d="M38.1717 69.1316L38.1435 71.535C38.1426 71.6195 37.9661 71.6846 37.7486 71.6808C37.5311 71.6769 37.3563 71.6056 37.3573 71.5212L37.3854 69.1177C37.3864 69.0333 37.5629 68.9681 37.7804 68.972C37.9978 68.9758 38.1727 69.0504 38.1717 69.1316Z" fill="#ABABAB"/>
<path d="M35.6239 69.1316L35.5957 71.535C35.5947 71.6195 35.4182 71.6846 35.2008 71.6808C34.9833 71.6769 34.8084 71.6056 34.8094 71.5212L34.8376 69.1177C34.8386 69.0333 35.015 68.9681 35.2325 68.972C35.45 68.9758 35.6248 69.0504 35.6239 69.1316Z" fill="#ABABAB"/>
<path d="M33.208 69.1315L33.1797 71.535C33.1787 71.6194 33.0022 71.6845 32.7847 71.6807C32.5673 71.6769 32.3924 71.6056 32.3934 71.5212L32.4217 69.1177C32.4227 69.0333 32.5991 68.9681 32.8166 68.972C33.0341 68.9758 33.2089 69.0503 33.208 69.1315Z" fill="#ABABAB"/>
<path d="M49.5333 70.4129C50.3149 70.4129 50.9485 69.7788 50.9485 68.9965C50.9485 68.2142 50.3149 67.5801 49.5333 67.5801C48.7518 67.5801 48.1182 68.2142 48.1182 68.9965C48.1182 69.7788 48.7518 70.4129 49.5333 70.4129Z" fill="#F9CC5D"/>
<path d="M29.0519 70.4129C29.8334 70.4129 30.467 69.7788 30.467 68.9965C30.467 68.2142 29.8334 67.5801 29.0519 67.5801C28.2703 67.5801 27.6367 68.2142 27.6367 68.9965C27.6367 69.7788 28.2703 70.4129 29.0519 70.4129Z" fill="#F9CC5D"/>
<path d="M45.7413 70.3587C46.5229 70.3587 47.1565 69.7246 47.1565 68.9423C47.1565 68.16 46.5229 67.5259 45.7413 67.5259C44.9598 67.5259 44.3262 68.16 44.3262 68.9423C44.3262 69.7246 44.9598 70.3587 45.7413 70.3587Z" fill="#F9CC5D"/>
<path d="M25.2599 70.3587C26.0415 70.3587 26.675 69.7246 26.675 68.9423C26.675 68.16 26.0415 67.5259 25.2599 67.5259C24.4783 67.5259 23.8447 68.16 23.8447 68.9423C23.8447 69.7246 24.4783 70.3587 25.2599 70.3587Z" fill="#F9CC5D"/>
<path d="M44.8721 74.9062V76.957C44.8721 77.48 45.231 77.9107 45.6669 77.9107H49.1711C49.607 77.9107 49.966 77.48 49.966 76.957V74.9062H44.8721Z" fill="#232056"/>
<path d="M47.1966 76.957V74.9062H44.8633V76.957C44.8633 77.48 45.2222 77.9107 45.6581 77.9107H47.9914C47.5555 77.9004 47.1966 77.48 47.1966 76.957Z" fill="#232056"/>
<path d="M24.4971 74.9062V76.957C24.4971 77.48 24.8566 77.9107 25.2931 77.9107H28.8024C29.2389 77.9107 29.5984 77.48 29.5984 76.957V74.9062H24.4971Z" fill="#232056"/>
<path d="M26.8338 76.957V74.9062H24.4971V76.957C24.4971 77.48 24.8566 77.9107 25.2931 77.9107H27.6298C27.1847 77.9004 26.8338 77.48 26.8338 76.957Z" fill="#232056"/>
<path d="M33.6765 74.6294V73.1323C33.6765 72.958 33.7379 72.8042 33.8301 72.6709H23.1141C22.6838 72.6709 22.3354 73.0195 22.3354 73.4502V74.3218C22.3354 74.7525 22.6838 75.1011 23.1141 75.1011H33.8404C33.7379 74.9678 33.6765 74.8037 33.6765 74.6294Z" fill="#DFEBFA"/>
<path d="M51.3484 72.6709H40.6221C40.7143 72.8042 40.7757 72.958 40.7757 73.1323V74.6294C40.7757 74.8037 40.7143 74.9575 40.6221 75.0908H51.3484C51.7787 75.0908 52.127 74.7422 52.127 74.3115V73.4399C52.127 73.0195 51.7787 72.6709 51.3484 72.6709Z" fill="#DFEBFA"/>
<path fill-rule="evenodd" clip-rule="evenodd" d="M32.8005 56.8266C32.8005 56.5664 33.1488 56.3557 33.5791 56.3557H41.0213C41.4516 56.3557 41.7999 56.5664 41.7999 56.8266V57.7312C41.7896 57.9914 41.4413 58.2021 41.0213 58.2021H40.9901L40.9827 58.2021H38.8067L33.5791 58.2021C33.1488 58.2021 32.8005 57.9914 32.8005 57.7312V56.8266ZM31.624 57.0248V56.8266C31.624 56.125 32.0883 55.6864 32.42 55.4858C32.7735 55.272 33.1862 55.1782 33.5791 55.1782H41.0213C41.4142 55.1782 41.8269 55.272 42.1804 55.4858C42.5121 55.6864 42.9764 56.125 42.9764 56.8266V57.0248H43.316C43.7746 57.0248 44.1417 57.2288 44.3616 57.3784C44.6039 57.5433 44.8265 57.7529 45.0228 57.9645C45.418 58.3905 45.8201 58.9491 46.1919 59.5407C46.8292 60.5546 47.4539 61.7882 47.8594 62.8765C47.8898 62.8954 47.9193 62.9143 47.9476 62.9328C48.1433 63.0611 48.3711 63.2305 48.6088 63.4184C49.0884 63.7977 49.673 64.304 50.2393 64.8367C50.8029 65.3668 51.3726 65.946 51.8107 66.4706C52.028 66.731 52.2342 67.0031 52.3924 67.2665C52.5195 67.4781 52.7399 67.8789 52.7399 68.3437V72.0743C53.0867 72.424 53.3036 72.9047 53.3036 73.4399V74.3115C53.3036 75.3925 52.4286 76.2683 51.3486 76.2683L36.2298 76.2786H23.1143C22.0342 76.2786 21.1592 75.4027 21.1592 74.3217V73.4501C21.1592 72.9141 21.374 72.4293 21.722 72.0764V68.3437C21.722 68.0805 21.7971 67.8609 21.8467 67.7358C21.9032 67.5932 21.9741 67.4583 22.0435 67.3396C22.1825 67.1016 22.3646 66.8455 22.5607 66.5927C22.9564 66.0828 23.4785 65.4982 24.0182 64.9486C24.5573 64.3998 25.1396 63.8598 25.6611 63.4478C25.9199 63.2434 26.1871 63.0518 26.4424 62.9053C26.4654 62.8921 26.4909 62.8776 26.5187 62.8624C26.8915 61.711 27.4943 60.4753 28.1375 59.4719C28.5172 58.8795 28.939 58.3237 29.3722 57.9005C29.5888 57.6889 29.8338 57.4852 30.1023 57.3284C30.3627 57.1764 30.7201 57.0248 31.1392 57.0248H31.624ZM31.1392 58.2023C30.0542 58.2023 28.0792 61.4308 27.4821 63.7601H27.4779C26.5953 63.7601 22.8985 67.603 22.8985 68.3437V72.7011C22.5733 72.7947 22.3357 73.0944 22.3357 73.4501V74.3217C22.3357 74.7524 22.684 75.101 23.1143 75.101H33.8406C33.7381 74.9677 33.6767 74.8037 33.6767 74.6293V73.1323C33.6767 73.0864 33.6809 73.042 33.6889 72.999H33.7785C33.9219 72.8144 34.1473 72.6811 34.3931 72.6811H40.0688C40.3249 72.6811 40.5503 72.8041 40.6835 72.999H40.7637C40.7717 73.042 40.7759 73.0864 40.7759 73.1323V74.6293C40.7759 74.8037 40.7145 74.9575 40.6223 75.0908H51.3486C51.7789 75.0908 52.1272 74.7421 52.1272 74.3115V73.4399C52.1272 73.0923 51.8891 72.7938 51.5635 72.7008V68.3437C51.5635 67.3912 47.4104 63.7601 46.984 63.7601H46.9207C46.2314 61.5909 44.2127 58.2023 43.316 58.2023H31.1392Z" fill="#232056"/>
<path d="M40.2693 74.9917H34.2044C33.7741 74.9917 33.4258 74.7087 33.4258 74.3592V73.1442C33.4258 72.7947 33.7741 72.5117 34.2044 72.5117H40.2693C40.6996 72.5117 41.0479 72.7947 41.0479 73.1442V74.3592C41.0377 74.7087 40.6894 74.9917 40.2693 74.9917Z" fill="#B1DBFC"/>
<path d="M41.0138 58.2023H33.5716C33.1413 58.2023 32.793 57.9917 32.793 57.7314V56.8268C32.793 56.5666 33.1413 56.356 33.5716 56.356H41.0138C41.4441 56.356 41.7924 56.5666 41.7924 56.8268V57.7314C41.7822 57.9917 41.4338 58.2023 41.0138 58.2023Z" fill="white"/>
<path d="M35.7475 58.2023H33.5716C33.1413 58.2023 32.793 57.9917 32.793 57.7314V56.8268C32.793 56.5666 33.1413 56.356 33.5716 56.356H35.7475V58.2023Z" fill="#0073CD"/>
<path d="M38.8599 58.2023H41.0358C41.4661 58.2023 41.8145 57.9917 41.8145 57.7314V56.8268C41.8145 56.5666 41.4661 56.356 41.0358 56.356H38.8599V58.2023Z" fill="#EF1C31"/>
</g>
<mask id="mask2_55765_545982" style="mask-type:alpha" maskUnits="userSpaceOnUse" x="63" y="64" width="26" height="30">
<path d="M88.2347 65.4205V74.8715C88.2195 75.4597 88.1655 76.0463 88.073 76.6273C86.9515 83.7662 82.6845 90.0229 76.4508 93.6691C76.0465 93.912 75.5413 93.912 75.137 93.6691C68.9032 90.0229 64.6362 83.7662 63.5147 76.6273C63.4221 76.0463 63.3682 75.4597 63.353 74.8715V65.4205C63.353 64.7327 63.91 64.1753 64.5971 64.1753H86.9905C87.6778 64.1753 88.2347 64.7327 88.2347 65.4205Z" fill="#F8BA5D"/>
</mask>
<g mask="url(#mask2_55765_545982)">
<rect x="60.8486" y="62.6182" width="31.2924" height="10.469" fill="#F8BA5D"/>
<rect x="60.8486" y="73.0874" width="31.2924" height="10.469" fill="#F8BA5D"/>
<rect x="60.8486" y="83.4697" width="31.2924" height="10.469" fill="#F8BA5D"/>
<path d="M75.3437 94.1703C69.0254 90.4621 64.7005 84.0991 63.5638 76.8389C63.4699 76.248 63.4153 75.6515 63.3999 75.0533V65.4416C63.3999 64.7422 63.9644 64.1753 64.6609 64.1753H76.5577C76.5577 64.1753 77.6542 95.7274 75.3437 94.1703Z" fill="#F9CC5D"/>
<path opacity="0.5" d="M77.3141 64.1753V86.9647C77.3141 87.6639 76.7478 88.2307 76.0491 88.2307C75.3505 88.2307 74.7842 87.6639 74.7842 86.9647V64.1753H77.3141Z" fill="#C58002"/>
<path opacity="0.5" d="M88.6988 74.3037V75.0507C88.6833 75.6487 88.6284 76.2451 88.5343 76.8359H63.5643C63.4702 76.2451 63.4154 75.6487 63.3999 75.0507V74.3037H88.6988Z" fill="#C58002"/>
</g>
</svg>
