<svg width="16" height="16" viewBox="0 0 16 16" fill="none" xmlns="http://www.w3.org/2000/svg">
<ellipse cx="8" cy="8" rx="8" ry="8" fill="#2F93E1"/>
<path fill-rule="evenodd" clip-rule="evenodd" d="M6.4453 10.6523L6.447 10.6536C6.70382 10.8494 6.99578 10.9414 7.29843 10.9414C7.69578 10.9414 8.07818 10.7729 8.35073 10.4564L8.35134 10.4557L11.646 6.6601L11.648 6.65776C11.963 6.28837 11.9318 5.71426 11.5509 5.39154C11.181 5.07812 10.6064 5.1087 10.2826 5.48712L7.23843 8.99905L5.66476 7.79089L5.66331 7.78978C5.27052 7.49146 4.70846 7.56544 4.40819 7.9583C4.10896 8.34979 4.18295 8.90981 4.57602 9.20938L6.4453 10.6523Z" fill="white"/>
</svg>
