<svg width="431" height="289" viewBox="0 0 431 289" fill="none" xmlns="http://www.w3.org/2000/svg">
<path fill-rule="evenodd" clip-rule="evenodd" d="M251.553 195.853C270.712 195.283 279.151 208.178 279.265 229.974C279.265 251.657 263.641 265.465 247.448 264.096C231.254 262.726 218.596 248.804 219.736 229.974C220.877 211.145 232.395 196.424 251.553 195.853Z" fill="#231F20"/>
<path fill-rule="evenodd" clip-rule="evenodd" d="M259.879 199.961C269.8 199.961 277.669 210.688 279.152 225.067C279.266 226.665 279.266 228.262 279.266 229.974C279.266 248.689 267.634 263.182 254.177 263.753C244.028 261.699 236.843 248.233 237.527 232.028C238.326 214.34 248.361 199.961 259.879 199.961Z" fill="#383431"/>
<path fill-rule="evenodd" clip-rule="evenodd" d="M259.993 203.954C269.344 203.954 278.239 215.594 276.186 232.712C274.133 249.829 265.466 257.019 257.256 257.932C249.045 258.959 240.72 246.292 241.404 231.913C241.974 217.648 250.641 203.954 259.993 203.954Z" fill="#A7A9AC"/>
<path fill-rule="evenodd" clip-rule="evenodd" d="M259.878 207.835C267.974 207.835 275.501 217.877 273.79 232.599C272.08 247.32 264.553 253.482 257.483 254.281C250.412 255.08 243.342 244.239 243.912 231.914C244.368 219.589 251.781 207.835 259.878 207.835Z" fill="#6D6E71"/>
<path fill-rule="evenodd" clip-rule="evenodd" d="M80.6084 195.853C99.7669 195.283 108.206 208.178 108.32 229.974C108.32 251.657 92.6965 265.465 76.503 264.096C60.3095 262.726 47.6513 248.804 48.7916 229.974C49.932 211.145 61.4499 196.424 80.6084 195.853Z" fill="#231F20"/>
<path fill-rule="evenodd" clip-rule="evenodd" d="M88.9342 199.961C98.8556 199.961 106.724 210.688 108.207 225.067C108.321 226.665 108.321 228.262 108.321 229.974C108.321 248.689 96.6888 263.182 83.2323 263.753C73.0828 261.699 65.8984 248.233 66.5826 232.028C67.3809 214.34 77.4163 199.961 88.9342 199.961Z" fill="#383431"/>
<path fill-rule="evenodd" clip-rule="evenodd" d="M89.0482 203.954C98.3994 203.954 107.294 215.594 105.242 232.712C103.189 249.829 94.5221 257.019 86.3113 257.932C78.1005 258.959 69.7757 246.292 70.4599 231.913C71.0301 217.648 79.583 203.954 89.0482 203.954Z" fill="#A7A9AC"/>
<path fill-rule="evenodd" clip-rule="evenodd" d="M88.9338 207.835C97.0305 207.835 104.557 217.877 102.847 232.599C101.136 247.32 93.6094 253.482 86.539 254.281C79.4686 255.08 72.3982 244.239 72.9684 231.914C73.4245 219.589 80.837 207.835 88.9338 207.835Z" fill="#6D6E71"/>
<path fill-rule="evenodd" clip-rule="evenodd" d="M109.233 248.349H338.336C348.258 246.98 376.996 245.61 386.917 244.241C398.891 200.648 366.96 188.78 344.38 177.596H98.6271L37.7305 244.241C55.2924 247.665 85.3986 248.349 109.233 248.349Z" fill="#58595B"/>
<path fill-rule="evenodd" clip-rule="evenodd" d="M170.243 195.854C189.401 195.283 197.84 208.178 197.954 229.975C197.954 251.657 182.331 265.465 166.137 264.096C149.944 262.727 137.286 248.804 138.426 229.975C139.68 211.145 151.084 196.424 170.243 195.854Z" fill="#231F20"/>
<path fill-rule="evenodd" clip-rule="evenodd" d="M178.568 199.961C188.49 199.961 196.359 210.688 197.841 225.067C197.955 226.665 197.955 228.263 197.955 229.974C197.955 248.69 186.323 263.183 172.867 263.753C162.717 261.699 155.533 248.233 156.217 232.029C157.015 214.34 167.051 199.961 178.568 199.961Z" fill="#414042"/>
<path fill-rule="evenodd" clip-rule="evenodd" d="M178.682 203.955C188.034 203.955 196.929 215.595 194.876 232.712C192.823 249.83 184.156 257.019 175.946 257.932C167.735 258.959 159.41 246.292 160.094 231.913C160.778 217.649 169.331 203.955 178.682 203.955Z" fill="#E2E3E4"/>
<path fill-rule="evenodd" clip-rule="evenodd" d="M178.682 203.955C184.042 203.955 189.288 207.72 192.367 214.111C193.279 217.877 193.507 222.099 192.937 226.778C190.884 243.553 182.217 250.515 174.007 251.542C169.103 252.112 164.085 247.89 161.006 241.385C160.208 238.304 159.866 234.995 159.98 231.571C160.778 217.42 169.331 203.955 178.682 203.955Z" fill="#BCBEC0"/>
<path fill-rule="evenodd" clip-rule="evenodd" d="M174.691 242.986C174.349 246.181 174.349 250.175 173.893 253.256C176.173 253.256 178.34 252.343 180.279 250.746C180.165 248.007 178.112 244.926 175.717 242.643C175.489 242.415 175.261 242.415 175.033 242.529C174.919 242.529 174.691 242.757 174.691 242.986Z" fill="#A7A9AC"/>
<path fill-rule="evenodd" clip-rule="evenodd" d="M179.823 236.48C179.937 237.507 182.788 242.186 184.27 243.555C184.384 243.669 184.612 243.783 184.84 243.669C185.069 243.669 185.183 243.441 185.297 243.327C186.095 241.387 186.779 239.219 187.235 236.822C187.349 236.48 187.121 236.252 186.893 236.137C184.27 235.11 181.989 235.11 180.279 235.909C179.937 236.023 179.823 236.252 179.823 236.48Z" fill="#A7A9AC"/>
<path fill-rule="evenodd" clip-rule="evenodd" d="M180.963 228.95C183.358 229.292 185.867 229.521 188.147 230.091C188.261 227.01 188.033 224.271 187.463 221.761C183.928 224.5 181.191 227.124 180.963 228.95Z" fill="#A7A9AC"/>
<path fill-rule="evenodd" clip-rule="evenodd" d="M178.568 210.348L177.428 219.135C177.428 219.363 177.542 219.591 177.656 219.705C177.884 219.819 178.112 219.934 178.226 219.819C180.393 219.021 182.331 217.309 184.042 215.141C184.27 214.912 184.27 214.57 184.042 214.342C182.674 212.288 181.077 210.804 179.252 209.891C179.024 209.777 178.796 209.777 178.682 209.891C178.796 210.005 178.682 210.119 178.568 210.348Z" fill="#A7A9AC"/>
<path fill-rule="evenodd" clip-rule="evenodd" d="M165.91 216.167L171.042 220.732C173.095 220.389 175.033 210.119 172.753 209.662C168.989 208.978 167.165 212.515 165.682 215.368C165.682 215.711 165.682 216.053 165.91 216.167Z" fill="#A7A9AC"/>
<path fill-rule="evenodd" clip-rule="evenodd" d="M163.857 222.443C165.453 224.383 166.822 226.551 166.708 228.948C166.594 231.572 163.971 232.714 162.032 233.969C161.804 234.083 161.576 234.083 161.462 233.969C161.234 233.855 161.12 233.741 161.12 233.512C160.664 230.431 162.032 225.296 162.83 222.671C162.944 222.443 163.058 222.329 163.286 222.215C163.515 222.101 163.743 222.215 163.857 222.443Z" fill="#A7A9AC"/>
<path fill-rule="evenodd" clip-rule="evenodd" d="M166.365 249.264C169.102 245.498 169.786 242.987 168.645 238.194C167.733 237.053 164.768 239.906 162.601 241.275C162.373 241.389 162.259 241.732 162.259 241.96C162.944 244.699 163.97 247.095 165.338 249.264C165.452 249.492 165.68 249.606 165.909 249.606C166.023 249.606 166.137 249.492 166.365 249.264Z" fill="#A7A9AC"/>
<path fill-rule="evenodd" clip-rule="evenodd" d="M174.577 244.125C174.349 247.092 174.235 250.516 173.893 253.14C174.349 253.14 174.691 253.14 175.033 253.026C176.06 252.57 177.086 251.999 178.112 251.2C178.112 248.918 176.516 246.293 174.577 244.125Z" fill="#58595B"/>
<path fill-rule="evenodd" clip-rule="evenodd" d="M179.822 236.48C179.936 237.393 181.989 240.93 183.585 242.756C184.155 241.159 184.725 239.333 185.068 237.279C185.182 236.936 184.954 236.708 184.725 236.594C183.129 235.909 181.532 235.681 180.164 235.795C179.936 236.023 179.822 236.252 179.822 236.48Z" fill="#58595B"/>
<path fill-rule="evenodd" clip-rule="evenodd" d="M180.962 228.949C182.672 229.177 184.383 229.406 185.98 229.634C185.98 227.352 185.866 225.297 185.523 223.357C183.015 225.526 181.19 227.466 180.962 228.949Z" fill="#58595B"/>
<path fill-rule="evenodd" clip-rule="evenodd" d="M178.568 211.146L177.542 219.134C177.542 219.362 177.542 219.59 177.77 219.704C179.367 218.791 180.735 217.422 182.218 215.71C182.446 215.482 182.446 215.14 182.218 214.911C181.077 213.314 179.823 212.058 178.568 211.146Z" fill="#58595B"/>
<path fill-rule="evenodd" clip-rule="evenodd" d="M165.909 216.167L170.243 219.933C171.725 217.08 172.523 210.575 170.699 210.233C170.357 210.119 170.015 210.119 169.786 210.119C167.962 211.146 166.821 213.428 165.795 215.368C165.681 215.71 165.681 216.053 165.909 216.167Z" fill="#58595B"/>
<path fill-rule="evenodd" clip-rule="evenodd" d="M161.12 233.742C161.12 233.628 161.006 233.628 161.006 233.514C160.663 230.775 161.576 226.667 162.374 223.928C163.628 225.64 164.655 227.579 164.541 229.519C164.427 231.574 162.716 232.715 161.12 233.742Z" fill="#58595B"/>
<path fill-rule="evenodd" clip-rule="evenodd" d="M166.367 238.649C165.226 239.448 163.744 240.589 162.603 241.274C162.375 241.388 162.261 241.731 162.261 241.959C162.945 244.469 163.858 246.752 164.998 248.806C167.051 245.611 167.507 243.214 166.481 238.878C166.367 238.764 166.367 238.649 166.367 238.649Z" fill="#58595B"/>
<path fill-rule="evenodd" clip-rule="evenodd" d="M172.981 226.552C172.068 227.122 171.498 228.72 171.498 230.546C171.498 232.828 172.524 234.654 173.893 234.768C173.665 234.882 173.323 234.997 173.095 234.997C171.726 234.997 170.7 233.171 170.7 230.774C170.586 228.378 171.726 226.552 172.981 226.552Z" fill="#A7A9AC"/>
<path fill-rule="evenodd" clip-rule="evenodd" d="M174.234 233.4C175.147 233.4 175.831 232.144 175.831 230.547C175.831 228.949 175.147 227.694 174.234 227.694C173.322 227.694 172.638 228.949 172.638 230.547C172.524 232.144 173.322 233.4 174.234 233.4Z" fill="#A7A9AC"/>
<path fill-rule="evenodd" clip-rule="evenodd" d="M20.6249 202.359C23.2478 193.002 28.7216 187.752 33.5113 184.557C60.5384 175.199 100.224 168.809 127.593 163.673C163.287 161.733 201.262 162.304 226.579 167.325C209.017 186.041 178.911 164.472 151.427 190.035C167.279 201.903 110.259 234.198 103.531 244.241H23.4758C23.0197 242.415 22.4495 240.361 21.9934 238.192H23.0197C22.5635 236.024 22.3355 233.856 21.8793 231.916H20.6249C18.8003 221.874 18.002 210.234 20.6249 202.359Z" fill="#9DD0FF"/>
<path fill-rule="evenodd" clip-rule="evenodd" d="M355.329 195.854C374.488 195.283 382.926 208.178 383.041 229.975C383.041 251.657 367.417 265.465 351.224 264.096C335.03 262.727 322.372 248.804 323.512 229.975C324.653 211.145 336.171 196.424 355.329 195.854Z" fill="#231F20"/>
<path fill-rule="evenodd" clip-rule="evenodd" d="M363.654 199.961C373.575 199.961 381.444 210.688 382.926 225.067C383.04 226.665 383.04 228.263 383.04 229.974C383.04 248.69 371.409 263.183 357.952 263.753C347.803 261.699 340.618 248.233 341.302 232.029C342.101 214.34 352.136 199.961 363.654 199.961Z" fill="#414042"/>
<path fill-rule="evenodd" clip-rule="evenodd" d="M363.768 203.955C373.119 203.955 382.014 215.595 379.961 232.712C377.909 249.83 369.242 257.019 361.031 257.932C352.82 258.959 344.495 246.292 345.18 231.913C345.864 217.649 354.417 203.955 363.768 203.955Z" fill="#E2E3E4"/>
<path fill-rule="evenodd" clip-rule="evenodd" d="M363.768 203.955C369.128 203.955 374.374 207.72 377.453 214.111C378.365 217.877 378.593 222.099 378.023 226.778C375.97 243.553 367.303 250.515 359.093 251.542C354.189 252.112 349.171 247.89 346.092 241.385C345.294 238.304 344.952 234.995 345.066 231.571C345.864 217.42 354.417 203.955 363.768 203.955Z" fill="#BCBEC0"/>
<path fill-rule="evenodd" clip-rule="evenodd" d="M359.777 242.986C359.435 246.181 359.435 250.175 358.979 253.256C361.26 253.256 363.427 252.343 365.365 250.746C365.251 248.007 363.198 244.926 360.804 242.643C360.576 242.415 360.347 242.415 360.119 242.529C360.005 242.529 359.777 242.757 359.777 242.986Z" fill="#A7A9AC"/>
<path fill-rule="evenodd" clip-rule="evenodd" d="M364.908 236.48C365.022 237.507 367.873 242.186 369.356 243.555C369.47 243.669 369.698 243.783 369.926 243.669C370.154 243.669 370.268 243.441 370.382 243.327C371.18 241.387 371.865 239.219 372.321 236.822C372.435 236.48 372.207 236.252 371.979 236.137C369.356 235.11 367.075 235.11 365.364 235.909C365.022 236.023 364.908 236.252 364.908 236.48Z" fill="#A7A9AC"/>
<path fill-rule="evenodd" clip-rule="evenodd" d="M366.049 228.95C368.444 229.292 370.952 229.521 373.233 230.091C373.347 227.01 373.119 224.271 372.549 221.761C369.014 224.5 366.277 227.124 366.049 228.95Z" fill="#A7A9AC"/>
<path fill-rule="evenodd" clip-rule="evenodd" d="M363.654 210.348L362.513 219.135C362.513 219.363 362.627 219.591 362.741 219.705C362.969 219.819 363.197 219.934 363.311 219.819C365.478 219.021 367.417 217.309 369.127 215.141C369.356 214.912 369.356 214.57 369.127 214.342C367.759 212.288 366.162 210.804 364.338 209.891C364.11 209.777 363.882 209.777 363.768 209.891C363.882 210.005 363.768 210.119 363.654 210.348Z" fill="#A7A9AC"/>
<path fill-rule="evenodd" clip-rule="evenodd" d="M350.995 216.167L356.127 220.732C358.179 220.389 360.118 210.119 357.837 209.662C354.074 208.978 352.249 212.515 350.767 215.368C350.653 215.711 350.767 216.053 350.995 216.167Z" fill="#A7A9AC"/>
<path fill-rule="evenodd" clip-rule="evenodd" d="M348.943 222.443C350.54 224.383 351.908 226.551 351.794 228.948C351.68 231.572 349.057 232.714 347.118 233.969C346.89 234.083 346.662 234.083 346.548 233.969C346.32 233.855 346.206 233.741 346.206 233.512C345.75 230.431 347.118 225.296 347.917 222.671C348.031 222.443 348.145 222.329 348.373 222.215C348.601 222.101 348.829 222.215 348.943 222.443Z" fill="#A7A9AC"/>
<path fill-rule="evenodd" clip-rule="evenodd" d="M351.452 249.264C354.189 245.498 354.873 242.987 353.733 238.194C352.821 237.053 349.856 239.906 347.689 241.275C347.461 241.389 347.347 241.732 347.347 241.96C348.031 244.699 349.171 247.095 350.426 249.264C350.54 249.492 350.768 249.606 350.996 249.606C351.11 249.606 351.224 249.492 351.452 249.264Z" fill="#A7A9AC"/>
<path fill-rule="evenodd" clip-rule="evenodd" d="M359.663 244.125C359.435 247.092 359.321 250.516 358.979 253.14C359.435 253.14 359.777 253.14 360.119 253.026C361.146 252.57 362.172 251.999 363.198 251.2C363.198 248.918 361.602 246.293 359.663 244.125Z" fill="#58595B"/>
<path fill-rule="evenodd" clip-rule="evenodd" d="M364.908 236.48C365.022 237.393 367.075 240.93 368.671 242.756C369.242 241.159 369.812 239.333 370.154 237.279C370.268 236.936 370.04 236.708 369.812 236.594C368.215 235.909 366.619 235.681 365.25 235.795C365.022 236.023 364.908 236.252 364.908 236.48Z" fill="#58595B"/>
<path fill-rule="evenodd" clip-rule="evenodd" d="M366.048 228.949C367.759 229.177 369.469 229.406 371.066 229.634C371.066 227.352 370.952 225.297 370.61 223.357C368.101 225.526 366.276 227.466 366.048 228.949Z" fill="#58595B"/>
<path fill-rule="evenodd" clip-rule="evenodd" d="M363.654 211.146L362.627 219.134C362.627 219.362 362.627 219.59 362.855 219.704C364.452 218.791 365.821 217.422 367.303 215.71C367.531 215.482 367.531 215.14 367.303 214.911C366.163 213.314 364.908 212.058 363.654 211.146Z" fill="#58595B"/>
<path fill-rule="evenodd" clip-rule="evenodd" d="M350.996 216.167L355.329 219.933C356.812 217.08 357.61 210.575 355.785 210.233C355.443 210.119 355.101 210.119 354.873 210.119C353.048 211.146 351.908 213.428 350.882 215.368C350.654 215.71 350.768 216.053 350.996 216.167Z" fill="#58595B"/>
<path fill-rule="evenodd" clip-rule="evenodd" d="M346.207 233.742C346.207 233.628 346.092 233.628 346.092 233.514C345.75 230.775 346.663 226.667 347.461 223.928C348.715 225.64 349.742 227.579 349.628 229.519C349.514 231.574 347.803 232.715 346.207 233.742Z" fill="#58595B"/>
<path fill-rule="evenodd" clip-rule="evenodd" d="M351.338 238.649C350.198 239.448 348.715 240.589 347.575 241.274C347.347 241.388 347.233 241.731 347.233 241.959C347.917 244.469 348.829 246.752 349.97 248.806C352.022 245.611 352.479 243.214 351.452 238.878C351.452 238.764 351.452 238.649 351.338 238.649Z" fill="#58595B"/>
<path fill-rule="evenodd" clip-rule="evenodd" d="M358.066 226.552C357.154 227.122 356.584 228.72 356.584 230.546C356.584 232.828 357.61 234.654 358.979 234.768C358.751 234.882 358.409 234.997 358.181 234.997C356.812 234.997 355.786 233.171 355.786 230.774C355.672 228.378 356.812 226.552 358.066 226.552Z" fill="#A7A9AC"/>
<path fill-rule="evenodd" clip-rule="evenodd" d="M359.32 233.4C360.232 233.4 360.916 232.144 360.916 230.547C360.916 228.949 360.232 227.694 359.32 227.694C358.408 227.694 357.723 228.949 357.723 230.547C357.609 232.144 358.408 233.4 359.32 233.4Z" fill="#A7A9AC"/>
<path fill-rule="evenodd" clip-rule="evenodd" d="M352.125 195.585C372.647 195.022 381.686 207.745 381.808 229.25C381.808 250.643 365.073 264.267 347.727 262.916C330.382 261.565 316.823 247.828 318.044 229.25C319.266 210.672 331.603 196.148 352.125 195.585Z" fill="#231F20"/>
<path fill-rule="evenodd" clip-rule="evenodd" d="M361.041 199.639C371.669 199.639 380.097 210.222 381.685 224.409C381.807 225.986 381.807 227.562 381.807 229.251C381.807 247.716 369.348 262.016 354.934 262.579C344.062 260.552 336.367 247.266 337.1 231.278C337.955 213.825 348.704 199.639 361.041 199.639Z" fill="#414042"/>
<path fill-rule="evenodd" clip-rule="evenodd" d="M361.165 203.578C371.181 203.578 380.709 215.063 378.51 231.952C376.311 248.841 367.028 255.934 358.233 256.835C349.438 257.848 340.521 245.35 341.254 231.164C341.987 217.089 351.148 203.578 361.165 203.578Z" fill="#E2E3E4"/>
<path fill-rule="evenodd" clip-rule="evenodd" d="M361.164 203.578C366.906 203.578 372.525 207.294 375.823 213.599C376.8 217.315 377.044 221.481 376.434 226.097C374.235 242.648 364.951 249.516 356.156 250.53C350.904 251.093 345.529 246.927 342.231 240.509C341.376 237.469 341.009 234.204 341.131 230.826C341.986 216.864 351.148 203.578 361.164 203.578Z" fill="#BCBEC0"/>
<path fill-rule="evenodd" clip-rule="evenodd" d="M356.889 242.088C356.522 245.241 356.522 249.182 356.034 252.222C358.477 252.222 360.798 251.321 362.874 249.745C362.752 247.042 360.553 244.002 357.988 241.751C357.744 241.525 357.5 241.525 357.255 241.638C357.133 241.638 356.889 241.863 356.889 242.088Z" fill="#A7A9AC"/>
<path fill-rule="evenodd" clip-rule="evenodd" d="M362.385 235.671C362.507 236.684 365.561 241.301 367.149 242.652C367.271 242.764 367.516 242.877 367.76 242.764C368.004 242.764 368.126 242.539 368.249 242.427C369.104 240.513 369.837 238.373 370.325 236.009C370.447 235.671 370.203 235.446 369.959 235.333C367.149 234.32 364.706 234.32 362.874 235.108C362.507 235.221 362.385 235.446 362.385 235.671Z" fill="#A7A9AC"/>
<path fill-rule="evenodd" clip-rule="evenodd" d="M363.606 228.239C366.172 228.577 368.859 228.802 371.302 229.365C371.424 226.325 371.18 223.623 370.569 221.146C366.782 223.848 363.851 226.437 363.606 228.239Z" fill="#A7A9AC"/>
<path fill-rule="evenodd" clip-rule="evenodd" d="M361.042 209.886L359.821 218.556C359.821 218.781 359.943 219.006 360.065 219.119C360.309 219.231 360.554 219.344 360.676 219.231C362.997 218.443 365.073 216.754 366.906 214.615C367.15 214.39 367.15 214.052 366.906 213.827C365.44 211.8 363.73 210.336 361.775 209.436C361.531 209.323 361.287 209.323 361.164 209.436C361.287 209.548 361.164 209.661 361.042 209.886Z" fill="#A7A9AC"/>
<path fill-rule="evenodd" clip-rule="evenodd" d="M347.482 215.629L352.979 220.133C355.178 219.795 357.254 209.662 354.811 209.211C350.78 208.536 348.826 212.026 347.238 214.841C347.116 215.179 347.238 215.517 347.482 215.629Z" fill="#A7A9AC"/>
<path fill-rule="evenodd" clip-rule="evenodd" d="M345.284 221.822C346.995 223.736 348.46 225.875 348.338 228.239C348.216 230.829 345.407 231.955 343.33 233.194C343.086 233.306 342.841 233.306 342.719 233.194C342.475 233.081 342.353 232.968 342.353 232.743C341.864 229.703 343.33 224.636 344.185 222.047C344.307 221.822 344.429 221.709 344.674 221.596C344.918 221.484 345.162 221.596 345.284 221.822Z" fill="#A7A9AC"/>
<path fill-rule="evenodd" clip-rule="evenodd" d="M347.971 248.281C350.903 244.565 351.636 242.088 350.414 237.359C349.437 236.233 346.261 239.048 343.94 240.399C343.696 240.512 343.574 240.849 343.574 241.075C344.307 243.777 345.528 246.141 346.872 248.281C346.994 248.506 347.238 248.619 347.482 248.619C347.605 248.619 347.727 248.506 347.971 248.281Z" fill="#A7A9AC"/>
<path fill-rule="evenodd" clip-rule="evenodd" d="M356.767 243.214C356.523 246.141 356.401 249.519 356.034 252.109C356.523 252.109 356.889 252.109 357.256 251.996C358.355 251.546 359.454 250.983 360.554 250.195C360.554 247.943 358.844 245.353 356.767 243.214Z" fill="#58595B"/>
<path fill-rule="evenodd" clip-rule="evenodd" d="M362.386 235.671C362.508 236.571 364.707 240.062 366.417 241.863C367.027 240.287 367.638 238.485 368.005 236.459C368.127 236.121 367.882 235.896 367.638 235.783C365.928 235.108 364.218 234.882 362.752 234.995C362.508 235.22 362.386 235.445 362.386 235.671Z" fill="#58595B"/>
<path fill-rule="evenodd" clip-rule="evenodd" d="M363.607 228.239C365.439 228.464 367.271 228.689 368.982 228.914C368.982 226.662 368.859 224.636 368.493 222.722C365.806 224.861 363.851 226.775 363.607 228.239Z" fill="#58595B"/>
<path fill-rule="evenodd" clip-rule="evenodd" d="M361.042 210.675L359.942 218.557C359.942 218.782 359.942 219.007 360.187 219.12C361.897 218.219 363.363 216.868 364.951 215.179C365.195 214.954 365.195 214.616 364.951 214.391C363.729 212.815 362.386 211.576 361.042 210.675Z" fill="#58595B"/>
<path fill-rule="evenodd" clip-rule="evenodd" d="M347.484 215.629L352.126 219.345C353.713 216.53 354.569 210.112 352.614 209.774C352.248 209.662 351.881 209.662 351.637 209.662C349.683 210.675 348.461 212.927 347.362 214.841C347.117 215.179 347.24 215.516 347.484 215.629Z" fill="#58595B"/>
<path fill-rule="evenodd" clip-rule="evenodd" d="M342.353 232.968C342.353 232.855 342.231 232.855 342.231 232.742C341.864 230.04 342.841 225.987 343.696 223.285C345.04 224.974 346.139 226.888 346.017 228.802C345.895 230.828 344.063 231.954 342.353 232.968Z" fill="#58595B"/>
<path fill-rule="evenodd" clip-rule="evenodd" d="M347.85 237.808C346.629 238.596 345.041 239.722 343.82 240.398C343.575 240.51 343.453 240.848 343.453 241.073C344.186 243.55 345.163 245.802 346.385 247.829C348.583 244.676 349.072 242.312 347.973 238.033C347.973 237.921 347.973 237.808 347.85 237.808Z" fill="#58595B"/>
<path fill-rule="evenodd" clip-rule="evenodd" d="M355.056 225.874C354.079 226.437 353.468 228.013 353.468 229.815C353.468 232.067 354.567 233.868 356.033 233.981C355.789 234.093 355.422 234.206 355.178 234.206C353.712 234.206 352.613 232.404 352.613 230.04C352.491 227.675 353.712 225.874 355.056 225.874Z" fill="#A7A9AC"/>
<path fill-rule="evenodd" clip-rule="evenodd" d="M356.4 232.627C357.377 232.627 358.11 231.388 358.11 229.812C358.11 228.236 357.377 226.997 356.4 226.997C355.423 226.997 354.69 228.236 354.69 229.812C354.568 231.388 355.423 232.627 356.4 232.627Z" fill="#A7A9AC"/>
<g clip-path="url(#clip0_55706_528532)">
<path fill-rule="evenodd" clip-rule="evenodd" d="M358.391 255.722C368.45 256.112 377.238 244.986 377.872 231.128C378.507 217.271 370.768 205.502 360.709 205.112C350.65 204.722 341.862 215.848 341.228 229.706C340.593 243.563 348.332 255.332 358.391 255.722Z" fill="#D1D2D3"/>
<path fill-rule="evenodd" clip-rule="evenodd" d="M349.215 243.896C359.274 244.286 368.062 233.159 368.696 219.302C368.862 215.687 368.654 212.359 367.715 209.305C365.628 207.715 363.5 207.029 360.985 206.931C351.645 206.569 343.631 216.518 343.052 229.171C342.817 234.292 344.019 239.469 346.009 243.168C347.06 243.812 348.137 243.854 349.215 243.896Z" fill="#A7A8AB"/>
<path fill-rule="evenodd" clip-rule="evenodd" d="M371.641 233.6C365.893 233.377 360.767 235.29 360.643 238.002C360.532 240.412 364.747 242.688 370.122 243.198C371.683 240.543 372.553 237.257 373.064 233.957C372.719 233.642 372.36 233.628 371.641 233.6Z" fill="#6D6E71"/>
<path fill-rule="evenodd" clip-rule="evenodd" d="M371.599 218.81C366.542 219.218 362.867 220.886 362.756 223.296C362.632 226.007 367.206 228.297 373.313 228.534L373.673 228.548C373.479 224.919 372.539 221.865 371.599 218.81Z" fill="#6D6E71"/>
<path fill-rule="evenodd" clip-rule="evenodd" d="M358.465 206.834C354.832 207.598 352.952 209.336 353.961 210.884C355.315 212.748 361.008 214.176 366.798 213.495C367.157 213.509 367.89 213.236 368.249 213.25C365.513 210.126 362.39 207.59 358.465 206.834Z" fill="#6D6E71"/>
<path fill-rule="evenodd" clip-rule="evenodd" d="M358.488 253.611C353.5 252.512 350.363 250.278 351.883 248.526C353.402 246.774 359.206 245.792 364.913 246.919C365.99 246.961 366.695 247.29 367.4 247.619C364.761 250.233 361.776 252.531 358.488 253.611Z" fill="#6D6E71"/>
<path fill-rule="evenodd" clip-rule="evenodd" d="M347.156 241.704C351.826 241.886 356.013 236.918 356.316 230.29C356.606 223.964 352.903 218.388 348.232 218.207C347.873 218.193 347.514 218.179 347.154 218.165C345.566 221.423 344.295 225.599 344.102 229.816C343.908 234.034 344.793 238.293 346.438 241.676C346.797 241.69 347.156 241.704 347.156 241.704Z" fill="#6D6E71"/>
</g>
<path fill-rule="evenodd" clip-rule="evenodd" d="M169.157 195.585C189.679 195.022 198.718 207.745 198.84 229.25C198.84 250.643 182.105 264.267 164.76 262.916C147.414 261.565 133.855 247.828 135.077 229.25C136.298 210.672 148.635 196.148 169.157 195.585Z" fill="#231F20"/>
<path fill-rule="evenodd" clip-rule="evenodd" d="M178.074 199.639C188.701 199.639 197.129 210.222 198.717 224.409C198.84 225.986 198.84 227.562 198.84 229.251C198.84 247.716 186.38 262.016 171.966 262.579C161.094 260.552 153.399 247.266 154.132 231.278C154.987 213.825 165.736 199.639 178.074 199.639Z" fill="#414042"/>
<path fill-rule="evenodd" clip-rule="evenodd" d="M178.197 203.578C188.213 203.578 197.741 215.063 195.542 231.952C193.344 248.841 184.06 255.934 175.265 256.835C166.47 257.848 157.553 245.35 158.286 231.164C159.019 217.089 168.18 203.578 178.197 203.578Z" fill="#E2E3E4"/>
<path fill-rule="evenodd" clip-rule="evenodd" d="M178.197 203.578C183.938 203.578 189.557 207.294 192.855 213.599C193.832 217.315 194.077 221.481 193.466 226.097C191.267 242.648 181.983 249.516 173.188 250.53C167.936 251.093 162.561 246.927 159.263 240.509C158.408 237.469 158.041 234.204 158.164 230.826C159.019 216.864 168.18 203.578 178.197 203.578Z" fill="#BCBEC0"/>
<path fill-rule="evenodd" clip-rule="evenodd" d="M173.921 242.088C173.555 245.241 173.555 249.182 173.066 252.222C175.509 252.222 177.83 251.321 179.907 249.745C179.785 247.042 177.586 244.002 175.02 241.751C174.776 241.525 174.532 241.525 174.287 241.638C174.165 241.638 173.921 241.863 173.921 242.088Z" fill="#A7A9AC"/>
<path fill-rule="evenodd" clip-rule="evenodd" d="M179.417 235.671C179.54 236.684 182.593 241.301 184.181 242.652C184.304 242.764 184.548 242.877 184.792 242.764C185.037 242.764 185.159 242.539 185.281 242.427C186.136 240.513 186.869 238.373 187.357 236.009C187.48 235.671 187.235 235.446 186.991 235.333C184.181 234.32 181.738 234.32 179.906 235.108C179.54 235.221 179.417 235.446 179.417 235.671Z" fill="#A7A9AC"/>
<path fill-rule="evenodd" clip-rule="evenodd" d="M180.639 228.239C183.204 228.577 185.891 228.802 188.334 229.365C188.456 226.325 188.212 223.623 187.601 221.146C183.815 223.848 180.883 226.437 180.639 228.239Z" fill="#A7A9AC"/>
<path fill-rule="evenodd" clip-rule="evenodd" d="M178.075 209.886L176.853 218.556C176.853 218.781 176.975 219.006 177.097 219.119C177.342 219.231 177.586 219.344 177.708 219.231C180.029 218.443 182.106 216.754 183.938 214.615C184.182 214.39 184.182 214.052 183.938 213.827C182.472 211.8 180.762 210.336 178.807 209.436C178.563 209.323 178.319 209.323 178.197 209.436C178.319 209.548 178.197 209.661 178.075 209.886Z" fill="#A7A9AC"/>
<path fill-rule="evenodd" clip-rule="evenodd" d="M164.514 215.629L170.011 220.133C172.21 219.795 174.286 209.662 171.843 209.211C167.812 208.536 165.858 212.026 164.27 214.841C164.148 215.179 164.27 215.517 164.514 215.629Z" fill="#A7A9AC"/>
<path fill-rule="evenodd" clip-rule="evenodd" d="M162.317 221.822C164.027 223.736 165.493 225.875 165.371 228.239C165.248 230.829 162.439 231.955 160.362 233.194C160.118 233.306 159.874 233.306 159.751 233.194C159.507 233.081 159.385 232.968 159.385 232.743C158.896 229.703 160.362 224.636 161.217 222.047C161.339 221.822 161.462 221.709 161.706 221.596C161.95 221.484 162.195 221.596 162.317 221.822Z" fill="#A7A9AC"/>
<path fill-rule="evenodd" clip-rule="evenodd" d="M165.003 248.281C167.935 244.565 168.668 242.088 167.446 237.359C166.469 236.233 163.293 239.048 160.972 240.399C160.728 240.512 160.606 240.849 160.606 241.075C161.339 243.777 162.56 246.141 163.904 248.281C164.026 248.506 164.27 248.619 164.515 248.619C164.637 248.619 164.759 248.506 165.003 248.281Z" fill="#A7A9AC"/>
<path fill-rule="evenodd" clip-rule="evenodd" d="M173.799 243.214C173.555 246.141 173.433 249.519 173.066 252.109C173.555 252.109 173.921 252.109 174.288 251.996C175.387 251.546 176.487 250.983 177.586 250.195C177.586 247.943 175.876 245.353 173.799 243.214Z" fill="#58595B"/>
<path fill-rule="evenodd" clip-rule="evenodd" d="M179.418 235.671C179.54 236.571 181.739 240.062 183.449 241.863C184.06 240.287 184.67 238.485 185.037 236.459C185.159 236.121 184.915 235.896 184.67 235.783C182.96 235.108 181.25 234.882 179.784 234.995C179.54 235.22 179.418 235.445 179.418 235.671Z" fill="#58595B"/>
<path fill-rule="evenodd" clip-rule="evenodd" d="M180.639 228.239C182.471 228.464 184.304 228.689 186.014 228.914C186.014 226.662 185.892 224.636 185.525 222.722C182.838 224.861 180.883 226.775 180.639 228.239Z" fill="#58595B"/>
<path fill-rule="evenodd" clip-rule="evenodd" d="M178.074 210.675L176.975 218.557C176.975 218.782 176.975 219.007 177.219 219.12C178.929 218.219 180.395 216.868 181.983 215.179C182.227 214.954 182.227 214.616 181.983 214.391C180.762 212.815 179.418 211.576 178.074 210.675Z" fill="#58595B"/>
<path fill-rule="evenodd" clip-rule="evenodd" d="M164.516 215.629L169.158 219.345C170.746 216.53 171.601 210.112 169.646 209.774C169.28 209.662 168.913 209.662 168.669 209.662C166.715 210.675 165.493 212.927 164.394 214.841C164.15 215.179 164.272 215.516 164.516 215.629Z" fill="#58595B"/>
<path fill-rule="evenodd" clip-rule="evenodd" d="M159.385 232.968C159.385 232.855 159.263 232.855 159.263 232.742C158.896 230.04 159.873 225.987 160.729 223.285C162.072 224.974 163.172 226.888 163.049 228.802C162.927 230.828 161.095 231.954 159.385 232.968Z" fill="#58595B"/>
<path fill-rule="evenodd" clip-rule="evenodd" d="M164.883 237.808C163.661 238.596 162.073 239.722 160.852 240.398C160.607 240.51 160.485 240.848 160.485 241.073C161.218 243.55 162.195 245.802 163.417 247.829C165.616 244.676 166.104 242.312 165.005 238.033C165.005 237.921 165.005 237.808 164.883 237.808Z" fill="#58595B"/>
<path fill-rule="evenodd" clip-rule="evenodd" d="M172.088 225.874C171.111 226.437 170.5 228.013 170.5 229.815C170.5 232.067 171.6 233.868 173.065 233.981C172.821 234.093 172.455 234.206 172.21 234.206C170.745 234.206 169.645 232.404 169.645 230.04C169.523 227.675 170.745 225.874 172.088 225.874Z" fill="#A7A9AC"/>
<path fill-rule="evenodd" clip-rule="evenodd" d="M173.432 232.627C174.41 232.627 175.142 231.388 175.142 229.812C175.142 228.236 174.41 226.997 173.432 226.997C172.455 226.997 171.722 228.236 171.722 229.812C171.6 231.388 172.455 232.627 173.432 232.627Z" fill="#A7A9AC"/>
<g clip-path="url(#clip1_55706_528532)">
<path fill-rule="evenodd" clip-rule="evenodd" d="M175.423 255.722C185.482 256.112 194.27 244.986 194.904 231.128C195.539 217.271 187.8 205.502 177.741 205.112C167.682 204.722 158.895 215.848 158.26 229.706C157.625 243.563 165.364 255.332 175.423 255.722Z" fill="#D1D2D3"/>
<path fill-rule="evenodd" clip-rule="evenodd" d="M166.247 243.896C176.307 244.286 185.094 233.159 185.729 219.302C185.894 215.687 185.687 212.359 184.747 209.305C182.66 207.715 180.532 207.029 178.017 206.931C168.677 206.569 160.663 216.518 160.084 229.171C159.849 234.292 161.052 239.469 163.042 243.168C164.092 243.812 165.17 243.854 166.247 243.896Z" fill="#A7A8AB"/>
<path fill-rule="evenodd" clip-rule="evenodd" d="M188.673 233.6C182.925 233.377 177.799 235.29 177.675 238.002C177.564 240.412 181.779 242.688 187.154 243.198C188.715 240.543 189.585 237.257 190.097 233.957C189.751 233.642 189.392 233.628 188.673 233.6Z" fill="#6D6E71"/>
<path fill-rule="evenodd" clip-rule="evenodd" d="M188.632 218.81C183.574 219.218 179.899 220.886 179.789 223.296C179.664 226.007 184.238 228.297 190.346 228.534L190.705 228.548C190.511 224.919 189.571 221.865 188.632 218.81Z" fill="#6D6E71"/>
<path fill-rule="evenodd" clip-rule="evenodd" d="M175.498 206.834C171.864 207.598 169.985 209.336 170.993 210.884C172.348 212.748 178.041 214.176 183.83 213.495C184.189 213.509 184.922 213.236 185.281 213.25C182.545 210.126 179.422 207.59 175.498 206.834Z" fill="#6D6E71"/>
<path fill-rule="evenodd" clip-rule="evenodd" d="M175.52 253.611C170.532 252.512 167.395 250.278 168.915 248.526C170.435 246.774 176.238 245.792 181.945 246.919C183.023 246.961 183.727 247.29 184.432 247.619C181.793 250.233 178.809 252.531 175.52 253.611Z" fill="#6D6E71"/>
<path fill-rule="evenodd" clip-rule="evenodd" d="M164.188 241.704C168.859 241.886 173.045 236.918 173.349 230.29C173.638 223.964 169.935 218.388 165.264 218.207C164.905 218.193 164.546 218.179 164.187 218.165C162.598 221.423 161.327 225.599 161.134 229.816C160.941 234.034 161.825 238.293 163.47 241.676C163.829 241.69 164.188 241.704 164.188 241.704Z" fill="#6D6E71"/>
</g>
<path fill-rule="evenodd" clip-rule="evenodd" d="M86.1973 205.212C109.689 169.493 201.718 170.178 214.035 171.547C207.762 162.646 161.463 162.646 125.084 164.129C138.199 155.228 157.015 143.474 181.191 136.513C196.701 132.062 225.667 132.405 245.053 133.089C274.931 134.231 310.739 136.399 329.214 141.991C339.705 145.186 350.881 160.021 355.443 166.868C359.548 173.031 382.242 170.178 389.996 175.199C401.058 182.388 400.374 196.881 398.891 214.455C406.874 215.368 405.277 226.095 397.979 241.159C395.242 241.159 387.487 244.126 384.751 244.126C392.619 166.64 325.678 185.013 329.442 244.126C297.625 244.126 232.851 244.126 200.92 244.126C214.035 170.862 146.752 164.244 142.646 244.126H114.593C106.496 229.405 132.953 209.32 110.259 209.548C85.6271 209.891 84.9428 207.152 86.1973 205.212Z" fill="#5FA8EC"/>
<path fill-rule="evenodd" clip-rule="evenodd" d="M224.641 172.575C224.869 167.782 235.246 153.517 249.045 143.361C251.326 141.649 256.115 140.051 263.186 139.709C282.686 138.682 298.424 139.595 317.924 145.643C324.196 147.583 341.188 172.803 332.977 173.031C304.582 173.374 253.036 172.575 224.641 172.575Z" fill="#6278B0"/>
<path fill-rule="evenodd" clip-rule="evenodd" d="M126.681 225.301C116.19 233.289 106.154 240.478 103.646 244.244H23.4764C23.0203 242.418 22.4501 240.364 21.9939 238.196H23.0203C22.5641 236.028 22.3361 233.86 21.8799 231.92H20.6255C20.2834 229.751 19.9412 227.583 19.5991 225.415H126.681V225.301Z" fill="#5FA8EC"/>
<path fill-rule="evenodd" clip-rule="evenodd" d="M32.3712 209.435C48.2234 209.435 60.6885 209.549 82.3201 209.549C84.2588 204.186 89.6186 196.768 97.2592 191.291C74.4656 191.291 53.0122 191.291 30.8887 191.291C32.9414 195.285 34.3098 202.474 32.3712 209.435Z" fill="#58595B"/>
<path fill-rule="evenodd" clip-rule="evenodd" d="M29.2922 187.752C53.9246 187.638 90.9912 187.519 106.933 187.752C125.682 187.752 132.232 188.364 135.261 191.392L101.593 189.007C86.2191 189.007 52.6702 189.007 28.1519 189.007C28.494 188.551 28.9501 188.208 29.2922 187.752Z" fill="#5FA8EC"/>
<path fill-rule="evenodd" clip-rule="evenodd" d="M115.391 230.32C113.339 233.516 113.681 237.396 112.996 240.705H22.4497C22.2216 239.906 21.9935 239.107 21.7654 238.309H22.9058C22.4497 236.14 22.2216 233.972 21.7654 232.032H20.6251C20.511 231.576 20.397 231.233 20.397 230.777L115.391 230.32Z" fill="#58595B"/>
<path fill-rule="evenodd" clip-rule="evenodd" d="M23.3624 240.478H122.462C124.515 240.478 126.225 241.39 126.225 242.418C126.225 243.445 124.515 244.357 122.462 244.357H23.3624C21.3097 244.357 19.5991 243.445 19.5991 242.418C19.5991 241.276 21.3097 240.478 23.3624 240.478Z" fill="#5FA8EC"/>
<path fill-rule="evenodd" clip-rule="evenodd" d="M19.7131 210.92H86.6538C88.2503 210.92 89.6188 212.29 89.6188 213.887V223.93C89.6188 225.528 88.2503 226.897 86.6538 226.897H19.7131C18.1165 226.897 16.748 225.528 16.748 223.93V213.887C16.748 212.29 18.1165 210.92 19.7131 210.92Z" fill="#9DD0FF"/>
<path fill-rule="evenodd" clip-rule="evenodd" d="M89.3909 225.301C88.9347 226.214 87.9084 226.898 86.768 226.898H19.7132C18.5728 226.898 17.5465 226.214 17.0903 225.301H89.3909Z" fill="#6278B0"/>
<path fill-rule="evenodd" clip-rule="evenodd" d="M133.523 162.99C141.05 155.458 164.314 143.818 186.551 139.71C210.157 136.629 226.123 138.34 244.483 140.509C233.421 148.383 225.325 158.083 214.149 165.957C187.578 160.365 155.077 160.822 133.523 162.99Z" fill="#EDFEFF"/>
<path fill-rule="evenodd" clip-rule="evenodd" d="M227.263 171.775C227.491 167.324 237.413 154.087 250.527 144.615C252.694 143.017 257.255 141.534 263.984 141.191C282.572 140.278 297.625 141.077 316.213 146.669C322.143 148.495 338.451 171.889 330.468 172.117C303.441 172.574 254.29 171.775 227.263 171.775Z" fill="#829AB1"/>
<path fill-rule="evenodd" clip-rule="evenodd" d="M227.263 171.775C227.377 168.123 233.991 158.765 243.571 150.207C252.466 156.94 263.642 170.52 257.483 171.889C246.08 171.889 235.588 171.775 227.263 171.775Z" fill="#C0D8DA"/>
<path fill-rule="evenodd" clip-rule="evenodd" d="M265.922 141.078C283.598 140.279 298.309 141.192 316.213 146.67C320.319 147.925 329.328 159.451 331.951 166.526H287.59C283.256 166.526 277.668 162.989 275.388 158.538L265.922 141.078Z" fill="#C0CEDA"/>
<g style="mix-blend-mode:overlay">
<path fill-rule="evenodd" clip-rule="evenodd" d="M267.177 141.078C275.844 140.736 283.712 140.85 291.809 141.649L276.87 172.118C268.431 172.004 259.992 172.004 252.124 171.89L267.177 141.078Z" fill="#ABC7E1"/>
</g>
<g style="mix-blend-mode:overlay">
<path fill-rule="evenodd" clip-rule="evenodd" d="M297.624 142.447C303.098 143.246 308.572 144.501 314.388 146.213L301.616 172.232C295.572 172.232 289.299 172.232 283.027 172.118L297.624 142.447Z" fill="#ABC7E1"/>
</g>
<path fill-rule="evenodd" clip-rule="evenodd" d="M16.748 213.314C35.4504 213.314 50.7316 213.314 69.4339 213.314C94.1605 213.314 119.153 213.314 144.015 213.314C144.015 213.656 144.015 214.113 144.015 214.455H69.4357H16.748V213.314Z" fill="#5FA8EC"/>
<path fill-rule="evenodd" clip-rule="evenodd" d="M75.25 225.409H140.252L138.541 229.973C112.997 226.322 97.1454 227.463 75.25 226.55V225.409Z" fill="#6278B0"/>
<path fill-rule="evenodd" clip-rule="evenodd" d="M234.105 160.135L237.64 171.775C234.105 171.775 230.684 171.775 227.149 171.775C227.377 169.264 229.202 164.928 234.105 160.135Z" fill="#576578"/>
<path fill-rule="evenodd" clip-rule="evenodd" d="M236.387 158.312C241.632 158.312 246.764 158.312 252.01 158.312C255.317 158.312 256.913 166.984 255.089 169.153C254.633 169.609 254.062 169.723 253.378 169.837C248.817 170.636 240.036 171.892 235.93 170.864C230.114 169.381 231.597 163.903 234.562 159.224C235.018 158.654 235.702 158.312 236.387 158.312Z" fill="#5FA8EC"/>
<path fill-rule="evenodd" clip-rule="evenodd" d="M236.386 158.312C241.632 158.312 246.764 158.312 252.01 158.312C254.747 158.312 256.229 163.903 255.773 167.213C249.615 167.897 241.974 168.354 237.869 167.555C234.106 166.87 232.623 165.159 232.623 163.219C233.079 161.849 233.763 160.594 234.676 159.224C235.018 158.654 235.702 158.312 236.386 158.312Z" fill="#9DD0FF"/>
<path fill-rule="evenodd" clip-rule="evenodd" d="M77.5301 216.054L141.392 214.456V215.597L76.1616 219.706L77.5301 216.054Z" fill="#9DD0FF"/>
<path fill-rule="evenodd" clip-rule="evenodd" d="M101.935 187.981C116.076 187.981 131.659 186.483 135.805 191.518C157.472 182.96 187.92 180.905 215.518 179.308H392.392C388.058 177.596 387.374 174.287 379.391 174.058C326.933 173.716 254.861 173.374 202.403 173.031C158.954 174.401 123.26 180.107 101.935 187.981Z" fill="#9DD0FF"/>
<path fill-rule="evenodd" clip-rule="evenodd" d="M32.9414 198.138C53.1818 198.138 76.8332 198.138 90.3029 198.138C90.3029 198.709 90.3029 199.393 90.3029 199.964C73.2817 199.964 52.7284 199.964 32.9414 199.964C32.9414 199.393 32.9414 198.823 32.9414 198.138Z" fill="#9DD0FF"/>
<path fill-rule="evenodd" clip-rule="evenodd" d="M89.162 231.917H104.329C105.356 231.917 106.154 232.715 106.154 233.742V236.481C106.154 237.508 105.356 238.307 104.329 238.307H89.162C88.1357 238.307 87.3374 237.508 87.3374 236.481V233.742C87.4514 232.715 88.2497 231.917 89.162 231.917Z" fill="#414042"/>
<path fill-rule="evenodd" clip-rule="evenodd" d="M91.6713 231.917H104.33C105.242 231.917 106.04 232.601 106.04 233.4V235.796C106.04 236.595 105.242 237.28 104.216 237.28H91.6713C90.6449 237.28 89.8467 236.595 89.8467 235.796V233.4C89.9607 232.601 90.6449 231.917 91.6713 231.917Z" fill="#EEE6D4"/>
<path fill-rule="evenodd" clip-rule="evenodd" d="M91.6713 231.917H104.33C105.242 231.917 106.04 232.601 106.04 233.4V233.857H89.8467V233.4C89.9607 232.601 90.6449 231.917 91.6713 231.917Z" fill="#D2C8AD"/>
<path fill-rule="evenodd" clip-rule="evenodd" d="M20.7388 231.917H31.9146C32.9409 231.917 33.7392 232.715 33.7392 233.742V236.481C33.7392 237.508 32.9409 238.307 31.9146 238.307H21.8792L22.7915 237.166C23.7038 236.139 22.1072 233.172 21.8792 232.031L20.7388 231.917Z" fill="#414042"/>
<path fill-rule="evenodd" clip-rule="evenodd" d="M21.8799 231.917H32.0293C32.9416 231.917 33.6259 232.601 33.6259 233.4V235.796C33.6259 236.595 32.9416 237.28 32.0293 237.28H22.6782C22.4501 235.568 22.222 233.742 21.8799 231.917Z" fill="#EEE6D4"/>
<path fill-rule="evenodd" clip-rule="evenodd" d="M21.8799 231.917H32.0293C32.9416 231.917 33.6259 232.601 33.6259 233.4V233.857H22.222C22.108 233.172 21.9939 232.601 21.8799 231.917Z" fill="#D2C8AD"/>
<path fill-rule="evenodd" clip-rule="evenodd" d="M32.7129 201.446C53.1057 200.99 74.4147 201.446 87.5655 201.446C87.5655 202.017 87.5655 202.702 87.5655 203.272C70.032 203.272 52.199 203.272 32.7129 203.272C32.7129 202.702 32.7129 202.017 32.7129 201.446Z" fill="#9DD0FF"/>
<path fill-rule="evenodd" clip-rule="evenodd" d="M282.002 140.052L286.108 172.233L291.582 172.119L285.88 139.481L282.002 140.052Z" fill="#6278B0"/>
<path fill-rule="evenodd" clip-rule="evenodd" d="M283.37 139.253L287.704 173.602L293.063 173.488L287.247 138.682L283.37 139.253Z" fill="#5FA8EC"/>
<path fill-rule="evenodd" clip-rule="evenodd" d="M135.69 193.913C136.26 203.385 123.716 207.151 116.417 207.722C108.32 208.292 101.022 208.406 92.469 207.722C90.9865 207.607 88.5917 205.896 89.276 204.412C98.6271 186.724 135.234 185.925 135.69 193.913Z" fill="#6278B0"/>
<path fill-rule="evenodd" clip-rule="evenodd" d="M28.2656 189.006C30.8885 193.457 32.9412 198.136 32.8272 204.298C32.8272 205.211 32.371 206.01 31.5728 206.58C30.7745 207.151 29.7481 207.493 28.6077 207.379C25.4147 207.151 22.4497 207.379 19.3706 208.064C19.5987 206.01 20.0548 204.07 20.625 202.358C22.2216 196.88 24.7304 192.544 28.2656 189.006Z" fill="#6278B0"/>
<path fill-rule="evenodd" clip-rule="evenodd" d="M20.625 202.36C22.1075 196.997 24.1602 193.345 27.5814 189.693C29.9762 194.144 31.3447 198.138 31.9149 204.3C32.257 207.496 29.8622 208.751 29.1779 208.637C25.8708 208.409 22.5637 207.496 19.3706 208.523C19.5987 206.355 19.9408 204.186 20.625 202.36Z" fill="#5FA8EC"/>
<path fill-rule="evenodd" clip-rule="evenodd" d="M19.3706 207.949C22.5637 206.58 25.3006 206.009 28.4937 206.351C29.292 206.465 29.9762 206.237 30.5464 205.667C31.1166 205.096 31.3447 204.525 31.4587 203.727C31.4587 198.249 29.9762 194.255 27.9235 190.261C23.9322 194.825 20.9671 201.901 19.3706 207.949Z" fill="#FFFCD5"/>
<path fill-rule="evenodd" clip-rule="evenodd" d="M19.7129 205.895C22.906 204.64 25.985 204.868 29.4062 205.324C30.2045 205.438 30.5466 205.324 31.1168 204.754C31.687 204.183 31.3449 203.27 31.3449 202.471C31.4589 196.88 29.7483 193.684 27.8096 190.261C24.0464 194.255 21.4235 198.135 19.7129 205.895Z" fill="#EEE6D4"/>
<path fill-rule="evenodd" clip-rule="evenodd" d="M31.3449 200.647C30.6607 196.653 29.1782 192.773 27.5816 189.806C25.1868 192.203 23.3622 194.941 21.7656 199.05C24.8447 199.734 27.6957 200.305 31.3449 200.647Z" fill="#D2C8AD"/>
<path fill-rule="evenodd" clip-rule="evenodd" d="M30.8887 197.11C31.3449 199.392 31.4589 201.903 31.2309 204.413C30.7747 204.87 30.2045 205.212 29.6343 205.326C29.0641 205.212 28.608 205.212 28.0378 205.098C26.3272 204.299 25.0728 201.903 25.0728 198.936C25.0728 195.512 26.6693 192.773 28.836 192.545C29.6343 194.028 30.3185 195.512 30.8887 197.11Z" fill="white"/>
<path fill-rule="evenodd" clip-rule="evenodd" d="M29.1771 194.487C29.4052 194.487 29.6333 194.487 29.8614 194.601C30.2035 195.4 30.5456 196.313 30.8877 197.112C31.1158 198.595 31.3439 200.193 31.3439 201.904C30.7737 202.932 29.9754 203.502 29.1771 203.502C27.5806 203.502 26.3262 201.448 26.3262 198.937C26.3262 196.541 27.5806 194.487 29.1771 194.487Z" fill="#DAD9D4"/>
<path fill-rule="evenodd" clip-rule="evenodd" d="M33.8806 213.297L72.1833 213.306C73.6259 213.298 74.8597 214.446 74.9058 215.998L74.8493 223.974C74.8587 225.417 73.6046 226.687 72.162 226.695L33.8593 226.685C32.4166 226.693 31.1829 225.545 31.1368 223.993L31.1933 216.018C31.2551 214.43 32.4013 213.196 33.8806 213.297Z" fill="#EAEEF0"/>
<path fill-rule="evenodd" clip-rule="evenodd" d="M34.8248 214.302L70.9647 214.323C72.0467 214.317 72.9886 214.962 73.2828 215.827C72.8118 215.504 72.2696 215.327 71.6563 215.294L35.5164 215.273C34.1817 215.244 32.962 216.261 33.0058 217.452L33.0135 224.201C32.9791 224.453 33.0894 224.778 33.1629 224.994C32.6552 224.563 32.3266 223.952 32.3587 223.338L32.351 216.589C32.3784 215.254 33.4901 214.273 34.8248 214.302Z" fill="#B2C7CF"/>
<path fill-rule="evenodd" clip-rule="evenodd" d="M242.887 141.648C232.623 149.294 224.868 158.424 214.263 165.841C187.578 160.364 155.077 160.82 133.523 162.874C158.612 148.153 212.552 137.882 242.887 141.648Z" fill="#CCE9FF"/>
<path fill-rule="evenodd" clip-rule="evenodd" d="M214.263 165.843C213.807 165.729 213.465 165.729 213.009 165.615L211.755 165.386C210.956 165.272 210.044 165.044 209.246 164.93H209.132L207.877 164.702H207.763L206.509 164.473C205.711 164.359 205.026 164.245 204.228 164.131H204H203.886H203.658C202.86 164.017 202.061 163.903 201.263 163.789L200.123 163.675L198.982 163.56H198.868L197.956 163.446L197.386 163.332L196.245 163.218H196.131C195.333 163.104 194.421 162.99 193.622 162.99H193.508L192.71 162.876H192.14L191.342 162.762H190.885L189.973 162.647H189.631L188.377 162.533C187.122 162.419 185.868 162.305 184.613 162.305H184.271H183.359H183.017H182.675H182.447H181.42H180.85H180.052H179.596H178.797H177.657H177.543H176.631H176.06H175.148H174.806H174.008H173.438H172.297H171.727H171.499H170.473H170.244H169.218H168.876H167.964H167.394H166.481H166.253H165.227H164.657H163.972H163.402H162.832C162.034 162.305 161.235 162.305 160.437 162.305H159.183C157.928 162.305 156.788 162.305 155.648 162.419H155.419C154.621 162.419 153.937 162.419 153.139 162.533H153.025C152.226 162.533 151.428 162.533 150.744 162.647C144.7 162.876 139.112 163.332 134.094 163.789C146.981 157.855 167.736 151.92 187.692 148.725C206.167 146.671 222.132 146.329 236.957 147.013C229.545 152.719 222.816 159.795 214.263 165.843Z" fill="#B7D8FF"/>
<path fill-rule="evenodd" clip-rule="evenodd" d="M324.766 241.617L203.885 241.275L203.542 237.623L325.108 237.167L324.766 241.617Z" fill="#9DD0FF"/>
<path fill-rule="evenodd" clip-rule="evenodd" d="M227.263 171.776C231.825 193.231 232.281 223.814 226.807 244.241C246.65 244.241 262.957 244.241 282.8 244.241C291.011 230.661 297.853 215.255 299.108 193.915C299.906 184.443 293.52 176.683 287.248 172.005L227.263 171.776Z" fill="#6278B0"/>
<path fill-rule="evenodd" clip-rule="evenodd" d="M228.289 172.004C233.079 191.861 234.105 222.444 227.947 244.241C247.219 244.241 261.93 244.241 281.203 244.241C287.361 222.216 299.107 180.107 286.221 172.233L228.289 172.004Z" fill="#5FA8EC"/>
<path fill-rule="evenodd" clip-rule="evenodd" d="M229.772 179.306H292.95C291.353 177.138 289.643 175.312 287.704 173.714L228.518 173.144C228.86 174.855 229.316 177.024 229.772 179.306Z" fill="#6EB8C0"/>
<path fill-rule="evenodd" clip-rule="evenodd" d="M287.362 171.89C298.994 185.584 288.388 220.39 281.204 244.241H325.565C323.056 220.048 332.977 202.131 345.065 193.687C345.863 184.443 339.705 176.797 333.661 172.118L287.362 171.89Z" fill="#6278B0"/>
<path fill-rule="evenodd" clip-rule="evenodd" d="M287.818 172.23C299.906 182.159 290.327 220.274 282.8 244.239H324.196C321.687 220.046 331.381 202.129 343.583 193.684C344.381 184.441 338.223 176.795 332.179 172.116H287.818V172.23Z" fill="#5FA8EC"/>
<path fill-rule="evenodd" clip-rule="evenodd" d="M201.516 192.978C222.346 192.978 239.366 192.978 260.197 192.978C287.737 192.978 315.574 192.978 343.264 192.978C343.264 193.32 340.173 196.254 340.173 196.596L260.199 194.119H201.516V192.978Z" fill="#9DD0FF"/>
<path fill-rule="evenodd" clip-rule="evenodd" d="M287.361 185.812L287.589 186.724C288.045 188.436 286.905 189.806 285.308 189.806H279.835C278.124 189.806 276.413 188.436 276.071 186.724L275.843 185.812H287.361Z" fill="#6278B0"/>
<path fill-rule="evenodd" clip-rule="evenodd" d="M273.563 183.301H287.248C287.59 183.301 288.046 183.643 288.046 183.986L288.388 185.241C288.503 185.583 288.274 185.926 287.932 185.926H274.248C273.906 185.926 273.449 185.583 273.449 185.241L273.107 183.986C272.993 183.529 273.221 183.301 273.563 183.301Z" fill="#9DD0FF"/>
<path fill-rule="evenodd" clip-rule="evenodd" d="M336.74 185.812L336.968 186.724C337.424 188.436 336.284 189.806 334.687 189.806H329.214C327.503 189.806 325.792 188.436 325.45 186.724L325.222 185.812H336.74Z" fill="#6278B0"/>
<path fill-rule="evenodd" clip-rule="evenodd" d="M322.942 183.301H336.627C336.969 183.301 337.425 183.643 337.425 183.986L337.767 185.241C337.881 185.583 337.653 185.926 337.311 185.926H323.626C323.284 185.926 322.828 185.583 322.828 185.241L322.486 183.986C322.372 183.529 322.6 183.301 322.942 183.301Z" fill="#9DD0FF"/>
<path fill-rule="evenodd" clip-rule="evenodd" d="M292.151 179.307H339.135C337.653 177.253 335.828 175.313 334.004 173.716C319.407 173.601 304.24 173.601 289.187 173.487C290.441 174.971 291.467 176.911 292.151 179.307Z" fill="#9DD0FF"/>
<path fill-rule="evenodd" clip-rule="evenodd" d="M229.772 179.306H291.125C290.669 176.567 289.415 174.969 287.704 173.486C267.405 173.372 247.22 173.258 228.518 173.144C228.974 175.084 229.43 177.138 229.772 179.306Z" fill="#9DD0FF"/>
<path fill-rule="evenodd" clip-rule="evenodd" d="M323.967 241.617L283.598 241.503C284.054 240.134 284.396 238.764 284.852 237.281L323.739 237.167C323.853 238.65 323.853 240.134 323.967 241.617Z" fill="#9DD0FF"/>
<path fill-rule="evenodd" clip-rule="evenodd" d="M281.888 241.501L228.632 241.387C228.974 240.131 229.202 238.876 229.544 237.507L283.142 237.278C282.686 238.762 282.23 240.131 281.888 241.501Z" fill="#9DD0FF"/>
<path fill-rule="evenodd" clip-rule="evenodd" d="M385.093 215.71H395.926C400.716 216.623 402.427 218.221 402.883 219.59L386.461 221.073L385.093 215.71Z" fill="#9DD0FF"/>
<path fill-rule="evenodd" clip-rule="evenodd" d="M135.691 193.684C136.147 202.699 124.173 206.351 117.216 206.807C109.462 207.378 102.505 207.492 94.2945 206.807C92.812 206.693 90.5312 204.981 91.3295 203.612C100.224 186.723 135.234 186.038 135.691 193.684Z" fill="#58595B"/>
<path fill-rule="evenodd" clip-rule="evenodd" d="M136.163 193.482C136.7 202.453 124.629 206.08 117.652 206.689C109.909 207.314 102.872 207.516 94.594 206.877C93.113 206.806 90.7332 205.173 91.5216 203.778C100.315 186.85 135.651 185.786 136.163 193.482Z" fill="#FFFCD5"/>
<path fill-rule="evenodd" clip-rule="evenodd" d="M136.165 193.482C136.244 194.909 136.015 196.19 135.53 197.477C132.107 202.296 123.988 204.512 118.638 204.882C110.895 205.507 103.858 205.709 95.5798 205.07C94.2508 204.945 92.0281 203.513 92.4095 202.178C102.509 186.752 135.658 186.041 136.165 193.482Z" fill="#EEE6D4"/>
<path fill-rule="evenodd" clip-rule="evenodd" d="M136.165 193.484C136.175 193.994 136.185 194.504 136.147 195.117C129.676 198.114 120.326 199.999 109.816 200.071C104.613 200.131 99.6552 199.676 95.2018 198.955C107.559 186.747 135.723 186.705 136.165 193.484Z" fill="#D2C8AD"/>
<path fill-rule="evenodd" clip-rule="evenodd" d="M136.164 193.484C136.562 200.621 128.984 204.355 122.332 205.876C123.177 202.234 124.733 198.424 126.75 194.707C127.783 192.796 129.022 190.984 130.266 189.426C133.699 190.169 136.074 191.547 136.164 193.484Z" fill="#FBD55B"/>
<path fill-rule="evenodd" clip-rule="evenodd" d="M136.164 193.484C136.244 194.911 136.014 196.192 135.53 197.478C132.9 201.157 127.586 203.313 122.811 204.334C123.667 201.202 125.032 198.06 126.804 194.858C127.838 192.948 129.077 191.135 130.321 189.577C133.7 190.168 136.074 191.546 136.164 193.484Z" fill="#F58220"/>
<path fill-rule="evenodd" clip-rule="evenodd" d="M136.165 193.485C136.176 193.995 136.186 194.506 136.147 195.119C132.961 196.514 129.211 197.768 124.94 198.523C125.528 197.286 126.115 196.048 126.854 194.757C127.887 192.846 129.127 191.033 130.371 189.476C133.701 190.17 136.075 191.548 136.165 193.485Z" fill="#D7662C"/>
<path fill-rule="evenodd" clip-rule="evenodd" d="M114.09 191.861C116.488 191.861 118.437 194.932 118.514 198.758C118.488 202.535 116.612 205.689 114.214 205.689C111.816 205.689 109.867 202.618 109.791 198.792C109.817 195.015 111.692 191.861 114.09 191.861Z" fill="white"/>
<path fill-rule="evenodd" clip-rule="evenodd" d="M114.132 193.903C115.765 193.919 117.287 196.03 117.24 198.787C117.243 201.44 115.911 203.714 114.175 203.65C112.542 203.634 111.02 201.523 111.067 198.766C111.113 196.009 112.499 193.887 114.132 193.903Z" fill="#DAD9D4"/>
<path d="M390.933 174.103C390.933 174.103 384.476 173.835 384.087 173.526C383.697 173.217 381.977 166.995 381.977 166.995C381.977 166.995 381.714 173.554 381.409 173.95C381.105 174.345 374.979 176.093 374.979 176.093C374.979 176.093 381.339 176.283 381.718 176.504C382.107 176.813 383.936 183.2 383.936 183.2C383.936 183.2 384.199 176.641 384.503 176.246C384.721 175.861 390.933 174.103 390.933 174.103Z" fill="#F6F6F5"/>
<path d="M388.421 182.003C388.421 182.003 390.614 179.617 390.858 179.568C391.103 179.518 394.043 180.874 394.043 180.874C394.043 180.874 391.616 178.65 391.563 178.405C391.51 178.16 392.824 175.248 392.824 175.248C392.824 175.248 390.692 177.623 390.485 177.696C390.24 177.745 387.202 176.378 387.202 176.378C387.202 176.378 389.629 178.602 389.682 178.847C389.759 179.055 388.421 182.003 388.421 182.003Z" fill="#F6F6F5"/>
<g style="mix-blend-mode:soft-light" opacity="0.65">
<path fill-rule="evenodd" clip-rule="evenodd" d="M323.155 233.499L207.307 233.229V232.148L323.155 224.815V233.499Z" fill="white"/>
</g>
<defs>
<clipPath id="clip0_55706_528532">
<rect width="36.672" height="50.6631" fill="white" transform="matrix(0.999248 0.0387817 -0.0457519 0.998953 342.387 204.399)"/>
</clipPath>
<clipPath id="clip1_55706_528532">
<rect width="36.672" height="50.6631" fill="white" transform="matrix(0.999248 0.0387817 -0.0457519 0.998953 159.419 204.399)"/>
</clipPath>
</defs>
</svg>
