<svg width="60" height="60" viewBox="0 0 60 60" fill="none" xmlns="http://www.w3.org/2000/svg">
<rect width="60" height="60" rx="8" fill="white"/>
<path d="M27.9982 19.7153L17.6459 36.9975C17.4325 37.3671 17.3196 37.7862 17.3184 38.213C17.3172 38.6398 17.4278 39.0595 17.6391 39.4303C17.8505 39.8012 18.1553 40.1102 18.5231 40.3266C18.891 40.5431 19.3091 40.6595 19.7359 40.6642H40.4404C40.8672 40.6595 41.2853 40.5431 41.6532 40.3266C42.021 40.1102 42.3258 39.8012 42.5372 39.4303C42.7486 39.0595 42.8591 38.6398 42.8579 38.213C42.8568 37.7862 42.7438 37.3671 42.5304 36.9975L32.1782 19.7153C31.9603 19.3561 31.6535 19.0591 31.2874 18.853C30.9213 18.6469 30.5083 18.5386 30.0882 18.5386C29.668 18.5386 29.255 18.6469 28.8889 18.853C28.5228 19.0591 28.216 19.3561 27.9982 19.7153V19.7153Z" stroke="#2F93E1" stroke-width="2" stroke-linecap="round" stroke-linejoin="round"/>
<path d="M30.0879 25.9976V30.8864" stroke="#2F93E1" stroke-width="2" stroke-linecap="round" stroke-linejoin="round"/>
<path d="M30.0879 35.7754H30.1012" stroke="#2F93E1" stroke-width="2" stroke-linecap="round" stroke-linejoin="round"/>
</svg>
