<svg width="431" height="289" viewBox="0 0 431 289" fill="none" xmlns="http://www.w3.org/2000/svg">
<path fill-rule="evenodd" clip-rule="evenodd" d="M248.547 195.89C267.705 195.319 276.144 208.223 276.258 230.033C276.258 251.728 260.635 265.545 244.441 264.175C228.248 262.805 215.589 248.874 216.73 230.033C217.87 211.191 229.388 196.461 248.547 195.89Z" fill="#231F20"/>
<path fill-rule="evenodd" clip-rule="evenodd" d="M256.871 200.001C266.793 200.001 274.662 210.735 276.144 225.122C276.258 226.721 276.258 228.32 276.258 230.032C276.258 248.759 264.626 263.261 251.169 263.832C241.02 261.777 233.835 248.303 234.52 232.088C235.318 214.389 245.353 200.001 256.871 200.001Z" fill="#383431"/>
<path fill-rule="evenodd" clip-rule="evenodd" d="M256.986 203.997C266.337 203.997 275.232 215.644 273.18 232.772C271.127 249.901 262.46 257.095 254.249 258.008C246.038 259.036 237.713 246.361 238.397 231.973C238.968 217.7 247.635 203.997 256.986 203.997Z" fill="#A7A9AC"/>
<path fill-rule="evenodd" clip-rule="evenodd" d="M256.871 207.88C264.968 207.88 272.494 217.928 270.784 232.659C269.073 247.389 261.547 253.555 254.476 254.354C247.406 255.154 240.335 244.306 240.905 231.974C241.362 219.641 248.774 207.88 256.871 207.88Z" fill="#6D6E71"/>
<path fill-rule="evenodd" clip-rule="evenodd" d="M77.6009 195.89C96.7596 195.319 105.199 208.223 105.313 230.033C105.313 251.728 89.6891 265.545 73.4955 264.175C57.3018 262.805 44.6434 248.874 45.7838 230.033C46.9242 211.191 58.4422 196.461 77.6009 195.89Z" fill="#231F20"/>
<path fill-rule="evenodd" clip-rule="evenodd" d="M85.9261 200.001C95.8476 200.001 103.716 210.735 105.199 225.122C105.313 226.721 105.313 228.32 105.313 230.032C105.313 248.759 93.6808 263.261 80.2241 263.832C70.0746 261.777 62.8901 248.303 63.5743 232.088C64.3726 214.389 74.4081 200.001 85.9261 200.001Z" fill="#383431"/>
<path fill-rule="evenodd" clip-rule="evenodd" d="M86.0401 203.997C95.3913 203.997 104.286 215.644 102.234 232.772C100.181 249.901 91.514 257.095 83.3031 258.008C75.0923 259.036 66.7674 246.361 67.4516 231.973C68.0218 217.7 76.5748 203.997 86.0401 203.997Z" fill="#A7A9AC"/>
<path fill-rule="evenodd" clip-rule="evenodd" d="M85.9256 207.88C94.0225 207.88 101.549 217.928 99.8385 232.659C98.1279 247.389 90.6013 253.555 83.5308 254.354C76.4603 255.154 69.3899 244.306 69.9601 231.974C70.4162 219.641 77.8288 207.88 85.9256 207.88Z" fill="#6D6E71"/>
<path fill-rule="evenodd" clip-rule="evenodd" d="M106.226 248.416H335.331C345.253 247.046 373.991 245.676 383.912 244.306C395.887 200.686 363.955 188.81 341.376 177.62H95.6199L34.7227 244.306C52.2848 247.731 82.3913 248.416 106.226 248.416Z" fill="#58595B"/>
<path fill-rule="evenodd" clip-rule="evenodd" d="M167.237 195.89C186.395 195.319 194.834 208.223 194.948 230.033C194.948 251.728 179.325 265.545 163.131 264.175C146.938 262.805 134.279 248.874 135.42 230.033C136.674 211.191 148.078 196.461 167.237 195.89Z" fill="#231F20"/>
<path fill-rule="evenodd" clip-rule="evenodd" d="M175.562 200.001C185.483 200.001 193.352 210.735 194.835 225.122C194.949 226.721 194.949 228.32 194.949 230.032C194.949 248.759 183.317 263.261 169.86 263.832C159.71 261.777 152.526 248.303 153.21 232.088C154.008 214.389 164.044 200.001 175.562 200.001Z" fill="#414042"/>
<path fill-rule="evenodd" clip-rule="evenodd" d="M175.676 203.997C185.027 203.997 193.922 215.644 191.869 232.772C189.817 249.901 181.15 257.095 172.939 258.008C164.728 259.036 156.403 246.361 157.087 231.973C157.772 217.7 166.325 203.997 175.676 203.997Z" fill="#E2E3E4"/>
<path fill-rule="evenodd" clip-rule="evenodd" d="M175.676 203.997C181.035 203.997 186.281 207.765 189.36 214.16C190.273 217.928 190.501 222.153 189.931 226.835C187.878 243.62 179.211 250.586 171 251.614C166.096 252.184 161.078 247.96 157.999 241.451C157.201 238.368 156.859 235.056 156.973 231.631C157.771 217.471 166.324 203.997 175.676 203.997Z" fill="#BCBEC0"/>
<path fill-rule="evenodd" clip-rule="evenodd" d="M171.684 243.049C171.342 246.247 171.342 250.243 170.886 253.326C173.167 253.326 175.333 252.413 177.272 250.814C177.158 248.074 175.105 244.991 172.71 242.707C172.482 242.478 172.254 242.478 172.026 242.593C171.912 242.593 171.684 242.821 171.684 243.049Z" fill="#A7A9AC"/>
<path fill-rule="evenodd" clip-rule="evenodd" d="M176.816 236.541C176.93 237.568 179.781 242.25 181.263 243.62C181.377 243.734 181.606 243.849 181.834 243.734C182.062 243.734 182.176 243.506 182.29 243.392C183.088 241.451 183.772 239.281 184.228 236.883C184.343 236.541 184.114 236.312 183.886 236.198C181.263 235.17 178.983 235.17 177.272 235.97C176.93 236.084 176.816 236.312 176.816 236.541Z" fill="#A7A9AC"/>
<path fill-rule="evenodd" clip-rule="evenodd" d="M177.956 229.004C180.351 229.347 182.86 229.575 185.141 230.146C185.255 227.063 185.027 224.323 184.456 221.811C180.921 224.551 178.184 227.177 177.956 229.004Z" fill="#A7A9AC"/>
<path fill-rule="evenodd" clip-rule="evenodd" d="M175.561 210.392L174.421 219.184C174.421 219.412 174.535 219.641 174.649 219.755C174.877 219.869 175.105 219.983 175.219 219.869C177.386 219.07 179.325 217.357 181.035 215.187C181.263 214.959 181.263 214.616 181.035 214.388C179.667 212.333 178.07 210.848 176.246 209.935C176.017 209.821 175.789 209.821 175.675 209.935C175.789 210.049 175.675 210.163 175.561 210.392Z" fill="#A7A9AC"/>
<path fill-rule="evenodd" clip-rule="evenodd" d="M162.903 216.215L168.035 220.783C170.087 220.44 172.026 210.163 169.745 209.706C165.982 209.021 164.157 212.561 162.675 215.416C162.675 215.758 162.675 216.101 162.903 216.215Z" fill="#A7A9AC"/>
<path fill-rule="evenodd" clip-rule="evenodd" d="M160.85 222.495C162.447 224.437 163.815 226.606 163.701 229.004C163.587 231.63 160.964 232.772 159.026 234.028C158.798 234.143 158.57 234.143 158.455 234.028C158.227 233.914 158.113 233.8 158.113 233.572C157.657 230.489 159.026 225.35 159.824 222.724C159.938 222.495 160.052 222.381 160.28 222.267C160.508 222.153 160.736 222.267 160.85 222.495Z" fill="#A7A9AC"/>
<path fill-rule="evenodd" clip-rule="evenodd" d="M163.359 249.33C166.096 245.561 166.781 243.049 165.64 238.253C164.728 237.111 161.763 239.966 159.596 241.336C159.368 241.451 159.254 241.793 159.254 242.022C159.938 244.762 160.965 247.16 162.333 249.33C162.447 249.558 162.675 249.672 162.903 249.672C163.017 249.672 163.131 249.558 163.359 249.33Z" fill="#A7A9AC"/>
<path fill-rule="evenodd" clip-rule="evenodd" d="M171.57 244.192C171.342 247.161 171.228 250.586 170.886 253.213C171.342 253.213 171.684 253.213 172.026 253.099C173.052 252.642 174.079 252.071 175.105 251.272C175.105 248.988 173.509 246.361 171.57 244.192Z" fill="#58595B"/>
<path fill-rule="evenodd" clip-rule="evenodd" d="M176.816 236.541C176.93 237.455 178.983 240.995 180.579 242.822C181.149 241.223 181.72 239.396 182.062 237.341C182.176 236.998 181.948 236.77 181.72 236.655C180.123 235.97 178.527 235.742 177.158 235.856C176.93 236.085 176.816 236.313 176.816 236.541Z" fill="#58595B"/>
<path fill-rule="evenodd" clip-rule="evenodd" d="M177.956 229.004C179.667 229.233 181.377 229.461 182.974 229.69C182.974 227.406 182.86 225.35 182.518 223.409C180.009 225.579 178.184 227.52 177.956 229.004Z" fill="#58595B"/>
<path fill-rule="evenodd" clip-rule="evenodd" d="M175.562 211.191L174.535 219.185C174.535 219.413 174.535 219.641 174.763 219.756C176.36 218.842 177.728 217.472 179.211 215.759C179.439 215.531 179.439 215.188 179.211 214.96C178.07 213.361 176.816 212.105 175.562 211.191Z" fill="#58595B"/>
<path fill-rule="evenodd" clip-rule="evenodd" d="M162.903 216.216L167.237 219.984C168.719 217.129 169.518 210.62 167.693 210.278C167.351 210.164 167.009 210.164 166.781 210.164C164.956 211.191 163.816 213.475 162.789 215.416C162.675 215.759 162.675 216.101 162.903 216.216Z" fill="#58595B"/>
<path fill-rule="evenodd" clip-rule="evenodd" d="M158.113 233.801C158.113 233.686 157.999 233.686 157.999 233.572C157.657 230.832 158.569 226.721 159.368 223.98C160.622 225.693 161.648 227.634 161.534 229.576C161.42 231.631 159.71 232.773 158.113 233.801Z" fill="#58595B"/>
<path fill-rule="evenodd" clip-rule="evenodd" d="M163.359 238.711C162.219 239.51 160.736 240.652 159.596 241.337C159.368 241.451 159.254 241.794 159.254 242.022C159.938 244.535 160.85 246.818 161.991 248.874C164.044 245.676 164.5 243.278 163.473 238.939C163.359 238.825 163.359 238.711 163.359 238.711Z" fill="#58595B"/>
<path fill-rule="evenodd" clip-rule="evenodd" d="M169.973 226.607C169.061 227.178 168.491 228.777 168.491 230.604C168.491 232.887 169.517 234.714 170.886 234.828C170.658 234.943 170.315 235.057 170.087 235.057C168.719 235.057 167.692 233.23 167.692 230.832C167.578 228.434 168.719 226.607 169.973 226.607Z" fill="#A7A9AC"/>
<path fill-rule="evenodd" clip-rule="evenodd" d="M171.228 233.458C172.14 233.458 172.825 232.202 172.825 230.603C172.825 229.005 172.14 227.749 171.228 227.749C170.316 227.749 169.632 229.005 169.632 230.603C169.517 232.202 170.316 233.458 171.228 233.458Z" fill="#A7A9AC"/>
<path fill-rule="evenodd" clip-rule="evenodd" d="M17.6166 202.399C20.2395 193.035 25.7134 187.782 30.5031 184.585C57.5305 175.222 97.2164 168.827 124.586 163.689C160.28 161.748 198.256 162.319 223.572 167.343C206.01 186.07 175.904 164.488 148.42 190.066C164.272 201.942 107.252 234.257 100.524 244.306H20.4676C20.0114 242.479 19.4412 240.423 18.9851 238.254H20.0114C19.5553 236.084 19.3272 233.915 18.871 231.973H17.6166C15.792 221.925 14.9937 210.278 17.6166 202.399Z" fill="#E2304D"/>
<path fill-rule="evenodd" clip-rule="evenodd" d="M352.324 195.89C371.482 195.319 379.921 208.223 380.035 230.033C380.035 251.728 364.412 265.545 348.218 264.175C332.025 262.805 319.366 248.874 320.506 230.033C321.647 211.191 333.165 196.461 352.324 195.89Z" fill="#231F20"/>
<path fill-rule="evenodd" clip-rule="evenodd" d="M360.648 200.001C370.57 200.001 378.438 210.735 379.921 225.122C380.035 226.721 380.035 228.32 380.035 230.032C380.035 248.759 368.403 263.261 354.946 263.832C344.797 261.777 337.612 248.303 338.297 232.088C339.095 214.389 349.13 200.001 360.648 200.001Z" fill="#414042"/>
<path fill-rule="evenodd" clip-rule="evenodd" d="M360.763 203.997C370.114 203.997 379.009 215.644 376.956 232.772C374.904 249.901 366.237 257.095 358.026 258.008C349.815 259.036 341.49 246.361 342.174 231.973C342.858 217.7 351.411 203.997 360.763 203.997Z" fill="#E2E3E4"/>
<path fill-rule="evenodd" clip-rule="evenodd" d="M360.762 203.997C366.122 203.997 371.368 207.765 374.447 214.16C375.36 217.928 375.588 222.153 375.017 226.835C372.965 243.62 364.298 250.586 356.087 251.614C351.183 252.184 346.165 247.96 343.086 241.451C342.288 238.368 341.946 235.056 342.06 231.631C342.858 217.471 351.411 203.997 360.762 203.997Z" fill="#BCBEC0"/>
<path fill-rule="evenodd" clip-rule="evenodd" d="M356.771 243.049C356.429 246.247 356.429 250.243 355.973 253.326C358.253 253.326 360.42 252.413 362.359 250.814C362.245 248.074 360.192 244.991 357.797 242.707C357.569 242.478 357.341 242.478 357.113 242.593C356.999 242.593 356.771 242.821 356.771 243.049Z" fill="#A7A9AC"/>
<path fill-rule="evenodd" clip-rule="evenodd" d="M361.903 236.541C362.017 237.568 364.868 242.25 366.35 243.62C366.464 243.734 366.693 243.849 366.921 243.734C367.149 243.734 367.263 243.506 367.377 243.392C368.175 241.451 368.859 239.281 369.315 236.883C369.429 236.541 369.201 236.312 368.973 236.198C366.35 235.17 364.07 235.17 362.359 235.97C362.017 236.084 361.903 236.312 361.903 236.541Z" fill="#A7A9AC"/>
<path fill-rule="evenodd" clip-rule="evenodd" d="M363.043 229.004C365.438 229.347 367.947 229.575 370.228 230.146C370.342 227.063 370.114 224.323 369.544 221.811C366.008 224.551 363.272 227.177 363.043 229.004Z" fill="#A7A9AC"/>
<path fill-rule="evenodd" clip-rule="evenodd" d="M360.648 210.392L359.508 219.184C359.508 219.412 359.622 219.641 359.736 219.755C359.964 219.869 360.192 219.983 360.306 219.869C362.473 219.07 364.412 217.357 366.122 215.187C366.35 214.959 366.35 214.616 366.122 214.388C364.754 212.333 363.157 210.848 361.332 209.935C361.104 209.821 360.876 209.821 360.762 209.935C360.876 210.049 360.762 210.163 360.648 210.392Z" fill="#A7A9AC"/>
<path fill-rule="evenodd" clip-rule="evenodd" d="M347.99 216.215L353.121 220.783C355.174 220.44 357.113 210.163 354.832 209.706C351.069 209.021 349.244 212.561 347.762 215.416C347.647 215.758 347.762 216.101 347.99 216.215Z" fill="#A7A9AC"/>
<path fill-rule="evenodd" clip-rule="evenodd" d="M345.937 222.495C347.534 224.437 348.902 226.606 348.788 229.004C348.674 231.63 346.051 232.772 344.113 234.028C343.885 234.143 343.656 234.143 343.542 234.028C343.314 233.914 343.2 233.8 343.2 233.572C342.744 230.489 344.113 225.35 344.911 222.724C345.025 222.495 345.139 222.381 345.367 222.267C345.595 222.153 345.823 222.267 345.937 222.495Z" fill="#A7A9AC"/>
<path fill-rule="evenodd" clip-rule="evenodd" d="M348.446 249.33C351.183 245.561 351.867 243.049 350.727 238.253C349.815 237.111 346.85 239.966 344.683 241.336C344.455 241.451 344.341 241.793 344.341 242.022C345.025 244.762 346.165 247.16 347.42 249.33C347.534 249.558 347.762 249.672 347.99 249.672C348.104 249.672 348.218 249.558 348.446 249.33Z" fill="#A7A9AC"/>
<path fill-rule="evenodd" clip-rule="evenodd" d="M356.656 244.192C356.428 247.161 356.314 250.586 355.972 253.213C356.428 253.213 356.77 253.213 357.113 253.099C358.139 252.642 359.165 252.071 360.192 251.272C360.192 248.988 358.595 246.361 356.656 244.192Z" fill="#58595B"/>
<path fill-rule="evenodd" clip-rule="evenodd" d="M361.902 236.541C362.016 237.455 364.069 240.995 365.666 242.822C366.236 241.223 366.806 239.396 367.148 237.341C367.262 236.998 367.034 236.77 366.806 236.655C365.209 235.97 363.613 235.742 362.244 235.856C362.016 236.085 361.902 236.313 361.902 236.541Z" fill="#58595B"/>
<path fill-rule="evenodd" clip-rule="evenodd" d="M363.043 229.004C364.754 229.233 366.464 229.461 368.061 229.69C368.061 227.406 367.947 225.35 367.605 223.409C365.096 225.579 363.271 227.52 363.043 229.004Z" fill="#58595B"/>
<path fill-rule="evenodd" clip-rule="evenodd" d="M360.648 211.191L359.622 219.184C359.622 219.412 359.622 219.641 359.85 219.755C361.447 218.842 362.815 217.471 364.298 215.758C364.526 215.53 364.526 215.187 364.298 214.959C363.157 213.36 361.903 212.104 360.648 211.191Z" fill="#58595B"/>
<path fill-rule="evenodd" clip-rule="evenodd" d="M347.99 216.216L352.323 219.984C353.806 217.129 354.604 210.62 352.779 210.278C352.437 210.164 352.095 210.164 351.867 210.164C350.043 211.191 348.902 213.475 347.876 215.416C347.648 215.759 347.762 216.101 347.99 216.216Z" fill="#58595B"/>
<path fill-rule="evenodd" clip-rule="evenodd" d="M343.2 233.801C343.2 233.686 343.086 233.686 343.086 233.572C342.744 230.832 343.656 226.721 344.455 223.98C345.709 225.693 346.735 227.634 346.621 229.576C346.507 231.631 344.797 232.773 343.2 233.801Z" fill="#58595B"/>
<path fill-rule="evenodd" clip-rule="evenodd" d="M348.332 238.711C347.192 239.51 345.709 240.652 344.569 241.337C344.341 241.451 344.227 241.794 344.227 242.022C344.911 244.535 345.823 246.818 346.964 248.874C349.016 245.676 349.472 243.278 348.446 238.939C348.446 238.825 348.446 238.711 348.332 238.711Z" fill="#58595B"/>
<path fill-rule="evenodd" clip-rule="evenodd" d="M355.06 226.607C354.148 227.178 353.578 228.777 353.578 230.604C353.578 232.887 354.604 234.714 355.972 234.828C355.744 234.943 355.402 235.057 355.174 235.057C353.806 235.057 352.779 233.23 352.779 230.832C352.665 228.434 353.806 226.607 355.06 226.607Z" fill="#A7A9AC"/>
<path fill-rule="evenodd" clip-rule="evenodd" d="M356.315 233.458C357.227 233.458 357.912 232.202 357.912 230.603C357.912 229.005 357.227 227.749 356.315 227.749C355.403 227.749 354.718 229.005 354.718 230.603C354.604 232.202 355.403 233.458 356.315 233.458Z" fill="#A7A9AC"/>
<path fill-rule="evenodd" clip-rule="evenodd" d="M83.1895 205.253C106.682 169.512 198.712 170.197 211.028 171.568C204.756 162.661 158.456 162.661 122.077 164.145C135.192 155.239 154.008 143.477 178.185 136.512C193.694 132.059 222.66 132.401 242.047 133.086C271.925 134.228 307.734 136.398 326.208 141.993C336.7 145.19 347.876 160.035 352.437 166.886C356.543 173.052 379.237 170.197 386.991 175.222C398.053 182.416 397.369 196.917 395.887 214.502C403.869 215.416 402.273 226.15 394.974 241.222C392.237 241.222 384.483 244.191 381.746 244.191C389.614 166.658 322.673 185.042 326.436 244.191C294.619 244.191 229.845 244.191 197.913 244.191C211.028 170.883 143.745 164.26 139.639 244.191H111.585C103.489 229.461 129.946 209.364 107.252 209.592C82.6193 209.935 81.935 207.194 83.1895 205.253Z" fill="#EC5F6B"/>
<path fill-rule="evenodd" clip-rule="evenodd" d="M221.634 172.596C221.862 167.8 232.239 153.526 246.038 143.364C248.319 141.651 253.109 140.052 260.179 139.71C279.68 138.682 295.417 139.595 314.918 145.647C321.19 147.589 338.182 172.824 329.972 173.053C301.576 173.395 250.03 172.596 221.634 172.596Z" fill="#EF1C31"/>
<path fill-rule="evenodd" clip-rule="evenodd" d="M123.674 225.35C113.182 233.343 103.147 240.537 100.638 244.305H20.4677C20.0115 242.478 19.4413 240.423 18.9852 238.253H20.0115C19.5554 236.084 19.3273 233.914 18.8711 231.973H17.6167C17.2746 229.803 16.9325 227.634 16.5903 225.464H123.674V225.35Z" fill="#EC5F6B"/>
<path fill-rule="evenodd" clip-rule="evenodd" d="M29.3629 209.478C45.2153 209.478 57.6804 209.592 79.3123 209.592C81.251 204.226 86.6109 196.803 94.2515 191.322C71.4577 191.322 50.0041 191.322 27.8804 191.322C29.9331 195.319 31.3016 202.513 29.3629 209.478Z" fill="#58595B"/>
<path fill-rule="evenodd" clip-rule="evenodd" d="M26.284 187.783C50.9165 187.668 87.9835 187.55 103.926 187.783C122.675 187.783 129.225 188.396 132.254 191.425L98.5852 189.039C83.2114 189.039 49.6621 189.039 25.1436 189.039C25.4857 188.582 25.9418 188.239 26.284 187.783Z" fill="#EC5F6B"/>
<path fill-rule="evenodd" clip-rule="evenodd" d="M112.384 230.375C110.331 233.572 110.673 237.455 109.989 240.766H19.4414C19.2133 239.967 18.9852 239.167 18.7571 238.368H19.8975C19.4414 236.199 19.2133 234.029 18.7571 232.088H17.6168C17.5027 231.631 17.3887 231.289 17.3887 230.832L112.384 230.375Z" fill="#58595B"/>
<path fill-rule="evenodd" clip-rule="evenodd" d="M20.3536 240.537H119.454C121.507 240.537 123.218 241.451 123.218 242.478C123.218 243.506 121.507 244.419 119.454 244.419H20.3536C18.3009 244.419 16.5903 243.506 16.5903 242.478C16.5903 241.336 18.3009 240.537 20.3536 240.537Z" fill="#EC5F6B"/>
<path fill-rule="evenodd" clip-rule="evenodd" d="M16.7043 210.963H83.6456C85.2422 210.963 86.6107 212.333 86.6107 213.932V223.98C86.6107 225.579 85.2422 226.949 83.6456 226.949H16.7043C15.1077 226.949 13.7393 225.579 13.7393 223.98V213.932C13.7393 212.333 15.1077 210.963 16.7043 210.963Z" fill="#E2304D"/>
<path fill-rule="evenodd" clip-rule="evenodd" d="M86.3828 225.35C85.9266 226.264 84.9002 226.949 83.7598 226.949H16.7045C15.5641 226.949 14.5377 226.264 14.0815 225.35H86.3828Z" fill="#EF1C31"/>
<path fill-rule="evenodd" clip-rule="evenodd" d="M130.516 163.003C138.043 155.467 161.307 143.82 183.545 139.709C207.151 136.626 223.116 138.339 241.477 140.508C230.415 148.387 222.318 158.093 211.142 165.972C184.571 160.377 152.07 160.834 130.516 163.003Z" fill="#EDFEFF"/>
<path fill-rule="evenodd" clip-rule="evenodd" d="M224.257 171.796C224.485 167.343 234.406 154.097 247.521 144.619C249.688 143.02 254.249 141.536 260.978 141.193C279.566 140.28 294.619 141.079 313.208 146.675C319.138 148.502 335.446 171.91 327.463 172.138C300.435 172.595 251.284 171.796 224.257 171.796Z" fill="#82ADB1"/>
<path fill-rule="evenodd" clip-rule="evenodd" d="M224.257 171.796C224.371 168.142 230.985 158.779 240.565 150.215C249.46 156.952 260.636 170.54 254.477 171.911C243.073 171.911 232.582 171.796 224.257 171.796Z" fill="#C0D8DA"/>
<path fill-rule="evenodd" clip-rule="evenodd" d="M262.916 141.079C280.592 140.28 295.303 141.194 313.208 146.675C317.313 147.931 326.322 159.464 328.945 166.543H284.584C280.25 166.543 274.662 163.003 272.381 158.55L262.916 141.079Z" fill="#C0D8DA"/>
<g style="mix-blend-mode:overlay">
<path fill-rule="evenodd" clip-rule="evenodd" d="M264.171 141.08C272.838 140.737 280.707 140.851 288.803 141.65L273.864 172.139C265.425 172.025 256.986 172.025 249.118 171.91L264.171 141.08Z" fill="#ABE1E1"/>
</g>
<g style="mix-blend-mode:overlay">
<path fill-rule="evenodd" clip-rule="evenodd" d="M294.619 142.45C300.093 143.25 305.567 144.506 311.383 146.218L298.61 172.253C292.566 172.253 286.294 172.253 280.022 172.139L294.619 142.45Z" fill="#ABE1E1"/>
</g>
<path fill-rule="evenodd" clip-rule="evenodd" d="M13.7393 213.36C32.4418 213.36 47.7231 213.36 66.4256 213.36C91.1525 213.36 116.146 213.36 141.008 213.36C141.008 213.703 141.008 214.16 141.008 214.502H66.4274H13.7393V213.36Z" fill="#EC5F6B"/>
<path fill-rule="evenodd" clip-rule="evenodd" d="M72.2412 225.464H137.244L135.533 230.032C109.988 226.378 94.1369 227.52 72.2412 226.606V225.464Z" fill="#EF1C31"/>
<path fill-rule="evenodd" clip-rule="evenodd" d="M231.099 160.148L234.634 171.796C231.099 171.796 227.678 171.796 224.143 171.796C224.371 169.284 226.195 164.944 231.099 160.148Z" fill="#576578"/>
<path fill-rule="evenodd" clip-rule="evenodd" d="M233.38 158.322C238.626 158.322 243.757 158.322 249.003 158.322C252.31 158.322 253.907 167.001 252.082 169.17C251.626 169.627 251.056 169.741 250.372 169.855C245.81 170.655 237.029 171.911 232.924 170.883C227.108 169.398 228.59 163.917 231.555 159.236C232.011 158.665 232.695 158.322 233.38 158.322Z" fill="#EC5F6B"/>
<path fill-rule="evenodd" clip-rule="evenodd" d="M233.38 158.322C238.625 158.322 243.757 158.322 249.003 158.322C251.74 158.322 253.222 163.917 252.766 167.229C246.608 167.914 238.967 168.371 234.862 167.571C231.099 166.886 229.616 165.174 229.616 163.232C230.072 161.862 230.757 160.606 231.669 159.236C232.011 158.665 232.695 158.322 233.38 158.322Z" fill="#E2304D"/>
<path fill-rule="evenodd" clip-rule="evenodd" d="M74.5223 216.102L138.385 214.503V215.645L73.1538 219.756L74.5223 216.102Z" fill="#E2304D"/>
<path fill-rule="evenodd" clip-rule="evenodd" d="M98.9268 188.011C113.068 188.011 128.651 186.512 132.797 191.551C154.464 182.987 184.913 180.931 212.51 179.333H389.386C385.053 177.62 384.368 174.308 376.386 174.08C323.927 173.737 251.854 173.395 199.396 173.052C155.947 174.423 120.252 180.132 98.9268 188.011Z" fill="#E2304D"/>
<path fill-rule="evenodd" clip-rule="evenodd" d="M29.9331 198.174C50.1737 198.174 73.8253 198.174 87.2951 198.174C87.2951 198.745 87.2951 199.43 87.2951 200.001C70.2738 200.001 49.7203 200.001 29.9331 200.001C29.9331 199.43 29.9331 198.859 29.9331 198.174Z" fill="#E2304D"/>
<path fill-rule="evenodd" clip-rule="evenodd" d="M86.1547 231.973H101.322C102.348 231.973 103.147 232.772 103.147 233.8V236.541C103.147 237.568 102.348 238.368 101.322 238.368H86.1547C85.1284 238.368 84.3301 237.568 84.3301 236.541V233.8C84.4441 232.772 85.2424 231.973 86.1547 231.973Z" fill="#414042"/>
<path fill-rule="evenodd" clip-rule="evenodd" d="M88.6635 231.973H101.322C102.234 231.973 103.033 232.658 103.033 233.458V235.856C103.033 236.655 102.234 237.34 101.208 237.34H88.6635C87.6371 237.34 86.8389 236.655 86.8389 235.856V233.458C86.9529 232.658 87.6371 231.973 88.6635 231.973Z" fill="#EEE6D4"/>
<path fill-rule="evenodd" clip-rule="evenodd" d="M88.6635 231.973H101.322C102.234 231.973 103.033 232.658 103.033 233.458V233.914H86.8389V233.458C86.9529 232.658 87.6371 231.973 88.6635 231.973Z" fill="#D2C8AD"/>
<path fill-rule="evenodd" clip-rule="evenodd" d="M17.7305 231.973H28.9064C29.9327 231.973 30.731 232.772 30.731 233.8V236.541C30.731 237.568 29.9327 238.368 28.9064 238.368H18.8709L19.7832 237.226C20.6955 236.198 19.0989 233.229 18.8709 232.087L17.7305 231.973Z" fill="#414042"/>
<path fill-rule="evenodd" clip-rule="evenodd" d="M18.8711 231.973H29.0206C29.9329 231.973 30.6172 232.658 30.6172 233.458V235.856C30.6172 236.655 29.9329 237.34 29.0206 237.34H19.6694C19.4413 235.627 19.2132 233.8 18.8711 231.973Z" fill="#EEE6D4"/>
<path fill-rule="evenodd" clip-rule="evenodd" d="M18.8711 231.973H29.0206C29.9329 231.973 30.6172 232.658 30.6172 233.458V233.914H19.2132C19.0992 233.229 18.9851 232.658 18.8711 231.973Z" fill="#D2C8AD"/>
<path fill-rule="evenodd" clip-rule="evenodd" d="M29.7046 201.486C50.0976 201.029 71.4068 201.486 84.5577 201.486C84.5577 202.056 84.5577 202.742 84.5577 203.313C67.024 203.313 49.1909 203.313 29.7046 203.313C29.7046 202.742 29.7046 202.056 29.7046 201.486Z" fill="#E2304D"/>
<path fill-rule="evenodd" clip-rule="evenodd" d="M278.996 140.052L283.102 172.253L288.575 172.139L282.873 139.481L278.996 140.052Z" fill="#EF1C31"/>
<path fill-rule="evenodd" clip-rule="evenodd" d="M280.365 139.252L284.699 173.623L290.059 173.509L284.243 138.681L280.365 139.252Z" fill="#EC5F6B"/>
<path fill-rule="evenodd" clip-rule="evenodd" d="M132.682 193.949C133.253 203.427 120.708 207.195 113.41 207.766C105.313 208.337 98.0142 208.451 89.4613 207.766C87.9787 207.652 85.5839 205.939 86.2682 204.454C95.6194 186.755 132.226 185.956 132.682 193.949Z" fill="#EF1C31"/>
<path fill-rule="evenodd" clip-rule="evenodd" d="M25.2574 189.038C27.8803 193.491 29.933 198.173 29.819 204.339C29.819 205.253 29.3629 206.052 28.5646 206.623C27.7663 207.194 26.7399 207.537 25.5995 207.422C22.4064 207.194 19.4414 207.422 16.3623 208.108C16.5904 206.052 17.0465 204.111 17.6167 202.398C19.2133 196.917 21.7222 192.578 25.2574 189.038Z" fill="#EF1C31"/>
<path fill-rule="evenodd" clip-rule="evenodd" d="M17.6167 202.399C19.0993 197.032 21.152 193.378 24.5732 189.724C26.968 194.177 28.3365 198.174 28.9067 204.34C29.2488 207.537 26.854 208.793 26.1697 208.679C22.8626 208.45 19.5554 207.537 16.3623 208.565C16.5904 206.395 16.9325 204.226 17.6167 202.399Z" fill="#EC5F6B"/>
<path fill-rule="evenodd" clip-rule="evenodd" d="M16.3623 207.994C19.5554 206.624 22.2924 206.053 25.4855 206.395C26.2838 206.51 26.968 206.281 27.5382 205.71C28.1084 205.139 28.3365 204.568 28.4505 203.769C28.4505 198.288 26.968 194.292 24.9153 190.295C20.9239 194.862 17.9589 201.942 16.3623 207.994Z" fill="#FFFCD5"/>
<path fill-rule="evenodd" clip-rule="evenodd" d="M16.7041 205.939C19.8972 204.683 22.9763 204.911 26.3975 205.368C27.1958 205.482 27.5379 205.368 28.1081 204.797C28.6783 204.226 28.3361 203.312 28.3361 202.513C28.4502 196.918 26.7396 193.721 24.8009 190.295C21.0376 194.292 18.4147 198.174 16.7041 205.939Z" fill="#EEE6D4"/>
<path fill-rule="evenodd" clip-rule="evenodd" d="M28.3362 200.686C27.6519 196.689 26.1694 192.807 24.5729 189.838C22.178 192.236 20.3534 194.976 18.7568 199.087C21.8359 199.772 24.6869 200.343 28.3362 200.686Z" fill="#D2C8AD"/>
<path fill-rule="evenodd" clip-rule="evenodd" d="M27.8805 197.146C28.3366 199.429 28.4507 201.942 28.2226 204.454C27.7664 204.91 27.1962 205.253 26.626 205.367C26.0558 205.253 25.5997 205.253 25.0295 205.139C23.3189 204.34 22.0645 201.942 22.0645 198.973C22.0645 195.547 23.661 192.807 25.8278 192.578C26.6261 194.063 27.3103 195.547 27.8805 197.146Z" fill="white"/>
<path fill-rule="evenodd" clip-rule="evenodd" d="M26.1698 194.52C26.3979 194.52 26.626 194.52 26.8541 194.634C27.1962 195.433 27.5383 196.347 27.8804 197.146C28.1085 198.63 28.3366 200.229 28.3366 201.942C27.7664 202.969 26.9681 203.54 26.1698 203.54C24.5733 203.54 23.3188 201.485 23.3188 198.973C23.3188 196.575 24.5733 194.52 26.1698 194.52Z" fill="#DAD9D4"/>
<path fill-rule="evenodd" clip-rule="evenodd" d="M30.8723 213.346L69.1765 213.35C70.6192 213.342 71.8528 214.491 71.8987 216.043L71.841 224.022C71.8502 225.467 70.5958 226.737 69.1532 226.745L30.849 226.741C29.4063 226.749 28.1727 225.601 28.1268 224.049L28.1845 216.069C28.2466 214.48 29.3929 213.246 30.8723 213.346Z" fill="#EAEEF0"/>
<path fill-rule="evenodd" clip-rule="evenodd" d="M31.8168 214.352L67.957 214.368C69.039 214.362 69.9809 215.006 70.2749 215.871C69.804 215.549 69.2618 215.372 68.6485 215.339L32.5083 215.323C31.1736 215.294 29.9537 216.312 29.9973 217.503L30.004 224.255C29.9696 224.508 30.0798 224.832 30.1533 225.048C29.6456 224.618 29.3172 224.006 29.3493 223.392L29.3426 216.64C29.3702 215.304 30.4821 214.323 31.8168 214.352Z" fill="#B2C7CF"/>
<path fill-rule="evenodd" clip-rule="evenodd" d="M239.88 141.65C229.617 149.301 221.862 158.436 211.256 165.858C184.571 160.377 152.07 160.834 130.516 162.889C155.605 148.159 209.546 137.882 239.88 141.65Z" fill="#ADE3E3"/>
<path fill-rule="evenodd" clip-rule="evenodd" d="M211.256 165.858C210.8 165.744 210.458 165.744 210.002 165.63L208.748 165.402C207.949 165.288 207.037 165.059 206.239 164.945H206.125L204.87 164.717H204.756L203.502 164.488C202.703 164.374 202.019 164.26 201.221 164.146H200.993H200.879H200.651C199.852 164.031 199.054 163.917 198.256 163.803L197.115 163.689L195.975 163.575H195.861L194.949 163.461L194.378 163.346L193.238 163.232H193.124C192.326 163.118 191.413 163.004 190.615 163.004H190.501L189.703 162.89H189.133L188.334 162.775H187.878L186.966 162.661H186.624L185.369 162.547C184.115 162.433 182.86 162.319 181.606 162.319H181.264H180.352H180.009H179.667H179.439H178.413H177.843H177.044H176.588H175.79H174.65H174.536H173.623H173.053H172.141H171.799H171H170.43H169.29H168.72H168.491H167.465H167.237H166.211H165.869H164.956H164.386H163.474H163.246H162.219H161.649H160.965H160.395H159.824C159.026 162.319 158.228 162.319 157.43 162.319H156.175C154.921 162.319 153.78 162.319 152.64 162.433H152.412C151.614 162.433 150.929 162.433 150.131 162.547H150.017C149.219 162.547 148.42 162.547 147.736 162.661C141.692 162.89 136.104 163.346 131.086 163.803C143.973 157.865 164.728 151.928 184.685 148.73C203.16 146.675 219.125 146.332 233.95 147.017C226.538 152.727 219.809 159.807 211.256 165.858Z" fill="#9AC7C7"/>
<path fill-rule="evenodd" clip-rule="evenodd" d="M321.761 241.679L200.879 241.337L200.537 237.683L322.103 237.226L321.761 241.679Z" fill="#E2304D"/>
<path fill-rule="evenodd" clip-rule="evenodd" d="M224.256 171.796C228.818 193.263 229.274 223.866 223.8 244.305C243.643 244.305 259.951 244.305 279.794 244.305C288.005 230.717 294.847 215.302 296.101 193.948C296.9 184.471 290.514 176.706 284.241 172.024L224.256 171.796Z" fill="#EF1C31"/>
<path fill-rule="evenodd" clip-rule="evenodd" d="M225.283 172.024C230.073 191.893 231.099 222.496 224.941 244.306C244.214 244.306 258.925 244.306 278.198 244.306C284.356 222.267 296.102 180.132 283.215 172.253L225.283 172.024Z" fill="#EC5F6B"/>
<path fill-rule="evenodd" clip-rule="evenodd" d="M226.766 179.332H289.944C288.347 177.163 286.637 175.336 284.698 173.737L225.511 173.166C225.853 174.879 226.31 177.048 226.766 179.332Z" fill="#6EB8C0"/>
<path fill-rule="evenodd" clip-rule="evenodd" d="M284.355 171.911C295.987 185.613 285.382 220.441 278.197 244.306H322.559C320.05 220.098 329.971 202.171 342.06 193.721C342.858 184.471 336.7 176.821 330.656 172.139L284.355 171.911Z" fill="#EF1C31"/>
<path fill-rule="evenodd" clip-rule="evenodd" d="M284.812 172.253C296.9 182.187 287.321 220.326 279.794 244.306H321.19C318.681 220.098 328.375 202.17 340.577 193.72C341.375 184.471 335.217 176.82 329.173 172.139H284.812V172.253Z" fill="#EC5F6B"/>
<path fill-rule="evenodd" clip-rule="evenodd" d="M198.509 193.009C219.339 193.009 236.36 193.009 257.19 193.009C284.731 193.009 312.567 193.009 340.258 193.009C340.258 193.351 337.167 196.287 337.167 196.629L257.192 194.151H198.509V193.009Z" fill="#E2304D"/>
<path fill-rule="evenodd" clip-rule="evenodd" d="M284.356 185.841L284.584 186.755C285.04 188.468 283.9 189.838 282.303 189.838H276.829C275.119 189.838 273.408 188.468 273.066 186.755L272.838 185.841H284.356Z" fill="#EF1C31"/>
<path fill-rule="evenodd" clip-rule="evenodd" d="M270.557 183.329H284.242C284.584 183.329 285.04 183.672 285.04 184.014L285.382 185.27C285.496 185.613 285.268 185.955 284.926 185.955H271.241C270.899 185.955 270.443 185.613 270.443 185.27L270.101 184.014C269.987 183.557 270.215 183.329 270.557 183.329Z" fill="#E2304D"/>
<path fill-rule="evenodd" clip-rule="evenodd" d="M333.735 185.841L333.963 186.755C334.419 188.468 333.279 189.838 331.682 189.838H326.208C324.498 189.838 322.787 188.468 322.445 186.755L322.217 185.841H333.735Z" fill="#EF1C31"/>
<path fill-rule="evenodd" clip-rule="evenodd" d="M319.937 183.329H333.622C333.964 183.329 334.42 183.672 334.42 184.014L334.762 185.27C334.876 185.613 334.648 185.955 334.306 185.955H320.621C320.279 185.955 319.823 185.613 319.823 185.27L319.481 184.014C319.367 183.557 319.595 183.329 319.937 183.329Z" fill="#E2304D"/>
<path fill-rule="evenodd" clip-rule="evenodd" d="M289.146 179.333H336.13C334.648 177.277 332.823 175.336 330.998 173.738C316.401 173.623 301.234 173.623 286.181 173.509C287.435 174.994 288.461 176.935 289.146 179.333Z" fill="#E2304D"/>
<path fill-rule="evenodd" clip-rule="evenodd" d="M226.766 179.332H288.119C287.663 176.592 286.408 174.993 284.698 173.509C264.399 173.394 244.214 173.28 225.511 173.166C225.967 175.107 226.424 177.163 226.766 179.332Z" fill="#E2304D"/>
<path fill-rule="evenodd" clip-rule="evenodd" d="M320.963 241.679L280.593 241.565C281.049 240.195 281.391 238.825 281.847 237.34L320.735 237.226C320.849 238.711 320.849 240.195 320.963 241.679Z" fill="#E2304D"/>
<path fill-rule="evenodd" clip-rule="evenodd" d="M278.882 241.565L225.625 241.451C225.967 240.195 226.195 238.939 226.537 237.569L280.136 237.34C279.68 238.825 279.224 240.195 278.882 241.565Z" fill="#E2304D"/>
<path fill-rule="evenodd" clip-rule="evenodd" d="M382.088 215.759H392.922C397.711 216.672 399.422 218.271 399.878 219.641L383.456 221.126L382.088 215.759Z" fill="#E2304D"/>
<path fill-rule="evenodd" clip-rule="evenodd" d="M132.683 193.72C133.139 202.741 121.165 206.395 114.209 206.852C106.454 207.423 99.4976 207.537 91.2867 206.852C89.8042 206.737 87.5234 205.025 88.3216 203.654C97.2168 186.754 132.227 186.069 132.683 193.72Z" fill="#58595B"/>
<path fill-rule="evenodd" clip-rule="evenodd" d="M133.158 193.521C133.697 202.497 121.627 206.124 114.649 206.732C106.906 207.356 99.8685 207.557 91.5896 206.916C90.1085 206.845 87.7284 205.211 88.5165 203.815C97.3073 186.879 132.645 185.821 133.158 193.521Z" fill="#FFFCD5"/>
<path fill-rule="evenodd" clip-rule="evenodd" d="M133.159 193.521C133.238 194.949 133.009 196.231 132.525 197.518C129.102 202.339 120.983 204.555 115.633 204.924C107.89 205.548 100.853 205.749 92.5738 205.108C91.2446 204.983 89.0216 203.549 89.4028 202.213C99.4996 186.781 132.651 186.076 133.159 193.521Z" fill="#EEE6D4"/>
<path fill-rule="evenodd" clip-rule="evenodd" d="M133.158 193.521C133.169 194.032 133.179 194.542 133.14 195.156C126.67 198.153 117.32 200.037 106.81 200.107C101.607 200.167 96.6483 199.711 92.1946 198.988C104.551 186.776 132.715 186.739 133.158 193.521Z" fill="#D2C8AD"/>
<path fill-rule="evenodd" clip-rule="evenodd" d="M133.158 193.521C133.558 200.661 125.98 204.397 119.326 205.917C120.171 202.274 121.727 198.462 123.743 194.742C124.776 192.831 126.015 191.017 127.259 189.459C130.693 190.203 133.068 191.582 133.158 193.521Z" fill="#FBD55B"/>
<path fill-rule="evenodd" clip-rule="evenodd" d="M133.158 193.521C133.238 194.949 133.009 196.231 132.525 197.518C129.895 201.199 124.581 203.355 119.806 204.376C120.661 201.243 122.026 198.099 123.798 194.895C124.831 192.983 126.07 191.17 127.314 189.611C130.693 190.203 133.068 191.583 133.158 193.521Z" fill="#F58220"/>
<path fill-rule="evenodd" clip-rule="evenodd" d="M133.158 193.521C133.168 194.031 133.179 194.542 133.14 195.156C129.954 196.551 126.203 197.805 121.933 198.56C122.52 197.322 123.107 196.084 123.846 194.791C124.879 192.88 126.118 191.066 127.362 189.508C130.693 190.203 133.068 191.583 133.158 193.521Z" fill="#D7662C"/>
<path fill-rule="evenodd" clip-rule="evenodd" d="M111.083 191.897C113.481 191.897 115.431 194.97 115.509 198.798C115.483 202.578 113.608 205.733 111.21 205.732C108.812 205.732 106.862 202.659 106.784 198.831C106.81 195.051 108.685 191.897 111.083 191.897Z" fill="white"/>
<path fill-rule="evenodd" clip-rule="evenodd" d="M111.124 193.939C112.757 193.955 114.28 196.067 114.233 198.826C114.236 201.481 112.905 203.756 111.168 203.691C109.535 203.675 108.013 201.562 108.059 198.804C108.105 196.045 109.491 193.922 111.124 193.939Z" fill="#DAD9D4"/>
<path d="M127.406 187.266C127.406 187.266 122.077 187.046 121.756 186.79C121.434 186.535 120.015 181.401 120.015 181.401C120.015 181.401 119.797 186.813 119.546 187.14C119.295 187.466 114.24 188.908 114.24 188.908C114.24 188.908 119.489 189.065 119.801 189.248C120.123 189.503 121.631 194.774 121.631 194.774C121.631 194.774 121.849 189.361 122.1 189.035C122.279 188.717 127.406 187.266 127.406 187.266Z" fill="#F6F6F5"/>
<path d="M123.32 204.524C123.32 204.524 125.129 202.554 125.331 202.514C125.533 202.473 127.959 203.592 127.959 203.592C127.959 203.592 125.956 201.756 125.912 201.554C125.869 201.353 126.953 198.949 126.953 198.949C126.953 198.949 125.194 200.909 125.023 200.97C124.821 201.01 122.313 199.881 122.313 199.881C122.313 199.881 124.316 201.717 124.36 201.919C124.424 202.09 123.32 204.524 123.32 204.524Z" fill="#F6F6F5"/>
<g style="mix-blend-mode:soft-light" opacity="0.65">
<path fill-rule="evenodd" clip-rule="evenodd" d="M320.151 233.556L204.301 233.286V232.204L320.151 224.867V233.556Z" fill="white"/>
</g>
</svg>
