<svg width="431" height="289" viewBox="0 0 431 289" fill="none" xmlns="http://www.w3.org/2000/svg">
<path fill-rule="evenodd" clip-rule="evenodd" d="M251.989 196.797C271.429 196.217 279.991 209.31 280.107 231.439C280.107 253.453 264.255 267.472 247.824 266.082C231.393 264.691 218.549 250.556 219.706 231.439C220.863 212.322 232.55 197.376 251.989 196.797Z" fill="#231F20"/>
<path fill-rule="evenodd" clip-rule="evenodd" d="M260.437 200.968C270.504 200.968 278.488 211.859 279.992 226.458C280.108 228.08 280.108 229.702 280.108 231.44C280.108 250.441 268.305 265.155 254.651 265.734C244.353 263.649 237.063 249.977 237.758 233.525C238.568 215.567 248.75 200.968 260.437 200.968Z" fill="#383431"/>
<path fill-rule="evenodd" clip-rule="evenodd" d="M260.553 205.021C270.041 205.021 279.066 216.838 276.984 234.217C274.901 251.597 266.107 258.896 257.776 259.823C249.445 260.865 240.998 248.005 241.692 233.406C242.27 218.924 251.064 205.021 260.553 205.021Z" fill="#A7A9AC"/>
<path fill-rule="evenodd" clip-rule="evenodd" d="M260.435 208.958C268.651 208.958 276.288 219.154 274.552 234.1C272.816 249.046 265.179 255.302 258.005 256.113C250.831 256.924 243.657 245.918 244.236 233.405C244.699 220.892 252.22 208.958 260.435 208.958Z" fill="#6D6E71"/>
<path fill-rule="evenodd" clip-rule="evenodd" d="M78.5402 196.797C97.9795 196.217 106.542 209.31 106.658 231.439C106.658 253.453 90.8055 267.472 74.3746 266.082C57.9438 264.691 45.0999 250.556 46.257 231.439C47.4141 212.322 59.1009 197.376 78.5402 196.797Z" fill="#231F20"/>
<path fill-rule="evenodd" clip-rule="evenodd" d="M86.9866 200.969C97.0534 200.969 105.037 211.86 106.542 226.459C106.657 228.081 106.657 229.703 106.657 231.441C106.657 250.442 94.8549 265.156 81.2011 265.735C70.9029 263.65 63.6132 249.978 64.3074 233.526C65.1174 215.568 75.2999 200.969 86.9866 200.969Z" fill="#383431"/>
<path fill-rule="evenodd" clip-rule="evenodd" d="M87.103 205.021C96.5912 205.021 105.617 216.838 103.534 234.217C101.451 251.597 92.6571 258.896 84.3259 259.823C75.9948 260.865 67.548 248.005 68.2422 233.406C68.8208 218.924 77.499 205.021 87.103 205.021Z" fill="#A7A9AC"/>
<path fill-rule="evenodd" clip-rule="evenodd" d="M86.9861 208.958C95.2016 208.958 102.838 219.154 101.103 234.1C99.3672 249.046 91.7303 255.302 84.5562 256.113C77.3822 256.924 70.2082 245.918 70.7867 233.405C71.2495 220.892 78.7707 208.958 86.9861 208.958Z" fill="#6D6E71"/>
<path fill-rule="evenodd" clip-rule="evenodd" d="M107.583 250.093H340.045C350.112 248.703 379.271 247.312 389.338 245.922C401.487 201.663 369.088 189.614 346.178 178.259H96.822L35.0327 245.922C52.8521 249.398 83.3996 250.093 107.583 250.093Z" fill="#58595B"/>
<path fill-rule="evenodd" clip-rule="evenodd" d="M169.487 196.792C188.926 196.213 197.489 209.305 197.605 231.435C197.605 253.448 181.752 267.468 165.321 266.077C148.891 264.687 136.047 250.552 137.204 231.435C138.477 212.318 150.048 197.372 169.487 196.792Z" fill="#231F20"/>
<path fill-rule="evenodd" clip-rule="evenodd" d="M177.933 200.965C188 200.965 195.984 211.856 197.488 226.454C197.604 228.076 197.604 229.698 197.604 231.436C197.604 250.437 185.802 265.152 172.148 265.731C161.85 263.646 154.56 249.974 155.254 233.522C156.064 215.563 166.247 200.965 177.933 200.965Z" fill="#414042"/>
<path fill-rule="evenodd" clip-rule="evenodd" d="M178.05 205.019C187.538 205.019 196.563 216.836 194.481 234.215C192.398 251.595 183.604 258.894 175.273 259.821C166.942 260.863 158.495 248.003 159.189 233.404C159.883 218.922 168.562 205.019 178.05 205.019Z" fill="#E2E3E4"/>
<path fill-rule="evenodd" clip-rule="evenodd" d="M178.049 205.019C183.488 205.019 188.811 208.842 191.935 215.33C192.86 219.154 193.092 223.44 192.513 228.191C190.43 245.222 181.636 252.29 173.305 253.333C168.33 253.912 163.239 249.625 160.114 243.021C159.304 239.893 158.957 236.533 159.073 233.057C159.883 218.69 168.561 205.019 178.049 205.019Z" fill="#BCBEC0"/>
<path fill-rule="evenodd" clip-rule="evenodd" d="M173.999 244.644C173.652 247.888 173.652 251.943 173.189 255.071C175.504 255.071 177.702 254.145 179.669 252.523C179.554 249.742 177.471 246.614 175.041 244.296C174.809 244.065 174.578 244.065 174.347 244.181C174.231 244.181 173.999 244.412 173.999 244.644Z" fill="#A7A9AC"/>
<path fill-rule="evenodd" clip-rule="evenodd" d="M179.207 238.042C179.322 239.085 182.215 243.835 183.719 245.226C183.835 245.341 184.066 245.457 184.298 245.341C184.529 245.341 184.645 245.11 184.761 244.994C185.571 243.024 186.265 240.823 186.728 238.39C186.843 238.042 186.612 237.81 186.381 237.695C183.719 236.652 181.405 236.652 179.669 237.463C179.322 237.579 179.207 237.81 179.207 238.042Z" fill="#A7A9AC"/>
<path fill-rule="evenodd" clip-rule="evenodd" d="M180.362 230.395C182.792 230.742 185.338 230.974 187.652 231.554C187.768 228.425 187.536 225.645 186.958 223.096C183.371 225.876 180.594 228.541 180.362 230.395Z" fill="#A7A9AC"/>
<path fill-rule="evenodd" clip-rule="evenodd" d="M177.933 211.509L176.776 220.431C176.776 220.662 176.892 220.894 177.007 221.01C177.239 221.126 177.47 221.242 177.586 221.126C179.784 220.315 181.751 218.577 183.487 216.375C183.719 216.144 183.719 215.796 183.487 215.564C182.099 213.479 180.479 211.973 178.627 211.046C178.396 210.93 178.164 210.93 178.049 211.046C178.164 211.162 178.049 211.278 177.933 211.509Z" fill="#A7A9AC"/>
<path fill-rule="evenodd" clip-rule="evenodd" d="M165.089 217.42L170.296 222.054C172.379 221.706 174.346 211.279 172.032 210.815C168.214 210.12 166.362 213.712 164.858 216.608C164.858 216.956 164.858 217.304 165.089 217.42Z" fill="#A7A9AC"/>
<path fill-rule="evenodd" clip-rule="evenodd" d="M163.006 223.791C164.626 225.761 166.014 227.962 165.899 230.395C165.783 233.06 163.122 234.219 161.155 235.493C160.923 235.609 160.692 235.609 160.576 235.493C160.345 235.377 160.229 235.262 160.229 235.03C159.766 231.902 161.155 226.688 161.965 224.023C162.08 223.791 162.196 223.675 162.427 223.56C162.659 223.444 162.89 223.56 163.006 223.791Z" fill="#A7A9AC"/>
<path fill-rule="evenodd" clip-rule="evenodd" d="M165.552 251.018C168.329 247.194 169.023 244.645 167.866 239.779C166.94 238.621 163.932 241.517 161.733 242.907C161.502 243.023 161.386 243.371 161.386 243.603C162.08 246.383 163.122 248.816 164.51 251.018C164.626 251.249 164.858 251.365 165.089 251.365C165.205 251.365 165.32 251.249 165.552 251.018Z" fill="#A7A9AC"/>
<path fill-rule="evenodd" clip-rule="evenodd" d="M173.883 245.804C173.652 248.816 173.536 252.292 173.189 254.957C173.652 254.957 173.999 254.957 174.346 254.841C175.387 254.377 176.429 253.798 177.47 252.987C177.47 250.67 175.85 248.005 173.883 245.804Z" fill="#58595B"/>
<path fill-rule="evenodd" clip-rule="evenodd" d="M179.206 238.042C179.322 238.969 181.405 242.561 183.024 244.414C183.603 242.792 184.182 240.939 184.529 238.853C184.644 238.505 184.413 238.274 184.182 238.158C182.562 237.463 180.942 237.231 179.553 237.347C179.322 237.579 179.206 237.81 179.206 238.042Z" fill="#58595B"/>
<path fill-rule="evenodd" clip-rule="evenodd" d="M180.363 230.393C182.099 230.625 183.835 230.857 185.455 231.089C185.455 228.771 185.339 226.686 184.992 224.716C182.446 226.918 180.595 228.887 180.363 230.393Z" fill="#58595B"/>
<path fill-rule="evenodd" clip-rule="evenodd" d="M177.933 212.319L176.892 220.429C176.892 220.661 176.892 220.893 177.124 221.008C178.743 220.082 180.132 218.691 181.636 216.953C181.868 216.722 181.868 216.374 181.636 216.142C180.479 214.52 179.206 213.246 177.933 212.319Z" fill="#58595B"/>
<path fill-rule="evenodd" clip-rule="evenodd" d="M165.09 217.418L169.487 221.241C170.991 218.345 171.801 211.741 169.95 211.393C169.602 211.277 169.255 211.277 169.024 211.277C167.172 212.32 166.015 214.637 164.974 216.607C164.858 216.955 164.858 217.302 165.09 217.418Z" fill="#58595B"/>
<path fill-rule="evenodd" clip-rule="evenodd" d="M160.229 235.26C160.229 235.144 160.114 235.144 160.114 235.028C159.766 232.248 160.692 228.077 161.502 225.296C162.775 227.034 163.816 229.003 163.701 230.973C163.585 233.059 161.849 234.217 160.229 235.26Z" fill="#58595B"/>
<path fill-rule="evenodd" clip-rule="evenodd" d="M165.553 240.244C164.396 241.055 162.891 242.213 161.734 242.908C161.503 243.024 161.387 243.372 161.387 243.604C162.081 246.153 163.007 248.47 164.164 250.555C166.247 247.311 166.71 244.878 165.669 240.475C165.553 240.36 165.553 240.244 165.553 240.244Z" fill="#58595B"/>
<path fill-rule="evenodd" clip-rule="evenodd" d="M172.264 227.956C171.338 228.535 170.76 230.157 170.76 232.011C170.76 234.328 171.801 236.182 173.19 236.298C172.958 236.414 172.611 236.53 172.38 236.53C170.991 236.53 169.95 234.676 169.95 232.243C169.834 229.81 170.991 227.956 172.264 227.956Z" fill="#A7A9AC"/>
<path fill-rule="evenodd" clip-rule="evenodd" d="M173.537 234.909C174.462 234.909 175.157 233.635 175.157 232.013C175.157 230.391 174.462 229.116 173.537 229.116C172.611 229.116 171.917 230.391 171.917 232.013C171.801 233.635 172.611 234.909 173.537 234.909Z" fill="#A7A9AC"/>
<path fill-rule="evenodd" clip-rule="evenodd" d="M17.6759 203.401C20.3372 193.901 25.8913 188.571 30.7512 185.327C58.1745 175.826 98.4417 169.338 126.212 164.124C162.43 162.155 200.961 162.734 226.649 167.832C208.829 186.833 178.282 164.935 150.396 190.888C166.479 202.938 108.624 235.726 101.797 245.922H20.5686C20.1058 244.068 19.5273 241.983 19.0644 239.781H20.1058C19.643 237.58 19.4116 235.379 18.9487 233.409H17.6759C15.8245 223.213 15.0146 211.396 17.6759 203.401Z" fill="#FFD705"/>
<path fill-rule="evenodd" clip-rule="evenodd" d="M357.286 196.792C376.725 196.213 385.288 209.305 385.403 231.435C385.403 253.448 369.551 267.468 353.12 266.077C336.689 264.687 323.846 250.552 325.003 231.435C326.16 212.318 337.847 197.372 357.286 196.792Z" fill="#231F20"/>
<path fill-rule="evenodd" clip-rule="evenodd" d="M365.733 200.965C375.799 200.965 383.783 211.856 385.288 226.454C385.403 228.076 385.403 229.698 385.403 231.436C385.403 250.437 373.601 265.152 359.947 265.731C349.649 263.646 342.359 249.974 343.054 233.522C343.863 215.563 354.046 200.965 365.733 200.965Z" fill="#414042"/>
<path fill-rule="evenodd" clip-rule="evenodd" d="M365.849 205.019C375.337 205.019 384.363 216.836 382.28 234.215C380.197 251.595 371.403 258.894 363.072 259.821C354.741 260.863 346.294 248.003 346.988 233.404C347.683 218.922 356.361 205.019 365.849 205.019Z" fill="#E2E3E4"/>
<path fill-rule="evenodd" clip-rule="evenodd" d="M365.848 205.019C371.287 205.019 376.609 208.842 379.734 215.33C380.659 219.154 380.891 223.44 380.312 228.191C378.229 245.222 369.435 252.29 361.104 253.333C356.129 253.912 351.037 249.625 347.913 243.021C347.103 239.893 346.756 236.533 346.872 233.057C347.682 218.69 356.36 205.019 365.848 205.019Z" fill="#BCBEC0"/>
<path fill-rule="evenodd" clip-rule="evenodd" d="M361.798 244.644C361.451 247.888 361.451 251.943 360.988 255.071C363.302 255.071 365.501 254.145 367.468 252.523C367.352 249.742 365.27 246.614 362.84 244.296C362.608 244.065 362.377 244.065 362.145 244.181C362.03 244.181 361.798 244.412 361.798 244.644Z" fill="#A7A9AC"/>
<path fill-rule="evenodd" clip-rule="evenodd" d="M367.004 238.042C367.12 239.085 370.013 243.835 371.517 245.226C371.633 245.341 371.864 245.457 372.096 245.341C372.327 245.341 372.443 245.11 372.558 244.994C373.368 243.024 374.063 240.823 374.526 238.39C374.641 238.042 374.41 237.81 374.178 237.695C371.517 236.652 369.203 236.652 367.467 237.463C367.12 237.579 367.004 237.81 367.004 238.042Z" fill="#A7A9AC"/>
<path fill-rule="evenodd" clip-rule="evenodd" d="M368.164 230.395C370.593 230.742 373.139 230.974 375.453 231.554C375.569 228.425 375.338 225.645 374.759 223.096C371.172 225.876 368.395 228.541 368.164 230.395Z" fill="#A7A9AC"/>
<path fill-rule="evenodd" clip-rule="evenodd" d="M365.733 211.509L364.576 220.431C364.576 220.662 364.692 220.894 364.808 221.01C365.039 221.126 365.27 221.242 365.386 221.126C367.585 220.315 369.552 218.577 371.287 216.375C371.519 216.144 371.519 215.796 371.287 215.564C369.899 213.479 368.279 211.973 366.428 211.046C366.196 210.93 365.965 210.93 365.849 211.046C365.965 211.162 365.849 211.278 365.733 211.509Z" fill="#A7A9AC"/>
<path fill-rule="evenodd" clip-rule="evenodd" d="M352.89 217.42L358.097 222.054C360.179 221.706 362.146 211.279 359.832 210.815C356.014 210.12 354.162 213.712 352.658 216.608C352.542 216.956 352.658 217.304 352.89 217.42Z" fill="#A7A9AC"/>
<path fill-rule="evenodd" clip-rule="evenodd" d="M350.806 223.791C352.426 225.761 353.814 227.962 353.699 230.395C353.583 233.06 350.922 234.219 348.954 235.493C348.723 235.609 348.492 235.609 348.376 235.493C348.144 235.377 348.029 235.262 348.029 235.03C347.566 231.902 348.954 226.688 349.764 224.023C349.88 223.791 349.996 223.675 350.227 223.56C350.459 223.444 350.69 223.56 350.806 223.791Z" fill="#A7A9AC"/>
<path fill-rule="evenodd" clip-rule="evenodd" d="M353.351 251.018C356.128 247.194 356.822 244.645 355.665 239.779C354.74 238.621 351.731 241.517 349.533 242.907C349.301 243.023 349.186 243.371 349.186 243.603C349.88 246.383 351.037 248.816 352.31 251.018C352.425 251.249 352.657 251.365 352.888 251.365C353.004 251.365 353.12 251.249 353.351 251.018Z" fill="#A7A9AC"/>
<path fill-rule="evenodd" clip-rule="evenodd" d="M361.682 245.804C361.451 248.816 361.335 252.292 360.988 254.957C361.451 254.957 361.798 254.957 362.145 254.841C363.186 254.377 364.228 253.798 365.269 252.987C365.269 250.67 363.649 248.005 361.682 245.804Z" fill="#58595B"/>
<path fill-rule="evenodd" clip-rule="evenodd" d="M367.004 238.04C367.12 238.966 369.203 242.558 370.823 244.412C371.401 242.79 371.98 240.936 372.327 238.851C372.443 238.503 372.211 238.271 371.98 238.155C370.36 237.46 368.74 237.229 367.352 237.344C367.12 237.576 367.004 237.808 367.004 238.04Z" fill="#58595B"/>
<path fill-rule="evenodd" clip-rule="evenodd" d="M368.162 230.393C369.897 230.625 371.633 230.857 373.253 231.089C373.253 228.771 373.137 226.686 372.79 224.716C370.244 226.918 368.393 228.887 368.162 230.393Z" fill="#58595B"/>
<path fill-rule="evenodd" clip-rule="evenodd" d="M365.731 212.318L364.689 220.429C364.689 220.66 364.689 220.892 364.921 221.008C366.541 220.081 367.929 218.691 369.434 216.953C369.665 216.721 369.665 216.373 369.434 216.142C368.276 214.52 367.004 213.245 365.731 212.318Z" fill="#58595B"/>
<path fill-rule="evenodd" clip-rule="evenodd" d="M352.888 217.418L357.285 221.241C358.789 218.345 359.599 211.741 357.748 211.393C357.401 211.277 357.053 211.277 356.822 211.277C354.971 212.32 353.814 214.637 352.772 216.607C352.541 216.955 352.656 217.302 352.888 217.418Z" fill="#58595B"/>
<path fill-rule="evenodd" clip-rule="evenodd" d="M348.028 235.26C348.028 235.144 347.912 235.144 347.912 235.028C347.565 232.248 348.491 228.077 349.301 225.296C350.574 227.034 351.615 229.003 351.499 230.973C351.384 233.059 349.648 234.217 348.028 235.26Z" fill="#58595B"/>
<path fill-rule="evenodd" clip-rule="evenodd" d="M353.236 240.241C352.079 241.052 350.575 242.211 349.417 242.906C349.186 243.022 349.07 243.369 349.07 243.601C349.765 246.15 350.69 248.467 351.847 250.553C353.93 247.309 354.393 244.876 353.352 240.473C353.352 240.357 353.352 240.241 353.236 240.241Z" fill="#58595B"/>
<path fill-rule="evenodd" clip-rule="evenodd" d="M360.062 227.956C359.136 228.535 358.558 230.157 358.558 232.011C358.558 234.328 359.599 236.182 360.988 236.298C360.756 236.414 360.409 236.53 360.178 236.53C358.789 236.53 357.748 234.676 357.748 232.243C357.632 229.81 358.789 227.956 360.062 227.956Z" fill="#A7A9AC"/>
<path fill-rule="evenodd" clip-rule="evenodd" d="M361.336 234.909C362.262 234.909 362.956 233.635 362.956 232.013C362.956 230.391 362.262 229.116 361.336 229.116C360.41 229.116 359.716 230.391 359.716 232.013C359.6 233.635 360.41 234.909 361.336 234.909Z" fill="#A7A9AC"/>
<path fill-rule="evenodd" clip-rule="evenodd" d="M84.2094 206.297C108.046 170.032 201.424 170.727 213.921 172.118C207.557 163.081 160.578 163.081 123.667 164.587C136.973 155.55 156.066 143.616 180.596 136.549C196.333 132.03 225.723 132.378 245.394 133.073C275.71 134.231 312.043 136.433 330.788 142.11C341.433 145.354 352.773 160.416 357.401 167.368C361.567 173.624 384.593 170.727 392.462 175.825C403.686 183.125 402.991 197.839 401.487 215.681C409.587 216.608 407.967 227.499 400.561 242.793C397.784 242.793 389.916 245.805 387.139 245.805C395.123 167.136 327.201 185.789 331.019 245.805C298.736 245.805 233.013 245.805 200.614 245.805C213.921 171.423 145.652 164.703 141.486 245.805H113.021C104.806 230.859 131.651 210.468 108.624 210.699C83.6309 211.047 82.9366 208.266 84.2094 206.297Z" fill="url(#paint0_linear_55706_528529)"/>
<path fill-rule="evenodd" clip-rule="evenodd" d="M224.682 173.162C224.913 168.296 235.443 153.813 249.444 143.502C251.758 141.764 256.618 140.142 263.792 139.794C283.578 138.751 299.546 139.678 319.333 145.819C325.697 147.788 342.938 173.394 334.606 173.625C305.795 173.973 253.493 173.162 224.682 173.162Z" fill="#845423"/>
<path fill-rule="evenodd" clip-rule="evenodd" d="M125.287 226.687C114.641 234.797 104.459 242.096 101.913 245.919H20.5689C20.1061 244.066 19.5275 241.98 19.0647 239.779H20.1061C19.6432 237.577 19.4118 235.376 18.949 233.406H17.6762C17.329 231.205 16.9819 229.004 16.6348 226.802H125.287V226.687Z" fill="#B26D21"/>
<path fill-rule="evenodd" clip-rule="evenodd" d="M29.5941 210.582C45.6787 210.582 58.3264 210.697 80.2752 210.697C82.2423 205.252 87.6806 197.721 95.4332 192.16C72.3056 192.16 50.5376 192.16 28.0898 192.16C30.1726 196.215 31.5612 203.514 29.5941 210.582Z" fill="#58595B"/>
<path fill-rule="evenodd" clip-rule="evenodd" d="M26.4711 188.569C51.4645 188.453 89.0744 188.333 105.25 188.569C124.274 188.569 130.92 189.191 133.993 192.265L99.8314 189.844C84.2324 189.844 50.1917 189.844 25.314 189.844C25.6611 189.38 26.1239 189.033 26.4711 188.569Z" fill="#FEF5B6"/>
<path fill-rule="evenodd" clip-rule="evenodd" d="M113.831 231.788C111.748 235.032 112.095 238.971 111.401 242.331H19.5271C19.2957 241.52 19.0643 240.709 18.8329 239.898H19.99C19.5271 237.696 19.2957 235.495 18.8329 233.526H17.6758C17.56 233.062 17.4443 232.714 17.4443 232.251L113.831 231.788Z" fill="#58595B"/>
<path fill-rule="evenodd" clip-rule="evenodd" d="M20.4532 242.096H121.005C123.088 242.096 124.824 243.023 124.824 244.066C124.824 245.109 123.088 246.035 121.005 246.035H20.4532C18.3704 246.035 16.6348 245.109 16.6348 244.066C16.6348 242.907 18.3704 242.096 20.4532 242.096Z" fill="#FFD705"/>
<path fill-rule="evenodd" clip-rule="evenodd" d="M16.7507 212.089H84.6726C86.2925 212.089 87.6811 213.48 87.6811 215.102V225.298C87.6811 226.92 86.2925 228.31 84.6726 228.31H16.7507C15.1307 228.31 13.7422 226.92 13.7422 225.298V215.102C13.7422 213.48 15.1307 212.089 16.7507 212.089Z" fill="#F8AC1F"/>
<path fill-rule="evenodd" clip-rule="evenodd" d="M87.4492 226.687C86.9864 227.613 85.945 228.309 84.7879 228.309H16.7502C15.5931 228.309 14.5517 227.613 14.0889 226.687H87.4492Z" fill="#754C24"/>
<path fill-rule="evenodd" clip-rule="evenodd" d="M132.229 163.43C139.866 155.783 163.471 143.966 186.034 139.795C209.986 136.666 226.186 138.404 244.815 140.606C233.591 148.6 225.376 158.448 214.036 166.443C187.076 160.765 154.098 161.229 132.229 163.43Z" fill="#E8F6FF"/>
<path fill-rule="evenodd" clip-rule="evenodd" d="M227.343 172.351C227.575 167.832 237.641 154.393 250.948 144.776C253.147 143.154 257.775 141.648 264.602 141.3C283.463 140.373 298.737 141.184 317.597 146.862C323.614 148.715 340.161 172.467 332.061 172.699C304.638 173.162 254.767 172.351 227.343 172.351Z" fill="#829AB1"/>
<path fill-rule="evenodd" clip-rule="evenodd" d="M227.343 172.35C227.459 168.643 234.17 159.142 243.89 150.453C252.915 157.288 264.255 171.076 258.006 172.466C246.435 172.466 235.79 172.35 227.343 172.35Z" fill="#C0D8DA"/>
<path fill-rule="evenodd" clip-rule="evenodd" d="M266.568 141.183C284.503 140.372 299.43 141.298 317.597 146.86C321.762 148.134 330.903 159.836 333.565 167.02H288.553C284.156 167.02 278.487 163.428 276.172 158.909L266.568 141.183Z" fill="#C0D8DA"/>
<g style="mix-blend-mode:overlay">
<path fill-rule="evenodd" clip-rule="evenodd" d="M267.842 141.185C276.636 140.837 284.62 140.953 292.836 141.764L277.677 172.699C269.115 172.583 260.552 172.583 252.568 172.467L267.842 141.185Z" fill="#ABCEE1"/>
</g>
<g style="mix-blend-mode:overlay">
<path fill-rule="evenodd" clip-rule="evenodd" d="M298.737 142.575C304.291 143.386 309.845 144.661 315.746 146.399L302.787 172.815C296.654 172.815 290.29 172.815 283.926 172.699L298.737 142.575Z" fill="#ABCEE1"/>
</g>
<path fill-rule="evenodd" clip-rule="evenodd" d="M13.7422 214.521C32.7187 214.521 48.2239 214.521 67.2003 214.521C92.2894 214.521 117.649 214.521 142.875 214.521C142.875 214.869 142.875 215.332 142.875 215.68H67.2021H13.7422V214.521Z" fill="#A67C52"/>
<path fill-rule="evenodd" clip-rule="evenodd" d="M73.1021 226.802H139.057L137.321 231.437C111.402 227.729 95.3184 228.888 73.1021 227.961V226.802Z" fill="#754C24"/>
<path fill-rule="evenodd" clip-rule="evenodd" d="M234.286 160.531L237.873 172.349C234.286 172.349 230.815 172.349 227.228 172.349C227.459 169.8 229.31 165.397 234.286 160.531Z" fill="#576578"/>
<path fill-rule="evenodd" clip-rule="evenodd" d="M236.6 158.677C241.923 158.677 247.13 158.677 252.452 158.677C255.808 158.677 257.428 167.482 255.576 169.684C255.114 170.147 254.535 170.263 253.841 170.379C249.212 171.19 240.303 172.464 236.137 171.421C230.236 169.915 231.74 164.354 234.749 159.604C235.211 159.024 235.906 158.677 236.6 158.677Z" fill="#A67C52"/>
<path fill-rule="evenodd" clip-rule="evenodd" d="M236.6 158.677C241.922 158.677 247.129 158.677 252.452 158.677C255.229 158.677 256.733 164.354 256.27 167.714C250.022 168.409 242.269 168.872 238.104 168.061C234.285 167.366 232.781 165.628 232.781 163.659C233.244 162.268 233.938 160.994 234.864 159.604C235.211 159.024 235.905 158.677 236.6 158.677Z" fill="#FFD705"/>
<g opacity="0.8">
<path fill-rule="evenodd" clip-rule="evenodd" d="M75.4159 217.304L140.214 215.682V216.84L74.0273 221.011L75.4159 217.304Z" fill="#FFF7EA"/>
</g>
<path fill-rule="evenodd" clip-rule="evenodd" d="M100.178 188.802C114.526 188.802 130.338 187.282 134.544 192.394C156.529 183.704 187.423 181.619 215.425 179.997H394.892C390.495 178.259 389.801 174.899 381.701 174.667C328.474 174.32 255.345 173.972 202.118 173.625C158.033 175.015 121.816 180.808 100.178 188.802Z" fill="url(#paint1_linear_55706_528529)" fill-opacity="0.8"/>
<path fill-rule="evenodd" clip-rule="evenodd" d="M30.1724 199.113C50.7094 199.113 74.7075 199.113 88.3746 199.113C88.3746 199.692 88.3746 200.387 88.3746 200.967C71.1039 200.967 50.2494 200.967 30.1724 200.967C30.1724 200.387 30.1724 199.808 30.1724 199.113Z" fill="#CCD3E3"/>
<path fill-rule="evenodd" clip-rule="evenodd" d="M87.2181 233.407H102.608C103.649 233.407 104.459 234.218 104.459 235.26V238.041C104.459 239.084 103.649 239.895 102.608 239.895H87.2181C86.1767 239.895 85.3667 239.084 85.3667 238.041V235.26C85.4824 234.218 86.2924 233.407 87.2181 233.407Z" fill="#414042"/>
<path fill-rule="evenodd" clip-rule="evenodd" d="M89.764 233.407H102.608C103.533 233.407 104.343 234.102 104.343 234.913V237.346C104.343 238.157 103.533 238.852 102.492 238.852H89.764C88.7226 238.852 87.9126 238.157 87.9126 237.346V234.913C88.0283 234.102 88.7226 233.407 89.764 233.407Z" fill="#EEE6D4"/>
<path fill-rule="evenodd" clip-rule="evenodd" d="M89.764 233.407H102.608C103.533 233.407 104.343 234.102 104.343 234.913V235.376H87.9126V234.913C88.0283 234.102 88.7226 233.407 89.764 233.407Z" fill="#D2C8AD"/>
<path fill-rule="evenodd" clip-rule="evenodd" d="M17.792 233.407H29.1316C30.173 233.407 30.983 234.218 30.983 235.26V238.041C30.983 239.084 30.173 239.895 29.1316 239.895H18.9491L19.8748 238.736C20.8005 237.694 19.1805 234.681 18.9491 233.523L17.792 233.407Z" fill="#414042"/>
<path fill-rule="evenodd" clip-rule="evenodd" d="M18.9497 233.407H29.2479C30.1736 233.407 30.8679 234.102 30.8679 234.913V237.346C30.8679 238.157 30.1736 238.852 29.2479 238.852H19.7597C19.5283 237.114 19.2968 235.261 18.9497 233.407Z" fill="#EEE6D4"/>
<path fill-rule="evenodd" clip-rule="evenodd" d="M18.9497 233.407H29.2479C30.1736 233.407 30.8679 234.102 30.8679 234.913V235.376H19.2968C19.1811 234.681 19.0654 234.102 18.9497 233.407Z" fill="#D2C8AD"/>
<path fill-rule="evenodd" clip-rule="evenodd" d="M29.9409 202.473C50.6327 202.01 72.254 202.473 85.5976 202.473C85.5976 203.052 85.5976 203.747 85.5976 204.327C67.807 204.327 49.7126 204.327 29.9409 204.327C29.9409 203.747 29.9409 203.052 29.9409 202.473Z" fill="#CCD3E3"/>
<path fill-rule="evenodd" clip-rule="evenodd" d="M282.884 140.139L287.049 172.812L292.603 172.696L286.818 139.56L282.884 140.139Z" fill="#845423"/>
<path fill-rule="evenodd" clip-rule="evenodd" d="M284.273 139.33L288.67 174.204L294.108 174.088L288.207 138.75L284.273 139.33Z" fill="#FFB105"/>
<path fill-rule="evenodd" clip-rule="evenodd" d="M134.427 194.827C135.006 204.444 122.278 208.267 114.872 208.847C106.657 209.426 99.2515 209.542 90.5733 208.847C89.069 208.731 86.6391 206.993 87.3334 205.487C96.8216 187.528 133.965 186.717 134.427 194.827Z" fill="#754C24"/>
<path fill-rule="evenodd" clip-rule="evenodd" d="M25.4292 189.844C28.0906 194.363 30.1733 199.113 30.0576 205.37C30.0576 206.296 29.5948 207.108 28.7848 207.687C27.9748 208.266 26.9334 208.614 25.7763 208.498C22.5365 208.266 19.528 208.498 16.4038 209.193C16.6352 207.108 17.0981 205.138 17.6766 203.4C19.2966 197.839 21.8422 193.436 25.4292 189.844Z" fill="#754C24"/>
<path fill-rule="evenodd" clip-rule="evenodd" d="M17.6766 203.397C19.1809 197.952 21.2636 194.244 24.735 190.537C27.1649 195.055 28.5534 199.11 29.1319 205.367C29.4791 208.611 27.0492 209.885 26.3549 209.77C22.9993 209.538 19.6437 208.611 16.4038 209.654C16.6352 207.452 16.9824 205.251 17.6766 203.397Z" fill="#B26D21"/>
<path fill-rule="evenodd" clip-rule="evenodd" d="M16.4038 209.079C19.6437 207.689 22.4207 207.109 25.6606 207.457C26.4706 207.573 27.1649 207.341 27.7434 206.762C28.322 206.183 28.5534 205.603 28.6691 204.792C28.6691 199.231 27.1649 195.176 25.0821 191.121C21.0322 195.755 18.0238 202.938 16.4038 209.079Z" fill="#FFFCD5"/>
<path fill-rule="evenodd" clip-rule="evenodd" d="M16.75 206.994C19.9899 205.719 23.1141 205.951 26.5854 206.414C27.3953 206.53 27.7425 206.414 28.321 205.835C28.8996 205.256 28.5524 204.329 28.5524 203.518C28.6681 197.841 26.9325 194.596 24.9654 191.121C21.147 195.176 18.4857 199.115 16.75 206.994Z" fill="#EEE6D4"/>
<path fill-rule="evenodd" clip-rule="evenodd" d="M28.5527 201.661C27.8584 197.605 26.3542 193.666 24.7342 190.654C22.3043 193.087 20.453 195.868 18.833 200.039C21.9572 200.734 24.8499 201.313 28.5527 201.661Z" fill="#D2C8AD"/>
<path fill-rule="evenodd" clip-rule="evenodd" d="M28.0907 198.071C28.5535 200.388 28.6692 202.937 28.4378 205.486C27.975 205.949 27.3964 206.297 26.8179 206.413C26.2393 206.297 25.7765 206.297 25.1979 206.181C23.4623 205.37 22.1895 202.937 22.1895 199.925C22.1895 196.449 23.8094 193.668 26.0079 193.437C26.8179 194.943 27.5121 196.449 28.0907 198.071Z" fill="white"/>
<path fill-rule="evenodd" clip-rule="evenodd" d="M26.3542 195.406C26.5856 195.406 26.817 195.406 27.0485 195.522C27.3956 196.333 27.7427 197.26 28.0898 198.071C28.3213 199.577 28.5527 201.199 28.5527 202.937C27.9741 203.98 27.1642 204.559 26.3542 204.559C24.7342 204.559 23.4614 202.474 23.4614 199.925C23.4614 197.492 24.7342 195.406 26.3542 195.406Z" fill="#DAD9D4"/>
<path fill-rule="evenodd" clip-rule="evenodd" d="M31.1263 214.508L69.9916 214.512C71.4554 214.504 72.707 215.669 72.7536 217.244L72.6951 225.341C72.7044 226.806 71.4317 228.095 69.9679 228.103L31.1026 228.1C29.6388 228.108 28.3872 226.942 28.3406 225.367L28.3991 217.271C28.4621 215.659 29.6252 214.407 31.1263 214.508Z" fill="#EAEEF0"/>
<path fill-rule="evenodd" clip-rule="evenodd" d="M32.0843 215.527L68.7539 215.543C69.8518 215.537 70.8074 216.191 71.1058 217.069C70.6279 216.742 70.0779 216.562 69.4555 216.528L32.7859 216.512C31.4317 216.483 30.1939 217.516 30.2382 218.725L30.245 225.575C30.21 225.832 30.3219 226.161 30.3965 226.38C29.8814 225.943 29.5481 225.323 29.5807 224.7L29.5739 217.849C29.6019 216.493 30.7301 215.498 32.0843 215.527Z" fill="#B2C7CF"/>
<path fill-rule="evenodd" clip-rule="evenodd" d="M243.195 141.761C232.781 149.524 224.913 158.793 214.152 166.324C187.076 160.763 154.098 161.226 132.229 163.312C157.685 148.365 212.416 137.938 243.195 141.761Z" fill="#CCE9FF"/>
<path fill-rule="evenodd" clip-rule="evenodd" d="M214.152 166.326C213.689 166.21 213.342 166.21 212.879 166.094L211.606 165.862C210.796 165.746 209.871 165.515 209.061 165.399H208.945L207.672 165.167H207.556L206.284 164.935C205.474 164.82 204.779 164.704 203.969 164.588H203.738H203.622H203.391C202.581 164.472 201.771 164.356 200.961 164.24L199.804 164.124L198.647 164.008H198.531L197.605 163.893L197.027 163.777L195.87 163.661H195.754C194.944 163.545 194.018 163.429 193.208 163.429H193.093L192.283 163.313H191.704L190.894 163.197H190.431L189.506 163.082H189.159L187.886 162.966C186.613 162.85 185.34 162.734 184.067 162.734H183.72H182.794H182.447H182.1H181.869H180.827H180.249H179.439H178.976H178.166H177.009H176.893H175.968H175.389H174.463H174.116H173.306H172.728H171.571H170.992H170.761H169.719H169.488H168.446H168.099H167.174H166.595H165.669H165.438H164.397H163.818H163.124H162.545H161.967C161.157 162.734 160.347 162.734 159.537 162.734H158.264C156.991 162.734 155.834 162.734 154.677 162.85H154.445C153.635 162.85 152.941 162.85 152.131 162.966H152.016C151.206 162.966 150.396 162.966 149.701 163.082C143.569 163.313 137.899 163.777 132.808 164.24C145.883 158.215 166.942 152.191 187.191 148.947C205.937 146.861 222.136 146.514 237.178 147.209C229.657 153.002 222.83 160.185 214.152 166.326Z" fill="#B7D8FF"/>
<path fill-rule="evenodd" clip-rule="evenodd" d="M326.276 243.257L203.623 242.909L203.276 239.202L326.623 238.738L326.276 243.257Z" fill="#754C24" fill-opacity="0.6"/>
<path fill-rule="evenodd" clip-rule="evenodd" d="M227.344 172.35C231.972 194.132 232.435 225.183 226.881 245.922C247.014 245.922 263.561 245.922 283.695 245.922C292.026 232.134 298.968 216.493 300.241 194.827C301.051 185.211 294.571 177.332 288.207 172.582L227.344 172.35Z" fill="#AA6312"/>
<path fill-rule="evenodd" clip-rule="evenodd" d="M228.385 172.583C233.245 192.743 234.286 223.794 228.038 245.923C247.593 245.923 262.52 245.923 282.075 245.923C288.323 223.562 300.241 180.809 287.166 172.815L228.385 172.583Z" fill="url(#paint2_linear_55706_528529)"/>
<path fill-rule="evenodd" clip-rule="evenodd" d="M229.889 179.996H293.993C292.373 177.794 290.637 175.941 288.67 174.319L228.616 173.739C228.963 175.477 229.426 177.679 229.889 179.996Z" fill="#6EB8C0"/>
<path fill-rule="evenodd" clip-rule="evenodd" d="M288.323 172.467C300.125 186.37 289.364 221.708 282.074 245.923H327.085C324.54 221.36 334.607 203.17 346.872 194.596C347.682 185.211 341.434 177.449 335.301 172.699L288.323 172.467Z" fill="#AA6312"/>
<path fill-rule="evenodd" clip-rule="evenodd" d="M288.786 172.814C301.051 182.894 291.332 221.592 283.695 245.922H325.698C323.152 221.36 332.987 203.17 345.368 194.596C346.178 185.211 339.93 177.449 333.797 172.698H288.786V172.814Z" fill="url(#paint3_linear_55706_528529)"/>
<path fill-rule="evenodd" clip-rule="evenodd" d="M201.218 193.872C222.354 193.872 239.623 193.872 260.759 193.872C288.703 193.872 316.948 193.872 345.044 193.872C345.044 194.22 341.907 197.198 341.907 197.545L260.761 195.031H201.218V193.872Z" fill="#FFD705"/>
<path fill-rule="evenodd" clip-rule="evenodd" d="M288.323 186.6L288.554 187.527C289.017 189.265 287.86 190.655 286.24 190.655H280.686C278.95 190.655 277.215 189.265 276.868 187.527L276.636 186.6H288.323Z" fill="#CC7C21"/>
<path fill-rule="evenodd" clip-rule="evenodd" d="M274.322 184.051H288.207C288.554 184.051 289.017 184.398 289.017 184.746L289.364 186.02C289.48 186.368 289.248 186.716 288.901 186.716H275.016C274.669 186.716 274.206 186.368 274.206 186.02L273.859 184.746C273.743 184.283 273.974 184.051 274.322 184.051Z" fill="#FFD705"/>
<path fill-rule="evenodd" clip-rule="evenodd" d="M338.425 186.598L338.657 187.525C339.12 189.263 337.963 190.653 336.343 190.653H330.789C329.053 190.653 327.317 189.263 326.97 187.525L326.739 186.598H338.425Z" fill="#A86822"/>
<path fill-rule="evenodd" clip-rule="evenodd" d="M324.425 184.051H338.31C338.657 184.051 339.12 184.398 339.12 184.746L339.467 186.02C339.583 186.368 339.351 186.716 339.004 186.716H325.119C324.772 186.716 324.309 186.368 324.309 186.02L323.962 184.746C323.846 184.283 324.077 184.051 324.425 184.051Z" fill="#FFB305"/>
<path fill-rule="evenodd" clip-rule="evenodd" d="M293.181 179.997H340.854C339.35 177.912 337.498 175.942 335.647 174.32C320.836 174.204 305.447 174.204 290.173 174.088C291.446 175.595 292.487 177.564 293.181 179.997Z" fill="#F9B746"/>
<path fill-rule="evenodd" clip-rule="evenodd" d="M229.889 179.996H292.141C291.678 177.215 290.405 175.593 288.67 174.087C268.073 173.971 247.593 173.855 228.616 173.739C229.079 175.709 229.542 177.794 229.889 179.996Z" fill="#FEE375"/>
<path fill-rule="evenodd" clip-rule="evenodd" d="M325.465 243.257L284.503 243.141C284.966 241.751 285.313 240.36 285.776 238.854L325.233 238.738C325.349 240.244 325.349 241.751 325.465 243.257Z" fill="#754C24" fill-opacity="0.6"/>
<path fill-rule="evenodd" clip-rule="evenodd" d="M282.767 243.142L228.73 243.026C229.078 241.752 229.309 240.478 229.656 239.087L284.04 238.855C283.577 240.362 283.114 241.752 282.767 243.142Z" fill="#754C24" fill-opacity="0.6"/>
<path fill-rule="evenodd" clip-rule="evenodd" d="M387.487 216.956H398.479C403.339 217.883 405.075 219.505 405.538 220.895L388.875 222.402L387.487 216.956Z" fill="#A86822"/>
<path fill-rule="evenodd" clip-rule="evenodd" d="M134.428 194.596C134.89 203.749 122.741 207.456 115.683 207.92C107.814 208.499 100.756 208.615 92.4248 207.92C90.9206 207.804 88.6064 206.066 89.4163 204.676C98.4418 187.528 133.965 186.833 134.428 194.596Z" fill="#58595B"/>
<path fill-rule="evenodd" clip-rule="evenodd" d="M134.909 194.395C135.455 203.502 123.208 207.182 116.128 207.799C108.271 208.433 101.131 208.636 92.7311 207.986C91.2282 207.914 88.8132 206.256 89.6129 204.84C98.5325 187.656 134.388 186.582 134.909 194.395Z" fill="#FFFCD5"/>
<path fill-rule="evenodd" clip-rule="evenodd" d="M134.911 194.394C134.992 195.843 134.759 197.144 134.268 198.45C130.795 203.342 122.557 205.59 117.128 205.964C109.272 206.597 102.132 206.801 93.7315 206.151C92.3829 206.024 90.1273 204.569 90.5141 203.214C100.759 187.556 134.396 186.841 134.911 194.394Z" fill="#EEE6D4"/>
<path fill-rule="evenodd" clip-rule="evenodd" d="M134.911 194.393C134.921 194.911 134.932 195.428 134.892 196.051C128.327 199.092 118.84 201.004 108.176 201.075C102.897 201.135 97.8659 200.672 93.347 199.94C105.884 187.549 134.461 187.511 134.911 194.393Z" fill="#D2C8AD"/>
<path fill-rule="evenodd" clip-rule="evenodd" d="M134.91 194.391C135.316 201.636 127.627 205.426 120.876 206.969C121.733 203.272 123.311 199.404 125.358 195.63C126.406 193.691 127.663 191.851 128.925 190.269C132.409 191.024 134.819 192.424 134.91 194.391Z" fill="#FBD55B"/>
<path fill-rule="evenodd" clip-rule="evenodd" d="M134.911 194.393C134.992 195.842 134.759 197.143 134.268 198.448C131.599 202.184 126.208 204.371 121.362 205.407C122.23 202.228 123.615 199.038 125.413 195.787C126.461 193.848 127.718 192.007 128.98 190.426C132.409 191.027 134.819 192.426 134.911 194.393Z" fill="#F58220"/>
<path fill-rule="evenodd" clip-rule="evenodd" d="M134.911 194.391C134.921 194.909 134.931 195.427 134.892 196.05C131.659 197.466 127.854 198.738 123.521 199.504C124.117 198.248 124.712 196.992 125.462 195.68C126.51 193.741 127.767 191.901 129.03 190.32C132.409 191.025 134.819 192.425 134.911 194.391Z" fill="#D7662C"/>
<path fill-rule="evenodd" clip-rule="evenodd" d="M112.512 192.744C114.945 192.744 116.923 195.862 117.002 199.747C116.976 203.581 115.073 206.782 112.64 206.782C110.207 206.782 108.228 203.664 108.15 199.779C108.176 195.945 110.078 192.744 112.512 192.744Z" fill="white"/>
<path fill-rule="evenodd" clip-rule="evenodd" d="M112.554 194.815C114.211 194.832 115.755 196.975 115.709 199.774C115.711 202.468 114.36 204.777 112.599 204.711C110.942 204.694 109.397 202.551 109.444 199.752C109.491 196.953 110.897 194.799 112.554 194.815Z" fill="#DAD9D4"/>
<path d="M129.074 188.048C129.074 188.048 123.667 187.824 123.341 187.565C123.015 187.307 121.575 182.097 121.575 182.097C121.575 182.097 121.354 187.589 121.099 187.92C120.845 188.251 115.716 189.714 115.716 189.714C115.716 189.714 121.041 189.873 121.358 190.058C121.684 190.317 123.215 195.666 123.215 195.666C123.215 195.666 123.435 190.174 123.69 189.842C123.872 189.52 129.074 188.048 129.074 188.048Z" fill="#F6F6F5"/>
<path d="M124.927 205.561C124.927 205.561 126.763 203.562 126.968 203.521C127.172 203.48 129.634 204.615 129.634 204.615C129.634 204.615 127.602 202.753 127.558 202.548C127.513 202.343 128.613 199.905 128.613 199.905C128.613 199.905 126.828 201.893 126.655 201.954C126.45 201.996 123.906 200.85 123.906 200.85C123.906 200.85 125.938 202.713 125.982 202.918C126.047 203.092 124.927 205.561 124.927 205.561Z" fill="#F6F6F5"/>
<g style="mix-blend-mode:soft-light" opacity="0.65">
<path fill-rule="evenodd" clip-rule="evenodd" d="M324.643 235.021L207.096 234.747V233.65L324.643 226.205V235.021Z" fill="white"/>
</g>
<path d="M256.49 119.933C256.49 119.933 230.027 120.407 228.182 121.611C226.331 122.889 220.682 132.678 220.682 132.678L247.43 133.475L256.49 119.933Z" fill="url(#paint4_linear_55706_528529)"/>
<path d="M263.43 134.23C263.43 134.23 259.852 120.301 256.489 119.933C253.2 119.57 247.356 133.47 247.356 133.47L263.43 134.23Z" fill="#E26700"/>
<path d="M241.445 131.537C243.209 131.579 244.094 131.563 245.863 131.532C246.653 129.596 247.316 128.461 248.486 126.329C246.717 126.36 245.833 126.376 244.064 126.407C242.898 128.466 242.313 129.532 241.445 131.537ZM242.685 121.605C244.459 121.5 245.344 121.485 247.118 121.38C245.966 123.219 245.308 124.28 244.142 126.339C242.373 126.37 241.488 126.386 239.719 126.417C240.807 124.427 241.466 123.366 242.685 121.605ZM235.15 126.485C236.919 126.454 237.877 126.443 239.646 126.412C238.48 128.471 237.9 129.463 237.032 131.468C235.268 131.426 234.383 131.442 232.619 131.4C233.555 129.473 234.067 128.402 235.15 126.485ZM226.3 126.715C228.069 126.684 228.954 126.668 230.723 126.637C229.645 128.48 229.138 129.478 228.27 131.483C226.506 131.441 225.548 131.451 223.706 131.478C224.651 129.405 225.08 128.476 226.3 126.715ZM233.816 122.128C235.517 122.018 236.406 121.929 238.18 121.825C236.887 123.581 236.311 124.5 235.15 126.485C233.381 126.517 232.497 126.532 230.654 126.559C231.806 124.72 232.381 123.801 233.816 122.128Z" fill="#3B2400"/>
<g opacity="0.8">
<path d="M281.618 215.387C283.015 215.429 283.75 215.412 285.145 215.381C285.249 213.468 285.3 212.438 285.4 210.378C284.003 210.336 283.269 210.353 281.798 210.312C281.771 212.37 281.722 213.474 281.618 215.387ZM278.304 205.247C279.775 205.287 280.436 205.272 281.906 205.313C281.874 207.151 281.897 208.179 281.796 210.239C280.399 210.197 279.665 210.213 278.194 210.173C278.297 208.186 278.347 207.156 278.304 205.247ZM274.667 210.178C276.064 210.22 276.799 210.204 278.269 210.244C278.242 212.303 278.193 213.406 278.089 215.319C276.692 215.277 275.958 215.293 274.562 215.325C274.664 213.338 274.641 212.31 274.667 210.178ZM267.536 210.044C268.933 210.087 269.668 210.07 271.138 210.111C271.113 212.242 271.137 213.344 271.035 215.33C269.638 215.288 268.903 215.305 267.508 215.336C267.535 213.278 267.584 212.174 267.536 210.044ZM271.098 205.041C272.569 205.081 273.23 205.067 274.7 205.107C274.741 206.943 274.693 208.047 274.665 210.105C273.268 210.063 272.534 210.079 271.063 210.039C271.09 207.981 271.141 206.951 271.098 205.041ZM252.953 215.148C254.351 215.19 255.085 215.174 256.481 215.142C256.433 213.012 256.408 211.911 256.36 209.781C254.963 209.739 254.229 209.755 252.758 209.715C252.881 211.916 252.979 213.016 252.953 215.148ZM248.965 204.435C250.436 204.476 251.097 204.461 252.567 204.501C252.684 206.409 252.709 207.511 252.831 209.713C251.434 209.671 250.7 209.687 249.229 209.647C249.181 207.517 249.083 206.417 248.965 204.435ZM245.7 209.579C247.097 209.621 247.832 209.605 249.303 209.645C249.425 211.847 249.45 212.949 249.5 215.152C248.102 215.11 247.368 215.126 245.972 215.158C245.85 212.956 245.823 211.781 245.7 209.579ZM238.569 209.445C239.966 209.487 240.701 209.471 242.171 209.511C242.294 211.713 242.394 212.887 242.444 215.09C241.046 215.048 240.312 215.064 238.916 215.096C238.792 212.82 238.692 211.647 238.569 209.445ZM241.759 204.23C243.23 204.27 243.891 204.255 245.361 204.296C245.479 206.277 245.577 207.377 245.699 209.506C244.301 209.463 243.567 209.48 242.096 209.439C241.975 207.311 241.877 206.211 241.759 204.23ZM256.798 203.084C257.534 203.141 257.901 203.132 258.636 203.116C261.21 203.205 262.46 203.251 265.034 203.34C265.77 203.397 266.137 203.389 266.872 203.372C267.092 203.367 267.239 203.364 267.459 203.359C267.496 204.975 267.517 205.93 267.56 207.839C266.603 207.787 266.163 207.797 265.208 207.819C265.195 207.231 265.188 206.937 265.175 206.35C264.44 206.366 264.072 206.301 263.337 206.317C263.398 209.035 263.433 210.577 263.423 213.444C264.085 213.429 264.452 213.42 265.114 213.479C265.146 214.875 265.087 215.537 265.042 216.788C262.69 216.767 261.441 216.795 259.089 216.774C259.133 215.45 259.118 214.789 259.087 213.394C259.748 213.379 260.115 213.371 260.778 213.429C260.787 210.563 260.751 208.947 260.616 206.231C259.882 206.248 259.513 206.183 258.778 206.199C258.792 206.787 258.798 207.081 258.811 207.668C257.855 207.616 257.414 207.626 256.459 207.647C256.415 205.664 256.32 204.711 256.282 203.022C256.504 203.09 256.577 203.089 256.798 203.084Z" fill="#231F20"/>
</g>
<defs>
<linearGradient id="paint0_linear_55706_528529" x1="397.979" y1="204.935" x2="124.279" y2="210.091" gradientUnits="userSpaceOnUse">
<stop offset="0.0208333" stop-color="#C97A22"/>
<stop offset="0.223958" stop-color="#FF9B05"/>
<stop offset="0.822917" stop-color="#FFD705"/>
</linearGradient>
<linearGradient id="paint1_linear_55706_528529" x1="150.649" y1="192.394" x2="411.547" y2="183.009" gradientUnits="userSpaceOnUse">
<stop stop-color="#FEF5B6"/>
<stop offset="1" stop-color="#FEF5B6" stop-opacity="0.24"/>
</linearGradient>
<linearGradient id="paint2_linear_55706_528529" x1="289.671" y1="212.599" x2="232.577" y2="211.271" gradientUnits="userSpaceOnUse">
<stop stop-color="#FFB105"/>
<stop offset="1" stop-color="#FFC305"/>
</linearGradient>
<linearGradient id="paint3_linear_55706_528529" x1="290.467" y1="223.22" x2="330.035" y2="224.017" gradientUnits="userSpaceOnUse">
<stop stop-color="#FFAD05"/>
<stop offset="1" stop-color="#FC9A07"/>
</linearGradient>
<linearGradient id="paint4_linear_55706_528529" x1="246.123" y1="122.319" x2="207.487" y2="145.898" gradientUnits="userSpaceOnUse">
<stop stop-color="#FFD705"/>
<stop offset="1" stop-color="#E26700"/>
</linearGradient>
</defs>
</svg>
