<svg width="60" height="60" viewBox="0 0 60 60" fill="none" xmlns="http://www.w3.org/2000/svg">
<rect width="60" height="60" rx="8" fill="white"/>
<path fill-rule="evenodd" clip-rule="evenodd" d="M29.9222 35.2559H20.1402V37.3892C20.1402 37.6721 20.0278 37.9434 19.8278 38.1434C19.6277 38.3435 19.3564 38.4559 19.0735 38.4559H18.0069C17.724 38.4559 17.4527 38.3435 17.2526 38.1434C17.0526 37.9434 16.9402 37.6721 16.9402 37.3892V34.9604C16.3045 34.5903 15.8735 33.9097 15.8735 33.1225V27.7892C15.8735 27.3686 15.9979 26.9573 16.2309 26.6072C16.464 26.257 16.7954 25.9836 17.1834 25.8212L18.6426 21.4436C18.8543 20.8062 19.2614 20.2518 19.8062 19.8591C20.351 19.4663 21.0057 19.2553 21.6773 19.2559H31.4031C32.0747 19.2553 32.7294 19.4663 33.2742 19.8591C33.819 20.2518 34.2261 20.8062 34.4378 21.4436L35.2344 23.8335C34.5517 24.0857 33.9083 24.4188 33.3157 24.8213L32.4143 22.1188C32.2693 21.6815 31.8618 21.3892 31.4021 21.3892H21.6773C21.4533 21.3891 21.235 21.4596 21.0533 21.5905C20.8716 21.7215 20.7358 21.9063 20.665 22.1188L19.4863 25.6559H32.2654C30.4992 27.2886 29.3934 29.6252 29.3934 32.22C29.3934 33.2858 29.58 34.3081 29.9222 35.2559ZM18.9944 31.9338C19.1886 32.0143 19.3967 32.0558 19.6069 32.0559C20.0314 32.056 20.4385 31.8875 20.7388 31.5874C21.039 31.2874 21.2078 30.8803 21.2079 30.4559C21.2081 30.0314 21.0396 29.6242 20.7395 29.324C20.4395 29.0237 20.0324 28.8549 19.6079 28.8548C19.3977 28.8547 19.1896 28.8961 18.9954 28.9764C18.8012 29.0568 18.6247 29.1746 18.476 29.3232C18.3274 29.4718 18.2094 29.6482 18.1289 29.8423C18.0484 30.0365 18.0069 30.2446 18.0069 30.4548C18.0068 30.665 18.0481 30.8731 18.1285 31.0673C18.2089 31.2615 18.3267 31.438 18.4753 31.5867C18.6239 31.7354 18.8003 31.8533 18.9944 31.9338Z" fill="#2F93E1"/>
<path d="M32.3276 32.22C32.3276 35.5354 35.0153 38.2231 38.3308 38.2231C41.6463 38.2231 44.334 35.5354 44.334 32.22C44.334 28.9045 41.6463 26.2168 38.3308 26.2168C35.0153 26.2168 32.3276 28.9045 32.3276 32.22Z" stroke="#2F93E1" stroke-width="2"/>
<path d="M33.9532 37.2465L30 41.1996" stroke="#2F93E1" stroke-width="2" stroke-linecap="round"/>
</svg>
