<svg width="431" height="289" viewBox="0 0 431 289" fill="none" xmlns="http://www.w3.org/2000/svg">
<path fill-rule="evenodd" clip-rule="evenodd" d="M248.547 196.11C267.705 195.537 276.144 208.485 276.258 230.37C276.258 252.141 260.635 266.006 244.441 264.631C228.248 263.256 215.589 249.277 216.73 230.37C217.87 211.464 229.388 196.682 248.547 196.11Z" fill="#231F20"/>
<path fill-rule="evenodd" clip-rule="evenodd" d="M256.871 200.234C266.793 200.234 274.662 211.005 276.144 225.443C276.258 227.047 276.258 228.651 276.258 230.37C276.258 249.162 264.626 263.714 251.169 264.287C241.02 262.225 233.835 248.704 234.52 232.433C235.318 214.672 245.353 200.234 256.871 200.234Z" fill="#383431"/>
<path fill-rule="evenodd" clip-rule="evenodd" d="M256.986 204.245C266.337 204.245 275.232 215.932 273.18 233.12C271.127 250.308 262.46 257.526 254.249 258.443C246.038 259.474 237.713 246.756 238.397 232.318C238.968 217.995 247.635 204.245 256.986 204.245Z" fill="#A7A9AC"/>
<path fill-rule="evenodd" clip-rule="evenodd" d="M256.871 208.141C264.968 208.141 272.494 218.224 270.784 233.006C269.073 247.787 261.547 253.975 254.476 254.777C247.406 255.579 240.335 244.693 240.905 232.318C241.362 219.943 248.774 208.141 256.871 208.141Z" fill="#6D6E71"/>
<path fill-rule="evenodd" clip-rule="evenodd" d="M77.6009 196.11C96.7596 195.537 105.199 208.485 105.313 230.37C105.313 252.141 89.6891 266.006 73.4955 264.631C57.3018 263.256 44.6434 249.277 45.7838 230.37C46.9242 211.464 58.4422 196.682 77.6009 196.11Z" fill="#231F20"/>
<path fill-rule="evenodd" clip-rule="evenodd" d="M85.9261 200.234C95.8476 200.234 103.716 211.005 105.199 225.443C105.313 227.047 105.313 228.651 105.313 230.37C105.313 249.162 93.6808 263.714 80.2241 264.287C70.0746 262.225 62.8901 248.704 63.5743 232.433C64.3726 214.672 74.4081 200.234 85.9261 200.234Z" fill="#383431"/>
<path fill-rule="evenodd" clip-rule="evenodd" d="M86.0401 204.245C95.3913 204.245 104.286 215.932 102.234 233.12C100.181 250.308 91.514 257.526 83.3031 258.443C75.0923 259.474 66.7674 246.756 67.4516 232.318C68.0218 217.995 76.5748 204.245 86.0401 204.245Z" fill="#A7A9AC"/>
<path fill-rule="evenodd" clip-rule="evenodd" d="M85.9256 208.141C94.0225 208.141 101.549 218.224 99.8385 233.006C98.1279 247.787 90.6013 253.975 83.5308 254.777C76.4603 255.579 69.3899 244.693 69.9601 232.318C70.4162 219.943 77.8288 208.141 85.9256 208.141Z" fill="#6D6E71"/>
<path fill-rule="evenodd" clip-rule="evenodd" d="M106.226 248.818H335.331C345.253 247.443 373.991 246.068 383.912 244.693C395.887 200.922 363.955 189.005 341.376 177.776H95.6199L34.7227 244.693C52.2848 248.131 82.3913 248.818 106.226 248.818Z" fill="#58595B"/>
<path fill-rule="evenodd" clip-rule="evenodd" d="M17.6166 202.641C20.2395 193.245 25.7134 187.974 30.5031 184.765C57.5305 175.369 97.2164 168.953 124.586 163.796C160.28 161.848 198.256 162.421 223.572 167.463C206.01 186.255 175.904 164.598 148.42 190.265C164.272 202.182 107.252 234.61 100.524 244.693H20.4676C20.0114 242.86 19.4412 240.797 18.9851 238.62H20.0114C19.5553 236.443 19.3272 234.266 18.871 232.318H17.6166C15.792 222.235 14.9937 210.547 17.6166 202.641Z" fill="#E2304D"/>
<path fill-rule="evenodd" clip-rule="evenodd" d="M352.324 196.11C371.482 195.537 379.921 208.485 380.035 230.37C380.035 252.141 364.412 266.006 348.218 264.631C332.025 263.256 319.366 249.277 320.506 230.37C321.647 211.464 333.165 196.682 352.324 196.11Z" fill="#231F20"/>
<path fill-rule="evenodd" clip-rule="evenodd" d="M360.648 200.234C370.57 200.234 378.438 211.005 379.921 225.443C380.035 227.047 380.035 228.651 380.035 230.37C380.035 249.162 368.403 263.714 354.946 264.287C344.797 262.225 337.612 248.704 338.297 232.433C339.095 214.672 349.13 200.234 360.648 200.234Z" fill="#414042"/>
<path fill-rule="evenodd" clip-rule="evenodd" d="M360.763 204.245C370.114 204.245 379.009 215.932 376.956 233.12C374.904 250.308 366.237 257.526 358.026 258.443C349.815 259.474 341.49 246.756 342.174 232.318C342.858 217.995 351.411 204.245 360.763 204.245Z" fill="#E2E3E4"/>
<path fill-rule="evenodd" clip-rule="evenodd" d="M360.762 204.245C366.122 204.245 371.368 208.026 374.447 214.443C375.36 218.224 375.588 222.464 375.017 227.162C372.965 244.006 364.298 250.995 356.087 252.026C351.183 252.599 346.165 248.36 343.086 241.828C342.288 238.735 341.946 235.412 342.06 231.974C342.858 217.766 351.411 204.245 360.762 204.245Z" fill="#BCBEC0"/>
<path fill-rule="evenodd" clip-rule="evenodd" d="M356.771 243.434C356.429 246.642 356.429 250.653 355.973 253.747C358.253 253.747 360.42 252.83 362.359 251.226C362.245 248.476 360.192 245.382 357.797 243.09C357.569 242.861 357.341 242.861 357.113 242.976C356.999 242.976 356.771 243.205 356.771 243.434Z" fill="#A7A9AC"/>
<path fill-rule="evenodd" clip-rule="evenodd" d="M361.903 236.902C362.017 237.933 364.868 242.631 366.35 244.006C366.464 244.121 366.693 244.235 366.921 244.121C367.149 244.121 367.263 243.892 367.377 243.777C368.175 241.829 368.859 239.652 369.315 237.246C369.429 236.902 369.201 236.673 368.973 236.558C366.35 235.527 364.07 235.527 362.359 236.329C362.017 236.444 361.903 236.673 361.903 236.902Z" fill="#A7A9AC"/>
<path fill-rule="evenodd" clip-rule="evenodd" d="M363.043 229.34C365.438 229.684 367.947 229.913 370.228 230.486C370.342 227.392 370.114 224.642 369.544 222.121C366.008 224.871 363.272 227.507 363.043 229.34Z" fill="#A7A9AC"/>
<path fill-rule="evenodd" clip-rule="evenodd" d="M360.648 210.662L359.508 219.485C359.508 219.715 359.622 219.944 359.736 220.058C359.964 220.173 360.192 220.288 360.306 220.173C362.473 219.371 364.411 217.652 366.122 215.475C366.35 215.246 366.35 214.902 366.122 214.673C364.754 212.61 363.157 211.121 361.332 210.204C361.104 210.09 360.876 210.09 360.762 210.204C360.876 210.319 360.762 210.433 360.648 210.662Z" fill="#A7A9AC"/>
<path fill-rule="evenodd" clip-rule="evenodd" d="M347.99 216.506L353.121 221.09C355.174 220.746 357.113 210.433 354.832 209.975C351.069 209.288 349.244 212.84 347.762 215.704C347.647 216.048 347.762 216.392 347.99 216.506Z" fill="#A7A9AC"/>
<path fill-rule="evenodd" clip-rule="evenodd" d="M345.937 222.808C347.534 224.756 348.902 226.933 348.788 229.34C348.674 231.975 346.051 233.121 344.113 234.381C343.885 234.496 343.656 234.496 343.542 234.381C343.314 234.267 343.2 234.152 343.2 233.923C342.744 230.829 344.113 225.673 344.911 223.037C345.025 222.808 345.139 222.694 345.367 222.579C345.595 222.465 345.823 222.579 345.937 222.808Z" fill="#A7A9AC"/>
<path fill-rule="evenodd" clip-rule="evenodd" d="M348.446 249.736C351.183 245.955 351.867 243.434 350.727 238.621C349.815 237.476 346.85 240.34 344.683 241.715C344.455 241.83 344.341 242.174 344.341 242.403C345.025 245.153 346.165 247.559 347.42 249.736C347.534 249.965 347.762 250.08 347.99 250.08C348.104 250.08 348.218 249.965 348.446 249.736Z" fill="#A7A9AC"/>
<path fill-rule="evenodd" clip-rule="evenodd" d="M356.656 244.579C356.428 247.558 356.314 250.996 355.972 253.631C356.428 253.631 356.77 253.631 357.113 253.517C358.139 253.058 359.165 252.485 360.192 251.683C360.192 249.392 358.595 246.756 356.656 244.579Z" fill="#58595B"/>
<path fill-rule="evenodd" clip-rule="evenodd" d="M361.902 236.902C362.016 237.819 364.069 241.371 365.666 243.204C366.236 241.6 366.806 239.767 367.148 237.704C367.262 237.361 367.034 237.131 366.806 237.017C365.209 236.329 363.613 236.1 362.244 236.215C362.016 236.444 361.902 236.673 361.902 236.902Z" fill="#58595B"/>
<path fill-rule="evenodd" clip-rule="evenodd" d="M363.043 229.339C364.754 229.568 366.464 229.797 368.061 230.026C368.061 227.735 367.947 225.672 367.605 223.724C365.096 225.901 363.271 227.849 363.043 229.339Z" fill="#58595B"/>
<path fill-rule="evenodd" clip-rule="evenodd" d="M360.648 211.463L359.622 219.484C359.622 219.713 359.622 219.943 359.85 220.057C361.447 219.141 362.815 217.766 364.298 216.047C364.526 215.818 364.526 215.474 364.298 215.245C363.157 213.64 361.903 212.38 360.648 211.463Z" fill="#58595B"/>
<path fill-rule="evenodd" clip-rule="evenodd" d="M347.99 216.506L352.323 220.287C353.806 217.422 354.604 210.891 352.779 210.547C352.437 210.433 352.095 210.433 351.867 210.433C350.043 211.464 348.902 213.756 347.876 215.704C347.648 216.047 347.762 216.391 347.99 216.506Z" fill="#58595B"/>
<path fill-rule="evenodd" clip-rule="evenodd" d="M343.2 234.152C343.2 234.037 343.086 234.037 343.086 233.922C342.744 231.172 343.656 227.047 344.455 224.297C345.709 226.016 346.735 227.964 346.621 229.912C346.507 231.975 344.797 233.12 343.2 234.152Z" fill="#58595B"/>
<path fill-rule="evenodd" clip-rule="evenodd" d="M348.332 239.079C347.192 239.881 345.709 241.027 344.569 241.715C344.341 241.829 344.227 242.173 344.227 242.402C344.911 244.923 345.823 247.215 346.963 249.277C349.016 246.069 349.472 243.662 348.446 239.308C348.446 239.194 348.446 239.079 348.332 239.079Z" fill="#58595B"/>
<path fill-rule="evenodd" clip-rule="evenodd" d="M355.06 226.933C354.148 227.506 353.578 229.11 353.578 230.944C353.578 233.235 354.604 235.069 355.973 235.183C355.744 235.298 355.402 235.412 355.174 235.412C353.806 235.412 352.779 233.579 352.779 231.173C352.665 228.766 353.806 226.933 355.06 226.933Z" fill="#A7A9AC"/>
<path fill-rule="evenodd" clip-rule="evenodd" d="M356.315 233.808C357.227 233.808 357.912 232.547 357.912 230.943C357.912 229.339 357.227 228.079 356.315 228.079C355.403 228.079 354.718 229.339 354.718 230.943C354.604 232.547 355.403 233.808 356.315 233.808Z" fill="#A7A9AC"/>
<g clip-path="url(#clip0_7490_627028)">
<path fill-rule="evenodd" clip-rule="evenodd" d="M358.175 256.432C367.566 256.828 375.769 245.543 376.362 231.49C376.954 217.436 369.73 205.501 360.339 205.105C350.948 204.709 342.744 215.993 342.151 230.047C341.559 244.101 348.784 256.036 358.175 256.432Z" fill="#D1D2D3"/>
<path fill-rule="evenodd" clip-rule="evenodd" d="M349.608 244.44C358.999 244.836 367.203 233.552 367.796 219.498C367.95 215.832 367.756 212.457 366.879 209.359C364.931 207.747 362.944 207.051 360.597 206.952C351.876 206.585 344.395 216.675 343.854 229.507C343.635 234.701 344.758 239.951 346.616 243.702C347.596 244.355 348.602 244.398 349.608 244.44Z" fill="#A7A8AB"/>
<path fill-rule="evenodd" clip-rule="evenodd" d="M370.544 233.999C365.178 233.773 360.392 235.713 360.276 238.463C360.173 240.907 364.108 243.215 369.126 243.733C370.583 241.04 371.396 237.708 371.873 234.361C371.551 234.041 371.215 234.027 370.544 233.999Z" fill="#6D6E71"/>
<path fill-rule="evenodd" clip-rule="evenodd" d="M370.505 219.001C365.783 219.414 362.352 221.105 362.249 223.549C362.133 226.299 366.403 228.621 372.105 228.862L372.44 228.876C372.259 225.196 371.382 222.098 370.505 219.001Z" fill="#6D6E71"/>
<path fill-rule="evenodd" clip-rule="evenodd" d="M358.249 206.854C354.857 207.629 353.102 209.391 354.044 210.961C355.309 212.851 360.623 214.299 366.028 213.609C366.364 213.623 367.047 213.346 367.383 213.36C364.828 210.192 361.913 207.62 358.249 206.854Z" fill="#6D6E71"/>
<path fill-rule="evenodd" clip-rule="evenodd" d="M358.265 254.293C353.608 253.179 350.68 250.913 352.099 249.136C353.518 247.36 358.935 246.364 364.263 247.507C365.269 247.549 365.927 247.883 366.585 248.217C364.121 250.867 361.335 253.198 358.265 254.293Z" fill="#6D6E71"/>
<path fill-rule="evenodd" clip-rule="evenodd" d="M347.686 242.217C352.046 242.401 355.955 237.362 356.238 230.641C356.509 224.225 353.051 218.57 348.691 218.387C348.355 218.372 348.02 218.358 347.685 218.344C346.201 221.648 345.015 225.883 344.835 230.16C344.654 234.437 345.48 238.757 347.015 242.189C347.351 242.203 347.686 242.217 347.686 242.217Z" fill="#6D6E71"/>
</g>
<path fill-rule="evenodd" clip-rule="evenodd" d="M83.1895 205.505C106.682 169.64 198.712 170.328 211.028 171.703C204.756 162.765 158.456 162.765 122.077 164.255C135.192 155.317 154.008 143.515 178.185 136.525C193.694 132.056 222.66 132.4 242.047 133.088C271.925 134.234 307.734 136.411 326.208 142.025C336.7 145.234 347.876 160.13 352.437 167.005C356.543 173.192 379.237 170.328 386.991 175.369C398.053 182.588 397.369 197.141 395.887 214.787C403.869 215.703 402.273 226.474 394.974 241.599C392.237 241.599 384.483 244.579 381.746 244.579C389.614 166.776 322.673 185.224 326.436 244.579C294.619 244.579 229.845 244.579 197.913 244.579C211.028 171.015 143.745 164.369 139.639 244.579H111.585C103.489 229.797 129.946 209.63 107.252 209.859C82.6193 210.203 81.935 207.453 83.1895 205.505Z" fill="#EC5F6B"/>
<path fill-rule="evenodd" clip-rule="evenodd" d="M221.634 172.734C221.862 167.922 232.239 153.599 246.038 143.401C248.319 141.682 253.109 140.078 260.179 139.734C279.68 138.703 295.417 139.619 314.918 145.692C321.19 147.64 338.182 172.963 329.972 173.193C301.576 173.536 250.03 172.734 221.634 172.734Z" fill="#EF1C31"/>
<path fill-rule="evenodd" clip-rule="evenodd" d="M123.674 225.672C113.182 233.693 103.147 240.912 100.638 244.693H20.4677C20.0115 242.86 19.4413 240.797 18.9852 238.62H20.0115C19.5554 236.443 19.3273 234.266 18.8711 232.318H17.6167C17.2746 230.141 16.9325 227.964 16.5903 225.786H123.674V225.672Z" fill="#EC5F6B"/>
<path fill-rule="evenodd" clip-rule="evenodd" d="M29.3629 209.745C45.2153 209.745 57.6804 209.859 79.3123 209.859C81.251 204.474 86.6109 197.026 94.2515 191.526C71.4577 191.526 50.0041 191.526 27.8804 191.526C29.9331 195.536 31.3016 202.755 29.3629 209.745Z" fill="#58595B"/>
<path fill-rule="evenodd" clip-rule="evenodd" d="M26.284 187.974C50.9165 187.859 87.9835 187.74 103.926 187.974C122.675 187.974 129.225 188.589 132.254 191.629L98.5851 189.234C83.2113 189.234 49.6621 189.234 25.1436 189.234C25.4857 188.776 25.9418 188.432 26.284 187.974Z" fill="#EC5F6B"/>
<path fill-rule="evenodd" clip-rule="evenodd" d="M112.384 230.714C110.331 233.923 110.673 237.819 109.989 241.142H19.4414C19.2133 240.339 18.9852 239.537 18.7571 238.735H19.8975C19.4414 236.558 19.2133 234.381 18.7571 232.433H17.6168C17.5027 231.975 17.3887 231.631 17.3887 231.173L112.384 230.714Z" fill="#58595B"/>
<path fill-rule="evenodd" clip-rule="evenodd" d="M20.3536 240.912H119.454C121.507 240.912 123.218 241.828 123.218 242.86C123.218 243.891 121.507 244.807 119.454 244.807H20.3536C18.3009 244.807 16.5903 243.891 16.5903 242.86C16.5903 241.714 18.3009 240.912 20.3536 240.912Z" fill="#EC5F6B"/>
<path fill-rule="evenodd" clip-rule="evenodd" d="M16.7043 211.235H83.6456C85.2422 211.235 86.6107 212.61 86.6107 214.214V224.298C86.6107 225.902 85.2422 227.277 83.6456 227.277H16.7043C15.1077 227.277 13.7393 225.902 13.7393 224.298V214.214C13.7393 212.61 15.1077 211.235 16.7043 211.235Z" fill="#E2304D"/>
<path fill-rule="evenodd" clip-rule="evenodd" d="M86.3828 225.672C85.9266 226.589 84.9002 227.276 83.7598 227.276H16.7045C15.5641 227.276 14.5377 226.589 14.0815 225.672H86.3828Z" fill="#EF1C31"/>
<path fill-rule="evenodd" clip-rule="evenodd" d="M130.516 163.109C138.043 155.546 161.307 143.858 183.545 139.733C207.151 136.64 223.116 138.358 241.477 140.535C230.415 148.442 222.318 158.181 211.142 166.088C184.571 160.473 152.07 160.931 130.516 163.109Z" fill="#EDFEFF"/>
<path fill-rule="evenodd" clip-rule="evenodd" d="M224.257 171.932C224.485 167.463 234.406 154.171 247.521 144.66C249.688 143.056 254.249 141.567 260.978 141.223C279.566 140.306 294.619 141.108 313.208 146.723C319.138 148.556 335.446 172.046 327.463 172.275C300.435 172.734 251.284 171.932 224.257 171.932Z" fill="#82ADB1"/>
<path fill-rule="evenodd" clip-rule="evenodd" d="M224.257 171.932C224.371 168.266 230.985 158.87 240.565 150.276C249.46 157.036 260.636 170.672 254.477 172.047C243.073 172.047 232.582 171.932 224.257 171.932Z" fill="#C0D8DA"/>
<path fill-rule="evenodd" clip-rule="evenodd" d="M262.916 141.109C280.592 140.307 295.303 141.224 313.208 146.724C317.313 147.984 326.322 159.557 328.945 166.661H284.584C280.25 166.661 274.662 163.109 272.381 158.64L262.916 141.109Z" fill="#C0D8DA"/>
<g style="mix-blend-mode:overlay">
<path fill-rule="evenodd" clip-rule="evenodd" d="M264.171 141.108C272.838 140.765 280.707 140.879 288.803 141.681L273.864 172.276C265.425 172.161 256.986 172.161 249.118 172.046L264.171 141.108Z" fill="#ABE1E1"/>
</g>
<g style="mix-blend-mode:overlay">
<path fill-rule="evenodd" clip-rule="evenodd" d="M294.619 142.484C300.093 143.286 305.567 144.546 311.383 146.265L298.61 172.39C292.566 172.39 286.294 172.39 280.022 172.276L294.619 142.484Z" fill="#ABE1E1"/>
</g>
<path fill-rule="evenodd" clip-rule="evenodd" d="M13.7393 213.641C32.4418 213.641 47.7231 213.641 66.4256 213.641C91.1525 213.641 116.146 213.641 141.008 213.641C141.008 213.984 141.008 214.443 141.008 214.787H66.4274H13.7393V213.641Z" fill="#EC5F6B"/>
<path fill-rule="evenodd" clip-rule="evenodd" d="M72.2412 225.787H137.244L135.533 230.37C109.988 226.703 94.1369 227.849 72.2412 226.932V225.787Z" fill="#EF1C31"/>
<path fill-rule="evenodd" clip-rule="evenodd" d="M231.099 160.245L234.634 171.932C231.099 171.932 227.678 171.932 224.143 171.932C224.371 169.411 226.195 165.057 231.099 160.245Z" fill="#576578"/>
<path fill-rule="evenodd" clip-rule="evenodd" d="M233.38 158.411C238.626 158.411 243.757 158.411 249.003 158.411C252.31 158.411 253.907 167.12 252.082 169.297C251.626 169.755 251.056 169.87 250.372 169.984C245.81 170.786 237.029 172.047 232.924 171.015C227.108 169.526 228.59 164.026 231.555 159.328C232.011 158.755 232.695 158.411 233.38 158.411Z" fill="#EC5F6B"/>
<path fill-rule="evenodd" clip-rule="evenodd" d="M233.38 158.411C238.625 158.411 243.757 158.411 249.003 158.411C251.74 158.411 253.222 164.026 252.766 167.349C246.608 168.036 238.967 168.495 234.862 167.692C231.099 167.005 229.616 165.286 229.616 163.338C230.072 161.963 230.757 160.703 231.669 159.328C232.011 158.755 232.695 158.411 233.38 158.411Z" fill="#E2304D"/>
<path fill-rule="evenodd" clip-rule="evenodd" d="M74.5223 216.391L138.385 214.787V215.933L73.1538 220.058L74.5223 216.391Z" fill="#E2304D"/>
<path fill-rule="evenodd" clip-rule="evenodd" d="M98.9268 188.203C113.068 188.203 128.651 186.699 132.797 191.755C154.464 183.161 184.913 181.099 212.51 179.495H389.386C385.053 177.776 384.368 174.453 376.386 174.224C323.927 173.88 251.854 173.536 199.396 173.192C155.947 174.567 120.252 180.297 98.9268 188.203Z" fill="#E2304D"/>
<path fill-rule="evenodd" clip-rule="evenodd" d="M29.9331 198.401C50.1737 198.401 73.8253 198.401 87.2951 198.401C87.2951 198.974 87.2951 199.662 87.2951 200.235C70.2738 200.235 49.7203 200.235 29.9331 200.235C29.9331 199.662 29.9331 199.089 29.9331 198.401Z" fill="#E2304D"/>
<path fill-rule="evenodd" clip-rule="evenodd" d="M86.1547 232.318H101.322C102.348 232.318 103.147 233.12 103.147 234.151V236.901C103.147 237.933 102.348 238.735 101.322 238.735H86.1547C85.1284 238.735 84.3301 237.933 84.3301 236.901V234.151C84.4441 233.12 85.2424 232.318 86.1547 232.318Z" fill="#414042"/>
<path fill-rule="evenodd" clip-rule="evenodd" d="M88.6635 232.318H101.322C102.234 232.318 103.033 233.005 103.033 233.807V236.214C103.033 237.016 102.234 237.703 101.208 237.703H88.6635C87.6371 237.703 86.8389 237.016 86.8389 236.214V233.807C86.9529 233.005 87.6371 232.318 88.6635 232.318Z" fill="#EEE6D4"/>
<path fill-rule="evenodd" clip-rule="evenodd" d="M88.6635 232.318H101.322C102.234 232.318 103.033 233.005 103.033 233.807V234.266H86.8389V233.807C86.9529 233.005 87.6371 232.318 88.6635 232.318Z" fill="#D2C8AD"/>
<path fill-rule="evenodd" clip-rule="evenodd" d="M17.7305 232.318H28.9064C29.9327 232.318 30.731 233.12 30.731 234.151V236.901C30.731 237.933 29.9327 238.735 28.9064 238.735H18.8709L19.7832 237.589C20.6955 236.557 19.0989 233.578 18.8709 232.432L17.7305 232.318Z" fill="#414042"/>
<path fill-rule="evenodd" clip-rule="evenodd" d="M18.8711 232.318H29.0206C29.9329 232.318 30.6172 233.005 30.6172 233.807V236.214C30.6172 237.016 29.9329 237.703 29.0206 237.703H19.6694C19.4413 235.985 19.2132 234.151 18.8711 232.318Z" fill="#EEE6D4"/>
<path fill-rule="evenodd" clip-rule="evenodd" d="M18.8711 232.318H29.0206C29.9329 232.318 30.6172 233.005 30.6172 233.807V234.266H19.2132C19.0992 233.578 18.9851 233.005 18.8711 232.318Z" fill="#D2C8AD"/>
<path fill-rule="evenodd" clip-rule="evenodd" d="M29.7046 201.725C50.0976 201.267 71.4068 201.725 84.5577 201.725C84.5577 202.297 84.5577 202.985 84.5577 203.558C67.024 203.558 49.1909 203.558 29.7046 203.558C29.7046 202.985 29.7046 202.297 29.7046 201.725Z" fill="#E2304D"/>
<path fill-rule="evenodd" clip-rule="evenodd" d="M278.996 140.077L283.102 172.39L288.575 172.276L282.873 139.504L278.996 140.077Z" fill="#EF1C31"/>
<path fill-rule="evenodd" clip-rule="evenodd" d="M280.365 139.276L284.699 173.766L290.059 173.651L284.243 138.703L280.365 139.276Z" fill="#EC5F6B"/>
<path fill-rule="evenodd" clip-rule="evenodd" d="M132.682 194.162C133.253 203.672 120.708 207.454 113.41 208.026C105.313 208.599 98.0142 208.714 89.4613 208.026C87.9787 207.912 85.5839 206.193 86.2682 204.703C95.6194 186.943 132.226 186.141 132.682 194.162Z" fill="#EF1C31"/>
<path fill-rule="evenodd" clip-rule="evenodd" d="M25.2574 189.235C27.8803 193.704 29.933 198.402 29.819 204.589C29.819 205.506 29.3629 206.308 28.5646 206.881C27.7663 207.454 26.7399 207.798 25.5995 207.683C22.4064 207.454 19.4414 207.683 16.3623 208.371C16.5904 206.308 17.0465 204.36 17.6167 202.641C19.2133 197.141 21.7222 192.787 25.2574 189.235Z" fill="#EF1C31"/>
<path fill-rule="evenodd" clip-rule="evenodd" d="M17.6167 202.641C19.0993 197.255 21.152 193.589 24.5732 189.922C26.968 194.391 28.3365 198.401 28.9067 204.589C29.2488 207.797 26.854 209.058 26.1697 208.943C22.8626 208.714 19.5554 207.797 16.3623 208.828C16.5904 206.651 16.9325 204.474 17.6167 202.641Z" fill="#EC5F6B"/>
<path fill-rule="evenodd" clip-rule="evenodd" d="M16.3623 208.256C19.5554 206.881 22.2924 206.308 25.4855 206.652C26.2838 206.766 26.968 206.537 27.5382 205.964C28.1084 205.391 28.3365 204.818 28.4505 204.016C28.4505 198.516 26.968 194.506 24.9153 190.495C20.9239 195.079 17.9589 202.183 16.3623 208.256Z" fill="#FFFCD5"/>
<path fill-rule="evenodd" clip-rule="evenodd" d="M16.7041 206.193C19.8972 204.933 22.9763 205.162 26.3975 205.62C27.1958 205.735 27.5379 205.62 28.1081 205.047C28.6783 204.474 28.3361 203.558 28.3361 202.756C28.4502 197.141 26.7396 193.933 24.8009 190.495C21.0376 194.506 18.4147 198.401 16.7041 206.193Z" fill="#EEE6D4"/>
<path fill-rule="evenodd" clip-rule="evenodd" d="M28.3362 200.922C27.6519 196.911 26.1694 193.015 24.5729 190.036C22.178 192.442 20.3534 195.192 18.7568 199.317C21.8359 200.005 24.6869 200.578 28.3362 200.922Z" fill="#D2C8AD"/>
<path fill-rule="evenodd" clip-rule="evenodd" d="M27.8805 197.37C28.3366 199.661 28.4507 202.182 28.2226 204.703C27.7664 205.161 27.1962 205.505 26.626 205.62C26.0558 205.505 25.5997 205.505 25.0295 205.39C23.3189 204.588 22.0645 202.182 22.0645 199.203C22.0645 195.765 23.661 193.015 25.8278 192.786C26.6261 194.276 27.3103 195.765 27.8805 197.37Z" fill="white"/>
<path fill-rule="evenodd" clip-rule="evenodd" d="M26.1698 194.734C26.3979 194.734 26.626 194.734 26.8541 194.849C27.1962 195.651 27.5383 196.568 27.8804 197.37C28.1085 198.859 28.3366 200.464 28.3366 202.182C27.7664 203.214 26.9681 203.787 26.1698 203.787C24.5733 203.787 23.3188 201.724 23.3188 199.203C23.3188 196.797 24.5733 194.734 26.1698 194.734Z" fill="#DAD9D4"/>
<path fill-rule="evenodd" clip-rule="evenodd" d="M30.8743 213.646L69.1847 213.618C70.6276 213.609 71.8605 214.759 71.9051 216.316L71.8407 224.317C71.8487 225.765 70.5931 227.041 69.1502 227.05L30.8398 227.078C29.3969 227.087 28.164 225.937 28.1194 224.38L28.1838 216.379C28.2472 214.785 29.3947 213.547 30.8743 213.646Z" fill="#EAEEF0"/>
<path fill-rule="evenodd" clip-rule="evenodd" d="M31.8176 214.652L67.9578 214.637C69.0398 214.63 69.9811 215.276 70.2744 216.142C69.8037 215.82 69.2618 215.642 68.6484 215.61L32.5083 215.624C31.1736 215.597 29.9529 216.618 29.9955 217.812L29.9966 224.58C29.9619 224.833 30.0719 225.158 30.1452 225.375C29.6379 224.944 29.3099 224.331 29.3426 223.715L29.3415 216.947C29.3703 215.608 30.483 214.624 31.8176 214.652Z" fill="#B2C7CF"/>
<path fill-rule="evenodd" clip-rule="evenodd" d="M239.88 141.681C229.617 149.359 221.862 158.525 211.256 165.973C184.571 160.473 152.07 160.932 130.516 162.994C155.605 148.213 209.546 137.9 239.88 141.681Z" fill="#ADE3E3"/>
<path fill-rule="evenodd" clip-rule="evenodd" d="M211.256 165.974C210.8 165.859 210.458 165.859 210.002 165.745L208.748 165.516C207.949 165.401 207.037 165.172 206.239 165.057H206.125L204.87 164.828H204.756L203.502 164.599C202.703 164.484 202.019 164.37 201.221 164.255H200.993H200.879H200.651C199.852 164.14 199.054 164.026 198.256 163.911L197.115 163.797L195.975 163.682H195.861L194.949 163.568L194.378 163.453L193.238 163.338H193.124C192.326 163.224 191.413 163.109 190.615 163.109H190.501L189.703 162.995H189.133L188.334 162.88H187.878L186.966 162.765H186.624L185.369 162.651C184.115 162.536 182.86 162.422 181.606 162.422H181.264H180.352H180.009H179.667H179.439H178.413H177.843H177.044H176.588H175.79H174.65H174.536H173.623H173.053H172.141H171.799H171H170.43H169.29H168.72H168.491H167.465H167.237H166.211H165.869H164.956H164.386H163.474H163.246H162.219H161.649H160.965H160.395H159.824C159.026 162.422 158.228 162.422 157.43 162.422H156.175C154.921 162.422 153.78 162.422 152.64 162.536H152.412C151.614 162.536 150.929 162.536 150.131 162.651H150.017C149.219 162.651 148.42 162.651 147.736 162.765C141.692 162.995 136.104 163.453 131.086 163.911C143.973 157.953 164.728 151.995 184.685 148.786C203.16 146.724 219.125 146.38 233.95 147.067C226.538 152.797 219.809 159.901 211.256 165.974Z" fill="#9AC7C7"/>
<path fill-rule="evenodd" clip-rule="evenodd" d="M321.761 242.058L200.879 241.714L200.537 238.047L322.103 237.589L321.761 242.058Z" fill="#E2304D"/>
<path fill-rule="evenodd" clip-rule="evenodd" d="M224.256 171.932C228.818 193.474 229.274 224.183 223.8 244.693C243.643 244.693 259.951 244.693 279.794 244.693C288.005 231.058 294.847 215.589 296.101 194.162C296.9 184.651 290.514 176.859 284.241 172.161L224.256 171.932Z" fill="#EF1C31"/>
<path fill-rule="evenodd" clip-rule="evenodd" d="M225.283 172.161C230.073 192.099 231.099 222.808 224.941 244.693C244.214 244.693 258.925 244.693 278.198 244.693C284.356 222.578 296.102 180.297 283.215 172.39L225.283 172.161Z" fill="#EC5F6B"/>
<path fill-rule="evenodd" clip-rule="evenodd" d="M226.766 179.494H289.944C288.347 177.317 286.637 175.484 284.698 173.88L225.511 173.307C225.853 175.025 226.31 177.203 226.766 179.494Z" fill="#6EB8C0"/>
<path fill-rule="evenodd" clip-rule="evenodd" d="M284.355 172.046C295.987 185.797 285.382 220.745 278.197 244.693H322.559C320.05 220.401 329.971 202.411 342.06 193.932C342.858 184.651 336.7 176.974 330.656 172.276L284.355 172.046Z" fill="#EF1C31"/>
<path fill-rule="evenodd" clip-rule="evenodd" d="M284.812 172.39C296.9 182.359 287.321 220.631 279.794 244.693H321.19C318.681 220.401 328.375 202.412 340.577 193.932C341.375 184.651 335.217 176.974 329.173 172.276H284.812V172.39Z" fill="#EC5F6B"/>
<path fill-rule="evenodd" clip-rule="evenodd" d="M198.509 193.218C219.339 193.218 236.36 193.218 257.19 193.218C284.731 193.218 312.568 193.218 340.258 193.218C340.258 193.562 337.167 196.507 337.167 196.851L257.192 194.364H198.509V193.218Z" fill="#E2304D"/>
<path fill-rule="evenodd" clip-rule="evenodd" d="M284.356 186.026L284.584 186.943C285.04 188.661 283.9 190.036 282.303 190.036H276.829C275.119 190.036 273.408 188.661 273.066 186.943L272.838 186.026H284.356Z" fill="#EF1C31"/>
<path fill-rule="evenodd" clip-rule="evenodd" d="M270.557 183.505H284.242C284.584 183.505 285.04 183.849 285.04 184.192L285.382 185.453C285.496 185.797 285.268 186.14 284.926 186.14H271.241C270.899 186.14 270.443 185.797 270.443 185.453L270.101 184.192C269.987 183.734 270.215 183.505 270.557 183.505Z" fill="#E2304D"/>
<path fill-rule="evenodd" clip-rule="evenodd" d="M333.735 186.026L333.963 186.943C334.419 188.661 333.279 190.036 331.682 190.036H326.208C324.498 190.036 322.787 188.661 322.445 186.943L322.217 186.026H333.735Z" fill="#EF1C31"/>
<path fill-rule="evenodd" clip-rule="evenodd" d="M319.937 183.505H333.622C333.964 183.505 334.42 183.849 334.42 184.192L334.762 185.453C334.876 185.797 334.648 186.14 334.306 186.14H320.621C320.279 186.14 319.823 185.797 319.823 185.453L319.481 184.192C319.367 183.734 319.595 183.505 319.937 183.505Z" fill="#E2304D"/>
<path fill-rule="evenodd" clip-rule="evenodd" d="M289.146 179.495H336.13C334.648 177.432 332.823 175.484 330.998 173.88C316.401 173.765 301.234 173.765 286.181 173.651C287.435 175.14 288.461 177.088 289.146 179.495Z" fill="#E2304D"/>
<path fill-rule="evenodd" clip-rule="evenodd" d="M226.766 179.494H288.119C287.663 176.744 286.408 175.14 284.698 173.65C264.399 173.536 244.214 173.421 225.511 173.307C225.967 175.255 226.424 177.317 226.766 179.494Z" fill="#E2304D"/>
<path fill-rule="evenodd" clip-rule="evenodd" d="M320.963 242.058L280.593 241.943C281.049 240.568 281.391 239.193 281.847 237.703L320.735 237.589C320.849 239.078 320.849 240.568 320.963 242.058Z" fill="#E2304D"/>
<path fill-rule="evenodd" clip-rule="evenodd" d="M278.882 241.943L225.625 241.829C225.967 240.568 226.195 239.308 226.537 237.933L280.136 237.704C279.68 239.193 279.224 240.568 278.882 241.943Z" fill="#E2304D"/>
<path fill-rule="evenodd" clip-rule="evenodd" d="M382.088 216.047H392.922C397.711 216.964 399.422 218.568 399.878 219.943L383.456 221.433L382.088 216.047Z" fill="#E2304D"/>
<path fill-rule="evenodd" clip-rule="evenodd" d="M132.683 193.933C133.139 202.985 121.165 206.652 114.209 207.11C106.454 207.683 99.4976 207.798 91.2867 207.11C89.8042 206.996 87.5234 205.277 88.3216 203.902C97.2168 186.943 132.227 186.256 132.683 193.933Z" fill="#58595B"/>
<path fill-rule="evenodd" clip-rule="evenodd" d="M133.159 193.757C133.707 202.761 121.637 206.386 114.658 206.989C106.913 207.607 99.8742 207.801 91.5924 207.149C90.1108 207.077 87.7282 205.435 88.5152 204.036C97.2909 187.058 132.638 186.034 133.159 193.757Z" fill="#FFFCD5"/>
<path fill-rule="evenodd" clip-rule="evenodd" d="M133.159 193.757C133.241 195.189 133.013 196.474 132.53 197.764C129.111 202.597 120.992 204.81 115.641 205.175C107.897 205.793 100.858 205.987 92.5766 205.335C91.247 205.208 89.0219 203.768 89.4018 202.429C99.4851 186.962 132.644 186.289 133.159 193.757Z" fill="#EEE6D4"/>
<path fill-rule="evenodd" clip-rule="evenodd" d="M133.159 193.754C133.17 194.266 133.181 194.778 133.143 195.393C126.675 198.392 117.325 200.272 106.814 200.331C101.61 200.386 96.65 199.923 92.1949 199.194C104.54 186.96 132.709 186.952 133.159 193.754Z" fill="#D2C8AD"/>
<path fill-rule="evenodd" clip-rule="evenodd" d="M133.158 193.738C133.565 200.904 125.984 204.645 119.327 206.164C120.169 202.508 121.722 198.685 123.737 194.954C124.768 193.037 126.006 191.219 127.25 189.656C130.687 190.407 133.065 191.793 133.158 193.738Z" fill="#FBD55B"/>
<path fill-rule="evenodd" clip-rule="evenodd" d="M133.158 193.738C133.24 195.172 133.012 196.457 132.528 197.748C129.9 201.439 124.584 203.597 119.806 204.616C120.659 201.473 122.022 198.32 123.792 195.107C124.824 193.19 126.062 191.372 127.305 189.809C130.688 190.407 133.066 191.793 133.158 193.738Z" fill="#F58220"/>
<path fill-rule="evenodd" clip-rule="evenodd" d="M133.159 193.737C133.169 194.249 133.18 194.762 133.142 195.377C129.956 196.774 126.205 198.028 121.933 198.781C122.519 197.539 123.105 196.298 123.844 195.002C124.875 193.086 126.113 191.267 127.356 189.705C130.689 190.406 133.066 191.792 133.159 193.737Z" fill="#D7662C"/>
<path fill-rule="evenodd" clip-rule="evenodd" d="M111.076 192.103C113.475 192.106 115.43 195.192 115.511 199.032C115.489 202.824 113.616 205.987 111.217 205.984C108.818 205.982 106.863 202.896 106.782 199.056C106.804 195.264 108.676 192.101 111.076 192.103Z" fill="white"/>
<path fill-rule="evenodd" clip-rule="evenodd" d="M111.119 194.152C112.753 194.17 114.279 196.291 114.235 199.058C114.241 201.722 112.911 204.003 111.174 203.936C109.54 203.918 108.014 201.797 108.058 199.03C108.101 196.262 109.485 194.134 111.119 194.152Z" fill="#DAD9D4"/>
<g style="mix-blend-mode:soft-light" opacity="0.65">
<path fill-rule="evenodd" clip-rule="evenodd" d="M320.151 233.906L204.301 233.635V232.55L320.151 225.188V233.906Z" fill="white"/>
</g>
<path fill-rule="evenodd" clip-rule="evenodd" d="M144.604 263.137C147.561 263.137 149.955 265.54 149.955 268.51C149.955 271.479 147.561 273.882 144.604 273.882C141.647 273.882 139.253 271.479 139.253 268.51C139.253 265.54 141.647 263.137 144.604 263.137Z" fill="#1E1D2E"/>
<path fill-rule="evenodd" clip-rule="evenodd" d="M197.972 266.389C199.944 266.389 201.633 268.085 201.633 270.065C201.633 272.186 199.944 273.741 197.972 273.741C195.86 273.741 194.311 272.044 194.311 270.065C194.311 268.085 195.86 266.389 197.972 266.389Z" fill="#1E1D2E"/>
<path fill-rule="evenodd" clip-rule="evenodd" d="M144.466 269.012C145.008 269.507 145.715 269.781 146.449 269.781H201.562C204.323 269.781 206.562 267.543 206.562 264.781V259.867C206.562 257.306 204.626 255.158 202.078 254.894L183.073 252.92C182.405 252.85 181.73 252.916 181.087 253.114L145.585 264.026C143.408 264.695 142.784 267.477 144.466 269.012V269.012Z" fill="#7C898F"/>
<path fill-rule="evenodd" clip-rule="evenodd" d="M188.538 257.763H206.421V264.64C206.421 267.401 204.182 269.64 201.421 269.64H188.538V257.763Z" fill="#767D86"/>
<path fill-rule="evenodd" clip-rule="evenodd" d="M123.623 248.714L182.483 255.077L181.497 264.267L122.638 257.905L123.623 248.714Z" fill="#7C898F"/>
<path fill-rule="evenodd" clip-rule="evenodd" d="M131.65 248.431L181.356 253.38L175.301 256.066L123.482 250.411L131.65 248.431Z" fill="#465770"/>
<path fill-rule="evenodd" clip-rule="evenodd" d="M120.385 256.491L179.244 262.853L178.822 266.105L119.962 259.743L120.385 256.491Z" fill="#1E1D2E"/>
<path fill-rule="evenodd" clip-rule="evenodd" d="M120.385 245.614C120.385 245.062 120.833 244.614 121.385 244.614H130.65C131.202 244.614 131.65 245.062 131.65 245.614V254.006C131.65 254.241 131.567 254.469 131.416 254.649L127.437 259.394C127.251 259.616 126.978 259.746 126.688 259.751L120.42 259.86C119.722 259.872 119.227 259.182 119.461 258.525L120.327 256.088C120.366 255.981 120.385 255.867 120.385 255.753V245.614Z" fill="#1E1D2E"/>
<path fill-rule="evenodd" clip-rule="evenodd" d="M126.018 251.118C127.144 251.118 127.989 251.966 127.989 253.097C127.989 254.228 127.144 255.077 126.018 255.077C124.891 255.077 124.046 254.228 124.046 253.097C124.046 251.966 124.891 251.118 126.018 251.118Z" fill="#CCCCCC"/>
<path fill-rule="evenodd" clip-rule="evenodd" d="M122.637 257.057C123.2 257.057 123.764 257.481 123.764 258.188C123.764 258.753 123.341 259.319 122.637 259.319C122.074 259.319 121.511 258.895 121.511 258.188C121.652 257.481 122.074 257.057 122.637 257.057Z" fill="#CCCCCC"/>
<path d="M200.181 248.665C199.84 248.977 199.431 249.206 198.987 249.334L190.334 251.827C188.988 252.215 189.129 254.166 190.517 254.358L191.414 254.481C191.541 254.499 191.636 254.607 191.636 254.736V254.736C191.636 254.907 191.8 255.03 191.964 254.983L200.664 252.468C200.841 252.417 201.013 252.351 201.176 252.265C201.366 252.166 201.535 252.066 201.634 251.967L236.981 219.676C237.337 219.35 237.541 218.889 237.541 218.405V218.405C237.541 216.908 235.762 216.125 234.658 217.135L200.181 248.665Z" fill="#465770"/>
<path fill-rule="evenodd" clip-rule="evenodd" d="M127.367 267.272C127.322 268.644 128.422 269.781 129.795 269.781H185.538C187.194 269.781 188.538 268.438 188.538 266.781V257.997C188.538 256.489 187.418 255.215 185.922 255.022L169.468 252.898C169.044 252.843 168.612 252.88 168.203 253.005L129.082 265.03C128.09 265.335 127.402 266.235 127.367 267.272V267.272Z" fill="#465770"/>
<path fill-rule="evenodd" clip-rule="evenodd" d="M127.653 268.735C127.607 269.298 128.051 269.782 128.617 269.782H130.538C130.808 269.782 131.078 269.741 131.336 269.662L170.354 257.745C170.923 257.571 171.524 257.526 172.112 257.614L184.394 259.445C184.945 259.528 185.44 259.101 185.44 258.544V258.544C185.44 258.095 185.113 257.712 184.669 257.643L170.023 255.361C169.42 255.267 168.803 255.312 168.22 255.494L128.33 267.891C127.954 268.008 127.686 268.342 127.653 268.735V268.735Z" fill="#7C898F"/>
<path fill-rule="evenodd" clip-rule="evenodd" d="M125.031 263.137C127.988 263.137 130.382 265.54 130.382 268.51C130.382 271.479 127.988 273.882 125.031 273.882C122.074 273.882 119.68 271.479 119.68 268.51C119.68 265.54 122.074 263.137 125.031 263.137Z" fill="#1E1D2E"/>
<path fill-rule="evenodd" clip-rule="evenodd" d="M125.031 266.53C126.158 266.53 127.003 267.379 127.003 268.51C127.003 269.641 126.158 270.489 125.031 270.489C123.905 270.489 123.06 269.641 123.06 268.51C123.06 267.379 123.905 266.53 125.031 266.53Z" fill="#CCCCCC"/>
<path fill-rule="evenodd" clip-rule="evenodd" d="M178.4 266.389C180.371 266.389 182.061 268.085 182.061 270.065C182.061 272.186 180.371 273.741 178.4 273.741C176.428 273.741 174.739 272.044 174.739 270.065C174.598 268.085 176.288 266.389 178.4 266.389Z" fill="#1E1D2E"/>
<path fill-rule="evenodd" clip-rule="evenodd" d="M178.399 268.651C179.103 268.651 179.807 269.216 179.807 270.065C179.807 270.772 179.244 271.479 178.399 271.479C177.695 271.479 176.991 270.913 176.991 270.065C176.991 269.358 177.554 268.651 178.399 268.651Z" fill="#CCCCCC"/>
<path fill-rule="evenodd" clip-rule="evenodd" d="M172.908 265.611C172.908 265.338 173.129 265.116 173.403 265.116H183.255C183.529 265.116 183.75 265.338 183.75 265.611V265.611C183.75 265.884 183.529 266.106 183.255 266.106H173.403C173.129 266.106 172.908 265.884 172.908 265.611V265.611Z" fill="#767D86"/>
<path d="M228.063 222.453C227.236 223.209 227.191 224.496 227.962 225.308L228.161 225.517C228.913 226.307 230.158 226.35 230.962 225.614L236.891 220.182C237.305 219.803 237.54 219.268 237.54 218.707V218.328C237.54 216.589 235.475 215.679 234.191 216.852L228.063 222.453Z" fill="#1E1D2E"/>
<path fill-rule="evenodd" clip-rule="evenodd" d="M131.65 244.614H139.535V249.563H131.65V244.614Z" fill="#767D86"/>
<path fill-rule="evenodd" clip-rule="evenodd" d="M171.397 215.105C174.776 215.105 177.452 220.195 177.452 226.558C177.452 232.779 174.776 238.01 171.397 238.01C168.017 238.01 165.342 232.92 165.342 226.558C165.342 220.195 168.158 215.105 171.397 215.105Z" fill="#24282C"/>
<path fill-rule="evenodd" clip-rule="evenodd" d="M173.791 215.105C177.17 215.105 179.846 220.195 179.846 226.558C179.846 232.779 177.17 238.01 173.791 238.01C170.411 238.01 167.736 232.92 167.736 226.558C167.595 220.195 170.411 215.105 173.791 215.105Z" fill="#69777C"/>
<path d="M301.607 230.077H295.557V232.426H301.607V230.077Z" fill="#928E8F"/>
<path d="M300.652 230.077H294.602V232.426H300.652V230.077Z" fill="#C9C2C3"/>
<path d="M327.716 230.077H321.667V232.426H327.716V230.077Z" fill="#928E8F"/>
<path d="M326.761 230.077H320.711V232.426H326.761V230.077Z" fill="#C9C2C3"/>
<path fill-rule="evenodd" clip-rule="evenodd" d="M287.12 232.258H342.841V254.567H340.612V270H287.12V232.258Z" fill="#24282C"/>
<path fill-rule="evenodd" clip-rule="evenodd" d="M279 237.793C279 234.774 281.388 232.258 284.254 232.258H343C343 232.258 339.975 232.426 338.542 233.264C337.109 234.103 337.269 236.955 337.269 236.955V253.729H334.244V270H286.323C283.617 270 281.547 267.819 281.547 264.967V253.729L279 253.393V237.793Z" fill="#58595B"/>
<path fill-rule="evenodd" clip-rule="evenodd" d="M284.254 237.29H337.269V237.122C337.269 237.122 337.109 234.103 338.542 233.432C339.975 232.593 343 232.425 343 232.425H284.254C281.388 232.258 279 234.774 279 237.961V242.825C279 239.806 281.388 237.29 284.254 237.29Z" fill="#8C939C"/>
<path d="M342.682 253.729H281.547V254.568H342.682V253.729Z" fill="#24282C"/>
<path d="M311.86 249.427H307.969C307.417 249.427 306.969 249.875 306.969 250.427V255.976C306.969 256.528 307.417 256.976 307.969 256.976H311.86C312.412 256.976 312.86 256.528 312.86 255.976V250.427C312.86 249.875 312.412 249.427 311.86 249.427Z" fill="#928E8F"/>
<path d="M310.904 249.427H307.014C306.461 249.427 306.014 249.875 306.014 250.427V255.976C306.014 256.528 306.461 256.976 307.014 256.976H310.904C311.457 256.976 311.904 256.528 311.904 255.976V250.427C311.904 249.875 311.457 249.427 310.904 249.427Z" fill="#C9C2C3"/>
<path d="M309.631 250.602H307.969C307.417 250.602 306.969 251.049 306.969 251.602V254.969C306.969 255.522 307.417 255.969 307.969 255.969H309.631C310.183 255.969 310.631 255.522 310.631 254.969V251.602C310.631 251.049 310.183 250.602 309.631 250.602Z" fill="#928E8F"/>
<defs>
<clipPath id="clip0_7490_627028">
<rect width="34.2409" height="51.3723" fill="white" transform="translate(343.233 204.384) rotate(2.41421)"/>
</clipPath>
</defs>
</svg>
