<svg width="431" height="289" viewBox="0 0 431 289" fill="none" xmlns="http://www.w3.org/2000/svg">
<rect width="9.80982" height="2.6754" rx="0.891802" transform="matrix(0.931601 0.363483 -0.363486 0.9316 81.729 260.488)" fill="#A7A9AC"/>
<path d="M80.9828 259.674L79.8456 262.653L81.2697 265.713L85.0315 265.862L86.4883 262.443L84.3197 258.798L80.9828 259.674Z" fill="#BCBEC0" stroke="#BCBEC0" stroke-width="0.891802" stroke-linejoin="round"/>
<path d="M78.7624 262.633C78.7352 262.703 78.7455 262.782 78.7899 262.844L80.7846 265.628C80.8262 265.686 80.8927 265.722 80.9638 265.724L84.3086 265.822C84.3992 265.825 84.4813 265.773 84.5164 265.69L85.9731 262.271C85.9996 262.209 85.9958 262.138 85.9629 262.078L84.1546 258.77C84.1088 258.686 84.0155 258.639 83.9218 258.653L80.2246 259.192C80.1467 259.203 80.0815 259.254 80.0531 259.327L78.7624 262.633Z" fill="#E2E3E4" stroke="#E2E3E4" stroke-width="0.445901" stroke-linecap="round" stroke-linejoin="round"/>
<path fill-rule="evenodd" clip-rule="evenodd" d="M282.273 189.021C304.065 188.371 313.665 203.056 313.794 227.878C313.794 252.569 296.023 268.294 277.603 266.734C259.183 265.175 244.784 249.32 246.081 227.878C247.378 206.435 260.48 189.67 282.273 189.021Z" fill="#231F20"/>
<path fill-rule="evenodd" clip-rule="evenodd" d="M291.742 193.699C303.028 193.699 311.978 205.915 313.665 222.29C313.794 224.109 313.794 225.928 313.794 227.878C313.794 249.19 300.563 265.695 285.256 266.345C273.711 264.005 265.539 248.671 266.317 230.217C267.225 210.074 278.641 193.699 291.742 193.699Z" fill="#383431"/>
<path fill-rule="evenodd" clip-rule="evenodd" d="M291.872 198.248C302.509 198.248 312.627 211.503 310.292 230.996C307.957 250.49 298.099 258.677 288.759 259.717C279.419 260.886 269.95 246.461 270.728 230.087C271.377 213.842 281.235 198.248 291.872 198.248Z" fill="#A7A9AC"/>
<path fill-rule="evenodd" clip-rule="evenodd" d="M291.742 202.666C300.952 202.666 309.513 214.102 307.567 230.866C305.622 247.631 297.06 254.648 289.018 255.558C280.975 256.468 272.933 244.122 273.581 230.087C274.1 216.051 282.532 202.666 291.742 202.666Z" fill="#6D6E71"/>
<path fill-rule="evenodd" clip-rule="evenodd" d="M79.3504 216.474C98.7642 215.478 107.603 224.776 108.196 240.917C108.67 256.977 93.1307 267.672 76.6809 267.143C60.2311 266.614 47.0913 256.681 47.8356 242.7C48.5799 228.719 59.9366 217.471 79.3504 216.474Z" fill="#231F20"/>
<path fill-rule="evenodd" clip-rule="evenodd" d="M87.882 219.269C97.9421 218.971 106.155 226.681 107.973 237.287C108.124 238.467 108.159 239.65 108.196 240.918C108.606 254.78 97.1285 265.863 83.4963 266.689C73.16 265.471 65.5805 255.712 65.9197 243.689C66.3421 230.564 76.2031 219.614 87.882 219.269Z" fill="#383431"/>
<path fill-rule="evenodd" clip-rule="evenodd" d="M88.0844 222.221C97.5663 221.941 106.84 230.296 105.134 243.036C103.427 255.776 94.796 261.361 86.4904 262.283C78.1873 263.29 69.469 254.157 69.8481 243.487C70.1141 232.904 78.4869 222.505 88.0844 222.221Z" fill="#A7A9AC"/>
<path fill-rule="evenodd" clip-rule="evenodd" d="M88.0544 225.098C96.2643 224.855 104.116 232.068 102.703 243.023C101.291 253.978 93.7942 258.768 86.6424 259.571C79.4907 260.375 72.0842 252.557 72.3927 243.411C72.5855 234.269 79.8444 225.34 88.0544 225.098Z" fill="#6D6E71"/>
<path fill-rule="evenodd" clip-rule="evenodd" d="M109.482 253.087L341.875 249.162C351.894 247.475 380.992 245.224 391.011 243.536C401.845 198.925 369.025 184.896 345.795 174.219L96.6067 181.581L36.8576 251.058C54.7677 254.008 85.3152 253.801 109.482 253.087Z" fill="#58595B"/>
<g clip-path="url(#clip0_55706_528533)">
<path fill-rule="evenodd" clip-rule="evenodd" d="M358.442 208.308C362.596 208.185 366.073 214.466 366.309 222.439C366.539 230.235 363.444 236.888 359.29 237.01C355.13 236.956 351.653 230.675 351.423 222.879C351.187 214.906 354.288 208.431 358.442 208.308Z" fill="#383431"/>
<path fill-rule="evenodd" clip-rule="evenodd" d="M361.213 208.225C365.367 208.102 368.844 214.383 369.08 222.356C369.31 230.152 366.215 236.805 362.061 236.927C357.907 237.05 354.43 230.769 354.194 222.796C353.958 214.823 357.059 208.348 361.213 208.225Z" fill="#6D6E71"/>
</g>
<path fill-rule="evenodd" clip-rule="evenodd" d="M169.684 195.033C189.093 193.88 198.037 206.718 198.806 228.84C199.456 250.851 184.029 265.336 167.568 264.431C142.666 263.062 139.716 273.63 138.446 230.624C139.153 211.472 150.275 196.186 169.684 195.033Z" fill="#231F20"/>
<path fill-rule="evenodd" clip-rule="evenodd" d="M178.25 198.955C188.31 198.658 196.61 209.311 198.544 223.863C198.708 225.482 198.756 227.104 198.807 228.841C199.369 247.84 188.009 262.901 174.381 263.883C158.854 264.342 156.339 248.647 156.547 232.177C158.294 218.139 166.571 199.3 178.25 198.955Z" fill="#414042"/>
<path fill-rule="evenodd" clip-rule="evenodd" d="M178.484 203.006C187.966 202.726 197.334 214.276 195.766 231.714C194.198 249.152 185.626 256.71 177.328 257.883C169.033 259.171 158.382 249.434 160.475 231.945C160.741 217.444 169.002 203.286 178.484 203.006Z" fill="#E2E3E4"/>
<path fill-rule="evenodd" clip-rule="evenodd" d="M178.484 203.006C183.919 202.846 189.351 206.511 192.664 212.907C193.702 216.702 194.06 220.981 193.622 225.748C192.044 242.839 183.465 250.165 175.17 251.453C170.215 252.18 165.001 248.044 161.683 241.533C160.782 238.429 159.598 236.519 159.611 233.041C159.996 218.652 169.002 203.286 178.484 203.006Z" fill="#BCBEC0"/>
<path fill-rule="evenodd" clip-rule="evenodd" d="M175.607 242.742C175.356 245.996 175.475 250.051 175.105 253.192C177.418 253.124 179.587 252.132 181.505 250.452C181.308 247.675 179.134 244.609 176.637 242.364C176.399 242.139 176.168 242.146 175.94 242.268C175.824 242.272 175.6 242.51 175.607 242.742Z" fill="#A7A9AC"/>
<path fill-rule="evenodd" clip-rule="evenodd" d="M180.615 235.986C180.762 237.025 183.793 241.689 185.337 243.035C185.456 243.147 185.691 243.256 185.919 243.134C186.15 243.127 186.259 242.892 186.371 242.773C187.122 240.779 187.751 238.558 188.142 236.111C188.247 235.76 188.009 235.536 187.774 235.427C185.084 234.463 182.771 234.531 181.061 235.393C180.717 235.519 180.609 235.754 180.615 235.986Z" fill="#A7A9AC"/>
<path fill-rule="evenodd" clip-rule="evenodd" d="M181.546 228.306C183.984 228.582 186.535 228.738 188.865 229.249C188.888 226.118 188.575 223.345 187.921 220.813C184.419 223.699 181.722 226.446 181.546 228.306Z" fill="#A7A9AC"/>
<path fill-rule="evenodd" clip-rule="evenodd" d="M178.558 209.494L177.666 218.448C177.672 218.68 177.795 218.908 177.914 219.02C178.149 219.129 178.383 219.238 178.495 219.119C180.669 218.243 182.583 216.447 184.252 214.195C184.477 213.957 184.467 213.609 184.228 213.384C182.779 211.34 181.116 209.882 179.238 209.01C179.004 208.901 178.772 208.908 178.66 209.027C178.779 209.139 178.667 209.259 178.558 209.494Z" fill="#A7A9AC"/>
<path fill-rule="evenodd" clip-rule="evenodd" d="M165.898 215.782L171.239 220.262C173.31 219.853 174.967 209.369 172.641 208.974C168.805 208.392 167.061 212.038 165.643 214.978C165.653 215.326 165.663 215.673 165.898 215.782Z" fill="#A7A9AC"/>
<path fill-rule="evenodd" clip-rule="evenodd" d="M164.005 222.214C165.683 224.136 167.135 226.296 167.091 228.732C167.054 231.4 164.429 232.637 162.501 233.969C162.273 234.092 162.042 234.099 161.923 233.986C161.688 233.877 161.569 233.765 161.562 233.533C161.007 230.419 162.241 225.165 162.972 222.477C163.08 222.242 163.193 222.122 163.42 222C163.648 221.877 163.883 221.986 164.005 222.214Z" fill="#A7A9AC"/>
<path fill-rule="evenodd" clip-rule="evenodd" d="M167.354 249.364C170.016 245.459 170.634 242.89 169.334 238.059C168.375 236.927 165.454 239.912 163.298 241.367C163.07 241.49 162.965 241.841 162.972 242.073C163.748 244.832 164.86 247.234 166.313 249.395C166.436 249.623 166.67 249.732 166.901 249.725C167.017 249.722 167.129 249.602 167.354 249.364Z" fill="#A7A9AC"/>
<path fill-rule="evenodd" clip-rule="evenodd" d="M175.525 243.902C175.383 246.921 175.37 250.4 175.101 253.075C175.564 253.061 175.911 253.051 176.254 252.925C177.281 252.43 178.305 251.82 179.322 250.979C179.253 248.662 177.556 246.045 175.525 243.902Z" fill="#58595B"/>
<path fill-rule="evenodd" clip-rule="evenodd" d="M180.615 235.986C180.758 236.909 182.946 240.439 184.619 242.244C185.149 240.606 185.673 238.735 185.958 236.64C186.064 236.289 185.825 236.064 185.591 235.955C183.951 235.307 182.326 235.124 180.941 235.28C180.717 235.519 180.608 235.754 180.615 235.986Z" fill="#58595B"/>
<path fill-rule="evenodd" clip-rule="evenodd" d="M181.546 228.307C183.287 228.487 185.028 228.668 186.654 228.852C186.586 226.535 186.408 224.453 186.003 222.494C183.524 224.77 181.732 226.794 181.546 228.307Z" fill="#58595B"/>
<path fill-rule="evenodd" clip-rule="evenodd" d="M178.583 210.305L177.782 218.445C177.788 218.677 177.795 218.908 178.03 219.017C179.621 218.043 180.968 216.612 182.42 214.83C182.644 214.591 182.634 214.244 182.396 214.019C181.192 212.431 179.882 211.194 178.583 210.305Z" fill="#58595B"/>
<path fill-rule="evenodd" clip-rule="evenodd" d="M165.899 215.781L170.406 219.474C171.824 216.534 172.438 209.907 170.578 209.614C170.228 209.508 169.881 209.518 169.649 209.525C167.83 210.622 166.742 212.973 165.76 214.974C165.654 215.325 165.665 215.672 165.899 215.781Z" fill="#58595B"/>
<path fill-rule="evenodd" clip-rule="evenodd" d="M161.569 233.765C161.566 233.649 161.45 233.653 161.447 233.537C161.018 230.767 161.82 226.569 162.547 223.765C163.87 225.465 164.969 227.404 164.912 229.376C164.858 231.465 163.157 232.675 161.569 233.765Z" fill="#58595B"/>
<path fill-rule="evenodd" clip-rule="evenodd" d="M167.035 238.588C165.903 239.434 164.434 240.636 163.298 241.366C163.07 241.488 162.965 241.839 162.972 242.071C163.741 244.599 164.734 246.889 165.952 248.94C167.938 245.634 168.329 243.188 167.158 238.817C167.039 238.704 167.035 238.588 167.035 238.588Z" fill="#58595B"/>
<path fill-rule="evenodd" clip-rule="evenodd" d="M173.38 226.114C172.472 226.72 171.942 228.359 171.997 230.213C172.065 232.529 173.161 234.352 174.552 234.427C174.324 234.55 173.98 234.676 173.749 234.683C172.362 234.724 171.266 232.901 171.194 230.468C171.007 228.039 172.108 226.151 173.38 226.114Z" fill="#A7A9AC"/>
<path fill-rule="evenodd" clip-rule="evenodd" d="M174.858 233.028C175.783 233 176.439 231.706 176.391 230.084C176.343 228.462 175.612 227.208 174.687 227.236C173.761 227.263 173.105 228.558 173.153 230.179C173.086 231.805 173.933 233.055 174.858 233.028Z" fill="#A7A9AC"/>
<path fill-rule="evenodd" clip-rule="evenodd" d="M18.256 209.054C20.6349 199.476 26.0279 193.983 30.7886 190.596C57.9129 180.287 97.9613 172.611 125.559 166.578C161.694 163.54 200.217 162.981 226.038 167.32C208.792 186.845 177.618 165.852 150.517 192.625C166.946 204.197 110.098 238.69 103.577 249.085L22.4029 251.484C21.8856 249.644 21.2458 247.576 20.7183 245.388L21.759 245.357C21.2314 243.17 20.9351 240.976 20.4144 239.02L19.1424 239.058C16.9911 228.918 15.8326 217.126 18.256 209.054Z" fill="#E2304D"/>
<path fill-rule="evenodd" clip-rule="evenodd" d="M84.8301 209.987C107.579 173.024 200.915 170.963 213.445 171.984C206.818 163.136 159.871 164.523 123.029 167.118C136.06 157.69 154.786 145.194 179.092 137.403C194.684 132.421 224.065 131.901 243.743 132.015C274.073 132.278 310.447 133.407 329.347 138.53C340.081 141.459 351.945 159.122 356.776 165.936C361.123 172.069 384.049 168.493 392.062 173.358C403.494 180.325 403.235 195.057 402.259 212.942C410.38 213.629 409.083 224.567 402.135 240.077C399.359 240.159 391.585 243.403 388.81 243.485C394.465 164.591 327.14 185.247 332.728 245.142C300.467 246.095 234.701 245.097 202.324 246.054C210.947 187.975 172.744 169.065 154.091 202.971C140.789 227.148 154.367 212.339 143.885 247.78L114.79 248.64C106.138 233.938 132.363 212.757 109.359 213.669C84.3923 214.754 83.6164 211.994 84.8301 209.987Z" fill="#EC5F6B"/>
<path fill-rule="evenodd" clip-rule="evenodd" d="M224.229 172.709C224.317 167.837 234.412 153.045 248.099 142.322C250.36 140.516 255.169 138.75 262.328 138.191C282.07 136.564 298.055 137.02 318.009 142.575C324.427 144.357 342.413 169.449 334.094 169.927C305.312 171.125 253.022 171.858 224.229 172.709Z" fill="#EF1C31"/>
<path fill-rule="evenodd" clip-rule="evenodd" d="M126.482 229.162C116.084 237.586 106.124 245.185 103.693 249.083C69.9733 248.475 52.0569 248.923 22.4029 251.484C21.8857 249.644 21.2459 247.576 20.7183 245.389L21.759 245.358C21.2315 243.171 20.9352 240.976 20.4145 239.021L19.1425 239.058C18.7306 236.868 18.3187 234.677 17.9067 232.486L126.486 229.278L126.482 229.162Z" fill="#EC5F6B"/>
<path fill-rule="evenodd" clip-rule="evenodd" d="M30.3787 215.885C48.2709 214.313 66.9486 211.906 81.0292 214.505C82.8341 209.002 88.0464 201.312 95.6295 195.522C75.4375 193.684 50.764 196.848 28.3313 197.51C30.5324 201.503 32.1356 208.761 30.3787 215.885Z" fill="#58595B"/>
<path fill-rule="evenodd" clip-rule="evenodd" d="M26.6051 193.969C51.5783 193.115 85.3594 188.755 99.9161 191.803C117.735 195.567 132.137 193.402 133.229 195.109L99.9538 193.078C85.397 190.029 50.3474 194.543 25.4864 195.278C25.8196 194.804 26.2719 194.443 26.6051 193.969Z" fill="#EC5F6B"/>
<path fill-rule="evenodd" clip-rule="evenodd" d="M115.185 234.598C113.199 237.903 113.662 241.831 113.068 245.211C68.7148 244.016 46.6423 243.939 21.2556 247.924C21.0004 247.12 20.7451 246.316 20.4899 245.511L21.6462 245.477C21.1187 243.29 20.8224 241.096 20.3017 239.14L19.1454 239.174C19.016 238.714 18.8901 238.37 18.8765 237.907C49.7593 234.36 73.0722 234.379 115.185 234.598Z" fill="#58595B"/>
<path fill-rule="evenodd" clip-rule="evenodd" d="M22.1743 247.664L122.659 244.695C124.74 244.634 126.502 245.51 126.533 246.552C126.564 247.595 124.857 248.573 122.775 248.634C79.8719 247.898 57.6962 248.478 22.2906 251.603C20.2092 251.664 18.4474 250.789 18.4166 249.746C18.3824 248.588 20.0929 247.726 22.1743 247.664Z" fill="#EC5F6B"/>
<path fill-rule="evenodd" clip-rule="evenodd" d="M17.5875 217.772L85.4638 215.766C87.0827 215.718 88.5113 217.068 88.5593 218.689L88.8604 228.884C88.9083 230.506 87.5618 231.937 85.943 231.985L18.0666 233.99C16.4478 234.038 15.0191 232.688 14.9712 231.067L14.67 220.872C14.6221 219.25 15.9686 217.819 17.5875 217.772Z" fill="#E2304D"/>
<path fill-rule="evenodd" clip-rule="evenodd" d="M88.67 230.278C88.2348 231.219 87.2147 231.945 86.0583 231.979L18.0664 233.988C16.91 234.022 15.8488 233.357 15.3589 232.444L88.67 230.278Z" fill="#EF1C31"/>
<path fill-rule="evenodd" clip-rule="evenodd" d="M131.551 165.708C138.957 157.837 162.197 145.324 184.622 140.487C208.466 136.652 224.706 137.911 243.387 139.563C232.407 147.887 224.488 157.976 213.392 166.304C186.282 161.424 153.341 162.861 131.551 165.708Z" fill="#EDFEFF"/>
<path fill-rule="evenodd" clip-rule="evenodd" d="M226.865 171.82C226.963 167.295 236.626 153.56 249.639 143.552C251.788 141.866 256.369 140.223 263.181 139.674C282.002 138.19 297.289 138.55 316.305 143.67C322.373 145.346 339.61 168.605 331.523 169.076C304.131 170.349 254.27 171.011 226.865 171.82Z" fill="#82ADB1"/>
<path fill-rule="evenodd" clip-rule="evenodd" d="M226.865 171.819C226.871 168.109 233.297 158.411 242.754 149.436C251.975 156.004 263.714 169.455 257.511 171.029C245.948 171.371 235.306 171.57 226.865 171.819Z" fill="#C0D8DA"/>
<path fill-rule="evenodd" clip-rule="evenodd" d="M265.144 139.499C283.043 138.158 297.987 138.644 316.306 143.668C320.506 144.82 329.987 156.25 332.858 163.354L287.877 164.683C283.483 164.813 277.711 161.389 275.265 156.939L265.144 139.499Z" fill="#C0D8DA"/>
<path fill-rule="evenodd" clip-rule="evenodd" d="M266.416 139.463C275.194 138.856 283.176 138.736 291.41 139.305L277.176 170.683C268.615 170.819 260.059 171.072 252.076 171.192L266.416 139.463Z" fill="#ADC2C2" style="mix-blend-mode:overlay"/>
<path fill-rule="evenodd" clip-rule="evenodd" d="M297.33 139.94C302.905 140.587 308.493 141.697 314.441 143.26L302.271 170.055C296.142 170.236 289.782 170.424 283.419 170.496L297.33 139.94Z" fill="#ADC2C2" style="mix-blend-mode:overlay"/>
<path fill-rule="evenodd" clip-rule="evenodd" d="M14.6529 220.292C33.6166 219.731 49.0669 217.768 68.0307 217.207C72.7716 217.067 82.1892 218.528 86.9301 218.388C106.241 217.818 124.388 217.05 143.699 216.479C143.709 216.827 143.723 217.29 143.733 217.638L82.8152 220.133L66.6807 218.523L14.6871 221.45L14.6529 220.292Z" fill="#EC5F6B"/>
<path fill-rule="evenodd" clip-rule="evenodd" d="M74.3354 230.82L140.246 228.873L138.648 233.558C112.637 230.616 96.5985 232.249 74.3697 231.978L74.3354 230.82Z" fill="#EF1C31"/>
<path fill-rule="evenodd" clip-rule="evenodd" d="M233.453 159.799L237.386 171.509C233.802 171.615 230.333 171.718 226.748 171.823C226.904 169.268 228.624 164.811 233.453 159.799Z" fill="#576578"/>
<path fill-rule="evenodd" clip-rule="evenodd" d="M235.711 157.877C241.03 157.72 246.233 157.567 251.552 157.409C254.906 157.31 256.785 166.067 255 168.322C254.551 168.799 253.976 168.932 253.286 169.069C248.684 170.016 239.818 171.554 235.625 170.634C229.683 169.302 231.022 163.697 233.888 158.859C234.333 158.266 235.017 157.898 235.711 157.877Z" fill="#EC5F6B"/>
<path fill-rule="evenodd" clip-rule="evenodd" d="M235.711 157.877C241.03 157.72 246.234 157.566 251.553 157.409C254.328 157.327 255.999 162.959 255.636 166.332C249.412 167.212 241.679 167.904 237.492 167.216C233.655 166.634 232.101 164.94 232.043 162.971C232.464 161.567 233.12 160.272 234.004 158.855C234.334 158.266 235.018 157.898 235.711 157.877Z" fill="#E2304D"/>
<path fill-rule="evenodd" clip-rule="evenodd" d="M76.3671 221.252L141.074 217.717L141.108 218.876L75.0891 225L76.3671 221.252Z" fill="#E2304D"/>
<path fill-rule="evenodd" clip-rule="evenodd" d="M100.271 192.025C114.609 191.601 126.091 192.421 134.72 194.601C156.433 185.264 187.245 182.267 215.181 179.818L394.613 177.458C390.168 175.85 389.375 172.511 381.274 172.518C328.073 173.742 254.896 172.616 201.695 173.839C157.68 176.531 121.658 183.393 100.271 192.025Z" fill="#E2304D"/>
<path fill-rule="evenodd" clip-rule="evenodd" d="M30.6173 204.401C51.1862 203.329 75.7543 200.516 88.7805 202.682C88.7976 203.261 88.8181 203.957 88.8352 204.536C71.5307 202.496 50.8804 204.73 30.672 206.254C30.6549 205.675 30.6378 205.096 30.6173 204.401Z" fill="#E2304D"/>
<path fill-rule="evenodd" clip-rule="evenodd" d="M88.6377 237.007L104.017 236.553C105.058 236.522 105.891 237.309 105.922 238.351L106.004 241.132C106.035 242.174 105.249 243.009 104.209 243.04L88.8294 243.494C87.7887 243.525 86.9553 242.738 86.9245 241.695L86.8424 238.915C86.9272 237.869 87.7127 237.034 88.6377 237.007Z" fill="#414042"/>
<path fill-rule="evenodd" clip-rule="evenodd" d="M91.1817 236.931L104.017 236.552C104.942 236.524 105.772 237.195 105.796 238.006L105.868 240.439C105.892 241.25 105.103 241.969 104.062 242L91.3425 242.375C90.3018 242.406 89.4719 241.735 89.4479 240.924L89.376 238.491C89.4677 237.677 90.141 236.961 91.1817 236.931Z" fill="#EEE6D4"/>
<path fill-rule="evenodd" clip-rule="evenodd" d="M91.1817 236.931L104.017 236.551C104.942 236.524 105.772 237.195 105.796 238.006L105.81 238.47L89.3897 238.955L89.376 238.491C89.4677 237.677 90.141 236.961 91.1817 236.931Z" fill="#D2C8AD"/>
<path fill-rule="evenodd" clip-rule="evenodd" d="M19.2583 239.056L30.5903 238.721C31.631 238.691 32.4644 239.478 32.4952 240.52L32.5773 243.3C32.6081 244.343 31.8226 245.178 30.782 245.209L20.6063 245.509L21.4971 244.323C22.3914 243.254 20.6835 240.289 20.4181 239.138L19.2583 239.056Z" fill="#414042"/>
<path fill-rule="evenodd" clip-rule="evenodd" d="M20.4141 239.021L30.7054 238.717C31.6304 238.69 32.3448 239.365 32.3687 240.176L32.4406 242.608C32.4645 243.419 31.7913 244.135 30.8662 244.162L21.3843 244.442C21.1017 242.711 20.8157 240.865 20.4141 239.021Z" fill="#EEE6D4"/>
<path fill-rule="evenodd" clip-rule="evenodd" d="M20.4141 239.021L30.7054 238.717C31.6304 238.69 32.3448 239.365 32.3687 240.176L32.3824 240.639L20.8191 240.981C20.683 240.289 20.5502 239.713 20.4141 239.021Z" fill="#D2C8AD"/>
<path fill-rule="evenodd" clip-rule="evenodd" d="M30.4857 207.766C51.1532 206.112 72.7319 203.967 86.105 206.123C86.1221 206.702 86.1426 207.397 86.1597 207.977C69.6407 205.102 49.8135 207.775 30.5405 209.62C30.5234 209.041 30.5029 208.345 30.4857 207.766Z" fill="#E2304D"/>
<path fill-rule="evenodd" clip-rule="evenodd" d="M281.418 137.976L286.545 170.521L292.092 170.241L285.332 137.28L281.418 137.976Z" fill="#EF1C31"/>
<path fill-rule="evenodd" clip-rule="evenodd" d="M282.781 137.123L288.205 171.862L293.637 171.586L286.696 136.427L282.781 137.123Z" fill="#EC5F6B"/>
<path fill-rule="evenodd" clip-rule="evenodd" d="M134.675 197.037C135.537 206.635 122.931 210.834 115.547 211.632C107.355 212.453 99.9575 212.788 91.2646 212.349C89.7579 212.278 87.2783 210.612 87.9276 209.085C96.879 190.849 133.973 188.942 134.675 197.037Z" fill="#EF1C31"/>
<path fill-rule="evenodd" clip-rule="evenodd" d="M25.6028 195.273C28.3959 199.712 30.6176 204.4 30.6867 210.659C30.7141 211.586 30.2756 212.41 29.4832 213.014C28.6909 213.617 27.6605 213.995 26.5007 213.913C23.2562 213.777 20.2566 214.098 17.155 214.885C17.3247 212.793 17.7291 210.81 18.2559 209.055C19.7105 203.447 22.1243 198.97 25.6028 195.273Z" fill="#EF1C31"/>
<path fill-rule="evenodd" clip-rule="evenodd" d="M18.2559 209.056C19.5982 203.566 21.5701 199.798 24.9296 195.988C27.4913 200.435 28.9987 204.448 29.7617 210.687C30.2044 213.92 27.8137 215.266 27.1165 215.171C23.7563 215.038 20.3756 214.21 17.1687 215.349C17.3349 213.141 17.6168 210.93 18.2559 209.056Z" fill="#EC5F6B"/>
<path fill-rule="evenodd" clip-rule="evenodd" d="M17.1521 214.769C20.3487 213.284 23.1068 212.622 26.3547 212.874C27.1676 212.966 27.8546 212.714 28.4156 212.118C28.9767 211.521 29.1908 210.935 29.2825 210.121C29.1182 204.56 27.4952 200.55 25.294 196.557C21.3838 201.311 18.5895 208.582 17.1521 214.769Z" fill="#FFFCD5"/>
<path fill-rule="evenodd" clip-rule="evenodd" d="M17.4371 212.672C20.6372 211.303 23.7661 211.442 27.2488 211.803C28.0616 211.895 28.4051 211.769 28.9661 211.172C29.5272 210.576 29.1529 209.66 29.129 208.849C29.0769 203.169 27.2466 199.976 25.1782 196.559C21.4821 200.727 18.9389 204.744 17.4371 212.672Z" fill="#EEE6D4"/>
<path fill-rule="evenodd" clip-rule="evenodd" d="M29.0739 206.997C28.2603 202.963 26.6408 199.069 24.9329 196.105C22.5765 198.609 20.8085 201.444 19.3129 205.662C22.4555 206.265 25.3634 206.759 29.0739 206.997Z" fill="#D2C8AD"/>
<path fill-rule="evenodd" clip-rule="evenodd" d="M28.5049 203.419C29.0359 205.722 29.2268 208.267 29.0708 210.822C28.622 211.299 28.0541 211.664 27.4793 211.797C26.8978 211.698 26.4352 211.712 25.8536 211.613C24.0952 210.853 22.7513 208.458 22.6624 205.446C22.5597 201.971 24.0964 199.143 26.2866 198.846C27.1405 200.328 27.8788 201.814 28.5049 203.419Z" fill="white"/>
<path fill-rule="evenodd" clip-rule="evenodd" d="M26.6921 200.807C26.9233 200.8 27.1546 200.793 27.3893 200.902C27.7602 201.703 28.1344 202.619 28.5053 203.42C28.781 204.919 29.0602 206.534 29.1116 208.272C28.5642 209.331 27.7719 209.935 26.9624 209.958C25.3436 210.006 24.01 207.959 23.9347 205.41C23.8629 202.977 25.0732 200.855 26.6921 200.807Z" fill="#DAD9D4"/>
<path fill-rule="evenodd" clip-rule="evenodd" d="M35.2115 218.873C49.8305 222.283 57.933 225.039 72.3523 230.297C73.7536 230.72 74.6075 232.202 74.1895 233.722L71.7558 241.446C71.3343 242.85 69.7394 243.708 68.3381 243.286C52.1309 236.716 43.852 234.027 31.1974 231.861C29.7961 231.439 28.9422 229.957 29.3602 228.437L31.7939 220.713C32.3275 219.19 33.8068 218.334 35.2115 218.873Z" fill="#EAEEF0"/>
<path fill-rule="evenodd" clip-rule="evenodd" d="M35.8274 220.131L70.8663 230.922C71.9172 231.239 72.6384 232.145 72.6658 233.072C72.3052 232.619 71.8324 232.285 71.2474 232.07L36.2085 221.279C34.9229 220.853 33.4368 221.477 33.1241 222.645L31.1187 229.198C31.0099 229.433 31.0202 229.78 31.027 230.012C30.663 229.443 30.5269 228.751 30.741 228.165L32.7464 221.613C33.1713 220.325 34.5418 219.705 35.8274 220.131Z" fill="#B2C7CF"/>
<path fill-rule="evenodd" clip-rule="evenodd" d="M241.803 140.769C231.625 148.838 224.036 158.338 213.505 166.186C186.282 161.425 153.341 162.862 131.548 165.593C156.545 149.897 210.932 137.855 241.803 140.769Z" fill="#ADE3E3"/>
<path fill-rule="evenodd" clip-rule="evenodd" d="M213.505 166.186C213.039 166.083 212.692 166.094 212.226 165.991L210.947 165.797C210.134 165.705 209.202 165.501 208.389 165.409L208.274 165.413L206.995 165.218L206.879 165.222L205.6 165.028C204.788 164.936 204.09 164.84 203.278 164.749L203.046 164.755L202.931 164.759L202.699 164.766C201.887 164.674 201.074 164.582 200.261 164.49L199.101 164.408L197.941 164.326L197.826 164.33L196.897 164.241L196.316 164.143L195.156 164.061L195.04 164.064C194.227 163.972 193.299 163.884 192.49 163.908L192.374 163.911L191.561 163.819L190.983 163.836L190.17 163.744L189.708 163.758L188.779 163.67L188.432 163.68L187.157 163.602C185.881 163.523 184.606 163.445 183.334 163.483L182.987 163.493L182.062 163.52L181.715 163.53L181.368 163.541L181.137 163.547L180.096 163.578L179.518 163.595L178.709 163.619L178.246 163.633L177.437 163.657L176.28 163.691L176.165 163.694L175.24 163.722L174.662 163.739L173.737 163.766L173.39 163.776L172.58 163.8L172.002 163.817L170.846 163.852L170.268 163.869L170.036 163.875L168.996 163.906L168.764 163.913L167.724 163.944L167.377 163.954L166.452 163.981L165.874 163.998L164.948 164.026L164.717 164.033L163.677 164.063L163.098 164.08L162.405 164.101L161.826 164.118L161.248 164.135C160.439 164.159 159.629 164.183 158.82 164.207L157.548 164.244C156.276 164.282 155.12 164.316 153.967 164.466L153.736 164.473C152.926 164.497 152.232 164.517 151.426 164.657L151.311 164.661C150.501 164.684 149.692 164.708 149.001 164.845C142.88 165.257 137.227 165.888 132.153 166.502C145.042 160.092 165.909 153.446 186.049 149.605C204.72 146.966 220.898 146.14 235.951 146.391C228.606 152.406 221.996 159.79 213.505 166.186Z" fill="#9AC7C7"/>
<path fill-rule="evenodd" clip-rule="evenodd" d="M327.825 239.794L205.244 243.067L204.788 239.371L328.038 235.266L327.825 239.794Z" fill="#E2304D"/>
<path fill-rule="evenodd" clip-rule="evenodd" d="M226.864 171.818C232.133 193.46 233.513 224.493 228.575 245.393C248.695 244.799 265.231 244.31 285.351 243.716C293.269 229.684 299.745 213.84 300.377 192.14C300.902 182.501 294.194 174.815 287.694 170.253L226.864 171.818Z" fill="#EF1C31"/>
<path fill-rule="evenodd" clip-rule="evenodd" d="M227.913 172.02C233.365 192.033 235.323 223.049 229.732 245.36C249.274 244.782 264.191 244.342 283.733 243.764C289.316 221.222 299.964 178.124 286.661 170.516L227.913 172.02Z" fill="#EC5F6B"/>
<path fill-rule="evenodd" clip-rule="evenodd" d="M229.635 179.391L293.695 177.498C292.012 175.345 290.222 173.543 288.209 171.979L228.178 173.173C228.576 174.9 229.104 177.088 229.635 179.391Z" fill="#6EB8C0"/>
<path fill-rule="evenodd" clip-rule="evenodd" d="M287.806 170.134C300.012 183.687 289.633 221.562 283.063 245.989L328.8 245.373C325.53 220.889 334.966 199.466 346.97 190.531C347.502 181.124 341.029 173.547 334.76 168.978L287.806 170.134Z" fill="#EF1C31"/>
<path fill-rule="evenodd" clip-rule="evenodd" d="M288.28 170.468C300.834 180.185 292.33 221.368 285.417 245.92L327.413 245.415C324.143 220.931 333.348 199.515 345.467 190.577C346 181.169 339.526 173.592 333.257 169.024L288.276 170.353L288.28 170.468Z" fill="#EC5F6B"/>
<path fill-rule="evenodd" clip-rule="evenodd" d="M288.224 184.269L288.482 185.189C288.996 186.913 287.881 188.337 286.262 188.385L280.712 188.549C278.977 188.6 277.202 187.261 276.804 185.534L276.545 184.614L288.224 184.269Z" fill="#EF1C31"/>
<path fill-rule="evenodd" clip-rule="evenodd" d="M274.157 182.132L288.033 181.722C288.379 181.712 288.852 182.046 288.863 182.394L289.247 183.658C289.373 184.002 289.152 184.356 288.805 184.366L274.929 184.776C274.582 184.787 274.109 184.453 274.099 184.105L273.715 182.841C273.585 182.381 273.81 182.143 274.157 182.132Z" fill="#E2304D"/>
<path fill-rule="evenodd" clip-rule="evenodd" d="M338.294 182.789L338.552 183.709C339.066 185.433 337.951 186.857 336.332 186.905L330.782 187.069C329.047 187.12 327.272 185.781 326.873 184.054L326.615 183.134L338.294 182.789Z" fill="#EF1C31"/>
<path fill-rule="evenodd" clip-rule="evenodd" d="M324.226 180.652L338.102 180.242C338.449 180.232 338.922 180.566 338.932 180.914L339.317 182.178C339.443 182.522 339.222 182.876 338.875 182.886L324.999 183.296C324.652 183.307 324.179 182.973 324.169 182.625L323.785 181.361C323.655 180.901 323.88 180.663 324.226 180.652Z" fill="#E2304D"/>
<path fill-rule="evenodd" clip-rule="evenodd" d="M292.886 177.523L340.526 176.115C338.961 174.075 337.053 172.16 335.155 170.593C320.351 170.914 304.972 171.369 289.705 171.704C291.021 173.172 292.12 175.111 292.886 177.523Z" fill="#E2304D"/>
<path fill-rule="evenodd" clip-rule="evenodd" d="M229.635 179.391L291.845 177.553C291.301 174.786 289.981 173.202 288.202 171.747C267.616 172.24 247.145 172.728 228.178 173.173C228.699 175.129 229.223 177.2 229.635 179.391Z" fill="#E2304D"/>
<path fill-rule="evenodd" clip-rule="evenodd" d="M327.016 239.818L286.078 240.911C286.5 239.508 286.806 238.107 287.224 236.588L326.651 235.307C326.811 236.809 326.856 238.315 327.016 239.818Z" fill="#E2304D"/>
<path fill-rule="evenodd" clip-rule="evenodd" d="M202.126 194.087C223.248 193.463 240.506 192.954 261.627 192.33C289.553 191.505 317.778 190.671 345.856 189.841C345.866 190.189 342.819 193.259 342.83 193.607L261.664 193.488L202.161 195.246L202.126 194.087Z" fill="#E2304D"/>
<path fill-rule="evenodd" clip-rule="evenodd" d="M284.344 240.962L230.34 242.442C230.65 241.157 230.843 239.876 231.149 238.476L285.49 236.639C285.072 238.158 284.65 239.562 284.344 240.962Z" fill="#E2304D"/>
<path fill-rule="evenodd" clip-rule="evenodd" d="M388.218 211.689L399.203 211.365C404.087 212.148 405.869 213.719 406.373 215.095L389.766 217.093L388.218 211.689Z" fill="#E2304D"/>
<path fill-rule="evenodd" clip-rule="evenodd" d="M205.303 152.182L197.105 148.286L200.159 152.334L185.166 153.936L198.862 155.271L188.456 159.521L198.472 157.436L201.776 157.338L199.516 161.745L204.33 156.733L208.368 156.613L213.651 161.327L211.283 156.527L220.479 158.343L213.459 154.84L211.235 154.905L213.408 153.102L225.457 150.543L210.224 152.037L214.726 147.766L207.103 151.085L205.303 152.182Z" fill="#427B82"/>
<path fill-rule="evenodd" clip-rule="evenodd" d="M134.669 196.803C135.402 205.941 123.37 210.006 116.331 210.678C108.485 211.49 101.434 211.814 93.0884 211.365C91.5817 211.293 89.2177 209.624 89.9861 208.21C98.4989 190.799 133.978 189.055 134.669 196.803Z" fill="#58595B"/>
<path fill-rule="evenodd" clip-rule="evenodd" d="M111.089 239.447C106.51 231.55 104.656 219.294 113.919 208.279C125.251 194.674 134.983 194.35 137.144 203.98C129.44 216.988 118.686 226.482 111.089 239.447Z" fill="#808285"/>
<path fill-rule="evenodd" clip-rule="evenodd" d="M134.59 200.763C141.671 206.519 136.107 218.034 131.778 223.669C126.936 229.887 122.261 235.287 116.105 241.037C115.037 242.096 112.183 242.755 111.68 241.208C105.043 223.014 128.481 195.863 134.59 200.763Z" fill="#FFFCD5"/>
<path fill-rule="evenodd" clip-rule="evenodd" d="M134.589 200.762C135.712 201.682 136.513 202.732 137.143 203.977C138.401 209.846 134.491 217.437 131.099 221.691C126.257 227.909 121.582 233.309 115.427 239.059C114.422 239.968 111.826 240.646 111.089 239.445C106.472 221.306 128.674 196.033 134.589 200.762Z" fill="#EEE6D4"/>
<path fill-rule="evenodd" clip-rule="evenodd" d="M134.588 200.761C134.977 201.104 135.365 201.446 135.798 201.896C133.602 208.791 128.6 217.075 121.447 224.982C117.924 228.914 114.184 232.308 110.59 235.143C109.93 217.525 129.213 196.439 134.588 200.761Z" fill="#D2C8AD"/>
<path fill-rule="evenodd" clip-rule="evenodd" d="M134.589 200.761C140.202 205.362 137.8 213.592 134.375 219.61C132.23 216.478 130.446 212.7 129.048 208.639C128.326 206.555 127.82 204.385 127.508 202.385C130.418 200.328 133.078 199.499 134.589 200.761Z" fill="#FBD55B"/>
<path fill-rule="evenodd" clip-rule="evenodd" d="M134.589 200.761C135.712 201.681 136.513 202.732 137.143 203.977C138.093 208.469 136.062 213.922 133.551 218.193C131.794 215.404 130.379 212.226 129.199 208.703C128.478 206.619 127.971 204.448 127.659 202.449C130.418 200.328 133.078 199.498 134.589 200.761Z" fill="#F58220"/>
<path fill-rule="evenodd" clip-rule="evenodd" d="M134.588 200.761C134.977 201.104 135.366 201.446 135.798 201.896C134.657 205.236 133.024 208.901 130.66 212.613C130.137 211.324 129.614 210.036 129.154 208.596C128.433 206.512 127.926 204.341 127.614 202.342C130.417 200.328 133.077 199.499 134.588 200.761Z" fill="#D7662C"/>
<path fill-rule="evenodd" clip-rule="evenodd" d="M118.238 216.154C119.883 214.361 123.518 215.012 126.433 217.581C129.242 220.193 130.315 223.76 128.671 225.553C127.026 227.346 123.391 226.695 120.476 224.127C117.667 221.514 116.594 217.947 118.238 216.154Z" fill="white"/>
<path fill-rule="evenodd" clip-rule="evenodd" d="M119.794 217.523C120.926 216.313 123.549 216.624 125.58 218.551C127.567 220.371 128.355 222.928 127.116 224.182C125.984 225.392 123.361 225.08 121.33 223.153C119.299 221.226 118.662 218.733 119.794 217.523Z" fill="#DAD9D4"/>
<g style="mix-blend-mode:soft-light" opacity="0.65">
<path fill-rule="evenodd" clip-rule="evenodd" d="M325.197 238.024L207.678 237.75V236.652L325.197 229.206V238.024Z" fill="white"/>
</g>
<path fill-rule="evenodd" clip-rule="evenodd" d="M393.58 219.819C401.629 228.066 395.17 240.534 378.63 255.236C362.131 269.809 345.414 272.052 340.02 263.837C324.225 250.067 336.948 234.764 351.73 222.622C371.894 206.059 382.807 208.781 393.58 219.819Z" fill="#231F20"/>
<path fill-rule="evenodd" clip-rule="evenodd" d="M393.763 226.331C397.706 230.8 392.671 241.555 382.319 251.887C381.148 253.012 379.933 254.086 378.63 255.236C364.389 267.815 348.737 272.316 342.955 266.638C338.758 262.518 343.587 249.959 360.482 235.821C376.804 222.162 389.185 221.142 393.763 226.331Z" fill="#383431"/>
<path fill-rule="evenodd" clip-rule="evenodd" d="M390.769 229.069C394.486 233.281 389.164 245.111 375.323 255.692C361.481 266.272 352.566 267.2 348.608 264.115C344.563 261.107 350.218 247.597 361.431 238.241C372.512 228.91 387.052 224.856 390.769 229.069Z" fill="#A7A9AC"/>
<path fill-rule="evenodd" clip-rule="evenodd" d="M387.771 231.625C390.989 235.273 386.339 245.413 374.457 254.537C362.575 263.661 354.895 264.412 351.476 261.764C348.058 259.116 353.498 248.644 363.102 240.617C372.662 232.539 384.553 227.978 387.771 231.625Z" fill="#6D6E71"/>
<g style="mix-blend-mode:multiply" opacity="0.75">
<path fill-rule="evenodd" clip-rule="evenodd" d="M393.14 276.424C408.319 276.424 420.684 273.485 420.684 269.81C420.684 266.136 408.303 263.196 393.14 263.196C377.978 263.196 365.597 266.136 365.597 269.81C365.581 273.362 377.962 276.424 393.14 276.424Z" fill="#68667B"/>
</g>
<path fill-rule="evenodd" clip-rule="evenodd" d="M367.082 267.582C364.728 261.807 371.987 254.974 383.867 251.09C385.199 250.688 386.558 250.353 388.015 249.993C403.936 246.061 419.026 249.786 422.704 257.498C423.365 263.836 413.614 270.847 399.666 273.853C384.429 277.105 369.815 274.285 367.082 267.582Z" fill="#BCBEC0"/>
<path fill-rule="evenodd" clip-rule="evenodd" d="M367.169 266.386C364.781 260.528 373.885 252.146 391.139 249.3C408.392 246.455 417.632 250.149 420.622 255.073C423.723 259.969 413.469 268.242 399.242 271.284C385.126 274.298 369.558 272.245 367.169 266.386Z" fill="#E2E3E4"/>
<path fill-rule="evenodd" clip-rule="evenodd" d="M406.33 259.466C409.54 258.909 413.444 257.945 416.571 257.487C415.989 256.058 414.543 254.921 412.487 254.092C409.839 254.825 407.352 256.854 405.733 258.906C405.568 259.104 405.626 259.246 405.796 259.362C405.825 259.433 406.107 259.521 406.33 259.466Z" fill="#A7A9AC"/>
<path fill-rule="evenodd" clip-rule="evenodd" d="M398.661 257.818C399.636 257.499 403.481 254.583 404.441 253.324C404.523 253.225 404.577 253.054 404.407 252.939C404.349 252.796 404.096 252.78 403.956 252.736C401.856 252.704 399.562 252.799 397.103 253.092C396.739 253.103 396.575 253.301 396.521 253.471C396.187 255.362 396.77 256.791 397.987 257.67C398.186 257.857 398.438 257.873 398.661 257.818Z" fill="#A7A9AC"/>
<path fill-rule="evenodd" clip-rule="evenodd" d="M391.01 258.922C390.733 257.339 390.316 255.712 390.291 254.145C387.25 254.818 384.632 255.622 382.323 256.585C385.903 258.139 389.167 259.22 391.01 258.922Z" fill="#A7A9AC"/>
<path fill-rule="evenodd" clip-rule="evenodd" d="M373.443 264.911L382.322 263.504C382.546 263.449 382.74 263.323 382.822 263.224C382.875 263.053 382.928 262.883 382.788 262.839C381.454 261.674 379.286 260.873 376.73 260.325C376.448 260.237 376.114 260.32 375.949 260.518C374.291 261.871 373.249 263.229 372.822 264.593C372.769 264.763 372.827 264.906 372.968 264.95C373.05 264.851 373.191 264.895 373.443 264.911Z" fill="#A7A9AC"/>
<path fill-rule="evenodd" clip-rule="evenodd" d="M382.364 271.435L385.515 267.118C384.656 265.914 374.123 267.179 374.26 268.718C374.551 271.241 378.475 271.53 381.642 271.77C381.976 271.688 382.311 271.605 382.364 271.435Z" fill="#A7A9AC"/>
<path fill-rule="evenodd" clip-rule="evenodd" d="M389.023 271.208C390.512 269.739 392.281 268.359 394.652 267.852C397.247 267.289 399.032 268.657 400.754 269.568C400.924 269.684 400.982 269.827 400.899 269.926C400.846 270.096 400.764 270.195 400.541 270.25C397.646 271.28 392.277 271.662 389.508 271.795C389.256 271.779 389.116 271.735 388.946 271.62C388.776 271.505 388.829 271.334 389.023 271.208Z" fill="#A7A9AC"/>
<path fill-rule="evenodd" clip-rule="evenodd" d="M414.592 263.164C410.213 262.359 407.584 262.536 403.191 264.407C402.309 265.254 405.854 266.423 407.746 267.45C407.916 267.565 408.28 267.554 408.503 267.499C411.005 266.409 413.085 265.188 414.854 263.807C415.048 263.681 415.102 263.51 415.043 263.367C415.014 263.296 414.874 263.252 414.592 263.164Z" fill="#A7A9AC"/>
<path fill-rule="evenodd" clip-rule="evenodd" d="M407.473 259.262C410.431 258.689 413.806 257.934 416.458 257.515C416.342 257.229 416.255 257.015 416.056 256.828C415.347 256.295 414.528 255.79 413.485 255.34C411.254 255.891 409.097 257.524 407.473 259.262Z" fill="#58595B"/>
<path fill-rule="evenodd" clip-rule="evenodd" d="M398.66 257.821C399.523 257.529 402.456 255.389 403.833 253.948C402.126 253.977 400.196 254.06 398.101 254.342C397.737 254.353 397.573 254.551 397.519 254.722C397.258 255.887 397.442 256.942 397.903 257.772C398.185 257.86 398.437 257.876 398.66 257.821Z" fill="#58595B"/>
<path fill-rule="evenodd" clip-rule="evenodd" d="M391.008 258.924C390.794 257.797 390.58 256.67 390.396 255.615C388.165 256.166 386.186 256.733 384.378 257.416C387.137 258.464 389.499 259.139 391.008 258.924Z" fill="#58595B"/>
<path fill-rule="evenodd" clip-rule="evenodd" d="M374.221 264.72L382.29 263.435C382.513 263.38 382.736 263.325 382.79 263.154C381.49 262.375 379.802 261.848 377.75 261.332C377.469 261.245 377.134 261.327 376.969 261.525C375.699 262.625 374.793 263.714 374.221 264.72Z" fill="#58595B"/>
<path fill-rule="evenodd" clip-rule="evenodd" d="M382.364 271.44L384.938 267.816C381.771 267.576 375.209 268.646 375.341 269.872C375.316 270.114 375.404 270.328 375.462 270.471C376.932 271.366 379.454 271.529 381.612 271.704C381.976 271.693 382.31 271.61 382.364 271.44Z" fill="#58595B"/>
<path fill-rule="evenodd" clip-rule="evenodd" d="M400.762 270.198C400.65 270.226 400.679 270.297 400.568 270.325C397.978 271.2 393.73 271.621 390.85 271.782C392.203 270.583 393.836 269.471 395.762 269.075C397.798 268.65 399.35 269.446 400.762 270.198Z" fill="#58595B"/>
<path fill-rule="evenodd" clip-rule="evenodd" d="M404.218 265.731C405.29 266.252 406.784 266.905 407.744 267.454C407.914 267.57 408.277 267.558 408.501 267.503C410.78 266.469 412.777 265.346 414.494 264.136C410.846 263.622 408.388 263.914 404.412 265.604C404.329 265.703 404.218 265.731 404.218 265.731Z" fill="#58595B"/>
<path fill-rule="evenodd" clip-rule="evenodd" d="M390.708 264.504C391.499 264.938 393.206 264.91 394.991 264.469C397.221 263.918 398.743 262.834 398.505 261.95C398.675 262.065 398.874 262.252 398.932 262.395C399.282 263.252 397.76 264.336 395.417 264.914C393.105 265.564 391.029 265.29 390.708 264.504Z" fill="#A7A9AC"/>
<path fill-rule="evenodd" clip-rule="evenodd" d="M397.079 262.066C396.846 261.494 395.444 261.368 393.883 261.754C392.322 262.14 391.269 262.871 391.503 263.443C391.736 264.014 393.137 264.14 394.698 263.754C396.289 263.44 397.312 262.637 397.079 262.066Z" fill="#A7A9AC"/>
<defs>
<clipPath id="clip0_55706_528533">
<rect width="17.836" height="28.5376" fill="white" transform="translate(351 208.527) rotate(-1.69221)"/>
</clipPath>
</defs>
</svg>
