<svg width="422" height="350" viewBox="0 0 422 350" fill="none" xmlns="http://www.w3.org/2000/svg">
<mask id="mask0_54920_511330" style="mask-type:alpha" maskUnits="userSpaceOnUse" x="121" y="83" width="301" height="218">
<path d="M421.263 284.258C421.263 293.095 414.1 300.258 405.263 300.258L137.722 300.258C128.886 300.258 121.722 293.095 121.722 284.258L121.722 99.1767C121.722 90.3402 128.886 83.1767 137.722 83.1767L405.263 83.1767C414.1 83.1767 421.263 90.3401 421.263 99.1767L421.263 284.258Z" fill="#C4C4C4"/>
</mask>
<g mask="url(#mask0_54920_511330)">
<path d="M67.3935 155.715C75.131 220.887 70.9589 250.669 88.5869 308.777C107.62 371.517 131.029 374.439 194.848 358.655C226.671 344.98 251.932 344.772 282.853 350.218C406.473 355.24 406.552 333.493 428.725 236.807C469.918 57.1875 424.152 40.3605 376.422 -1.34049C300.255 -67.887 49.5354 5.29651 67.3935 155.715Z" fill="url(#paint0_linear_54920_511330)"/>
<path opacity="0.29" d="M230.981 134.229C230.981 134.229 284.112 135.476 324.074 134.229C364.035 132.983 359.604 142.904 384.708 142.953C415.266 143.003 464.095 144.125 456.341 138.533C451.265 134.877 424.222 134.121 424.222 134.121C424.222 134.121 428.82 132.767 428.82 129.967C428.82 127.167 418.644 122.215 415.36 122.764C412.076 123.312 405.843 116.673 402.235 112.793C398.626 108.913 388.45 104.634 380.897 109.27C373.345 113.907 379.258 117.23 377.619 118.892C375.979 120.553 364.818 120.553 358.251 120.553C351.683 120.553 337.903 117.23 337.248 121.102C336.593 124.974 275.87 123.877 275.216 127.749C274.561 131.621 230.981 134.229 230.981 134.229Z" fill="white"/>
<path opacity="0.35" d="M236.478 84.6819C236.478 84.6819 232.7 83.5788 224.928 85.1992C217.156 86.8196 216.467 84.1218 203.286 81.8345C190.106 79.5471 188.614 82.4972 188.614 82.4972C188.614 82.4972 175.978 76.7937 168.203 77.9951C160.427 79.1965 157.418 84.2116 153.467 88.7393C153.467 88.7393 142.449 85.7465 134.425 89.5944C126.401 93.4423 134.573 95.6356 134.573 95.6356L110.227 96.7301C110.227 96.7301 92.2242 101.69 105.99 102.391C105.99 102.391 124.138 103.319 142.604 104.61C161.069 105.901 172.824 100.702 183.184 102.784C193.543 104.866 196.351 104.135 206.296 102.314C216.24 100.492 229.798 105.482 243.753 101.809C257.708 98.1367 302.559 103.596 296.855 100.351C291.151 97.1063 271.237 100.535 271.788 97.5381C271.788 97.5381 279.841 94.5795 271.392 94.1178C262.943 93.656 275.141 91.5867 263.465 88.2134C251.79 84.8401 250.559 85.3189 248.04 85.0068C245.522 84.6947 238.795 79.8507 236.708 82.1209C234.621 84.3912 236.478 84.6819 236.478 84.6819Z" fill="white"/>
<path opacity="0.46" d="M44.5751 117.015C44.5751 117.015 106.281 108.098 128.56 117.015C128.56 117.015 141.13 123.385 121.133 125.296C121.133 125.296 171.412 127.844 183.41 130.392C195.409 132.94 183.41 136.087 183.41 136.087C183.41 136.087 230.829 136.753 229.686 140.575C228.544 144.397 142.273 139.301 153.125 144.397C163.977 149.493 186.835 143.76 193.691 148.219C200.547 152.678 135.413 155.863 120.558 154.589C105.702 153.315 57.7086 161.596 44.5712 161.596C31.4339 161.596 44.5751 117.015 44.5751 117.015Z" fill="white"/>
<path fill-rule="evenodd" clip-rule="evenodd" d="M400.563 136.251C400.563 135.345 399.829 134.611 398.923 134.611C398.018 134.611 397.284 133.877 397.284 132.971V128.915C397.284 127.81 396.388 126.915 395.284 126.915H395.184C394.079 126.915 393.184 126.019 393.184 124.915V119.392C393.184 118.287 392.288 117.392 391.184 117.392H388.029H387.444H384.29C383.185 117.392 382.29 118.287 382.29 119.392V124.923C382.29 126.023 381.398 126.915 380.298 126.915C379.198 126.915 378.307 127.806 378.307 128.906V132.611C378.307 133.716 377.411 134.611 376.307 134.611H374.567C373.462 134.611 372.567 135.507 372.567 136.611V142.432C372.567 143.522 371.694 144.409 370.604 144.447C364.723 144.652 360.619 145.241 360.619 145.83V148.308V148.178V149.874C360.619 149.874 360.619 149.874 360.619 150.004V153.135C360.619 153.135 360.619 153.135 360.619 153.004V154.7C360.619 154.7 360.619 154.7 360.619 154.831V157.961V157.831V159.527V159.657V162.788C360.619 162.788 360.619 162.788 360.619 162.657V164.353C360.619 164.353 360.619 164.353 360.619 164.484V167.614C360.619 167.614 360.619 167.614 360.619 167.484V169.18V171.919V173.615V173.746V176.876V176.746V178.442V178.572V181.703V183.399V183.529V184.008C360.619 185.112 359.723 186.008 358.619 186.008H358.167C357.063 186.008 356.167 185.112 356.167 184.008V135.437C356.167 134.333 355.272 133.437 354.167 133.437H352.31C351.206 133.437 350.31 132.542 350.31 131.437V109.217C350.31 108.113 349.415 107.217 348.31 107.217H346.922C345.817 107.217 344.922 106.322 344.922 105.217V99.564C344.922 98.4594 344.026 97.564 342.922 97.564H338.253C337.149 97.564 336.253 98.4594 336.253 99.564V105.217C336.253 106.322 335.358 107.217 334.253 107.217H332.865C331.76 107.217 330.865 108.113 330.865 109.217V131.437C330.865 132.542 329.97 133.437 328.865 133.437H325.66C325.3 133.437 325.008 133.729 325.008 134.089C325.008 134.45 324.716 134.742 324.356 134.742H324.247C323.826 134.742 323.485 135.083 323.485 135.503V135.546C323.485 135.966 323.826 136.307 324.247 136.307C324.667 136.307 325.008 136.648 325.008 137.068V137.894C325.008 138.314 324.667 138.655 324.247 138.655C323.826 138.655 323.485 138.996 323.485 139.416V139.459C323.485 139.88 323.826 140.22 324.247 140.22C324.667 140.22 325.008 140.561 325.008 140.982V141.807C325.008 142.228 324.667 142.568 324.247 142.568C323.826 142.568 323.485 142.909 323.485 143.33V143.372C323.485 143.793 323.826 144.134 324.247 144.134C324.667 144.134 325.008 144.475 325.008 144.895V145.721C325.008 146.141 324.667 146.482 324.247 146.482C323.826 146.482 323.485 146.823 323.485 147.243V147.677C323.485 148.098 323.826 148.439 324.247 148.439C324.667 148.439 325.008 148.78 325.008 149.2V150.025C325.008 150.446 324.667 150.787 324.247 150.787C323.826 150.787 323.485 151.128 323.485 151.548V151.591C323.485 152.011 323.826 152.352 324.247 152.352C324.667 152.352 325.008 152.693 325.008 153.113V153.939C325.008 154.359 324.667 154.7 324.247 154.7C323.826 154.7 323.485 155.041 323.485 155.462V155.504C323.485 155.925 323.826 156.266 324.247 156.266C324.667 156.266 325.008 156.606 325.008 157.027V158.113C325.008 158.534 324.667 158.874 324.247 158.874C323.826 158.874 323.485 159.215 323.485 159.636V159.678C323.485 160.099 323.826 160.44 324.247 160.44C324.667 160.44 325.008 160.781 325.008 161.201V162.027C325.008 162.447 324.667 162.788 324.247 162.788C323.826 162.788 323.485 163.129 323.485 163.549V163.592C323.485 164.012 323.826 164.353 324.247 164.353C324.667 164.353 325.008 164.694 325.008 165.115V165.94C325.008 166.36 324.667 166.701 324.247 166.701C323.826 166.701 323.485 167.042 323.485 167.463V167.505C323.485 167.926 323.826 168.267 324.247 168.267C324.667 168.267 325.008 168.608 325.008 169.028V169.853C325.008 170.274 324.667 170.615 324.247 170.615C323.826 170.615 323.485 170.956 323.485 171.376V171.419C323.485 171.839 323.826 172.18 324.247 172.18C324.667 172.18 325.008 172.521 325.008 172.942V173.767C325.008 174.187 324.667 174.528 324.247 174.528C323.826 174.528 323.485 174.869 323.485 175.29V175.332C323.485 175.753 323.826 176.094 324.247 176.094C324.667 176.094 325.008 176.434 325.008 176.855V177.68C325.008 178.101 324.667 178.442 324.247 178.442C323.826 178.442 323.485 178.783 323.485 179.203V179.246C323.485 179.666 323.826 180.007 324.247 180.007H324.551C324.804 180.007 325.008 180.211 325.008 180.464C325.008 180.716 324.804 180.92 324.551 180.92H321.854C320.749 180.92 319.854 181.816 319.854 182.92V210.749C319.854 211.854 320.749 212.749 321.854 212.749H398.563C399.668 212.749 400.563 211.854 400.563 210.749V136.251Z" fill="url(#paint1_linear_54920_511330)"/>
<path fill-rule="evenodd" clip-rule="evenodd" d="M344.898 192.921C343.96 192.921 343.258 192.138 343.258 191.095V189.66C343.258 189.49 343.312 189.326 343.405 189.184C343.798 188.578 344.078 187.88 344.078 187.181C344.078 185.355 342.789 180.659 341.149 180.659C339.509 180.659 338.221 185.355 338.221 187.181C338.221 187.556 337.914 187.964 337.54 187.964H336.204C335.442 187.964 334.823 187.346 334.823 186.583V142.8C334.823 142.024 334.194 141.394 333.418 141.394C332.641 141.394 332.012 140.765 332.012 139.988V138.482C332.012 137.641 331.33 136.959 330.489 136.959H330.271C329.551 136.959 328.966 136.375 328.966 135.654V133.924C328.966 133.439 328.573 133.046 328.088 133.046C327.603 133.046 327.209 132.652 327.209 132.167V130.741C327.209 129.636 326.314 128.741 325.209 128.741H323.587C322.482 128.741 321.587 129.636 321.587 130.741V132.167C321.587 132.652 321.193 133.046 320.708 133.046C320.223 133.046 319.83 133.439 319.83 133.924V135.567C319.83 136.408 319.148 137.089 318.307 137.089C317.466 137.089 316.784 137.771 316.784 138.612V140.351C316.784 140.999 316.258 141.525 315.61 141.525H315.203C314.329 141.525 313.621 142.233 313.621 143.106V156.092C313.621 157.196 312.726 158.092 311.621 158.092H289.499C288.394 158.092 287.499 157.196 287.499 156.092V143.034C287.499 142.128 286.765 141.394 285.859 141.394C284.953 141.394 284.219 140.66 284.219 139.754V137.603C284.219 137.247 283.93 136.959 283.575 136.959C283.219 136.959 282.93 136.67 282.93 136.315V136.046C282.93 135.325 282.346 134.741 281.626 134.741H279.081C278.36 134.741 277.776 135.325 277.776 136.046C277.776 136.55 277.367 136.959 276.863 136.959H275.995C275.491 136.959 275.082 136.55 275.082 136.046C275.082 135.325 274.498 134.741 273.778 134.741H271.271C270.659 134.741 270.162 135.238 270.162 135.85V136.315C270.162 136.67 269.874 136.959 269.518 136.959C269.162 136.959 268.874 137.247 268.874 137.603V140.351C268.874 140.927 268.401 141.394 267.825 141.394C267.242 141.394 266.765 141.866 266.765 142.448V201.618C266.765 202.722 267.661 203.618 268.765 203.618H344.078C345.366 203.618 346.538 202.444 346.538 200.878V198.269V198.139V194.617C346.538 193.704 345.835 192.921 344.898 192.921Z" fill="url(#paint2_linear_54920_511330)"/>
<path fill-rule="evenodd" clip-rule="evenodd" d="M49.8002 184.26C47.8818 183.833 45.5797 184.153 43.3736 185.33C42.7981 184.046 42.0307 183.191 40.8797 182.763C38.4817 181.908 35.7 183.833 34.1652 187.255C33.3979 186.827 32.5346 186.613 31.5754 186.399C27.7386 185.757 24.2855 187.361 23.4222 190.249C23.0385 190.249 22.5589 190.142 22.1752 190.142C22.1752 190.035 22.0793 189.928 22.0793 189.821C21.3119 187.575 18.818 186.399 16.0363 186.613C16.5159 185.437 16.6118 184.153 16.2282 182.977C15.173 180.09 11.1444 179.02 7.21167 180.731C6.73207 180.945 6.34839 181.159 5.9647 181.373C4.42998 177.951 1.74422 175.491 -1.42115 175.064V212.492C0.209493 213.026 2.03198 213.347 3.95038 213.347C7.40351 213.347 10.473 212.385 12.9669 210.888C15.269 212.171 18.1466 212.92 21.216 212.92C24.6691 212.92 27.7386 211.957 30.2325 210.46C32.5346 211.743 35.4122 212.492 38.4817 212.492C40.3041 212.492 42.0307 212.171 43.6613 211.743C44.4287 212.171 45.3879 212.385 46.2512 212.599V216.555C46.9226 216.342 47.5941 216.128 48.2655 215.807C50.088 216.342 52.0064 216.662 54.1166 216.662C57.5698 216.662 60.8311 215.807 63.4209 214.31C66.2026 216.021 69.7516 217.09 73.5884 217.09C77.0416 217.09 80.3029 216.235 82.8927 214.737C85.6744 216.448 89.2234 217.518 93.0602 217.518C95.746 217.518 98.2399 216.983 100.446 216.128C103.132 217.625 106.297 218.48 109.846 218.48C111.573 218.48 113.203 218.266 114.738 217.839C116.944 217.625 119.055 216.983 120.973 216.128C122.796 216.983 124.906 217.625 127.208 217.839C128.743 218.266 130.373 218.48 132.1 218.48C135.553 218.48 138.814 217.625 141.5 216.128C143.706 216.983 146.2 217.518 148.886 217.518C152.723 217.518 156.272 216.448 159.053 214.737C161.739 216.235 164.904 217.09 168.358 217.09C172.194 217.09 175.743 216.021 178.525 214.31C181.211 215.807 184.376 216.662 187.829 216.662C189.844 216.662 191.858 216.342 193.681 215.807C194.352 216.128 195.023 216.342 195.695 216.555V212.599C196.654 212.385 197.517 212.064 198.285 211.743C199.915 212.278 201.642 212.492 203.464 212.492C206.534 212.492 209.411 211.743 211.714 210.46C214.207 212.064 217.277 212.92 220.73 212.92C223.799 212.92 225.814 214.737 228.212 213.454C230.706 215.058 234.638 213.347 238.092 213.347C238.571 213.347 238.955 213.347 239.434 213.347C239.914 213.347 240.298 213.347 240.777 213.347C244.23 213.347 248.163 214.951 250.657 213.454C252.959 214.737 255.069 212.92 258.139 212.92C261.592 212.92 264.661 211.957 267.155 210.46C269.457 211.743 272.335 212.492 275.405 212.492C277.227 212.492 278.954 212.171 280.584 211.743C281.352 212.171 282.311 212.492 283.174 212.599V216.555C283.846 216.342 284.517 216.128 285.188 215.807C287.011 216.342 288.929 216.662 291.04 216.662C294.493 216.662 297.754 215.807 300.344 214.31C303.125 216.021 306.675 217.09 310.511 217.09C313.964 217.09 317.226 216.235 319.816 214.737C322.597 216.448 326.146 217.518 329.983 217.518C332.669 217.518 335.163 216.983 337.369 216.128C340.055 217.625 343.22 218.48 346.769 218.48C348.496 218.48 350.126 218.266 351.661 217.839C353.867 217.625 355.978 216.983 357.896 216.128C359.718 216.983 361.829 217.625 364.131 217.839C365.665 218.266 367.296 218.48 369.023 218.48C372.476 218.48 375.737 217.625 378.423 216.128C380.629 216.983 383.123 217.518 385.809 217.518C389.646 217.518 393.195 216.448 395.976 214.737C398.662 216.235 401.827 217.09 405.28 217.09C409.117 217.09 412.666 216.021 415.448 214.31C418.134 215.807 421.299 216.662 424.752 216.662C426.671 216.662 428.589 216.342 430.316 215.914V184.046C429.932 184.046 429.452 184.153 429.069 184.26C428.589 183.726 428.014 183.298 427.342 183.084C424.656 182.122 421.491 184.367 419.764 188.217C418.901 187.789 417.942 187.468 416.887 187.255C412.57 186.506 408.638 188.431 407.678 191.532C407.199 191.425 406.719 191.425 406.24 191.425C406.24 191.318 406.144 191.211 406.144 190.997C405.28 188.431 402.499 187.148 399.333 187.468C399.813 186.078 399.909 184.688 399.525 183.405C398.374 179.983 393.77 178.806 389.358 180.731C388.878 180.945 388.399 181.159 387.919 181.48C386.192 177.416 383.123 174.636 379.382 174.315C378.327 174.208 377.272 174.315 376.217 174.636C377.368 170.038 376.217 165.546 373.339 164.37C370.749 163.301 367.68 165.118 365.761 168.647C364.61 167.899 363.363 167.471 362.02 167.364C360.582 167.257 359.239 167.471 357.896 168.006C351.661 165.332 336.026 160.948 339.575 174.529C338.52 174.208 337.465 174.101 336.41 174.208C332.669 174.529 329.504 177.416 327.873 181.373C327.393 181.052 326.914 180.838 326.434 180.624C322.022 178.7 317.514 179.876 316.267 183.298C315.787 184.581 315.883 185.971 316.458 187.361C313.293 187.041 310.511 188.431 309.648 190.89C309.648 190.997 309.552 191.104 309.552 191.318C309.073 191.318 308.593 191.425 308.113 191.425C307.154 188.217 303.221 186.399 298.905 187.148C297.85 187.361 296.891 187.682 296.027 188.11C294.301 184.26 291.135 182.015 288.45 182.977C287.778 183.191 287.203 183.619 286.723 184.153C284.805 183.726 282.503 184.046 280.296 185.223C279.721 183.939 278.954 183.084 277.803 182.656C275.405 181.801 271.76 178.913 270.225 182.335C266.964 180.731 261.88 179.341 261.88 185.864C260.345 184.26 259.002 185.864 259.002 186.827C258.235 183.939 257.18 183.939 254.782 184.153C257.372 177.309 250.082 172.283 244.614 178.058C242.12 172.069 238.667 175.171 236.173 181.159C235.789 180.945 235.31 180.731 234.926 180.517C230.993 178.806 226.965 179.876 225.91 182.87C225.526 184.046 225.622 185.223 226.102 186.506C223.32 186.292 220.826 187.468 220.059 189.714C220.059 189.821 219.963 189.928 219.963 190.035C219.579 190.035 219.099 190.035 218.716 190.142C217.852 187.361 214.399 185.65 210.562 186.292C209.603 186.506 208.74 186.72 207.973 187.148C206.438 183.726 203.656 181.694 201.258 182.656C200.203 183.084 199.34 183.939 198.764 185.223C196.558 184.046 194.256 183.726 192.338 184.153C191.858 183.619 191.283 183.191 190.611 182.977C187.925 182.015 184.76 184.26 183.033 188.11C182.17 187.682 181.211 187.361 180.156 187.148C175.839 186.399 171.907 188.324 170.947 191.425C170.468 191.318 169.988 191.318 169.509 191.318C169.509 191.211 169.413 191.104 169.413 190.89C168.549 188.324 165.768 187.041 162.602 187.361C163.082 185.971 163.178 184.581 162.794 183.298C161.643 179.876 157.039 178.7 152.627 180.624C152.147 180.838 151.667 181.052 151.188 181.373C149.461 177.309 146.392 174.529 142.651 174.208C141.596 174.101 140.541 174.208 139.486 174.529C143.035 160.841 127.4 165.332 121.165 168.006C119.822 167.471 118.479 167.257 117.04 167.364C115.697 167.471 114.45 167.899 113.299 168.647C111.381 165.118 108.312 163.301 105.722 164.37C102.844 165.546 101.693 170.038 102.844 174.636C101.789 174.315 100.734 174.208 99.6787 174.315C95.9379 174.636 92.8684 177.523 91.1418 181.48C90.6622 181.159 90.1826 180.945 89.703 180.731C85.2907 178.806 80.7825 179.983 79.5355 183.405C79.0559 184.688 79.1518 186.078 79.7273 187.468C76.562 187.148 73.7803 188.538 72.917 190.997C72.917 191.104 72.8211 191.211 72.8211 191.425C72.3415 191.425 71.8619 191.532 71.3823 191.532C70.4231 188.324 66.4903 186.506 62.1739 187.255C61.1188 187.468 60.1596 187.789 59.2963 188.217C57.5698 184.367 54.4044 182.122 51.7186 183.084C50.9513 183.298 50.3758 183.726 49.8002 184.26Z" fill="#77C2CC"/>
<path d="M441.3 318.505L457.742 214.449C457.742 214.449 410.349 206.362 390.037 206.362C276.344 206.362 223.122 200.602 109.546 206.362C75.9054 208.068 23.4643 212.023 23.4643 212.023V318.505H441.3Z" fill="#A3CEC4"/>
<path d="M499.801 233.653H93.5861V364.157H499.801V233.653Z" fill="url(#paint3_linear_54920_511330)"/>
<path d="M502.667 238.171H73.8086V246.225H502.667V238.171Z" fill="#A6BACA"/>
<path opacity="0.6" d="M490.949 246.315H84.391C84.391 246.315 52.7659 369.748 139.947 316.502C227.127 263.256 395.056 316.502 395.056 316.502L490.949 246.315Z" fill="url(#paint4_linear_54920_511330)"/>
<path d="M568.004 233.82H8.47257V238.082H568.004V233.82Z" fill="#B1BDCD"/>
<path d="M568.004 236.554H8.47257V238.081H568.004V236.554Z" fill="#C4CDDF"/>
</g>
<path fill-rule="evenodd" clip-rule="evenodd" d="M254.919 226.32C267.447 225.947 272.966 234.385 273.041 248.648C273.041 262.836 262.824 271.872 252.234 270.975C241.644 270.079 233.366 260.969 234.111 248.648C234.857 236.327 242.39 226.694 254.919 226.32Z" fill="#231F20"/>
<path fill-rule="evenodd" clip-rule="evenodd" d="M260.363 229.009C266.851 229.009 271.997 236.028 272.966 245.437C273.041 246.482 273.041 247.528 273.041 248.648C273.041 260.894 265.434 270.378 256.634 270.751C249.996 269.407 245.298 260.596 245.746 249.992C246.268 238.418 252.83 229.009 260.363 229.009Z" fill="#383431"/>
<path fill-rule="evenodd" clip-rule="evenodd" d="M260.437 231.622C266.553 231.622 272.37 239.239 271.027 250.44C269.685 261.641 264.017 266.346 258.647 266.943C253.278 267.615 247.834 259.326 248.281 249.917C248.654 240.583 254.322 231.622 260.437 231.622Z" fill="#A7A9AC"/>
<path fill-rule="evenodd" clip-rule="evenodd" d="M260.363 234.161C265.658 234.161 270.58 240.732 269.461 250.365C268.342 259.998 263.42 264.031 258.797 264.554C254.173 265.076 249.549 257.982 249.922 249.917C250.22 241.853 255.068 234.161 260.363 234.161Z" fill="#6D6E71"/>
<path fill-rule="evenodd" clip-rule="evenodd" d="M143.127 226.32C155.656 225.947 161.175 234.385 161.25 248.648C161.25 262.836 151.033 271.872 140.443 270.975C129.853 270.079 121.575 260.969 122.32 248.648C123.066 236.327 130.598 226.694 143.127 226.32Z" fill="#231F20"/>
<path fill-rule="evenodd" clip-rule="evenodd" d="M148.571 229.009C155.06 229.009 160.205 236.028 161.175 245.437C161.25 246.482 161.25 247.528 161.25 248.648C161.25 260.894 153.643 270.378 144.843 270.751C138.205 269.407 133.507 260.596 133.954 249.992C134.476 238.418 141.039 229.009 148.571 229.009Z" fill="#383431"/>
<path fill-rule="evenodd" clip-rule="evenodd" d="M148.646 231.622C154.761 231.622 160.578 239.239 159.236 250.44C157.894 261.641 152.226 266.346 146.856 266.943C141.487 267.615 136.042 259.326 136.49 249.917C136.863 240.583 142.456 231.622 148.646 231.622Z" fill="#A7A9AC"/>
<path fill-rule="evenodd" clip-rule="evenodd" d="M148.571 234.161C153.866 234.161 158.789 240.732 157.67 250.365C156.551 259.998 151.629 264.031 147.005 264.554C142.382 265.076 137.758 257.982 138.131 249.917C138.429 241.853 143.276 234.161 148.571 234.161Z" fill="#6D6E71"/>
<path fill-rule="evenodd" clip-rule="evenodd" d="M161.846 260.67H311.672C318.16 259.774 336.954 258.878 343.442 257.982C351.272 229.457 330.391 221.69 315.624 214.372H154.911L115.086 257.982C126.571 260.222 146.26 260.67 161.846 260.67Z" fill="#58595B"/>
<path fill-rule="evenodd" clip-rule="evenodd" d="M201.745 226.32C214.274 225.947 219.793 234.385 219.867 248.648C219.867 262.836 209.65 271.872 199.06 270.975C188.47 270.079 180.192 260.969 180.938 248.648C181.758 236.327 189.216 226.694 201.745 226.32Z" fill="#231F20"/>
<path fill-rule="evenodd" clip-rule="evenodd" d="M207.189 229.009C213.677 229.009 218.823 236.028 219.793 245.437C219.867 246.482 219.867 247.528 219.867 248.648C219.867 260.894 212.26 270.378 203.46 270.751C196.823 269.407 192.124 260.596 192.572 249.992C193.094 238.418 199.657 229.009 207.189 229.009Z" fill="#414042"/>
<path fill-rule="evenodd" clip-rule="evenodd" d="M207.264 231.622C213.379 231.622 219.196 239.239 217.854 250.44C216.511 261.641 210.843 266.346 205.474 266.943C200.104 267.615 194.66 259.326 195.108 249.917C195.555 240.583 201.148 231.622 207.264 231.622Z" fill="#E2E3E4"/>
<path fill-rule="evenodd" clip-rule="evenodd" d="M207.264 231.622C210.769 231.622 214.199 234.086 216.213 238.268C216.81 240.732 216.959 243.495 216.586 246.557C215.243 257.534 209.576 262.089 204.206 262.761C200.999 263.135 197.718 260.372 195.704 256.115C195.182 254.099 194.958 251.933 195.033 249.693C195.555 240.434 201.148 231.622 207.264 231.622Z" fill="#BCBEC0"/>
<path fill-rule="evenodd" clip-rule="evenodd" d="M204.653 257.161C204.43 259.252 204.43 261.865 204.131 263.881C205.623 263.881 207.04 263.284 208.308 262.239C208.233 260.446 206.891 258.43 205.325 256.937C205.176 256.787 205.026 256.787 204.877 256.862C204.803 256.862 204.653 257.011 204.653 257.161Z" fill="#A7A9AC"/>
<path fill-rule="evenodd" clip-rule="evenodd" d="M208.009 252.904C208.084 253.576 209.948 256.638 210.918 257.534C210.993 257.609 211.142 257.683 211.291 257.609C211.44 257.609 211.515 257.459 211.589 257.385C212.111 256.115 212.559 254.696 212.857 253.128C212.932 252.904 212.782 252.755 212.633 252.68C210.918 252.008 209.426 252.008 208.308 252.531C208.084 252.606 208.009 252.755 208.009 252.904Z" fill="#A7A9AC"/>
<path fill-rule="evenodd" clip-rule="evenodd" d="M208.755 247.976C210.321 248.2 211.962 248.349 213.454 248.723C213.528 246.706 213.379 244.914 213.006 243.271C210.694 245.064 208.904 246.781 208.755 247.976Z" fill="#A7A9AC"/>
<path fill-rule="evenodd" clip-rule="evenodd" d="M207.189 235.804L206.443 241.554C206.443 241.703 206.518 241.853 206.592 241.927C206.742 242.002 206.891 242.077 206.965 242.002C208.382 241.479 209.65 240.359 210.769 238.94C210.918 238.791 210.918 238.567 210.769 238.418C209.874 237.073 208.83 236.103 207.637 235.505C207.487 235.431 207.338 235.431 207.264 235.505C207.338 235.58 207.264 235.655 207.189 235.804Z" fill="#A7A9AC"/>
<path fill-rule="evenodd" clip-rule="evenodd" d="M198.911 239.612L202.267 242.599C203.609 242.375 204.877 235.655 203.386 235.356C200.925 234.908 199.731 237.223 198.762 239.09C198.762 239.314 198.762 239.538 198.911 239.612Z" fill="#A7A9AC"/>
<path fill-rule="evenodd" clip-rule="evenodd" d="M197.569 243.719C198.613 244.989 199.508 246.408 199.433 247.976C199.358 249.693 197.643 250.44 196.375 251.262C196.226 251.336 196.077 251.336 196.002 251.262C195.853 251.187 195.779 251.112 195.779 250.963C195.48 248.947 196.375 245.586 196.897 243.869C196.972 243.719 197.047 243.645 197.196 243.57C197.345 243.495 197.494 243.57 197.569 243.719Z" fill="#A7A9AC"/>
<path fill-rule="evenodd" clip-rule="evenodd" d="M199.209 261.268C200.999 258.804 201.447 257.161 200.701 254.024C200.104 253.278 198.165 255.145 196.748 256.041C196.599 256.115 196.525 256.339 196.525 256.489C196.972 258.281 197.643 259.849 198.538 261.268C198.613 261.417 198.762 261.492 198.911 261.492C198.986 261.492 199.06 261.417 199.209 261.268Z" fill="#A7A9AC"/>
<path fill-rule="evenodd" clip-rule="evenodd" d="M204.579 257.907C204.43 259.849 204.355 262.089 204.131 263.807C204.43 263.807 204.654 263.807 204.877 263.732C205.548 263.433 206.22 263.06 206.891 262.537C206.891 261.044 205.847 259.326 204.579 257.907Z" fill="#58595B"/>
<path fill-rule="evenodd" clip-rule="evenodd" d="M208.009 252.904C208.084 253.502 209.426 255.817 210.471 257.012C210.843 255.966 211.216 254.771 211.44 253.427C211.515 253.203 211.365 253.054 211.216 252.979C210.172 252.531 209.128 252.382 208.233 252.456C208.084 252.606 208.009 252.755 208.009 252.904Z" fill="#58595B"/>
<path fill-rule="evenodd" clip-rule="evenodd" d="M208.755 247.976C209.874 248.125 210.993 248.274 212.037 248.424C212.037 246.93 211.962 245.586 211.738 244.317C210.098 245.735 208.904 247.005 208.755 247.976Z" fill="#58595B"/>
<path fill-rule="evenodd" clip-rule="evenodd" d="M207.189 236.327L206.518 241.554C206.518 241.703 206.518 241.853 206.667 241.927C207.711 241.33 208.606 240.434 209.576 239.314C209.725 239.164 209.725 238.94 209.576 238.791C208.83 237.745 208.009 236.924 207.189 236.327Z" fill="#58595B"/>
<path fill-rule="evenodd" clip-rule="evenodd" d="M198.911 239.612L201.745 242.077C202.714 240.21 203.237 235.953 202.043 235.729C201.82 235.655 201.596 235.655 201.447 235.655C200.253 236.327 199.508 237.82 198.836 239.09C198.762 239.314 198.762 239.538 198.911 239.612Z" fill="#58595B"/>
<path fill-rule="evenodd" clip-rule="evenodd" d="M195.779 251.112C195.779 251.037 195.704 251.037 195.704 250.963C195.481 249.171 196.077 246.482 196.599 244.69C197.419 245.81 198.091 247.08 198.016 248.349C197.942 249.693 196.823 250.44 195.779 251.112Z" fill="#58595B"/>
<path fill-rule="evenodd" clip-rule="evenodd" d="M199.209 254.323C198.464 254.846 197.494 255.592 196.748 256.041C196.599 256.115 196.525 256.339 196.525 256.489C196.972 258.131 197.569 259.625 198.314 260.969C199.657 258.878 199.955 257.31 199.284 254.472C199.209 254.398 199.209 254.323 199.209 254.323Z" fill="#58595B"/>
<path fill-rule="evenodd" clip-rule="evenodd" d="M203.535 246.408C202.938 246.781 202.565 247.826 202.565 249.021C202.565 250.515 203.236 251.709 204.131 251.784C203.982 251.859 203.759 251.933 203.609 251.933C202.714 251.933 202.043 250.739 202.043 249.171C201.969 247.602 202.714 246.408 203.535 246.408Z" fill="#A7A9AC"/>
<path fill-rule="evenodd" clip-rule="evenodd" d="M204.355 250.888C204.952 250.888 205.399 250.067 205.399 249.021C205.399 247.976 204.952 247.155 204.355 247.155C203.759 247.155 203.311 247.976 203.311 249.021C203.237 250.067 203.759 250.888 204.355 250.888Z" fill="#A7A9AC"/>
<path fill-rule="evenodd" clip-rule="evenodd" d="M103.9 230.577C105.615 224.453 109.195 221.018 112.327 218.928C130.002 212.804 155.955 208.622 173.853 205.262C197.196 203.993 222.03 204.366 238.586 207.652C227.101 219.898 207.413 205.785 189.44 222.512C199.806 230.278 162.517 251.411 158.117 257.982H105.764C105.466 256.787 105.093 255.443 104.795 254.025H105.466C105.168 252.606 105.018 251.187 104.72 249.917H103.9C102.706 243.346 102.184 235.729 103.9 230.577Z" fill="#E2304D"/>
<path fill-rule="evenodd" clip-rule="evenodd" d="M322.784 226.32C335.313 225.947 340.832 234.385 340.906 248.648C340.906 262.836 330.689 271.872 320.099 270.975C309.509 270.079 301.231 260.969 301.977 248.648C302.723 236.327 310.255 226.694 322.784 226.32Z" fill="#231F20"/>
<path fill-rule="evenodd" clip-rule="evenodd" d="M328.228 229.009C334.716 229.009 339.862 236.028 340.832 245.437C340.906 246.482 340.906 247.528 340.906 248.648C340.906 260.894 333.299 270.378 324.499 270.751C317.862 269.407 313.163 260.596 313.611 249.992C314.133 238.418 320.696 229.009 328.228 229.009Z" fill="#414042"/>
<path fill-rule="evenodd" clip-rule="evenodd" d="M328.303 231.622C334.418 231.622 340.235 239.239 338.893 250.44C337.55 261.641 331.882 266.346 326.513 266.943C321.143 267.615 315.699 259.326 316.147 249.917C316.594 240.583 322.187 231.622 328.303 231.622Z" fill="#E2E3E4"/>
<path fill-rule="evenodd" clip-rule="evenodd" d="M328.303 231.622C331.808 231.622 335.238 234.086 337.252 238.268C337.849 240.732 337.998 243.495 337.625 246.557C336.282 257.534 330.615 262.089 325.245 262.761C322.038 263.135 318.757 260.372 316.743 256.115C316.221 254.099 315.997 251.933 316.072 249.693C316.594 240.434 322.187 231.622 328.303 231.622Z" fill="#BCBEC0"/>
<path fill-rule="evenodd" clip-rule="evenodd" d="M325.692 257.161C325.469 259.252 325.469 261.865 325.17 263.881C326.662 263.881 328.079 263.284 329.347 262.239C329.272 260.446 327.93 258.43 326.364 256.937C326.214 256.787 326.065 256.787 325.916 256.862C325.842 256.862 325.692 257.011 325.692 257.161Z" fill="#A7A9AC"/>
<path fill-rule="evenodd" clip-rule="evenodd" d="M329.048 252.904C329.123 253.576 330.987 256.638 331.957 257.534C332.032 257.609 332.181 257.683 332.33 257.609C332.479 257.609 332.554 257.459 332.628 257.385C333.15 256.115 333.598 254.696 333.896 253.128C333.971 252.904 333.821 252.755 333.672 252.68C331.957 252.008 330.465 252.008 329.347 252.531C329.123 252.606 329.048 252.755 329.048 252.904Z" fill="#A7A9AC"/>
<path fill-rule="evenodd" clip-rule="evenodd" d="M329.794 247.976C331.36 248.2 333.001 248.349 334.492 248.723C334.567 246.706 334.418 244.914 334.045 243.271C331.733 245.064 329.943 246.781 329.794 247.976Z" fill="#A7A9AC"/>
<path fill-rule="evenodd" clip-rule="evenodd" d="M328.228 235.804L327.482 241.554C327.482 241.703 327.557 241.853 327.631 241.927C327.781 242.002 327.93 242.077 328.004 242.002C329.421 241.479 330.689 240.359 331.808 238.94C331.957 238.791 331.957 238.567 331.808 238.418C330.913 237.073 329.869 236.103 328.676 235.505C328.526 235.431 328.377 235.431 328.303 235.505C328.377 235.58 328.303 235.655 328.228 235.804Z" fill="#A7A9AC"/>
<path fill-rule="evenodd" clip-rule="evenodd" d="M319.95 239.612L323.306 242.599C324.648 242.375 325.916 235.655 324.425 235.356C321.964 234.908 320.77 237.223 319.801 239.09C319.726 239.314 319.801 239.538 319.95 239.612Z" fill="#A7A9AC"/>
<path fill-rule="evenodd" clip-rule="evenodd" d="M318.608 243.719C319.652 244.989 320.547 246.408 320.472 247.976C320.397 249.693 318.682 250.44 317.414 251.262C317.265 251.336 317.116 251.336 317.041 251.262C316.892 251.187 316.818 251.112 316.818 250.963C316.519 248.947 317.414 245.586 317.936 243.869C318.011 243.719 318.086 243.645 318.235 243.57C318.384 243.495 318.533 243.57 318.608 243.719Z" fill="#A7A9AC"/>
<path fill-rule="evenodd" clip-rule="evenodd" d="M320.248 261.268C322.038 258.804 322.486 257.161 321.74 254.024C321.143 253.278 319.204 255.145 317.787 256.041C317.638 256.115 317.564 256.339 317.564 256.489C318.011 258.281 318.757 259.849 319.577 261.268C319.652 261.417 319.801 261.492 319.95 261.492C320.025 261.492 320.099 261.417 320.248 261.268Z" fill="#A7A9AC"/>
<path fill-rule="evenodd" clip-rule="evenodd" d="M325.618 257.907C325.469 259.849 325.394 262.089 325.17 263.807C325.469 263.807 325.692 263.807 325.916 263.732C326.587 263.433 327.258 263.06 327.93 262.537C327.93 261.044 326.886 259.326 325.618 257.907Z" fill="#58595B"/>
<path fill-rule="evenodd" clip-rule="evenodd" d="M329.048 252.904C329.123 253.502 330.465 255.817 331.509 257.012C331.882 255.966 332.255 254.771 332.479 253.427C332.553 253.203 332.404 253.054 332.255 252.979C331.211 252.531 330.167 252.382 329.272 252.456C329.123 252.606 329.048 252.755 329.048 252.904Z" fill="#58595B"/>
<path fill-rule="evenodd" clip-rule="evenodd" d="M329.794 247.976C330.913 248.125 332.031 248.274 333.076 248.424C333.076 246.93 333.001 245.586 332.777 244.317C331.137 245.735 329.943 247.005 329.794 247.976Z" fill="#58595B"/>
<path fill-rule="evenodd" clip-rule="evenodd" d="M328.228 236.327L327.557 241.554C327.557 241.703 327.557 241.853 327.706 241.927C328.75 241.33 329.645 240.434 330.615 239.314C330.764 239.164 330.764 238.94 330.615 238.791C329.869 237.745 329.048 236.924 328.228 236.327Z" fill="#58595B"/>
<path fill-rule="evenodd" clip-rule="evenodd" d="M319.95 239.612L322.784 242.077C323.753 240.21 324.275 235.953 323.082 235.729C322.858 235.655 322.635 235.655 322.486 235.655C321.292 236.327 320.547 237.82 319.875 239.09C319.726 239.314 319.801 239.538 319.95 239.612Z" fill="#58595B"/>
<path fill-rule="evenodd" clip-rule="evenodd" d="M316.818 251.112C316.818 251.037 316.743 251.037 316.743 250.963C316.519 249.171 317.116 246.482 317.638 244.69C318.458 245.81 319.13 247.08 319.055 248.349C318.98 249.693 317.862 250.44 316.818 251.112Z" fill="#58595B"/>
<path fill-rule="evenodd" clip-rule="evenodd" d="M320.174 254.323C319.428 254.846 318.458 255.592 317.713 256.041C317.563 256.115 317.489 256.339 317.489 256.489C317.936 258.131 318.533 259.625 319.279 260.969C320.621 258.878 320.92 257.31 320.248 254.472C320.248 254.398 320.248 254.323 320.174 254.323Z" fill="#58595B"/>
<path fill-rule="evenodd" clip-rule="evenodd" d="M324.574 246.408C323.977 246.781 323.604 247.826 323.604 249.021C323.604 250.515 324.275 251.709 325.17 251.784C325.021 251.859 324.797 251.933 324.648 251.933C323.753 251.933 323.082 250.739 323.082 249.171C323.008 247.602 323.753 246.408 324.574 246.408Z" fill="#A7A9AC"/>
<path fill-rule="evenodd" clip-rule="evenodd" d="M325.394 250.888C325.991 250.888 326.438 250.067 326.438 249.021C326.438 247.976 325.991 247.155 325.394 247.155C324.798 247.155 324.35 247.976 324.35 249.021C324.275 250.067 324.798 250.888 325.394 250.888Z" fill="#A7A9AC"/>
<path fill-rule="evenodd" clip-rule="evenodd" d="M146.782 232.443C162.145 209.07 222.328 209.518 230.383 210.415C226.281 204.59 196.003 204.59 172.212 205.561C180.789 199.736 193.094 192.045 208.904 187.49C219.047 184.577 237.99 184.801 250.668 185.249C270.207 185.996 293.624 187.415 305.706 191.074C312.567 193.165 319.875 202.872 322.858 207.353C325.543 211.385 340.384 209.518 345.455 212.804C352.689 217.509 352.242 226.992 351.272 238.492C356.493 239.089 355.449 246.109 350.676 255.966C348.886 255.966 343.815 257.907 342.025 257.907C347.171 207.204 303.394 219.226 305.855 257.907C285.048 257.907 242.688 257.907 221.806 257.907C230.383 209.966 186.382 205.635 183.697 257.907H165.351C160.056 248.274 177.358 235.132 162.517 235.281C146.409 235.505 145.961 233.713 146.782 232.443Z" fill="#EC5F6B"/>
<path fill-rule="evenodd" clip-rule="evenodd" d="M237.318 211.087C237.467 207.95 244.254 198.616 253.278 191.97C254.769 190.85 257.902 189.805 262.525 189.581C275.278 188.908 285.57 189.506 298.323 193.464C302.424 194.733 313.536 211.236 308.167 211.385C289.597 211.609 255.888 211.087 237.318 211.087Z" fill="#D23040"/>
<path fill-rule="evenodd" clip-rule="evenodd" d="M173.257 245.586C166.395 250.813 159.833 255.518 158.192 257.982H105.764C105.466 256.787 105.093 255.443 104.795 254.024H105.466C105.168 252.606 105.018 251.187 104.72 249.917H103.9C103.676 248.498 103.452 247.08 103.229 245.661H173.257V245.586Z" fill="#EC5F6B"/>
<path fill-rule="evenodd" clip-rule="evenodd" d="M111.581 235.207C121.948 235.207 130.1 235.281 144.246 235.281C145.514 231.771 149.019 226.918 154.016 223.333C139.109 223.333 125.08 223.333 110.612 223.333C111.954 225.947 112.849 230.651 111.581 235.207Z" fill="#58595B"/>
<path fill-rule="evenodd" clip-rule="evenodd" d="M109.568 221.018C125.676 220.944 149.916 220.866 160.342 221.018C172.603 221.018 176.886 221.419 178.868 223.4L156.85 221.84C146.796 221.84 124.856 221.84 108.822 221.84C109.046 221.541 109.344 221.317 109.568 221.018Z" fill="#EC5F6B"/>
<path fill-rule="evenodd" clip-rule="evenodd" d="M165.873 248.872C164.531 250.963 164.755 253.502 164.307 255.667H105.093C104.944 255.145 104.795 254.622 104.645 254.099H105.391C105.093 252.68 104.944 251.261 104.645 249.992H103.9C103.825 249.693 103.751 249.469 103.751 249.171L165.873 248.872Z" fill="#58595B"/>
<path fill-rule="evenodd" clip-rule="evenodd" d="M105.69 255.518H170.497C171.84 255.518 172.958 256.115 172.958 256.787C172.958 257.459 171.84 258.057 170.497 258.057H105.69C104.347 258.057 103.229 257.459 103.229 256.787C103.229 256.041 104.347 255.518 105.69 255.518Z" fill="#EC5F6B"/>
<path fill-rule="evenodd" clip-rule="evenodd" d="M103.303 236.177H147.08C148.124 236.177 149.019 237.073 149.019 238.119V244.69C149.019 245.736 148.124 246.632 147.08 246.632H103.303C102.259 246.632 101.364 245.736 101.364 244.69V238.119C101.364 237.073 102.259 236.177 103.303 236.177Z" fill="#E2304D"/>
<path fill-rule="evenodd" clip-rule="evenodd" d="M148.87 245.586C148.571 246.184 147.9 246.632 147.154 246.632H103.303C102.557 246.632 101.886 246.184 101.588 245.586H148.87Z" fill="#D23040"/>
<path fill-rule="evenodd" clip-rule="evenodd" d="M177.731 204.814C182.653 199.886 197.867 192.269 212.409 189.581C227.847 187.564 238.288 188.684 250.295 190.103C243.061 195.256 237.766 201.603 230.457 206.756C213.081 203.097 191.826 203.395 177.731 204.814Z" fill="#EDFEFF"/>
<path fill-rule="evenodd" clip-rule="evenodd" d="M239.034 210.564C239.183 207.652 245.671 198.989 254.247 192.791C255.664 191.746 258.647 190.775 263.048 190.551C275.204 189.954 285.048 190.477 297.204 194.136C301.082 195.33 311.746 210.639 306.526 210.788C288.851 211.087 256.708 210.564 239.034 210.564Z" fill="#82ADB1"/>
<path fill-rule="evenodd" clip-rule="evenodd" d="M239.034 210.564C239.108 208.175 243.434 202.051 249.698 196.451C255.515 200.856 262.824 209.743 258.797 210.639C251.339 210.639 244.478 210.564 239.034 210.564Z" fill="#C0D8DA"/>
<path fill-rule="evenodd" clip-rule="evenodd" d="M264.315 190.477C275.875 189.954 285.495 190.551 297.204 194.136C299.889 194.957 305.78 202.499 307.495 207.129H278.485C275.651 207.129 271.997 204.814 270.505 201.902L264.315 190.477Z" fill="#C0D8DA"/>
<g style="mix-blend-mode:overlay">
<path fill-rule="evenodd" clip-rule="evenodd" d="M265.136 190.476C270.803 190.252 275.949 190.327 281.244 190.85L271.475 210.788C265.956 210.713 260.437 210.713 255.291 210.639L265.136 190.476Z" fill="#ABE1E1"/>
</g>
<g style="mix-blend-mode:overlay">
<path fill-rule="evenodd" clip-rule="evenodd" d="M285.048 191.373C288.627 191.895 292.207 192.717 296.011 193.837L287.658 210.863C283.705 210.863 279.604 210.863 275.502 210.788L285.048 191.373Z" fill="#ABE1E1"/>
</g>
<path fill-rule="evenodd" clip-rule="evenodd" d="M101.364 237.745C113.595 237.745 123.588 237.745 135.819 237.745C151.989 237.745 168.334 237.745 184.592 237.745C184.592 237.969 184.592 238.268 184.592 238.492H135.82H101.364V237.745Z" fill="#EC5F6B"/>
<path fill-rule="evenodd" clip-rule="evenodd" d="M139.622 245.661H182.131L181.013 248.648C164.307 246.258 153.941 247.005 139.622 246.408V245.661Z" fill="#D23040"/>
<path fill-rule="evenodd" clip-rule="evenodd" d="M243.508 202.947L245.82 210.564C243.508 210.564 241.271 210.564 238.959 210.564C239.108 208.921 240.301 206.084 243.508 202.947Z" fill="#576578"/>
<path fill-rule="evenodd" clip-rule="evenodd" d="M245 201.752C248.43 201.752 251.786 201.752 255.217 201.752C257.38 201.752 258.424 207.428 257.23 208.846C256.932 209.145 256.559 209.22 256.112 209.295C253.129 209.817 247.386 210.639 244.701 209.967C240.898 208.996 241.867 205.411 243.806 202.35C244.105 201.976 244.552 201.752 245 201.752Z" fill="#EC5F6B"/>
<path fill-rule="evenodd" clip-rule="evenodd" d="M245 201.752C248.43 201.752 251.786 201.752 255.217 201.752C257.007 201.752 257.976 205.411 257.678 207.577C253.651 208.025 248.654 208.324 245.969 207.801C243.508 207.353 242.539 206.233 242.539 204.963C242.837 204.067 243.284 203.246 243.881 202.35C244.105 201.976 244.552 201.752 245 201.752Z" fill="#E2304D"/>
<path fill-rule="evenodd" clip-rule="evenodd" d="M141.114 239.538L182.877 238.492V239.239L140.219 241.927L141.114 239.538Z" fill="#E2304D"/>
<path fill-rule="evenodd" clip-rule="evenodd" d="M157.073 221.168C166.321 221.168 176.512 220.188 179.223 223.483C193.392 217.882 213.304 216.538 231.352 215.493H347.021C344.188 214.372 343.74 212.207 338.52 212.058C304.214 211.834 257.081 211.61 222.776 211.385C194.362 212.282 171.019 216.015 157.073 221.168Z" fill="#E2304D"/>
<path fill-rule="evenodd" clip-rule="evenodd" d="M111.954 227.814C125.191 227.814 140.658 227.814 149.466 227.814C149.466 228.187 149.466 228.635 149.466 229.008C138.335 229.008 124.894 229.008 111.954 229.008C111.954 228.635 111.954 228.262 111.954 227.814Z" fill="#E2304D"/>
<path fill-rule="evenodd" clip-rule="evenodd" d="M148.721 249.917H158.639C159.311 249.917 159.833 250.44 159.833 251.112V252.904C159.833 253.577 159.311 254.099 158.639 254.099H148.721C148.049 254.099 147.527 253.577 147.527 252.904V251.112C147.602 250.44 148.124 249.917 148.721 249.917Z" fill="#414042"/>
<path fill-rule="evenodd" clip-rule="evenodd" d="M150.361 249.917H158.639C159.236 249.917 159.758 250.366 159.758 250.888V252.456C159.758 252.979 159.236 253.427 158.565 253.427H150.361C149.69 253.427 149.168 252.979 149.168 252.456V250.888C149.243 250.366 149.69 249.917 150.361 249.917Z" fill="#EEE6D4"/>
<path fill-rule="evenodd" clip-rule="evenodd" d="M150.361 249.917H158.639C159.236 249.917 159.758 250.366 159.758 250.888V251.187H149.168V250.888C149.243 250.366 149.69 249.917 150.361 249.917Z" fill="#D2C8AD"/>
<path fill-rule="evenodd" clip-rule="evenodd" d="M103.974 249.917H111.283C111.954 249.917 112.476 250.44 112.476 251.112V252.904C112.476 253.577 111.954 254.099 111.283 254.099H104.72L105.317 253.352C105.913 252.68 104.869 250.739 104.72 249.992L103.974 249.917Z" fill="#414042"/>
<path fill-rule="evenodd" clip-rule="evenodd" d="M104.72 249.917H111.357C111.954 249.917 112.402 250.366 112.402 250.888V252.456C112.402 252.979 111.954 253.427 111.357 253.427H105.242C105.093 252.307 104.944 251.112 104.72 249.917Z" fill="#EEE6D4"/>
<path fill-rule="evenodd" clip-rule="evenodd" d="M104.72 249.917H111.357C111.954 249.917 112.402 250.366 112.402 250.888V251.187H104.944C104.869 250.739 104.795 250.366 104.72 249.917Z" fill="#D2C8AD"/>
<path fill-rule="evenodd" clip-rule="evenodd" d="M111.805 229.979C125.141 229.681 139.076 229.979 147.676 229.979C147.676 230.353 147.676 230.801 147.676 231.174C136.21 231.174 124.548 231.174 111.805 231.174C111.805 230.801 111.805 230.353 111.805 229.979Z" fill="#E2304D"/>
<path fill-rule="evenodd" clip-rule="evenodd" d="M274.831 189.805L277.516 210.863L281.095 210.788L277.366 189.431L274.831 189.805Z" fill="#D23040"/>
<path fill-rule="evenodd" clip-rule="evenodd" d="M275.726 189.282L278.56 211.759L282.065 211.684L278.261 188.908L275.726 189.282Z" fill="#EC5F6B"/>
<path fill-rule="evenodd" clip-rule="evenodd" d="M179.148 225.051C179.521 231.249 171.318 233.713 166.545 234.086C161.25 234.46 156.477 234.534 150.883 234.086C149.914 234.012 148.348 232.892 148.795 231.921C154.911 220.346 178.85 219.824 179.148 225.051Z" fill="#D23040"/>
<path fill-rule="evenodd" clip-rule="evenodd" d="M108.896 221.84C110.612 224.752 111.954 227.814 111.879 231.846C111.879 232.444 111.581 232.966 111.059 233.34C110.537 233.713 109.866 233.937 109.12 233.862C107.032 233.713 105.093 233.862 103.079 234.31C103.229 232.966 103.527 231.697 103.9 230.577C104.944 226.992 106.585 224.155 108.896 221.84Z" fill="#D23040"/>
<path fill-rule="evenodd" clip-rule="evenodd" d="M103.9 230.577C104.869 227.067 106.212 224.677 108.449 222.288C110.015 225.2 110.91 227.814 111.283 231.846C111.507 233.937 109.94 234.758 109.493 234.684C107.33 234.534 105.168 233.937 103.079 234.609C103.229 233.19 103.452 231.771 103.9 230.577Z" fill="#EC5F6B"/>
<path fill-rule="evenodd" clip-rule="evenodd" d="M103.079 234.236C105.168 233.34 106.957 232.966 109.046 233.19C109.568 233.265 110.015 233.116 110.388 232.742C110.761 232.369 110.91 231.995 110.985 231.473C110.985 227.888 110.015 225.275 108.673 222.661C106.062 225.648 104.123 230.278 103.079 234.236Z" fill="#FFFCD5"/>
<path fill-rule="evenodd" clip-rule="evenodd" d="M103.303 232.892C105.391 232.07 107.405 232.219 109.642 232.518C110.164 232.593 110.388 232.518 110.761 232.145C111.134 231.771 110.91 231.174 110.91 230.651C110.985 226.992 109.866 224.901 108.598 222.661C106.137 225.275 104.422 227.814 103.303 232.892Z" fill="#EEE6D4"/>
<path fill-rule="evenodd" clip-rule="evenodd" d="M110.91 229.457C110.463 226.843 109.493 224.304 108.449 222.363C106.883 223.931 105.69 225.723 104.645 228.411C106.659 228.859 108.524 229.233 110.91 229.457Z" fill="#D2C8AD"/>
<path fill-rule="evenodd" clip-rule="evenodd" d="M110.612 227.142C110.91 228.635 110.985 230.278 110.835 231.921C110.537 232.22 110.164 232.444 109.791 232.518C109.418 232.444 109.12 232.444 108.747 232.369C107.629 231.846 106.808 230.278 106.808 228.337C106.808 226.096 107.852 224.304 109.269 224.155C109.791 225.126 110.239 226.096 110.612 227.142Z" fill="white"/>
<path fill-rule="evenodd" clip-rule="evenodd" d="M109.493 225.424C109.642 225.424 109.791 225.424 109.94 225.499C110.164 226.021 110.388 226.619 110.612 227.142C110.761 228.112 110.91 229.158 110.91 230.278C110.537 230.95 110.015 231.323 109.493 231.323C108.449 231.323 107.629 229.979 107.629 228.336C107.629 226.768 108.449 225.424 109.493 225.424Z" fill="#DAD9D4"/>
<path fill-rule="evenodd" clip-rule="evenodd" d="M112.569 237.736L137.618 237.738C138.561 237.733 139.368 238.484 139.398 239.499L139.36 244.718C139.366 245.662 138.546 246.493 137.603 246.498L112.553 246.496C111.61 246.501 110.803 245.75 110.773 244.735L110.811 239.516C110.851 238.477 111.601 237.67 112.569 237.736Z" fill="#EAEEF0"/>
<path fill-rule="evenodd" clip-rule="evenodd" d="M113.186 238.393L136.82 238.404C137.528 238.4 138.144 238.821 138.336 239.387C138.028 239.176 137.673 239.06 137.272 239.039L113.638 239.028C112.765 239.01 111.968 239.675 111.996 240.454L112 244.869C111.978 245.035 112.05 245.247 112.098 245.388C111.766 245.107 111.551 244.707 111.572 244.305L111.568 239.89C111.586 239.016 112.313 238.375 113.186 238.393Z" fill="#B2C7CF"/>
<path fill-rule="evenodd" clip-rule="evenodd" d="M249.251 190.85C242.539 195.853 237.467 201.827 230.532 206.681C213.081 203.097 191.826 203.395 177.731 204.739C194.138 195.106 229.413 188.386 249.251 190.85Z" fill="#ADE3E3"/>
<path fill-rule="evenodd" clip-rule="evenodd" d="M230.532 206.681C230.233 206.606 230.01 206.606 229.711 206.531L228.891 206.382C228.369 206.307 227.772 206.158 227.25 206.083H227.176L226.355 205.934H226.281L225.461 205.785C224.938 205.71 224.491 205.635 223.969 205.561H223.82H223.745H223.596C223.074 205.486 222.552 205.411 222.03 205.337L221.284 205.262L220.538 205.187H220.464L219.867 205.113L219.494 205.038L218.749 204.963H218.674C218.152 204.889 217.555 204.814 217.033 204.814H216.959L216.437 204.739H216.064L215.542 204.665H215.243L214.647 204.59H214.423L213.603 204.515C212.782 204.441 211.962 204.366 211.142 204.366H210.918H210.321H210.098H209.874H209.725H209.054H208.681H208.159H207.86H207.338H206.592H206.518H205.921H205.548H204.952H204.728H204.206H203.833H203.087H202.714H202.565H201.894H201.745H201.074H200.85H200.253H199.881H199.284H199.135H198.464H198.091H197.643H197.27H196.897C196.375 204.366 195.853 204.366 195.331 204.366H194.511C193.691 204.366 192.945 204.366 192.199 204.441H192.05C191.528 204.441 191.08 204.441 190.558 204.515H190.484C189.962 204.515 189.44 204.515 188.992 204.59C185.04 204.739 181.385 205.038 178.104 205.337C186.531 201.454 200.104 197.571 213.155 195.48C225.237 194.136 235.678 193.912 245.373 194.36C240.525 198.093 236.125 202.723 230.532 206.681Z" fill="#9AC7C7"/>
<path fill-rule="evenodd" clip-rule="evenodd" d="M302.797 256.265L223.745 256.041L223.522 253.651L303.021 253.352L302.797 256.265Z" fill="#E2304D"/>
<path fill-rule="evenodd" clip-rule="evenodd" d="M239.034 210.564C242.017 224.603 242.315 244.615 238.735 257.982C251.712 257.982 262.376 257.982 275.353 257.982C280.722 249.096 285.197 239.015 286.017 225.051C286.539 218.853 282.363 213.775 278.261 210.713L239.034 210.564Z" fill="#D23040"/>
<path fill-rule="evenodd" clip-rule="evenodd" d="M239.705 210.713C242.837 223.707 243.508 243.719 239.481 257.982C252.085 257.982 261.705 257.982 274.309 257.982C278.336 243.57 286.017 216.015 277.59 210.863L239.705 210.713Z" fill="#EC5F6B"/>
<path fill-rule="evenodd" clip-rule="evenodd" d="M240.674 215.492H281.99C280.946 214.074 279.827 212.879 278.559 211.833L239.854 211.46C240.078 212.58 240.376 213.999 240.674 215.492Z" fill="#6EB8C0"/>
<path fill-rule="evenodd" clip-rule="evenodd" d="M278.336 210.639C285.943 219.6 279.007 242.375 274.309 257.982H303.319C301.679 242.151 308.167 230.427 316.072 224.901C316.594 218.853 312.567 213.85 308.614 210.788L278.336 210.639Z" fill="#D23040"/>
<path fill-rule="evenodd" clip-rule="evenodd" d="M278.634 210.863C286.539 217.359 280.275 242.301 275.353 257.982H302.424C300.784 242.151 307.123 230.427 315.103 224.902C315.625 218.853 311.597 213.85 307.645 210.788H278.634V210.863Z" fill="#EC5F6B"/>
<path fill-rule="evenodd" clip-rule="evenodd" d="M222.196 224.436C235.818 224.436 246.949 224.436 260.571 224.436C278.581 224.436 296.785 224.436 314.894 224.436C314.894 224.66 312.872 226.58 312.872 226.804L260.572 225.183H222.196V224.436Z" fill="#E2304D"/>
<path fill-rule="evenodd" clip-rule="evenodd" d="M278.336 219.749L278.485 220.346C278.783 221.467 278.037 222.363 276.993 222.363H273.414C272.295 222.363 271.176 221.467 270.953 220.346L270.803 219.749H278.336Z" fill="#D23040"/>
<path fill-rule="evenodd" clip-rule="evenodd" d="M269.312 218.106H278.261C278.485 218.106 278.783 218.33 278.783 218.554L279.007 219.375C279.082 219.6 278.932 219.824 278.709 219.824H269.759C269.536 219.824 269.237 219.6 269.237 219.375L269.014 218.554C268.939 218.255 269.088 218.106 269.312 218.106Z" fill="#E2304D"/>
<path fill-rule="evenodd" clip-rule="evenodd" d="M310.628 219.749L310.777 220.346C311.075 221.467 310.329 222.363 309.285 222.363H305.706C304.587 222.363 303.468 221.467 303.245 220.346L303.095 219.749H310.628Z" fill="#D23040"/>
<path fill-rule="evenodd" clip-rule="evenodd" d="M301.604 218.106H310.553C310.777 218.106 311.075 218.33 311.075 218.554L311.299 219.375C311.374 219.6 311.224 219.824 311.001 219.824H302.051C301.828 219.824 301.529 219.6 301.529 219.375L301.306 218.554C301.231 218.255 301.38 218.106 301.604 218.106Z" fill="#E2304D"/>
<path fill-rule="evenodd" clip-rule="evenodd" d="M281.468 215.492H312.194C311.224 214.148 310.031 212.879 308.838 211.833C299.292 211.759 289.373 211.759 279.529 211.684C280.349 212.655 281.021 213.924 281.468 215.492Z" fill="#E2304D"/>
<path fill-rule="evenodd" clip-rule="evenodd" d="M240.674 215.492H280.797C280.499 213.7 279.678 212.655 278.56 211.684C265.285 211.609 252.085 211.535 239.854 211.46C240.152 212.729 240.451 214.074 240.674 215.492Z" fill="#E2304D"/>
<path fill-rule="evenodd" clip-rule="evenodd" d="M302.275 256.265L275.875 256.19C276.173 255.294 276.397 254.398 276.695 253.427L302.126 253.352C302.201 254.323 302.201 255.294 302.275 256.265Z" fill="#E2304D"/>
<path fill-rule="evenodd" clip-rule="evenodd" d="M274.756 256.19L239.929 256.115C240.152 255.294 240.301 254.473 240.525 253.577L275.576 253.427C275.278 254.398 274.98 255.294 274.756 256.19Z" fill="#E2304D"/>
<path fill-rule="evenodd" clip-rule="evenodd" d="M342.249 239.314H349.333C352.466 239.911 353.584 240.957 353.883 241.853L343.143 242.823L342.249 239.314Z" fill="#E2304D"/>
<path fill-rule="evenodd" clip-rule="evenodd" d="M179.148 224.902C179.446 230.801 171.616 233.19 167.067 233.489C161.995 233.863 157.446 233.937 152.077 233.489C151.107 233.415 149.616 232.294 150.138 231.398C155.955 220.346 178.85 219.898 179.148 224.902Z" fill="#58595B"/>
<path fill-rule="evenodd" clip-rule="evenodd" d="M179.459 224.77C179.812 230.64 171.918 233.012 167.355 233.409C162.291 233.818 157.689 233.949 152.275 233.53C151.307 233.483 149.75 232.414 150.265 231.502C156.014 220.426 179.124 219.735 179.459 224.77Z" fill="#FFFCD5"/>
<path fill-rule="evenodd" clip-rule="evenodd" d="M179.457 224.769C179.509 225.703 179.359 226.541 179.042 227.383C176.804 230.536 171.494 231.985 167.995 232.226C162.932 232.634 158.33 232.766 152.916 232.346C152.047 232.265 150.593 231.327 150.842 230.454C157.445 220.362 179.124 219.901 179.457 224.769Z" fill="#EEE6D4"/>
<path fill-rule="evenodd" clip-rule="evenodd" d="M179.459 224.771C179.466 225.105 179.472 225.439 179.447 225.84C175.216 227.8 169.101 229.032 162.228 229.078C158.826 229.117 155.583 228.818 152.67 228.346C160.751 220.36 179.169 220.336 179.459 224.771Z" fill="#D2C8AD"/>
<path fill-rule="evenodd" clip-rule="evenodd" d="M179.459 224.771C179.72 229.441 174.764 231.884 170.413 232.878C170.966 230.495 171.983 228.002 173.302 225.57C173.977 224.32 174.788 223.134 175.601 222.115C177.847 222.601 179.4 223.503 179.459 224.771Z" fill="#FBD55B"/>
<path fill-rule="evenodd" clip-rule="evenodd" d="M179.459 224.771C179.511 225.705 179.361 226.543 179.045 227.385C177.325 229.792 173.85 231.202 170.727 231.869C171.286 229.82 172.178 227.764 173.337 225.669C174.013 224.419 174.823 223.233 175.637 222.214C177.847 222.601 179.4 223.503 179.459 224.771Z" fill="#F58220"/>
<path fill-rule="evenodd" clip-rule="evenodd" d="M179.459 224.771C179.466 225.105 179.472 225.439 179.447 225.84C177.363 226.752 174.911 227.573 172.118 228.066C172.502 227.257 172.886 226.447 173.369 225.602C174.045 224.352 174.855 223.166 175.669 222.147C177.847 222.601 179.4 223.503 179.459 224.771Z" fill="#D7662C"/>
<path fill-rule="evenodd" clip-rule="evenodd" d="M165.023 223.709C166.591 223.709 167.866 225.719 167.917 228.222C167.9 230.694 166.674 232.757 165.105 232.757C163.537 232.757 162.262 230.747 162.211 228.243C162.228 225.772 163.454 223.709 165.023 223.709Z" fill="white"/>
<path fill-rule="evenodd" clip-rule="evenodd" d="M165.05 225.044C166.118 225.055 167.113 226.436 167.083 228.24C167.085 229.977 166.214 231.464 165.078 231.422C164.01 231.411 163.015 230.03 163.045 228.226C163.075 226.422 163.982 225.033 165.05 225.044Z" fill="#DAD9D4"/>
<path d="M175.697 220.68C175.697 220.68 172.212 220.536 172.002 220.369C171.792 220.202 170.864 216.844 170.864 216.844C170.864 216.844 170.721 220.384 170.557 220.598C170.393 220.811 167.087 221.754 167.087 221.754C167.087 221.754 170.519 221.857 170.724 221.976C170.934 222.143 171.921 225.59 171.921 225.59C171.921 225.59 172.063 222.05 172.227 221.837C172.344 221.629 175.697 220.68 175.697 220.68Z" fill="#F6F6F5"/>
<path d="M173.025 231.966C173.025 231.966 174.208 230.678 174.34 230.652C174.472 230.625 176.059 231.357 176.059 231.357C176.059 231.357 174.749 230.156 174.72 230.024C174.692 229.892 175.401 228.321 175.401 228.321C175.401 228.321 174.25 229.602 174.138 229.642C174.006 229.668 172.367 228.93 172.367 228.93C172.367 228.93 173.676 230.131 173.705 230.263C173.747 230.375 173.025 231.966 173.025 231.966Z" fill="#F6F6F5"/>
<g style="mix-blend-mode:soft-light" opacity="0.65">
<path fill-rule="evenodd" clip-rule="evenodd" d="M301.745 250.952L225.984 250.776V250.068L301.745 245.27V250.952Z" fill="white"/>
</g>
<defs>
<linearGradient id="paint0_linear_54920_511330" x1="291.052" y1="19.3556" x2="227.152" y2="382.166" gradientUnits="userSpaceOnUse">
<stop stop-color="#68DFFA" stop-opacity="0"/>
<stop offset="0.854173" stop-color="#AAFFFA"/>
</linearGradient>
<linearGradient id="paint1_linear_54920_511330" x1="360.209" y1="97.564" x2="360.209" y2="212.749" gradientUnits="userSpaceOnUse">
<stop stop-color="#9BC0C2"/>
<stop offset="1" stop-color="#D8DEEB"/>
</linearGradient>
<linearGradient id="paint2_linear_54920_511330" x1="306.651" y1="128.741" x2="306.651" y2="203.618" gradientUnits="userSpaceOnUse">
<stop stop-color="#D8DEEB"/>
<stop offset="1" stop-color="#9BC0C2"/>
</linearGradient>
<linearGradient id="paint3_linear_54920_511330" x1="296.693" y1="233.653" x2="296.693" y2="354.797" gradientUnits="userSpaceOnUse">
<stop stop-color="#A7AFBE"/>
<stop offset="0.8125" stop-color="#C4CDDF"/>
</linearGradient>
<linearGradient id="paint4_linear_54920_511330" x1="287.67" y1="246.315" x2="287.67" y2="316.502" gradientUnits="userSpaceOnUse">
<stop stop-color="#797E94"/>
<stop offset="0.729167" stop-color="#797E94" stop-opacity="0"/>
</linearGradient>
</defs>
</svg>
