<svg width="16" height="16" viewBox="0 0 16 16" fill="none" xmlns="http://www.w3.org/2000/svg">
<circle cx="8" cy="8" r="8" fill="#FFA438"/>
<path fill-rule="evenodd" clip-rule="evenodd" d="M7.01758 8.53081C7.01758 9.0831 7.46529 9.53081 8.01758 9.53081C8.56986 9.53081 9.01758 9.0831 9.01758 8.53082L9.01758 4.30859C9.01758 3.75631 8.56986 3.30859 8.01758 3.30859C7.46529 3.30859 7.01758 3.75631 7.01758 4.30859V8.53081ZM8.01758 12.8642C8.56986 12.8642 9.01758 12.4165 9.01758 11.8642C9.01758 11.3119 8.56986 10.8642 8.01758 10.8642C7.46529 10.8642 7.01758 11.3119 7.01758 11.8642C7.01758 12.4165 7.46529 12.8642 8.01758 12.8642Z" fill="white"/>
</svg>
