<svg width="22" height="17" viewBox="0 0 22 17" fill="none" xmlns="http://www.w3.org/2000/svg">
<path d="M11 11.1009C11 11.5731 10.8675 11.966 10.6025 12.2796C10.3376 12.5932 10.0117 12.75 9.625 12.75H4.125C3.73828 12.75 3.41243 12.5932 3.14746 12.2796C2.88249 11.966 2.75 11.5731 2.75 11.1009C2.75 10.6287 2.78223 10.1952 2.84668 9.80046C2.91113 9.40571 3.01676 9.02572 3.16357 8.66048C3.31038 8.29525 3.52702 8.00749 3.81348 7.7972C4.09994 7.58691 4.44727 7.48177 4.85547 7.48177C4.89844 7.51128 5.00586 7.57769 5.17773 7.68099C5.34961 7.78429 5.48389 7.86361 5.58057 7.91895C5.67725 7.97428 5.80436 8.03885 5.96191 8.11263C6.11947 8.18641 6.27344 8.23991 6.42383 8.27311C6.57422 8.30631 6.72461 8.32292 6.875 8.32292C7.02539 8.32292 7.17578 8.30631 7.32617 8.27311C7.47656 8.23991 7.63053 8.18641 7.78809 8.11263C7.94564 8.03885 8.07275 7.97428 8.16943 7.91895C8.26611 7.86361 8.40039 7.78429 8.57227 7.68099C8.74414 7.57769 8.85156 7.51128 8.89453 7.48177C9.30273 7.48177 9.65007 7.58691 9.93652 7.7972C10.223 8.00749 10.4396 8.29525 10.5864 8.66048C10.7332 9.02572 10.8389 9.40571 10.9033 9.80046C10.9678 10.1952 11 10.6287 11 11.1009ZM9.31348 5.3457C9.31348 6.03928 9.07536 6.6314 8.59912 7.12207C8.12288 7.61274 7.54818 7.85807 6.875 7.85807C6.20182 7.85807 5.62712 7.61274 5.15088 7.12207C4.67464 6.6314 4.43652 6.03928 4.43652 5.3457C4.43652 4.65213 4.67464 4.06 5.15088 3.56934C5.62712 3.07867 6.20182 2.83333 6.875 2.83333C7.54818 2.83333 8.12288 3.07867 8.59912 3.56934C9.07536 4.06 9.31348 4.65213 9.31348 5.3457ZM19.25 10.2708V10.9792C19.25 11.0825 19.2178 11.1673 19.1533 11.2337C19.0889 11.3001 19.0065 11.3333 18.9062 11.3333H12.7188C12.6185 11.3333 12.5361 11.3001 12.4717 11.2337C12.4072 11.1673 12.375 11.0825 12.375 10.9792V10.2708C12.375 10.1675 12.4072 10.0827 12.4717 10.0163C12.5361 9.94987 12.6185 9.91667 12.7188 9.91667H18.9062C19.0065 9.91667 19.0889 9.94987 19.1533 10.0163C19.2178 10.0827 19.25 10.1675 19.25 10.2708ZM19.25 7.48177V8.10156C19.25 8.21224 19.2124 8.30631 19.1372 8.38379C19.062 8.46126 18.9707 8.5 18.8633 8.5H12.7617C12.6543 8.5 12.563 8.46126 12.4878 8.38379C12.4126 8.30631 12.375 8.21224 12.375 8.10156V7.48177C12.375 7.37109 12.4126 7.27702 12.4878 7.19954C12.563 7.12207 12.6543 7.08333 12.7617 7.08333H18.8633C18.9707 7.08333 19.062 7.12207 19.1372 7.19954C19.2124 7.27702 19.25 7.37109 19.25 7.48177ZM19.25 4.60417V5.3125C19.25 5.4158 19.2178 5.50065 19.1533 5.56706C19.0889 5.63346 19.0065 5.66667 18.9062 5.66667H12.7188C12.6185 5.66667 12.5361 5.63346 12.4717 5.56706C12.4072 5.50065 12.375 5.4158 12.375 5.3125V4.60417C12.375 4.50087 12.4072 4.41602 12.4717 4.34961C12.5361 4.2832 12.6185 4.25 12.7188 4.25H18.9062C19.0065 4.25 19.0889 4.2832 19.1533 4.34961C19.2178 4.41602 19.25 4.50087 19.25 4.60417ZM20.625 15.2292V1.77083C20.625 1.67491 20.591 1.59191 20.5229 1.52181C20.4549 1.45171 20.3743 1.41667 20.2812 1.41667H1.71875C1.62565 1.41667 1.54508 1.45171 1.47705 1.52181C1.40902 1.59191 1.375 1.67491 1.375 1.77083V15.2292C1.375 15.3251 1.40902 15.4081 1.47705 15.4782C1.54508 15.5483 1.62565 15.5833 1.71875 15.5833H5.5V14.5208C5.5 14.4175 5.53223 14.3327 5.59668 14.2663C5.66113 14.1999 5.74349 14.1667 5.84375 14.1667H6.53125C6.63151 14.1667 6.71387 14.1999 6.77832 14.2663C6.84277 14.3327 6.875 14.4175 6.875 14.5208V15.5833H15.125V14.5208C15.125 14.4175 15.1572 14.3327 15.2217 14.2663C15.2861 14.1999 15.3685 14.1667 15.4688 14.1667H16.1562C16.2565 14.1667 16.3389 14.1999 16.4033 14.2663C16.4678 14.3327 16.5 14.4175 16.5 14.5208V15.5833H20.2812C20.3743 15.5833 20.4549 15.5483 20.5229 15.4782C20.591 15.4081 20.625 15.3251 20.625 15.2292ZM22 1.77083V15.2292C22 15.7161 21.8317 16.133 21.4951 16.4798C21.1585 16.8266 20.7539 17 20.2812 17H1.71875C1.24609 17 0.841471 16.8266 0.504883 16.4798C0.168294 16.133 0 15.7161 0 15.2292V1.77083C0 1.28385 0.168294 0.86697 0.504883 0.520182C0.841471 0.173394 1.24609 0 1.71875 0H20.2812C20.7539 0 21.1585 0.173394 21.4951 0.520182C21.8317 0.86697 22 1.28385 22 1.77083Z" fill="#606483"/>
</svg>
